<svg width="500" height="500" viewBox="0 0 500 500" fill="none" xmlns="http://www.w3.org/2000/svg">
<g clip-path="url(#clip0_605_8639)">
<g filter="url(#filter0_f_605_8639)">
<path d="M250 400C332.843 400 400 332.843 400 250C400 167.157 332.843 100 250 100C167.158 100 100 167.157 100 250C100 332.843 167.158 400 250 400Z" fill="url(#paint0_radial_605_8639)"/>
</g>
<path d="M231.665 243.495H85V252.757V270.511C85 275.627 88.9711 279.774 93.8698 279.774H231.665H406.13C411.029 279.774 415 275.627 415 270.511V252.757V243.495H231.665Z" fill="#FFCD00"/>
<path d="M231.665 207.211H93.8698C88.9711 207.211 85 211.358 85 216.473V234.227V243.489H231.665H415V234.227V216.473C415 211.358 411.029 207.211 406.13 207.211H231.665Z" fill="#FFD812"/>
<path d="M231.665 239.828H85V243.495H231.665H415V239.828H231.665Z" fill="#FFCD00"/>
<path d="M231.665 239.828H85V243.495H231.665H415V239.828H231.665Z" fill="black" fill-opacity="0.2"/>
<path d="M231.665 279.772H103.48L111.613 360.055H231.665H388.387L396.52 279.772H231.665Z" fill="#5F4B34"/>
<path d="M231.665 167.809H135.271V207.211H231.665H364.729V167.809H231.665Z" fill="#5F4B34"/>
<path d="M231.665 167.809H135.271V171.475H231.665H364.729V167.809H231.665Z" fill="#8E704E"/>
<path d="M231.665 128.406H135.271V167.809H231.665H364.729V128.406H231.665Z" fill="#5F4B34"/>
<path d="M231.665 164.142H135.271V167.808H231.665H364.729V164.142H231.665Z" fill="#2F251A"/>
<path d="M227.199 324.291H107.99L108.456 327.958H227.199H391.544L392.01 324.291H227.199Z" fill="#8E704E"/>
<path d="M227.198 320.625H107.62L107.99 324.292H227.198H392.01L392.453 320.625H227.198Z" fill="#2F251A"/>
<path d="M231.665 103H135.271V128.407H231.665H364.729V103H231.665Z" fill="#5F4B34"/>
<path d="M231.665 128.406H135.271V132.073H231.665H364.729V128.406H231.665Z" fill="#8E704E"/>
<path d="M231.665 124.738H135.271V128.405H231.665H364.729V124.738H231.665Z" fill="#2F251A"/>
<path d="M102.354 210.878C103.022 196.494 105.75 144.991 111.803 118.481C114.014 108.808 120.604 106.934 121.865 106.663H151.866C149.93 109.142 148.225 112.445 147.22 116.849C140.895 144.522 138.207 196.732 137.573 210.878H102.354Z" fill="#FFCD00"/>
<path d="M145.497 110.333C144.753 112.049 144.122 113.945 143.645 116.035C137.701 142.054 134.944 189.303 134.075 207.215H106.201C107.103 189.179 109.834 143.565 115.375 119.302C116.937 112.46 120.992 110.726 122.32 110.337H145.497M164.102 103H121.535C121.535 103 111.264 104.371 108.228 117.667C101.02 149.219 98.5264 214.545 98.5264 214.545H141.09C141.09 214.545 143.587 149.219 150.792 117.667C153.831 104.371 164.102 103 164.102 103Z" fill="#FFD812"/>
<path d="M362.427 210.878C361.792 196.732 359.104 144.522 352.779 116.849C351.778 112.445 350.073 109.142 348.134 106.663H378.149C379.315 106.912 385.974 108.749 388.2 118.481C394.254 144.991 396.982 196.494 397.645 210.878H362.427Z" fill="#FFCD00"/>
<path d="M377.677 110.333C379.004 110.726 383.059 112.456 384.621 119.299C390.162 143.55 392.897 189.175 393.796 207.212H365.921C365.052 189.3 362.295 142.05 356.351 116.031C355.874 113.941 355.244 112.046 354.499 110.33L377.677 110.333ZM378.465 103H335.902C335.902 103 346.172 104.371 349.208 117.667C356.417 149.219 358.91 214.545 358.91 214.545H401.477C401.477 214.545 398.984 149.219 391.775 117.667C388.735 104.371 378.465 103 378.465 103Z" fill="#FFD812"/>
<path d="M249.998 294.829C278.349 294.829 301.332 271.846 301.332 243.495C301.332 215.144 278.349 192.161 249.998 192.161C221.647 192.161 198.664 215.144 198.664 243.495C198.664 271.846 221.647 294.829 249.998 294.829Z" fill="#FFCD00"/>
<path d="M250.002 195.828C276.285 195.828 297.669 217.212 297.669 243.495C297.669 269.778 276.285 291.162 250.002 291.162C223.719 291.162 202.335 269.778 202.335 243.495C202.335 217.208 223.715 195.828 250.002 195.828ZM250.002 188.494C219.627 188.494 195.001 213.12 195.001 243.495C195.001 273.87 219.627 298.495 250.002 298.495C280.377 298.495 305.002 273.87 305.002 243.495C305.002 213.116 280.377 188.494 250.002 188.494Z" fill="#FFD812"/>
<path d="M202.426 245.329C203.402 219.896 224.335 199.495 250.002 199.495C275.665 199.495 296.602 219.896 297.577 245.329C297.599 244.716 297.669 244.115 297.669 243.495C297.669 217.212 276.285 195.828 250.002 195.828C223.719 195.828 202.335 217.212 202.335 243.495C202.335 244.111 202.404 244.713 202.426 245.329Z" fill="#FFCD00"/>
<path d="M202.426 245.329C203.402 219.896 224.335 199.495 250.002 199.495C275.665 199.495 296.602 219.896 297.577 245.329C297.599 244.716 297.669 244.115 297.669 243.495C297.669 217.212 276.285 195.828 250.002 195.828C223.719 195.828 202.335 217.212 202.335 243.495C202.335 244.111 202.404 244.713 202.426 245.329Z" fill="black" fill-opacity="0.2"/>
<path d="M213.335 250.828C217.385 250.828 220.668 247.545 220.668 243.495C220.668 239.444 217.385 236.161 213.335 236.161C209.285 236.161 206.001 239.444 206.001 243.495C206.001 247.545 209.285 250.828 213.335 250.828Z" fill="#FFD812"/>
<path d="M286.669 250.828C290.719 250.828 294.002 247.545 294.002 243.495C294.002 239.444 290.719 236.161 286.669 236.161C282.619 236.161 279.335 239.444 279.335 243.495C279.335 247.545 282.619 250.828 286.669 250.828Z" fill="#FFD812"/>
<path d="M213.335 236.162C209.283 236.162 206.001 239.444 206.001 243.496C206.001 244.134 206.108 244.739 206.262 245.329C207.079 242.172 209.921 239.829 213.335 239.829C216.748 239.829 219.59 242.172 220.408 245.329C220.562 244.739 220.668 244.134 220.668 243.496C220.668 239.444 217.383 236.162 213.335 236.162Z" fill="#FFCD00"/>
<path d="M213.335 236.162C209.283 236.162 206.001 239.444 206.001 243.496C206.001 244.134 206.108 244.739 206.262 245.329C207.079 242.172 209.921 239.829 213.335 239.829C216.748 239.829 219.59 242.172 220.408 245.329C220.562 244.739 220.668 244.134 220.668 243.496C220.668 239.444 217.383 236.162 213.335 236.162Z" fill="black" fill-opacity="0.2"/>
<path d="M286.669 236.162C282.617 236.162 279.336 239.444 279.336 243.496C279.336 244.134 279.442 244.739 279.596 245.329C280.414 242.172 283.255 239.829 286.669 239.829C290.083 239.829 292.924 242.172 293.742 245.329C293.896 244.739 294.002 244.134 294.002 243.496C294.002 239.444 290.717 236.162 286.669 236.162Z" fill="#FFCD00"/>
<path d="M286.669 236.162C282.617 236.162 279.336 239.444 279.336 243.496C279.336 244.134 279.442 244.739 279.596 245.329C280.414 242.172 283.255 239.829 286.669 239.829C290.083 239.829 292.924 242.172 293.742 245.329C293.896 244.739 294.002 244.134 294.002 243.496C294.002 239.444 290.717 236.162 286.669 236.162Z" fill="black" fill-opacity="0.2"/>
<path d="M208.737 283.439C218.817 294.894 233.542 302.158 250.002 302.158C266.458 302.158 281.187 294.894 291.267 283.439H396.15L396.52 279.772H291.263C281.184 291.227 266.458 298.491 249.998 298.491C233.542 298.491 218.813 291.224 208.733 279.772H103.477L103.847 283.439H208.737Z" fill="#2F251A"/>
<path d="M266.322 264.128L258.45 244.446C262.814 241.358 265.439 235.972 264.467 230.028C263.437 223.725 258.135 218.68 251.791 217.928C242.892 216.872 235.335 223.798 235.335 232.488C235.335 237.435 237.803 241.787 241.554 244.446L233.682 264.128C232.717 266.538 234.492 269.156 237.084 269.156H262.92C265.512 269.159 267.287 266.538 266.322 264.128Z" fill="#160D00"/>
<path d="M112.354 392.669C109.486 392.669 107.151 390.157 107.151 387.073V369.319C107.151 366.232 109.486 363.724 112.354 363.724H387.65C390.518 363.724 392.853 366.235 392.853 369.319V387.073C392.853 390.161 390.518 392.669 387.65 392.669H112.354Z" fill="#FFCD00"/>
<path d="M387.646 367.39C388.479 367.39 389.183 368.274 389.183 369.319V387.073C389.183 388.118 388.479 389.002 387.646 389.002H231.665H112.354C111.521 389.002 110.817 388.118 110.817 387.073V369.319C110.817 368.274 111.521 367.39 112.354 367.39H231.665H387.646ZM387.646 360.057H231.665H112.354C107.455 360.057 103.484 364.204 103.484 369.319V387.073C103.484 392.188 107.455 396.335 112.354 396.335H231.665H387.646C392.545 396.335 396.516 392.188 396.516 387.073V369.319C396.52 364.204 392.549 360.057 387.646 360.057Z" fill="#FFD812"/>
<g opacity="0.6" filter="url(#filter1_f_605_8639)">
<path d="M108 420C121.807 420 133 408.807 133 395C133 381.193 121.807 370 108 370C94.1929 370 83 381.193 83 395C83 408.807 94.1929 420 108 420Z" fill="url(#paint1_radial_605_8639)"/>
</g>
<g opacity="0.6" filter="url(#filter2_f_605_8639)">
<path d="M233 105C233 111.628 227.628 117 221 117C214.372 117 209 111.628 209 105C209 98.3722 214.372 93 221 93C227.628 93 233 98.3722 233 105Z" fill="url(#paint2_radial_605_8639)"/>
</g>
<g opacity="0.6" filter="url(#filter3_f_605_8639)">
<path d="M419 122C419 132.494 410.495 141 400 141C389.506 141 381 132.491 381 122C381 111.509 389.506 103 400 103C410.495 103 419 111.506 419 122Z" fill="url(#paint3_radial_605_8639)"/>
</g>
<g filter="url(#filter4_f_605_8639)">
<path d="M105.461 393.606C107.451 391.705 107.577 382 107.577 382C107.577 382 107.863 392.212 109.126 393.301C110.353 394.357 117.697 395.77 117.697 395.77C117.697 395.77 110.69 396.042 109.384 397.22C108.48 398.036 107.577 408 107.577 408C107.577 408 106.861 399.13 105.499 397.853C104.146 396.586 98 395.77 98 395.77C98 395.77 103.931 395.07 105.461 393.606Z" fill="url(#paint4_linear_605_8639)"/>
</g>
<g filter="url(#filter5_f_605_8639)">
<path d="M397.739 120.928C399.27 119.466 399.367 112 399.367 112C399.367 112 399.587 119.856 400.559 120.693C401.502 121.505 407.152 122.592 407.152 122.592C407.152 122.592 401.761 122.801 400.757 123.708C400.062 124.336 399.367 132 399.367 132C399.367 132 398.816 125.177 397.768 124.195C396.728 123.22 392 122.592 392 122.592C392 122.592 396.562 122.054 397.739 120.928Z" fill="url(#paint5_linear_605_8639)"/>
</g>
<g filter="url(#filter6_f_605_8639)">
<path d="M219.305 104.696C220.452 103.599 220.525 98 220.525 98C220.525 98 220.69 103.892 221.419 104.52C222.127 105.129 226.364 105.944 226.364 105.944C226.364 105.944 222.321 106.101 221.568 106.781C221.046 107.252 220.525 113 220.525 113C220.525 113 220.112 107.883 219.326 107.146C218.546 106.415 215 105.944 215 105.944C215 105.944 218.421 105.541 219.305 104.696Z" fill="url(#paint6_linear_605_8639)"/>
</g>
</g>
<defs>
<filter id="filter0_f_605_8639" x="-20" y="-20" width="540" height="540" filterUnits="userSpaceOnUse" color-interpolation-filters="sRGB">
<feFlood flood-opacity="0" result="BackgroundImageFix"/>
<feBlend mode="normal" in="SourceGraphic" in2="BackgroundImageFix" result="shape"/>
<feGaussianBlur stdDeviation="60" result="effect1_foregroundBlur_605_8639"/>
</filter>
<filter id="filter1_f_605_8639" x="48" y="335" width="120" height="120" filterUnits="userSpaceOnUse" color-interpolation-filters="sRGB">
<feFlood flood-opacity="0" result="BackgroundImageFix"/>
<feBlend mode="normal" in="SourceGraphic" in2="BackgroundImageFix" result="shape"/>
<feGaussianBlur stdDeviation="17.5" result="effect1_foregroundBlur_605_8639"/>
</filter>
<filter id="filter2_f_605_8639" x="185" y="69" width="72" height="72" filterUnits="userSpaceOnUse" color-interpolation-filters="sRGB">
<feFlood flood-opacity="0" result="BackgroundImageFix"/>
<feBlend mode="normal" in="SourceGraphic" in2="BackgroundImageFix" result="shape"/>
<feGaussianBlur stdDeviation="12" result="effect1_foregroundBlur_605_8639"/>
</filter>
<filter id="filter3_f_605_8639" x="355" y="77" width="90" height="90" filterUnits="userSpaceOnUse" color-interpolation-filters="sRGB">
<feFlood flood-opacity="0" result="BackgroundImageFix"/>
<feBlend mode="normal" in="SourceGraphic" in2="BackgroundImageFix" result="shape"/>
<feGaussianBlur stdDeviation="13" result="effect1_foregroundBlur_605_8639"/>
</filter>
<filter id="filter4_f_605_8639" x="95" y="379" width="25.697" height="32" filterUnits="userSpaceOnUse" color-interpolation-filters="sRGB">
<feFlood flood-opacity="0" result="BackgroundImageFix"/>
<feBlend mode="normal" in="SourceGraphic" in2="BackgroundImageFix" result="shape"/>
<feGaussianBlur stdDeviation="1.5" result="effect1_foregroundBlur_605_8639"/>
</filter>
<filter id="filter5_f_605_8639" x="389" y="109" width="21.1515" height="26" filterUnits="userSpaceOnUse" color-interpolation-filters="sRGB">
<feFlood flood-opacity="0" result="BackgroundImageFix"/>
<feBlend mode="normal" in="SourceGraphic" in2="BackgroundImageFix" result="shape"/>
<feGaussianBlur stdDeviation="1.5" result="effect1_foregroundBlur_605_8639"/>
</filter>
<filter id="filter6_f_605_8639" x="212" y="95" width="17.3636" height="21" filterUnits="userSpaceOnUse" color-interpolation-filters="sRGB">
<feFlood flood-opacity="0" result="BackgroundImageFix"/>
<feBlend mode="normal" in="SourceGraphic" in2="BackgroundImageFix" result="shape"/>
<feGaussianBlur stdDeviation="1.5" result="effect1_foregroundBlur_605_8639"/>
</filter>
<radialGradient id="paint0_radial_605_8639" cx="0" cy="0" r="1" gradientUnits="userSpaceOnUse" gradientTransform="translate(250 250.004) scale(150.003)">
<stop stop-color="#882785"/>
<stop offset="1" stop-color="#1D081D"/>
</radialGradient>
<radialGradient id="paint1_radial_605_8639" cx="0" cy="0" r="1" gradientUnits="userSpaceOnUse" gradientTransform="translate(107.999 394.999) scale(25.0016)">
<stop stop-color="#882785"/>
<stop offset="1"/>
</radialGradient>
<radialGradient id="paint2_radial_605_8639" cx="0" cy="0" r="1" gradientUnits="userSpaceOnUse" gradientTransform="translate(221.001 105) scale(11.9997)">
<stop stop-color="#882785"/>
<stop offset="1"/>
</radialGradient>
<radialGradient id="paint3_radial_605_8639" cx="0" cy="0" r="1" gradientUnits="userSpaceOnUse" gradientTransform="translate(400 122.001) scale(19.0013)">
<stop stop-color="#882785"/>
<stop offset="1"/>
</radialGradient>
<linearGradient id="paint4_linear_605_8639" x1="126.87" y1="394.998" x2="102.756" y2="394.998" gradientUnits="userSpaceOnUse">
<stop stop-color="#655ED6"/>
<stop offset="1" stop-color="white"/>
</linearGradient>
<linearGradient id="paint5_linear_605_8639" x1="414.208" y1="121.999" x2="395.658" y2="121.999" gradientUnits="userSpaceOnUse">
<stop stop-color="#655ED6"/>
<stop offset="1" stop-color="white"/>
</linearGradient>
<linearGradient id="paint6_linear_605_8639" x1="231.656" y1="105.499" x2="217.744" y2="105.499" gradientUnits="userSpaceOnUse">
<stop stop-color="#655ED6"/>
<stop offset="1" stop-color="white"/>
</linearGradient>
<clipPath id="clip0_605_8639">
<rect width="500" height="500" fill="white"/>
</clipPath>
</defs>
</svg>
