<svg width="500" height="500" viewBox="0 0 500 500" fill="none" xmlns="http://www.w3.org/2000/svg">
<path d="M345.712 180.375V244.763L399.631 241.098L400.155 233.77L385.496 186.133L345.712 180.375Z" fill="white"/>
<path d="M434.742 282.811H406.335V299.654H434.742V282.811Z" fill="white"/>
<path d="M57 150.75C57 145.918 60.9259 142 65.7688 142H308.848C312.806 142 316 145.739 316 150.355V273.647C316 278.252 312.806 282 308.848 282H85.8118C80.9689 282 77.043 278.082 77.043 273.25C77.043 268.418 80.9689 264.5 85.8118 264.5H87.8236C90.0231 264.238 93.3282 262.169 93.328 258.264C93.3277 254.076 89.5268 252.001 87.3646 252H87.3622C87.259 252 87.1596 252.005 87.0645 252.014V252H73.2849C68.4421 252 64.5161 248.082 64.5161 243.25C64.5161 238.418 68.4421 234.5 73.2849 234.5H90.8226V234.484C90.9257 234.495 91.0334 234.5 91.1451 234.5H91.156C93.5298 234.497 97.697 232.218 97.6967 227.625C97.6963 223.029 93.5249 220.751 91.1519 220.75H93.328C88.4851 220.75 84.5591 216.832 84.5591 212C84.5591 207.168 88.4851 203.25 93.328 203.25V203.234C95.6193 203.463 100.202 201.192 100.202 196.375C100.202 191.779 96.0303 189.501 93.6573 189.5H93.6546C93.5414 189.5 93.4323 189.505 93.328 189.516V189.5H79.5484C74.7055 189.5 70.7796 185.582 70.7796 180.75C70.7796 175.918 74.7055 172 79.5484 172H80.3074C82.507 171.738 85.8121 169.669 85.8118 165.764C85.8115 161.576 82.0107 159.501 79.8484 159.5H79.846C79.7429 159.5 79.6435 159.505 79.5484 159.514V159.5H65.7688C60.9259 159.5 57 155.582 57 150.75Z" fill="#D69E5D"/>
<path d="M90.8226 220.75H91.1493C91.036 220.75 90.9269 220.755 90.8226 220.766V220.75Z" fill="#D69E5D"/>
<path d="M363.088 287.051C343.736 287.051 328.047 302.74 328.047 322.091C328.047 341.446 343.736 357.133 363.088 357.133C382.439 357.133 398.129 341.446 398.129 322.091C398.13 302.74 382.44 287.051 363.088 287.051ZM370.157 329.788C368.297 331.499 365.819 332.55 363.09 332.55C360.36 332.55 357.882 331.499 356.017 329.788C353.938 327.874 352.626 325.137 352.626 322.091C352.626 321.44 352.694 320.809 352.807 320.194C353.702 315.327 357.962 311.63 363.089 311.63C368.218 311.63 372.474 315.326 373.368 320.194C373.482 320.81 373.549 321.441 373.549 322.091C373.551 325.137 372.24 327.874 370.157 329.788Z" fill="black"/>
<path d="M125.214 287.052H125.046C107.766 287.092 93.4315 299.643 90.6047 316.127C90.2724 318.066 90.0898 320.057 90.0898 322.091C90.0898 341.444 105.778 357.131 125.131 357.131C144.481 357.131 160.172 341.444 160.172 322.091C160.172 320.057 159.989 318.066 159.655 316.127C156.828 299.643 142.495 287.092 125.214 287.052ZM132.202 329.786C130.339 331.498 127.863 332.55 125.135 332.55C122.405 332.55 119.923 331.498 118.062 329.786C115.983 327.872 114.67 325.137 114.67 322.091C114.67 321.438 114.739 320.81 114.852 320.192C115.124 318.703 115.717 317.325 116.549 316.127C118.438 313.411 121.574 311.63 125.134 311.63C128.692 311.63 131.828 313.412 133.715 316.127C134.547 317.325 135.137 318.702 135.41 320.192C135.524 320.811 135.593 321.439 135.593 322.091C135.594 325.137 134.28 327.872 132.202 329.786Z" fill="black"/>
<path d="M103.379 291.862C105.02 290.683 104.18 287.051 102.159 287.051H84.801C83.8064 287.051 83 287.858 83 288.852V314.325C83 315.32 83.8064 316.127 84.801 316.127H88.0288C88.2439 316.127 88.419 315.97 88.4563 315.758C90.1617 305.819 95.6872 297.39 103.379 291.862Z" fill="#505050"/>
<path d="M437.349 298.03C436.402 297.974 435.66 297.195 435.654 296.247C435.553 281.193 435.925 266.261 435.412 251.203C435.389 250.522 434.982 249.914 434.363 249.631C429.592 247.45 424.78 245.259 419.974 243.02C416.39 241.351 412.811 239.662 409.256 237.914C408.778 237.73 408.34 237.513 407.916 237.285C400.647 233.38 400.88 223.573 398.105 216.639C395.232 204.873 390.491 193.437 387.614 181.691C385.882 174.617 385.388 171.574 385.343 160.609C385.339 159.624 384.549 158.816 383.564 158.803C363.25 158.539 343.068 158.681 322.885 158.826C322.821 158.826 322.756 158.826 322.692 158.827C322.686 158.827 322.681 158.832 322.681 158.838C322.681 158.849 322.669 158.854 322.661 158.848L322.628 158.819C322.608 158.8 322.576 158.815 322.576 158.842V184.444C322.576 184.488 322.595 184.529 322.627 184.558C322.66 184.586 322.679 184.628 322.679 184.671C322.61 218.177 322.341 251.722 322.651 285.231C322.66 286.232 321.851 287.05 320.85 287.05L148.101 287.05C146.08 287.05 145.241 290.682 146.882 291.862C154.574 297.39 160.1 305.819 161.804 315.757C161.843 315.969 162.017 316.126 162.233 316.126L321.8 316.125C322.586 316.125 323.278 315.615 323.532 314.871C328.919 299.04 341.495 284.109 359.368 283.109C379.132 280.244 397.501 294.997 402.458 313.716C402.672 314.521 403.386 315.103 404.219 315.112C416.501 315.238 428.778 315.244 441.055 315.244C442.05 315.244 442.856 314.438 442.861 313.443C442.884 309.007 442.979 304.499 443 300.066C443.005 299.112 442.261 298.324 441.31 298.267C439.982 298.187 438.678 298.108 437.349 298.03ZM352.053 235.129C351.065 235.128 350.261 234.332 350.251 233.344C350.107 218.964 349.871 204.581 350.356 190.203C350.389 189.235 351.184 188.47 352.152 188.468C361.564 188.455 371.086 188.354 380.495 188.708C381.283 188.738 381.956 189.28 382.161 190.04C386.002 204.281 390.559 218.408 394.432 232.766C394.736 233.893 393.899 235.003 392.732 235.022C379.135 235.25 365.649 235.139 352.053 235.129ZM434.025 297.408C434.004 298.358 433.242 299.124 432.292 299.153C424.345 299.394 416.292 299.402 408.346 299.284C407.384 299.269 406.604 298.499 406.582 297.537C406.483 293.238 406.483 289.016 406.582 284.719C406.604 283.757 407.384 282.986 408.346 282.972C416.28 282.85 424.217 282.85 432.152 282.972C433.095 282.987 433.866 283.728 433.909 284.669C434.107 288.978 434.119 293.198 434.025 297.408Z" fill="#505050"/>
<path d="M117 216L117.071 162.048L149.483 162.039L149.476 167.835L123.61 167.842L123.585 186.072L147.023 186.065L147.016 191.861L123.578 191.867L123.546 215.998L117 216Z" fill="white"/>
<path d="M163.596 215.987L163.667 162.036L181.932 162.031C186.155 162.029 189.621 162.749 192.329 164.188C195.037 165.61 197.04 167.567 198.339 170.061C199.638 172.554 200.285 175.391 200.281 178.569C200.277 181.748 199.622 184.567 198.316 187.026C197.011 189.485 195.011 191.418 192.317 192.823C189.623 194.212 186.182 194.906 181.994 194.907L167.214 194.911L167.221 189.01L181.791 189.006C184.677 189.006 187 188.584 188.761 187.74C190.539 186.897 191.825 185.702 192.619 184.156C193.43 182.593 193.838 180.731 193.841 178.571C193.843 176.411 193.441 174.523 192.634 172.908C191.827 171.292 190.535 170.045 188.759 169.168C186.983 168.273 184.634 167.825 181.713 167.826L170.206 167.829L170.142 215.986L163.596 215.987ZM189.072 191.744L202.343 215.977L194.741 215.979L181.682 191.746L189.072 191.744Z" fill="white"/>
<path d="M214.112 215.974L214.183 162.022L246.806 162.013L246.799 167.808L220.721 167.816L220.697 186.045L245.085 186.039L245.078 191.834L220.689 191.841L220.665 210.176L247.165 210.169L247.157 215.965L214.112 215.974Z" fill="white"/>
<path d="M261.506 215.961L261.578 162.009L294.201 162L294.193 167.796L268.116 167.803L268.091 186.033L292.48 186.026L292.472 191.821L268.084 191.828L268.06 210.163L294.559 210.156L294.552 215.952L261.506 215.961Z" fill="white"/>
<path d="M125.194 263.542H117V237H125.557C128.133 237 130.337 237.531 132.169 238.594C134.002 239.648 135.406 241.165 136.383 243.143C137.36 245.113 137.848 247.472 137.848 250.219C137.848 252.984 137.355 255.365 136.37 257.36C135.385 259.348 133.95 260.877 132.065 261.948C130.181 263.011 127.891 263.542 125.194 263.542ZM120.215 260.691H124.987C127.182 260.691 129.001 260.268 130.445 259.421C131.888 258.574 132.964 257.369 133.673 255.805C134.382 254.241 134.736 252.379 134.736 250.219C134.736 248.077 134.386 246.232 133.686 244.685C132.986 243.13 131.94 241.938 130.549 241.108C129.157 240.27 127.424 239.851 125.35 239.851H120.215V260.691Z" fill="white"/>
<path d="M144.702 263.542V237H160.727V239.851H147.917V248.82H159.897V251.671H147.917V260.691H160.934V263.542H144.702Z" fill="white"/>
<path d="M167.982 263.542V237H171.198V260.691H183.541V263.542H167.982Z" fill="white"/>
<path d="M193.195 237V263.542H189.979V237H193.195Z" fill="white"/>
<path d="M202.191 237L210.074 259.343H210.385L218.268 237H221.639L211.889 263.542H208.57L198.82 237H202.191Z" fill="white"/>
<path d="M227.235 263.542V237H243.26V239.851H230.45V248.82H242.43V251.671H230.45V260.691H243.467V263.542H227.235Z" fill="white"/>
<path d="M250.516 263.542V237H259.488C261.562 237 263.265 237.354 264.596 238.063C265.927 238.763 266.912 239.726 267.552 240.953C268.191 242.18 268.511 243.575 268.511 245.139C268.511 246.703 268.191 248.09 267.552 249.299C266.912 250.509 265.931 251.459 264.609 252.15C263.286 252.833 261.597 253.174 259.539 253.174H252.279V250.271H259.436C260.853 250.271 261.994 250.064 262.859 249.649C263.732 249.234 264.362 248.647 264.751 247.887C265.149 247.118 265.348 246.202 265.348 245.139C265.348 244.076 265.149 243.147 264.751 242.353C264.354 241.558 263.719 240.944 262.846 240.512C261.973 240.072 260.819 239.851 259.384 239.851H253.731V263.542H250.516ZM263.014 251.619L269.549 263.542H265.815L259.384 251.619H263.014Z" fill="white"/>
<path d="M272.156 237H275.838L283.203 249.39H283.514L290.878 237H294.56L284.966 252.604V263.542H281.75V252.604L272.156 237Z" fill="white"/>
</svg>
