<svg width="500" height="500" viewBox="0 0 500 500" fill="none" xmlns="http://www.w3.org/2000/svg">
<path d="M330.869 75V388.961H328.379L322.104 392.734L315.493 388.961H310.679L304.404 392.734L297.792 388.961H292.98L286.705 392.734L280.093 388.961H274.712L268.437 392.734L261.826 388.961H256.823L250.548 392.734L243.936 388.961H238.933L232.659 392.734L226.047 388.961H221.044L214.77 392.734L208.158 388.961H203.155L196.88 392.734L190.269 388.961H185.265L178.991 392.734L172.379 388.961H166.998L160.723 392.734L154.111 388.961H149.299L143.023 392.734L136.411 388.961H131.599L125.323 392.734L118.712 388.961H115.328V387.214L115 387.026L115.328 387.025V75H330.869Z" fill="white"/>
<path d="M307.679 180.912H137.695V188.103H307.679V180.912Z" fill="#808080"/>
<path d="M307.679 231.721H137.695V238.911H307.679V231.721Z" fill="#808080"/>
<path d="M307.679 281.879H137.695V289.069H307.679V281.879Z" fill="#808080"/>
<path d="M307.679 193.497H137.695V200.685H307.679V193.497Z" fill="#808080"/>
<path d="M307.679 244.304H137.695V251.491H307.679V244.304Z" fill="#808080"/>
<path d="M307.679 294.465H137.695V301.652H307.679V294.465Z" fill="#808080"/>
<path d="M307.679 206.077H137.695V213.266H307.679V206.077Z" fill="#808080"/>
<path d="M272.117 256.799H137.868V264.175H272.117V256.799Z" fill="#808080"/>
<path d="M307.524 218.442H137.868V225.819H307.524V218.442Z" fill="#808080"/>
<path d="M217.358 306.96H137.695V314.15H217.358V306.96Z" fill="#808080"/>
<path d="M137.696 134.996V131.435H162.259V134.996H151.96V164.588H147.994V134.996H137.696Z" fill="black"/>
<path d="M196.452 148.011C196.452 151.508 195.829 154.53 194.581 157.076C193.334 159.623 191.623 161.588 189.448 162.969C187.273 164.35 184.789 165.041 181.996 165.041C179.202 165.041 176.718 164.35 174.543 162.969C172.368 161.588 170.657 159.623 169.41 157.076C168.163 154.53 167.539 151.508 167.539 148.011C167.539 144.515 168.163 141.493 169.41 138.946C170.657 136.399 172.368 134.435 174.543 133.054C176.718 131.672 179.202 130.981 181.996 130.981C184.789 130.981 187.273 131.672 189.448 133.054C191.623 134.435 193.334 136.399 194.581 138.946C195.829 141.493 196.452 144.515 196.452 148.011ZM192.614 148.011C192.614 145.141 192.14 142.718 191.191 140.743C190.253 138.768 188.979 137.273 187.369 136.259C185.77 135.244 183.979 134.737 181.996 134.737C180.013 134.737 178.216 135.244 176.606 136.259C175.007 137.273 173.733 138.768 172.784 140.743C171.846 142.718 171.377 145.141 171.377 148.011C171.377 150.882 171.846 153.305 172.784 155.28C173.733 157.255 175.007 158.749 176.606 159.764C178.216 160.778 180.013 161.285 181.996 161.285C183.979 161.285 185.77 160.778 187.369 159.764C188.979 158.749 190.253 157.255 191.191 155.28C192.14 153.305 192.614 150.882 192.614 148.011Z" fill="black"/>
<path d="M204.922 164.588V131.435H215.989C218.558 131.435 220.659 131.904 222.29 132.843C223.932 133.771 225.147 135.028 225.936 136.615C226.725 138.201 227.119 139.971 227.119 141.925C227.119 143.878 226.725 145.653 225.936 147.25C225.158 148.848 223.953 150.121 222.322 151.071C220.691 152.01 218.601 152.479 216.053 152.479H208.121V148.918H215.925C217.684 148.918 219.097 148.61 220.163 147.995C221.229 147.38 222.002 146.549 222.482 145.502C222.972 144.444 223.217 143.252 223.217 141.925C223.217 140.597 222.972 139.41 222.482 138.363C222.002 137.316 221.224 136.496 220.147 135.903C219.07 135.298 217.641 134.996 215.861 134.996H208.889V164.588H204.922Z" fill="black"/>
<path d="M271.27 131.435H275.236V153.386C275.236 155.652 274.708 157.675 273.653 159.456C272.608 161.226 271.131 162.624 269.223 163.649C267.315 164.663 265.076 165.17 262.506 165.17C259.937 165.17 257.698 164.663 255.79 163.649C253.881 162.624 252.399 161.226 251.344 159.456C250.299 157.675 249.777 155.652 249.777 153.386V131.435H253.743V153.062C253.743 154.681 254.094 156.121 254.798 157.384C255.502 158.636 256.504 159.623 257.805 160.346C259.116 161.059 260.683 161.415 262.506 161.415C264.329 161.415 265.897 161.059 267.208 160.346C268.519 159.623 269.521 158.636 270.214 157.384C270.918 156.121 271.27 154.681 271.27 153.062V131.435Z" fill="black"/>
<path d="M284.957 164.588V131.435H296.024C298.593 131.435 300.693 131.904 302.325 132.843C303.966 133.771 305.182 135.028 305.971 136.615C306.76 138.201 307.154 139.971 307.154 141.925C307.154 143.878 306.76 145.653 305.971 147.25C305.193 148.848 303.988 150.121 302.357 151.071C300.725 152.01 298.636 152.479 296.088 152.479H288.156V148.918H295.96C297.719 148.918 299.132 148.61 300.198 147.995C301.264 147.38 302.037 146.549 302.517 145.502C303.007 144.444 303.252 143.252 303.252 141.925C303.252 140.597 303.007 139.41 302.517 138.363C302.037 137.316 301.258 136.496 300.182 135.903C299.105 135.298 297.676 134.996 295.896 134.996H288.923V164.588H284.957Z" fill="black"/>
<path d="M272.437 102.25H173.033V106.187H272.437V102.25Z" fill="#B2B2B2"/>
<path d="M278.343 111.635H168.112V115.572H278.343V111.635Z" fill="#B2B2B2"/>
<path d="M284.248 92.8672H162.207V96.804H284.248V92.8672Z" fill="#B2B2B2"/>
<path opacity="0.04" d="M115.328 387.028L115 387.029L115.328 387.217V388.964H118.711L125.323 392.736L131.599 388.964H136.411L143.023 392.736L149.298 388.964H154.111L160.723 392.736L166.998 388.964H172.379L178.991 392.736L185.265 388.964H190.269L196.88 392.736L203.155 388.964H208.158L214.77 392.736L221.044 388.964H226.047L232.659 392.736L238.933 388.964H243.936L250.548 392.736L256.822 388.964H261.826L268.437 392.736L274.712 388.964H280.093L286.705 392.736L292.98 388.964H297.792L304.404 392.736L310.679 388.964H315.492L322.104 392.736L328.379 388.964H330.869V76.7061L115.328 387.028Z" fill="black"/>
<path d="M185.529 411.584C186.678 418.993 193.616 424.068 201.025 422.919L372.199 396.371C379.609 395.222 384.683 388.284 383.534 380.876L373.331 315.088L175.326 345.797L185.529 411.584Z" fill="#E5E5E5"/>
<path d="M368.042 280.982C366.893 273.573 359.955 268.498 352.546 269.647L181.371 296.195C173.962 297.344 168.887 304.281 170.036 311.691L171.436 320.716L369.441 290.007L368.042 280.982Z" fill="#E5E5E5"/>
<path d="M369.442 290.005L171.437 320.714L175.327 345.794L373.332 315.086L369.442 290.005Z" fill="black"/>
<path d="M286.527 339.365L182.243 355.538L184.495 370.059L288.779 353.885L286.527 339.365Z" fill="white"/>
<path d="M368.206 326.698L300.884 337.139L303.136 351.659L370.458 341.218L368.206 326.698Z" fill="white"/>
<path d="M230.843 386.542C232.381 396.462 225.586 405.753 215.665 407.291C205.743 408.83 196.453 402.034 194.915 392.114C193.376 382.192 200.171 372.902 210.092 371.363C220.014 369.825 229.304 376.62 230.843 386.542Z" fill="#E30302"/>
<path d="M252.837 383.129C254.376 393.049 247.581 402.34 237.66 403.878C227.738 405.417 218.448 398.621 216.909 388.701C215.37 378.779 222.166 369.489 232.088 367.95C242.009 366.411 251.298 373.207 252.837 383.129Z" fill="#FFD812"/>
<path d="M315.374 374.639L279.6 380.188L281.449 392.111L317.223 386.563L315.374 374.639Z" fill="#B2B2B2"/>
<path d="M349.657 369.322L330.28 372.327L332.129 384.251L351.507 381.246L349.657 369.322Z" fill="#B2B2B2"/>
</svg>
