<svg width="500" height="500" viewBox="0 0 500 500" fill="none" xmlns="http://www.w3.org/2000/svg">
<path d="M267.455 376.005C269.683 381.88 274.167 386.331 280.853 389.387C287.932 392.537 295.116 392.96 302.3 390.599C293.909 379.365 282.321 374.492 267.455 376.005ZM233.267 376.005C215.831 374.612 204.164 379.791 198.238 391.69C206.393 393.084 213.655 392.236 219.974 389.208C226.03 386.271 230.435 381.88 233.267 376.005ZM293.962 370.525C296.323 375.46 301.696 378.881 310.087 380.759C318.659 382.606 325.607 381.637 330.93 377.731C327.077 373.522 321.701 370.585 314.857 368.98C307.308 367.225 300.386 367.709 293.962 370.525ZM206.575 370.525C199.863 367.709 192.627 367.225 184.945 368.98C177.657 370.707 172.281 374.006 168.9 378.82C175.244 381.879 182.428 382.424 190.452 380.576C198.238 378.7 203.613 375.34 206.575 370.525ZM318.922 359.474C322.226 364.166 328.517 366.619 337.878 366.861C347.554 366.982 353.767 364.529 356.599 359.474C351.643 356.174 345.43 354.537 337.878 354.537C330.328 354.537 323.982 356.172 318.922 359.474ZM143.048 361.381C147.741 364.893 154.033 366.618 161.82 366.497C169.607 366.497 175.899 364.77 180.724 361.381C177.42 356.474 171.18 354.114 162.005 354.355C153.011 354.476 146.719 356.838 143.048 361.381ZM242.521 370.525C239.795 355.626 230.567 347.088 214.913 344.818C218.661 359.958 227.838 368.557 242.521 370.525ZM283.895 343.97C268.792 348.664 259.904 357.474 257.177 370.525C265.095 369.496 271.492 366.618 276.448 361.925C281.638 357.02 284.131 350.994 283.895 343.97ZM282.977 366.861C296.217 362.834 303.873 352.751 305.997 336.583C292.232 339.821 284.549 349.904 282.977 366.861ZM217.509 365.953C214.494 349.33 206.812 339.519 194.568 336.583C194.753 344.577 197.163 351.298 201.621 356.838C205.972 362.107 211.294 365.136 217.509 365.953ZM341.915 345.697C348.497 348.421 355.707 349.027 363.31 347.452C371.097 345.939 376.235 342.577 378.7 337.399C372.25 334.705 365.171 334.22 357.515 335.856C349.966 337.46 344.775 340.79 341.915 345.697ZM158.622 344.818C154.951 340.488 149.314 337.399 141.658 335.674C132.901 333.675 126.321 334.887 121.785 339.399C125.35 343.607 130.961 346.423 138.643 347.816C146.666 349.269 153.299 348.239 158.622 344.818ZM307.988 357.656C313.049 356.172 317.401 352.085 321.019 345.363C325.082 337.824 325.607 330.616 322.67 323.713C310.034 333.554 305.13 344.879 307.988 357.656ZM192.758 358.565C194.2 342.336 188.641 330.738 176.135 323.713C174.798 331.707 175.846 338.913 179.15 345.363C182.246 351.237 186.78 355.626 192.758 358.565ZM361.187 326.53C378.334 328.165 390.002 323.29 396.215 311.936C388.244 310.118 381.008 310.725 374.48 313.661C368.371 316.508 363.913 320.776 361.187 326.53ZM139.35 325.622C130.227 313.087 118.585 308.514 104.27 311.936C105.844 316.871 110.013 320.777 116.829 323.713C124.197 327.014 131.695 327.62 139.35 325.622ZM331.848 344.818C335.938 340.61 338.9 335.492 340.657 329.527C342.833 322.322 342.65 315.539 340.185 309.12C334.863 310.846 331.114 315.962 328.99 324.441C326.763 332.978 327.732 339.76 331.848 344.818ZM160.562 308.211C157.598 314.994 157.232 322.14 159.46 329.648C161.531 337.128 165.202 342.154 170.655 344.819C172.884 337.522 172.937 330.376 170.813 323.352C168.821 316.689 165.386 311.632 160.562 308.211ZM351.092 290.77C347.37 294.555 345.298 300.46 344.932 308.574C344.459 316.568 345.901 322.805 349.363 327.376C354.056 324.499 356.729 318.535 357.333 309.572C357.936 300.701 355.812 294.434 351.092 290.77ZM151.385 327.377C154.453 321.655 155.79 314.993 155.423 307.484C154.951 299.491 152.356 293.95 147.637 290.77C144.123 295.464 142.55 302.124 143.048 310.663C143.651 319.626 146.43 325.167 151.385 327.377ZM376.944 303.639C393.672 302.67 404.133 295.645 408.302 282.474C391.391 283.2 381.009 290.225 376.944 303.639ZM91.3966 282.474C96.3517 296.009 107.102 303.033 123.777 303.639C118.691 289.74 107.889 282.716 91.3966 282.474ZM366.875 307.302C369.471 301.125 370.257 294.191 369.157 286.56C367.899 278.446 364.935 273.177 360.347 270.694C356.912 276.235 355.864 283.018 357.332 291.133C358.722 299.369 361.92 304.728 366.875 307.302ZM138.46 270.695C134.395 274.541 131.879 280.144 130.83 287.41C129.623 295.162 130.672 301.822 133.871 307.302C138.696 304.063 141.762 298.28 143.048 290.043C144.359 281.626 142.812 275.147 138.46 270.695ZM387.038 277.902C402.141 275.691 411.318 267.092 414.647 252.195C400.279 253.86 391.024 262.4 387.038 277.902ZM113.5 277.023C108.911 263.066 99.6832 254.465 85.9179 251.347C86.0235 258.13 88.8815 264.276 94.3601 269.635C100.05 275.147 106.446 277.598 113.5 277.023ZM377.862 284.472C379.723 276.477 379.303 269.151 376.602 262.4C374.243 256.101 370.362 251.529 364.935 248.713C361.737 264.094 366.011 275.995 377.862 284.472ZM133.871 248.713C122.624 257.948 118.638 269.849 121.785 284.472C127.343 281.748 131.565 276.843 134.396 269.635C137.306 261.975 137.122 255.011 133.871 248.713ZM365.853 226.7C364.989 235.117 366.692 242.323 370.914 248.348C374.609 253.526 379.381 256.947 385.282 258.734C385.176 243.112 378.649 232.423 365.853 226.7ZM132.953 226.7C119.058 235.481 113.5 246.473 116.358 259.584C122.441 255.859 127.107 251.469 130.306 246.412C134.527 239.811 135.443 233.271 132.953 226.7ZM392.545 251.347C399.597 248.895 405.051 245.171 408.774 240.236C413.44 234.513 415.066 227.791 413.807 220.161C400.2 227.185 393.146 237.6 392.545 251.347ZM107.102 251.347C106.631 235.845 99.2625 225.459 85 220.161C85.7333 236.026 93.1006 246.412 107.102 251.347ZM362.288 204.657C363.363 220.039 371.569 229.487 387.038 233.029C384.679 217.859 376.42 208.443 362.288 204.657ZM114.548 233.906C128.837 227.791 136.834 218.343 138.46 205.565C138.224 204.838 137.542 204.536 136.52 204.656C129.991 206.684 124.433 210.409 119.845 215.951C115.021 222.007 113.264 228.033 114.548 233.906ZM392.545 223.884C398.575 221.432 403.11 217.283 406.178 211.56C409.56 205.322 410.583 198.449 409.142 190.941C403.819 192.212 399.598 195.876 396.4 201.841C393.252 208.078 391.941 215.406 392.545 223.884ZM107.102 223.884C108.439 206.868 102.881 195.574 90.5064 190.032C89.169 206.625 94.7268 217.859 107.102 223.884ZM353.95 184.461C356.18 191.364 359.797 196.846 364.752 200.993C370.442 205.565 376.892 207.352 384.207 206.443C377.259 191.97 367.165 184.643 353.95 184.461ZM145.88 184.461C130.777 185.127 120.946 192.758 116.358 207.291C131.695 206.504 141.528 198.874 145.88 184.461ZM342.833 165.234C347.29 177.317 358.354 183.431 376.052 183.552C370.783 170.502 359.693 164.386 342.833 165.234ZM124.615 183.552C132.062 183.795 138.825 182.281 144.805 179.162C151.203 175.741 155.475 171.107 157.73 165.233C149.025 164.506 141.526 166.02 135.26 169.624C129.466 173.168 125.953 177.799 124.615 183.552ZM396.215 160.662C391.994 164.326 388.926 169.625 387.038 176.709C385.047 184.642 385.702 191.546 388.979 197.269C393.567 194.119 396.949 188.73 399.047 181.099C401.301 172.622 400.384 165.84 396.215 160.662ZM111.769 197.269C114.418 190.577 114.837 183.552 112.976 176.165C111.088 168.898 107.6 163.72 102.515 160.662C99.5513 166.96 99.1846 173.985 101.309 181.645C103.431 188.791 106.866 193.999 111.769 197.269ZM136.52 160.662C144.622 162.267 152.042 162.024 158.805 159.935C165.517 157.725 170.026 154 172.387 148.701C164.31 147.006 156.944 147.247 150.284 149.367C143.598 151.639 138.983 155.364 136.52 160.662ZM327.26 150.609C336.069 160.965 348.34 164.326 364.02 160.662C361.319 155.243 356.049 151.336 348.262 148.883C340.054 146.279 333.054 146.886 327.26 150.609ZM379.62 134.107C376.001 138.286 373.929 144.312 373.562 152.184C373.144 160.056 374.533 166.536 377.863 171.593C382.687 168.414 385.414 162.328 385.964 153.457C386.434 144.312 384.311 137.832 379.62 134.107ZM121.785 171.593C125.35 166.295 126.923 159.694 126.61 151.821C126.243 143.646 123.778 137.712 119.19 134.109C115.623 138.771 114.104 145.402 114.548 154.001C115.021 162.631 117.433 168.534 121.785 171.593ZM309.745 136.864C313.049 141.012 319.158 143.465 328.15 144.312C337.458 144.978 343.855 143.101 347.422 138.65C342.467 134.864 336.252 132.654 328.807 131.927C320.679 131.14 314.335 132.775 309.745 136.864ZM189.9 135.834C184.945 132.413 178.627 131.201 170.813 132.109C163.892 132.957 157.966 135.107 153.115 138.65C156.445 143.222 162.921 145.099 172.569 144.312C182.061 143.464 187.803 140.648 189.9 135.834ZM289.374 127.719C294.827 130.899 301.696 131.988 310.087 131.079C318.423 130.141 324.166 127.476 327.259 123.146C321.937 119.361 315.12 118.059 306.704 119.118C298.446 120.148 292.704 123.026 289.374 127.719ZM210.272 127.719C207.361 122.662 201.437 119.725 192.575 118.938C183.869 118.12 177.159 119.786 172.387 124.055C176.686 127.658 182.533 130.02 190.084 131.079C198.369 132.109 205.081 131.02 210.272 127.719ZM364.937 148.702C367.768 142.435 368.503 135.409 367.243 127.538C365.906 119.543 363.076 114.154 358.539 111.186C355.025 116.848 354.002 123.813 355.576 132.109C356.965 140.344 360.112 145.886 364.937 148.702ZM141.108 111.186C136.652 114.67 133.794 120.512 132.588 128.627C131.198 137.045 132.483 143.767 136.52 148.702C140.741 144.372 143.52 138.469 144.805 131.081C146.116 123.087 144.858 116.486 141.108 111.186ZM232.427 121.239C223.198 110.278 211.216 106.674 196.482 110.278C198.001 115.092 202.642 118.938 210.455 121.784C218.714 124.66 226.03 124.479 232.427 121.239ZM268.295 122.087C275.74 124.297 282.873 124.237 289.741 121.784C296.558 119.482 301.408 115.698 304.24 110.278C296.557 108.431 289.373 108.612 282.688 110.822C275.793 112.943 271.021 116.727 268.295 122.087ZM254.53 376.913C296.873 371.009 329.725 355.748 353.085 331.102C381.847 300.701 394.721 264.942 391.627 223.884C389.765 197.451 379.303 172.743 360.348 149.731C341.444 126.628 321.519 111.913 300.544 105.735C329.436 121.905 350.857 139.012 364.937 156.937C383.525 181.039 391.863 209.471 389.87 242.141C387.879 274.358 376.158 302.244 354.842 325.983C334.548 348.42 309.378 363.256 279.306 370.523C259.957 375.217 241.552 375.519 224.09 371.431C193.782 364.406 168.218 350.024 147.453 328.465C125.639 305.544 113.448 278.626 110.853 247.621C108.021 214.436 115.573 185.247 133.505 160.116C147.874 139.92 169.74 121.541 199.158 104.827C137.543 134.742 107.182 179.041 108.021 237.599C108.625 274.237 122.756 306.333 150.47 333.916C173.253 356.594 205.136 371.189 246.194 377.73C227.238 387.177 217.381 401.227 216.672 419.999C219.137 418.001 220.894 414.822 221.996 410.492C223.386 404.557 224.408 400.954 225.01 399.743C229.835 390.478 238.409 383.514 250.784 378.822C258.938 381.395 265.702 386.876 271.156 395.172C273.619 399.078 277.605 407.314 282.98 420C283.946 403.469 274.456 389.116 254.53 376.913ZM345.665 128.626C347.422 120.755 347.054 113.547 344.59 106.917C342.099 100.378 338.192 95.9862 332.74 93.7771C330.93 101.407 331.428 108.492 334.129 115.032C336.62 121.057 340.474 125.569 345.665 128.626ZM166.042 92.8684C154.821 102.587 150.835 114.488 154.033 128.627C159.54 126.054 163.76 121.18 166.592 114.034C169.739 106.16 169.608 99.1054 166.042 92.8684ZM300.543 102.012C296.741 96.8343 291.864 92.9897 285.807 90.3862C278.519 87.3277 271.439 87.2064 264.622 90.0526C268.476 95.0788 273.379 98.9247 279.304 101.528C286.595 104.526 293.673 104.707 300.543 102.012ZM235.022 88.2958C217.928 86.6604 206.34 91.5363 200.178 102.891C208.201 104.526 215.516 103.98 222.15 101.164C228.494 98.4394 232.795 94.2005 235.022 88.2958ZM323.51 112.943C323.982 96.9556 317.585 86.0247 304.24 80C303.271 94.7755 309.745 105.796 323.51 112.943ZM194.567 80C182.847 86.3584 176.738 97.0163 176.135 112.034C181.929 111.004 187.016 107.221 191.368 100.8C196.062 93.6558 197.162 86.7211 194.567 80Z" fill="url(#paint0_linear_601_8497)"/>
<path d="M316.986 217.209L267.849 214.77L250.345 168.792L232.841 214.77L183.704 217.209L222.022 248.065L209.158 295.551L250.345 268.642L291.532 295.551L278.667 248.065L316.986 217.209ZM289.425 292.651L289.379 292.621L250.345 240.074V267.119L211.311 292.621L250.345 240.074L223.462 247.628L223.471 247.594L187.181 218.372L250.345 240.074L233.714 216.003L233.735 216.002L250.345 172.375V172.376V240.074L266.977 216.003L313.578 218.317L313.508 218.373L250.345 240.074L277.228 247.628L289.425 292.651Z" fill="#FFDD4F"/>
<path d="M292.585 297L250.345 269.404L208.105 297L221.299 248.3L182 216.655L232.394 214.154L250.345 167L268.297 214.154L318.69 216.655L279.392 248.3L292.585 297ZM210.212 294.101L250.345 267.88L289.096 293.197L288.934 293.091L250.982 242.001V267.464L210.212 294.101ZM198.679 228.449L222.747 247.829L222.638 248.231L210.667 292.418L248.72 241.192L222.56 248.544L222.749 247.831L198.679 228.449ZM249.707 242.001L213.953 290.133L249.707 266.774V242.001ZM251.97 241.193L287.943 289.619L276.708 248.144L251.97 241.193ZM252.484 240.013L277.749 247.112L277.943 247.829L278.267 247.568L313.821 218.938L313.715 218.975L252.484 240.013ZM190.414 220.158L223.644 246.915L248.205 240.013L190.414 220.158ZM187.121 217.677L187.389 217.769L248.718 238.84L232.54 215.423L187.121 217.677ZM267.299 216.657L251.971 238.841L310.322 218.793L267.299 216.657ZM250.982 172.258V238.03L266.654 215.348L267.401 215.385L267.253 214.997L250.982 172.258ZM234.443 215.935L249.707 238.029V175.842L234.443 215.935ZM315.277 217.762L313.918 218.861L315.282 217.763L315.277 217.762Z" fill="#FFCD00"/>
<defs>
<linearGradient id="paint0_linear_601_8497" x1="84.9996" y1="250" x2="414.646" y2="250" gradientUnits="userSpaceOnUse">
<stop stop-color="#FFDD4F"/>
<stop offset="0.225" stop-color="#FFD812"/>
<stop offset="0.595" stop-color="#FFCD00"/>
<stop offset="1" stop-color="#FFDD4F"/>
</linearGradient>
</defs>
</svg>
