<svg width="500" height="500" viewBox="0 0 500 500" fill="none" xmlns="http://www.w3.org/2000/svg">
<path opacity="0.6" d="M347.443 401.837L347.035 174.49C347.022 167.755 345.018 161.173 341.274 155.575L337.031 149.229C340.38 143.448 342.308 136.745 342.308 129.597C342.308 107.928 324.678 90.2979 303.009 90.2979C297.622 90.2979 290.256 92.5545 282.305 95.8879H195.508C192.644 95.8879 189.848 96.3751 187.212 97.2788C178.051 93.197 169.405 90.2987 163.299 90.2987C141.63 90.2987 124 107.929 124 129.598C124 142.601 130.353 154.144 140.113 161.301C137.853 165.942 136.65 171.041 136.65 176.236V394.157C137.503 429.148 162.679 430 162.679 430H317.146C347.87 429.573 347.443 401.837 347.443 401.837ZM326.149 129.599C326.149 130.633 326.074 131.651 325.942 132.65L308.963 107.26C308.956 107.251 308.95 107.242 308.944 107.233C318.837 109.86 326.149 118.89 326.149 129.599ZM163.298 106.457C165.623 106.457 169.047 107.365 173.168 108.908L148.624 147.476C143.458 143.229 140.157 136.791 140.157 129.598C140.158 116.839 150.538 106.457 163.298 106.457Z" fill="#E45938" fill-opacity="0.8"/>
<path d="M204.868 76.4727H300.186C309.025 76.4727 317.281 80.8836 322.195 88.2308L355.61 138.197C359.482 143.987 361.555 150.793 361.567 157.758L361.989 392.866C361.989 392.866 362.431 421.549 330.659 421.99H170.918C170.918 421.99 144.883 421.108 144 384.923V159.563C144 152.849 145.914 146.274 149.519 140.61L182.53 88.7348C187.39 81.0972 195.815 76.4727 204.868 76.4727Z" fill="#E45938"/>
<mask id="mask0_13_23582" style="mask-type:luminance" maskUnits="userSpaceOnUse" x="144" y="76" width="219" height="346">
<path d="M205.46 76.4727H300.779C309.617 76.4727 317.874 80.8836 322.788 88.2308L356.203 138.197C360.074 143.987 362.148 150.793 362.16 157.758L362.582 392.866C362.582 392.866 363.023 421.549 331.251 421.99H171.51C171.51 421.99 145.475 421.108 144.592 384.923V159.563C144.592 152.849 146.507 146.274 150.111 140.61L183.123 88.7348C187.983 81.0972 196.408 76.4727 205.46 76.4727Z" fill="white"/>
</mask>
<g mask="url(#mask0_13_23582)">
<path d="M349.937 379.849C346.738 378.534 344.111 375.881 342.959 372.333C341.806 368.786 342.372 365.096 344.187 362.151C340.455 360.54 335.804 360.274 331.206 361.768C329.315 362.383 327.602 363.254 326.081 364.296C326.636 362.478 326.954 360.52 326.954 358.465C326.954 353.63 325.263 349.289 322.578 346.237C320.338 348.873 317.005 350.551 313.274 350.551C309.544 350.551 306.21 348.873 303.97 346.237C301.285 349.289 299.595 353.63 299.595 358.465C299.595 360.453 299.894 362.352 300.414 364.12C298.857 363.031 297.093 362.123 295.139 361.489C290.541 359.994 285.889 360.26 282.157 361.872C283.973 364.816 284.538 368.506 283.386 372.054C282.233 375.601 279.607 378.254 276.407 379.569C278.48 383.066 282.087 386.015 286.685 387.509C288.575 388.123 290.473 388.426 292.316 388.476C290.799 389.621 289.391 391.019 288.183 392.68C285.341 396.591 284.157 401.096 284.536 405.144C287.897 404.327 291.581 404.929 294.598 407.123C297.616 409.315 299.327 412.632 299.589 416.081C303.555 415.191 307.475 412.672 310.317 408.761C311.485 407.152 312.359 405.44 312.977 403.704C313.596 405.5 314.49 407.272 315.698 408.933C318.539 412.845 322.459 415.364 326.425 416.254C326.687 412.805 328.398 409.488 331.416 407.296C334.433 405.103 338.117 404.5 341.479 405.317C341.858 401.269 340.673 396.763 337.831 392.853C336.662 391.244 335.305 389.884 333.844 388.759C335.744 388.725 337.705 388.422 339.659 387.788C344.258 386.295 347.865 383.346 349.937 379.849ZM313.173 387.47C309.735 387.47 306.949 384.684 306.949 381.246C306.949 377.81 309.735 375.023 313.173 375.023C316.609 375.023 319.395 377.81 319.395 381.246C319.395 384.684 316.609 387.47 313.173 387.47Z" fill="#424082"/>
<path d="M191.856 347.146C189.249 346.075 187.109 343.913 186.169 341.023C185.23 338.133 185.691 335.126 187.17 332.727C184.129 331.415 180.339 331.198 176.593 332.415C175.052 332.915 173.657 333.625 172.417 334.475C172.869 332.994 173.129 331.397 173.129 329.724C173.129 325.785 171.752 322.247 169.563 319.761C167.738 321.909 165.022 323.276 161.982 323.276C158.943 323.276 156.226 321.909 154.401 319.761C152.213 322.247 150.836 325.785 150.836 329.724C150.836 331.343 151.079 332.89 151.504 334.332C150.235 333.444 148.797 332.704 147.205 332.187C143.458 330.97 139.669 331.186 136.627 332.499C138.107 334.899 138.567 337.905 137.628 340.795C136.689 343.686 134.549 345.847 131.943 346.919C133.631 349.768 136.57 352.171 140.317 353.388C141.857 353.889 143.404 354.135 144.905 354.177C143.668 355.109 142.521 356.248 141.537 357.602C139.222 360.789 138.257 364.46 138.566 367.758C141.304 367.093 144.306 367.583 146.764 369.37C149.223 371.157 150.618 373.86 150.831 376.67C154.063 375.945 157.256 373.892 159.572 370.705C160.524 369.394 161.236 368 161.74 366.584C162.244 368.048 162.973 369.491 163.956 370.846C166.272 374.033 169.465 376.086 172.697 376.811C172.911 374 174.305 371.298 176.764 369.512C179.223 367.725 182.224 367.235 184.963 367.9C185.272 364.602 184.306 360.931 181.991 357.744C181.039 356.433 179.933 355.325 178.742 354.409C180.29 354.381 181.888 354.134 183.48 353.617C187.228 352.399 190.167 349.996 191.856 347.146ZM161.899 353.357C159.099 353.357 156.828 351.087 156.828 348.286C156.828 345.485 159.098 343.214 161.899 343.214C164.7 343.214 166.97 345.484 166.97 348.286C166.97 351.086 164.7 353.357 161.899 353.357Z" fill="#424082"/>
<path d="M375.425 242.308C372.818 241.236 370.679 239.075 369.739 236.185C368.8 233.294 369.261 230.287 370.74 227.889C367.699 226.575 363.909 226.359 360.163 227.576C358.622 228.077 357.226 228.786 355.987 229.635C356.439 228.154 356.699 226.558 356.699 224.884C356.699 220.946 355.322 217.408 353.133 214.921C351.308 217.07 348.592 218.437 345.552 218.437C342.513 218.437 339.796 217.07 337.971 214.921C335.783 217.408 334.406 220.946 334.406 224.884C334.406 226.504 334.649 228.051 335.074 229.492C333.805 228.604 332.367 227.865 330.775 227.348C327.028 226.131 323.239 226.347 320.197 227.66C321.677 230.06 322.137 233.066 321.198 235.956C320.259 238.846 318.12 241.008 315.513 242.079C317.201 244.929 320.14 247.331 323.886 248.549C325.427 249.05 326.974 249.296 328.475 249.337C327.238 250.27 326.091 251.409 325.107 252.762C322.791 255.949 321.827 259.621 322.135 262.919C324.874 262.253 327.876 262.744 330.334 264.531C332.793 266.317 334.188 269.021 334.401 271.831C337.633 271.105 340.826 269.052 343.142 265.866C344.094 264.555 344.806 263.161 345.309 261.745C345.814 263.209 346.542 264.652 347.526 266.006C349.842 269.193 353.035 271.246 356.267 271.971C356.481 269.16 357.875 266.458 360.334 264.671C362.793 262.885 365.794 262.394 368.533 263.059C368.842 259.761 367.876 256.09 365.561 252.903C364.609 251.592 363.503 250.484 362.313 249.568C363.861 249.54 365.459 249.293 367.051 248.776C370.797 247.56 373.737 245.157 375.425 242.308ZM345.469 248.517C342.669 248.517 340.398 246.247 340.398 243.446C340.398 240.646 342.668 238.375 345.469 238.375C348.269 238.375 350.54 240.645 350.54 243.446C350.54 246.247 348.269 248.517 345.469 248.517Z" fill="#424082"/>
</g>
<path d="M173.789 213.299C176.092 213.299 177.96 209.669 177.96 205.193C177.96 200.716 176.092 197.087 173.789 197.087C171.485 197.087 169.617 200.716 169.617 205.193C169.617 209.669 171.485 213.299 173.789 213.299Z" fill="#B9A8CD"/>
<path d="M164.878 208.453C169.135 209.837 172.009 212.734 171.298 214.925C170.586 217.115 166.558 217.771 162.3 216.388C158.042 215.004 155.169 212.107 155.88 209.916C156.591 207.725 160.62 207.07 164.878 208.453Z" fill="#B9A8CD"/>
<path d="M163.935 221.903C166.566 218.281 170.21 216.444 172.075 217.798C173.938 219.152 173.316 223.185 170.685 226.807C168.054 230.429 164.41 232.266 162.546 230.912C160.681 229.558 161.304 225.525 163.935 221.903Z" fill="#B9A8CD"/>
<path d="M176.436 226.956C173.805 223.333 173.183 219.3 175.046 217.946C176.91 216.592 180.554 218.43 183.186 222.051C185.817 225.674 186.439 229.707 184.575 231.061C182.711 232.415 179.067 230.577 176.436 226.956Z" fill="#B9A8CD"/>
<path d="M185.103 216.628C180.846 218.011 176.818 217.357 176.106 215.166C175.394 212.975 178.268 210.078 182.526 208.694C186.784 207.311 190.812 207.966 191.524 210.157C192.235 212.347 189.361 215.244 185.103 216.628Z" fill="#B9A8CD"/>
<path d="M190.386 361.022C190.386 364.8 188.809 367.863 186.865 367.863C184.921 367.863 183.345 364.8 183.345 361.022C183.345 357.243 184.921 354.18 186.865 354.18C188.809 354.18 190.386 357.243 190.386 361.022Z" fill="#B9A8CD"/>
<path d="M179.343 363.773C182.937 364.941 185.362 367.387 184.762 369.236C184.161 371.084 180.761 371.637 177.168 370.469C173.574 369.302 171.149 366.856 171.749 365.007C172.35 363.158 175.749 362.606 179.343 363.773Z" fill="#B9A8CD"/>
<path d="M178.548 375.125C180.768 372.068 183.844 370.517 185.418 371.66C186.99 372.803 186.465 376.207 184.245 379.264C182.024 382.321 178.949 383.872 177.375 382.729C175.802 381.586 176.327 378.182 178.548 375.125Z" fill="#B9A8CD"/>
<path d="M189.099 379.389C186.878 376.332 186.352 372.928 187.926 371.785C189.499 370.642 192.574 372.194 194.796 375.25C197.016 378.307 197.541 381.711 195.969 382.854C194.395 383.997 191.319 382.446 189.099 379.389Z" fill="#B9A8CD"/>
<path d="M196.414 370.672C192.82 371.84 189.421 371.287 188.82 369.438C188.219 367.589 190.645 365.143 194.239 363.976C197.832 362.808 201.232 363.36 201.833 365.209C202.434 367.059 200.008 369.505 196.414 370.672Z" fill="#B9A8CD"/>
<path d="M330.915 194.001C332.859 194.001 334.436 190.938 334.436 187.16C334.436 183.381 332.859 180.318 330.915 180.318C328.971 180.318 327.395 183.381 327.395 187.16C327.395 190.938 328.971 194.001 330.915 194.001Z" fill="#B9A8CD"/>
<path d="M323.394 189.912C326.988 191.079 329.413 193.525 328.813 195.374C328.212 197.223 324.812 197.775 321.219 196.608C317.625 195.44 315.2 192.994 315.8 191.145C316.401 189.297 319.8 188.744 323.394 189.912Z" fill="#B9A8CD"/>
<path d="M322.599 201.264C324.819 198.207 327.895 196.656 329.469 197.799C331.041 198.942 330.516 202.347 328.296 205.403C326.075 208.46 323 210.012 321.426 208.869C319.852 207.725 320.377 204.32 322.599 201.264Z" fill="#B9A8CD"/>
<path d="M333.15 205.528C330.929 202.471 330.404 199.067 331.977 197.924C333.549 196.781 336.625 198.333 338.847 201.389C341.067 204.446 341.592 207.85 340.019 208.993C338.447 210.136 335.37 208.585 333.15 205.528Z" fill="#B9A8CD"/>
<path d="M340.465 196.811C336.871 197.979 333.472 197.427 332.871 195.578C332.27 193.729 334.696 191.283 338.29 190.116C341.883 188.948 345.283 189.5 345.884 191.35C346.485 193.198 344.059 195.644 340.465 196.811Z" fill="#B9A8CD"/>
<path d="M276.002 397.341C277.947 397.341 279.523 394.278 279.523 390.5C279.523 386.721 277.947 383.658 276.002 383.658C274.058 383.658 272.482 386.721 272.482 390.5C272.482 394.278 274.058 397.341 276.002 397.341Z" fill="#B9A8CD"/>
<path d="M268.481 393.252C272.075 394.419 274.5 396.865 273.899 398.714C273.298 400.563 269.899 401.115 266.305 399.947C262.711 398.78 260.286 396.334 260.886 394.485C261.488 392.636 264.888 392.084 268.481 393.252Z" fill="#B9A8CD"/>
<path d="M267.686 404.604C269.907 401.547 272.982 399.996 274.556 401.138C276.129 402.281 275.603 405.686 273.383 408.742C271.162 411.799 268.087 413.35 266.513 412.207C264.941 411.065 265.466 407.66 267.686 404.604Z" fill="#B9A8CD"/>
<path d="M278.237 408.868C276.017 405.811 275.491 402.407 277.064 401.264C278.637 400.121 281.712 401.673 283.934 404.729C286.154 407.786 286.679 411.19 285.107 412.333C283.533 413.476 280.457 411.924 278.237 408.868Z" fill="#B9A8CD"/>
<path d="M285.552 400.151C281.959 401.319 278.559 400.766 277.958 398.917C277.357 397.069 279.783 394.623 283.376 393.455C286.97 392.288 290.369 392.84 290.97 394.69C291.572 396.538 289.146 398.984 285.552 400.151Z" fill="#B9A8CD"/>
<path d="M257.738 120.321C255.24 118.692 253.734 115.912 253.734 112.93C253.734 109.949 255.24 107.168 257.738 105.539C266.833 99.6043 313.24 70.001 333.664 70.001C357.335 70.001 376.593 89.259 376.593 112.93C376.593 136.601 357.335 155.859 333.664 155.859C313.239 155.858 266.832 126.255 257.738 120.321ZM279.168 112.931C299.329 125.129 324.413 138.208 333.664 138.208C347.602 138.208 358.942 126.868 358.942 112.93C358.942 98.9909 347.602 87.6519 333.664 87.6519C324.422 87.651 299.334 100.731 279.168 112.931Z" fill="white"/>
<path d="M359.161 90.2799C352.914 83.253 343.806 78.8262 333.664 78.8262C314.83 78.8262 262.559 112.93 262.559 112.93C262.559 112.93 314.829 147.033 333.664 147.033C352.499 147.033 367.768 131.765 367.768 112.93C367.768 109.304 367.202 105.812 366.154 102.534" stroke="#E45938" stroke-width="2" stroke-miterlimit="10" stroke-linecap="round" stroke-linejoin="round"/>
<path d="M181.05 155.858C157.379 155.858 138.121 136.601 138.121 112.929C138.121 89.2572 157.379 70 181.05 70C201.474 70 247.881 99.6033 256.976 105.538C259.474 107.167 260.979 109.948 260.979 112.929C260.979 115.911 259.474 118.691 256.976 120.32C247.881 126.255 201.474 155.858 181.05 155.858ZM181.05 87.651C167.112 87.651 155.772 98.9908 155.772 112.929C155.772 126.867 167.112 138.207 181.05 138.207C190.301 138.207 215.385 125.128 235.546 112.93C215.379 100.731 190.291 87.651 181.05 87.651Z" fill="white"/>
<path d="M200.461 141.553C192.771 144.834 185.832 147.032 181.05 147.032C162.215 147.032 146.946 131.764 146.946 112.929C146.946 94.0938 162.215 78.8257 181.05 78.8257C199.884 78.8257 252.155 112.929 252.155 112.929C252.155 112.929 234.822 124.237 216.524 133.83" stroke="#E45938" stroke-width="2" stroke-miterlimit="10" stroke-linecap="round" stroke-linejoin="round"/>
<path d="M254.204 114.598L238.863 99.2567C236.86 97.2542 236.86 93.9781 238.863 91.9765C240.865 89.974 244.141 89.974 246.144 91.9765L261.485 107.318L254.204 114.598Z" fill="white"/>
<path d="M246.923 121.879L231.582 106.538C229.579 104.535 229.579 101.259 231.582 99.2567C233.584 97.2542 236.86 97.2542 238.863 99.2567L254.204 114.598L246.923 121.879Z" fill="white"/>
<path d="M268.674 114.689L253.242 130.121C251.24 132.124 247.964 132.124 245.961 130.121C243.959 128.119 243.959 124.843 245.961 122.84L261.393 107.408L268.674 114.689Z" fill="white"/>
<path d="M275.954 121.97L260.522 137.402C258.52 139.405 255.244 139.405 253.241 137.402C251.239 135.4 251.24 132.124 253.242 130.121L268.673 114.689L275.954 121.97Z" fill="white"/>
<path d="M268.856 100.31L284.197 115.651C286.2 117.653 286.2 120.929 284.197 122.932C282.195 124.934 278.919 124.934 276.916 122.932L261.575 107.591L268.856 100.31Z" fill="white"/>
<path d="M276.137 93.0294L291.478 108.371C293.481 110.373 293.481 113.649 291.478 115.652C289.476 117.654 286.2 117.653 284.197 115.651L268.856 100.31L276.137 93.0294Z" fill="white"/>
<path d="M254.386 100.219L269.818 84.7864C271.821 82.7839 275.097 82.7839 277.098 84.7864C279.101 86.7889 279.101 90.0649 277.098 92.0674L261.666 107.5L254.386 100.219Z" fill="white"/>
<path d="M247.105 92.9385L262.537 77.5063C264.54 75.5038 267.816 75.5038 269.818 77.5063C271.821 79.5088 271.821 82.7839 269.818 84.7864L254.386 100.219L247.105 92.9385Z" fill="white"/>
<path d="M254.204 114.598L238.863 99.2567M254.204 114.598L261.485 107.318L246.144 91.9765C244.141 89.974 240.865 89.974 238.863 91.9765C236.86 93.9781 236.86 97.2542 238.863 99.2567M254.204 114.598L246.923 121.879M238.863 99.2567C236.86 97.2542 233.584 97.2542 231.582 99.2567C229.579 101.259 229.579 104.535 231.582 106.538L246.923 121.879M246.923 121.879L275.954 92.8476M253.242 130.121L268.674 114.689L261.393 107.408L245.961 122.84C243.959 124.843 243.959 128.119 245.961 130.121C247.964 132.124 251.24 132.124 253.242 130.121ZM253.242 130.121C251.24 132.124 251.239 135.4 253.241 137.402C255.244 139.405 258.52 139.405 260.522 137.402L275.954 121.97L268.673 114.689L253.242 130.121ZM268.856 100.31L284.197 115.651M268.856 100.31L261.575 107.591L276.916 122.932C278.919 124.934 282.195 124.934 284.197 122.932C286.2 120.929 286.2 117.653 284.197 115.651M268.856 100.31L276.137 93.0294L291.478 108.371C293.481 110.373 293.481 113.649 291.478 115.652C289.476 117.654 286.2 117.653 284.197 115.651M254.386 100.219L269.818 84.7864M254.386 100.219L261.666 107.5L277.098 92.0674C279.101 90.0649 279.101 86.7889 277.098 84.7864C275.097 82.7839 271.821 82.7839 269.818 84.7864M254.386 100.219L247.105 92.9385M269.818 84.7864C271.821 82.7839 271.821 79.5088 269.818 77.5063C267.816 75.5038 264.54 75.5038 262.537 77.5063L247.105 92.9385M247.105 92.9385L276.046 121.879" stroke="#E45938" stroke-width="2" stroke-miterlimit="10" stroke-linecap="round"/>
<path d="M300.818 201.522C299.181 201.784 297.971 202.275 297.185 202.995C296.4 203.65 296.105 205.122 296.302 207.413C296.433 209.376 296.465 211.798 296.4 214.678C296.4 217.558 296.236 220.503 295.909 223.513C295.647 226.459 295.222 229.142 294.633 231.564C294.109 233.92 293.422 235.622 292.571 236.669C292.113 237.192 291.524 237.585 290.804 237.847C290.149 238.109 289.462 238.469 288.742 238.927C288.677 238.469 288.35 238.174 287.761 238.043C287.237 237.912 286.681 237.814 286.092 237.749C285.633 237.683 285.241 237.618 284.914 237.552C284.586 237.487 284.455 237.323 284.521 237.061C283.866 236.8 282.885 236.505 281.576 236.178C280.267 235.851 278.958 235.458 277.649 235C277.387 236.309 277.256 237.847 277.256 239.614C277.321 241.316 277.387 243.115 277.452 245.013C277.583 247.501 277.649 250.053 277.649 252.671C277.649 255.224 277.387 257.612 276.863 259.838C276.34 262.063 275.358 263.896 273.918 265.335C273.002 264.354 272.347 263.077 271.955 261.507C271.627 259.936 271.398 258.431 271.267 256.991C271.136 254.242 271.071 251.362 271.071 248.351C271.136 245.275 271.202 242.134 271.267 238.927C271.398 234.411 271.464 229.829 271.464 225.182C271.529 220.535 271.267 216.118 270.678 211.929C269.108 212.78 267.7 213.271 266.457 213.402C265.279 213.532 264.101 213.631 262.923 213.696C262.006 213.696 261.057 213.761 260.076 213.892C259.094 213.958 257.981 214.187 256.738 214.58C256.738 214.972 256.705 215.398 256.639 215.856C256.574 216.314 256.509 216.805 256.443 217.328C256.247 218.245 256.083 219.194 255.952 220.175C255.887 221.092 256.05 221.91 256.443 222.63C257.359 222.564 258.21 222.434 258.996 222.237C259.846 221.975 260.403 221.484 260.665 220.765C262.17 221.419 263.741 221.975 265.377 222.433C267.013 222.826 268.257 223.71 269.108 225.084C268.78 226 268.224 226.557 267.439 226.753C266.653 226.884 265.835 226.949 264.984 226.949C264.788 226.949 264.559 226.949 264.297 226.949C264.035 226.949 263.806 226.949 263.61 226.949C262.366 227.08 261.123 227.277 259.879 227.539C258.701 227.735 257.359 227.931 255.854 228.128C255.658 230.091 255.429 231.924 255.167 233.625C254.971 235.262 254.774 236.865 254.578 238.436C256.541 237.847 258.276 237.618 259.781 237.749C261.286 237.88 262.89 238.109 264.592 238.436C265.05 238.567 265.541 238.698 266.064 238.829C266.588 238.894 267.111 238.959 267.635 239.025C267.766 239.483 267.929 239.908 268.126 240.301C268.388 240.628 268.551 241.054 268.617 241.577C267.766 242.036 266.784 242.461 265.671 242.854C264.624 243.181 263.315 243.377 261.745 243.443C260.174 243.508 258.374 243.672 256.345 243.934C254.316 244.195 252.353 244.555 250.455 245.013C249.604 245.21 248.753 245.504 247.902 245.897C247.117 246.224 246.331 246.552 245.546 246.879C244.63 247.271 243.746 247.631 242.895 247.959C242.11 248.221 241.39 248.351 240.735 248.351C238.706 248.221 237.005 247.599 235.63 246.486C234.321 245.308 233.078 244.13 231.9 242.952C232.423 242.232 233.11 241.872 233.961 241.872C234.812 241.872 235.532 241.97 236.121 242.166C236.776 241.054 237.168 239.581 237.299 237.749C237.43 235.916 237.43 233.985 237.299 231.956C237.234 229.927 237.136 228.095 237.005 226.459C237.005 226.262 237.005 226.131 237.005 226.066C236.547 225.15 235.99 224.397 235.336 223.808C234.681 223.153 234.256 222.204 234.059 220.961C235.107 220.372 236.317 220.208 237.692 220.47C239.132 220.666 240.441 221.223 241.619 222.139C242.797 223.055 243.517 224.364 243.779 226.066C244.106 227.702 244.106 229.437 243.779 231.269C243.517 233.036 243.222 234.803 242.895 236.571C242.764 237.094 242.633 237.618 242.502 238.141C242.437 238.665 242.372 239.156 242.306 239.614C243.026 239.876 243.746 239.974 244.466 239.908C245.251 239.778 246.037 239.647 246.822 239.516C247.28 239.45 247.771 239.385 248.295 239.319C248.818 239.189 249.309 239.156 249.767 239.221C249.767 238.894 249.767 238.534 249.767 238.141C249.833 237.749 249.898 237.389 249.964 237.061C250.095 234.705 250.16 232.251 250.16 229.698C250.225 227.08 249.833 224.757 248.982 222.728C249.767 222.466 250.193 221.91 250.258 221.059C250.324 220.208 250.324 219.292 250.258 218.31C250.193 217.787 250.127 217.263 250.062 216.739C250.062 216.216 250.127 215.758 250.258 215.365C249.538 215.169 248.655 215.136 247.607 215.267C246.626 215.398 245.579 215.529 244.466 215.66C243.681 215.79 242.895 215.921 242.11 216.052C241.324 216.183 240.572 216.249 239.852 216.249C238.412 216.249 237.136 215.987 236.023 215.463C234.91 214.94 234.158 213.86 233.765 212.223L234.256 211.045C237.266 210.391 239.95 210.096 242.306 210.162C244.662 210.162 247.182 209.965 249.865 209.573C249.865 208.722 249.865 207.969 249.865 207.315C249.931 206.595 249.964 205.908 249.964 205.253C250.029 203.879 250.029 202.602 249.964 201.424C249.964 200.246 249.702 198.937 249.178 197.497C248.916 196.974 248.426 196.712 247.706 196.712C246.986 196.646 246.397 196.287 245.939 195.632C245.284 196.483 244.662 197.334 244.073 198.185C243.484 198.97 242.699 199.592 241.717 200.05C241.521 199.657 241.455 199.395 241.521 199.264C241.586 199.068 241.684 198.904 241.815 198.774C241.946 198.643 242.077 198.512 242.208 198.381C242.339 198.185 242.404 197.89 242.404 197.497C241.423 198.217 240.67 198.839 240.146 199.363C239.623 199.821 238.739 200.312 237.496 200.835C239.132 198.086 240.506 195.043 241.619 191.705C242.731 188.367 244.04 185.291 245.546 182.477C245.349 181.43 244.957 180.611 244.368 180.022C243.844 179.433 243.321 178.844 242.797 178.255C242.273 177.666 241.881 176.881 241.619 175.899C242.797 175.375 244.171 175.245 245.742 175.506C247.378 175.703 248.884 176.226 250.258 177.077C251.698 177.928 252.713 179.106 253.302 180.611C252.713 182.379 252.058 184.08 251.338 185.716C250.684 187.353 249.964 188.956 249.178 190.527C250.553 190.985 252.353 191.083 254.578 190.822C256.869 190.56 258.734 189.807 260.174 188.564C261.155 189.022 262.203 189.414 263.315 189.742C264.493 190.003 265.541 190.396 266.457 190.92C267.439 191.443 268.06 192.36 268.322 193.669C267.406 194.388 266.359 194.847 265.181 195.043C264.068 195.174 262.857 195.239 261.548 195.239C260.632 195.305 259.683 195.37 258.701 195.436C257.719 195.501 256.705 195.665 255.658 195.927C255.985 196.777 256.443 197.497 257.032 198.086C257.621 198.61 258.145 199.232 258.603 199.952C257.948 201.064 257.556 202.341 257.425 203.78C257.294 205.22 257.163 206.628 257.032 208.002C257.294 208.395 257.687 208.591 258.21 208.591C258.799 208.526 259.323 208.362 259.781 208.1C260.239 207.838 260.403 207.544 260.272 207.217C261.45 207.086 262.726 207.249 264.101 207.707C265.541 208.1 266.98 208.558 268.42 209.082C268.748 209.213 269.075 209.344 269.402 209.475C269.729 209.54 270.057 209.638 270.384 209.769C270.776 208.526 270.776 207.249 270.384 205.94C270.057 204.631 269.664 203.29 269.206 201.915C268.878 201.064 268.584 200.246 268.322 199.461C268.06 198.61 267.864 197.759 267.733 196.908C269.173 196.254 270.744 195.894 272.445 195.828C274.213 195.697 275.98 195.632 277.747 195.632C279.121 195.632 280.43 195.632 281.674 195.632C282.983 195.567 284.161 195.37 285.208 195.043C285.47 194.912 285.633 194.65 285.699 194.258C285.764 193.865 285.83 193.505 285.895 193.178C288.186 192.916 290.117 193.047 291.688 193.57C293.324 194.029 294.993 194.65 296.694 195.436C297.153 195.632 297.611 195.861 298.069 196.123C298.527 196.319 299.018 196.516 299.541 196.712C299.803 197.432 300 198.25 300.13 199.166C300.327 200.017 300.556 200.803 300.818 201.522ZM237.496 204.86C237.496 205.319 237.103 206.169 236.317 207.413C235.532 208.656 234.616 210.064 233.569 211.634C232.587 213.14 231.638 214.58 230.722 215.954C229.805 217.263 229.184 218.212 228.856 218.801C229.838 222.532 230.296 226.328 230.231 230.189C230.231 234.051 230.1 237.847 229.838 241.577C229.707 243.083 229.576 244.588 229.445 246.093C229.38 247.533 229.347 248.94 229.347 250.315C229.347 250.838 229.347 251.362 229.347 251.886C229.413 252.409 229.478 252.933 229.543 253.456C229.674 255.027 229.674 256.533 229.543 257.972C229.478 259.412 228.791 260.656 227.482 261.703C227.285 261.507 227.089 261.31 226.893 261.114C226.762 260.918 226.598 260.721 226.402 260.525C225.289 259.216 224.209 257.842 223.162 256.402C222.18 254.962 221.755 253.195 221.886 251.1C222.017 251.035 222.18 250.838 222.377 250.511C222.442 250.315 222.508 250.184 222.573 250.119C222.704 249.988 222.9 250.053 223.162 250.315C223.293 247.108 223.424 244.326 223.555 241.97C223.751 239.614 223.915 237.225 224.046 234.803C224.242 232.382 224.34 229.502 224.34 226.164C222.9 227.997 221.493 229.895 220.119 231.858C218.744 233.822 217.468 235.851 216.29 237.945C216.028 238.141 215.832 238.207 215.701 238.141C215.505 238.01 215.276 237.945 215.014 237.945C215.014 238.73 214.817 239.319 214.425 239.712C214.097 240.039 213.868 240.563 213.737 241.283C212.887 241.021 212.33 241.119 212.069 241.577C211.807 242.036 211.61 242.559 211.479 243.148C209.254 243.214 207.094 242.625 205 241.381C206.767 239.745 208.305 237.945 209.614 235.981C210.923 234.018 212.199 232.022 213.443 229.993C214.752 227.964 216.225 226.099 217.861 224.397C218.973 222.237 220.053 220.045 221.101 217.819C222.213 215.594 223.588 213.729 225.224 212.223C225.42 210.653 225.878 209.409 226.598 208.493C227.318 207.577 227.809 206.398 228.071 204.959C227.809 204.37 227.449 203.879 226.991 203.486C226.533 203.028 226.238 202.406 226.107 201.621C226.435 201.817 226.762 201.817 227.089 201.621C227.416 201.424 227.318 201.195 226.795 200.933C226.926 200.803 227.122 200.77 227.384 200.835C227.645 200.835 227.907 200.868 228.169 200.933C228.627 200.999 229.085 201.032 229.543 201.032C230.002 200.966 230.263 200.541 230.329 199.755C232.489 199.886 234.256 200.377 235.63 201.228C237.005 202.079 237.626 203.29 237.496 204.86ZM287.859 201.228C286.55 200.901 285.274 200.803 284.03 200.933C282.852 200.999 281.707 201.097 280.594 201.228C279.874 201.359 279.187 201.457 278.532 201.522C277.878 201.588 277.191 201.621 276.471 201.621C276.601 202.341 276.896 202.897 277.354 203.29C277.812 203.682 278.074 204.337 278.14 205.253C277.681 208.918 277.452 212.551 277.452 216.15C277.518 219.75 277.681 223.579 277.943 227.637C280.561 228.815 282.623 228.946 284.128 228.029C285.699 227.048 286.877 225.477 287.662 223.317C288.382 221.288 288.808 218.965 288.939 216.347C289.135 213.663 289.102 210.98 288.84 208.296C288.644 205.613 288.317 203.257 287.859 201.228ZM236.808 185.52C236.547 186.764 235.957 187.647 235.041 188.171C234.19 188.629 233.405 189.218 232.685 189.938C230.983 191.574 229.413 193.407 227.973 195.436C226.598 197.465 225.158 199.428 223.653 201.326C222.41 201.457 221.493 202.046 220.904 203.093C220.381 204.075 219.661 204.828 218.744 205.351C218.155 205.482 217.632 205.482 217.174 205.351C216.715 205.22 216.29 205.057 215.897 204.86C215.374 204.664 214.883 204.533 214.425 204.468C213.967 204.337 213.476 204.533 212.952 205.057C215.243 201.981 217.468 198.839 219.628 195.632C221.853 192.425 223.817 188.956 225.518 185.226C225.518 184.833 225.355 184.506 225.027 184.244C224.766 183.982 224.471 183.753 224.144 183.557C223.751 183.295 223.424 183.066 223.162 182.869C222.9 182.608 222.9 182.28 223.162 181.888C224.798 180.644 226.467 180.088 228.169 180.219C229.871 180.35 231.474 180.939 232.98 181.986C234.55 182.968 235.827 184.146 236.808 185.52ZM245.546 193.57C245.153 194.029 244.662 194.65 244.073 195.436C243.55 196.156 243.222 196.777 243.091 197.301C243.811 197.039 244.433 196.516 244.957 195.73C245.48 194.879 245.677 194.159 245.546 193.57ZM240.637 199.755C241.095 200.148 241.226 200.541 241.03 200.933C240.833 201.326 240.473 201.588 239.95 201.719C239.492 201.85 239.099 201.719 238.772 201.326C238.903 200.999 239.066 200.803 239.263 200.737C239.524 200.606 239.754 200.541 239.95 200.541C240.473 200.41 240.703 200.148 240.637 199.755Z" fill="white"/>
<path d="M296.619 312.413C295.192 312.283 293.992 312.543 293.019 313.191C292.111 313.84 291.202 314.619 290.294 315.527C289.386 316.435 288.381 317.343 287.278 318.251C286.24 319.095 284.942 319.646 283.385 319.906C282.477 319.516 281.472 319.062 280.369 318.543C279.266 317.96 278.066 317.278 276.768 316.5C276.963 315.721 276.866 314.91 276.476 314.067C277.385 313.808 278.001 313.354 278.325 312.705C278.65 311.991 279.104 311.31 279.688 310.661C280.142 310.142 280.596 309.818 281.05 309.688C281.504 309.494 281.828 309.234 282.023 308.91C282.088 308.715 282.055 308.488 281.926 308.229C281.796 307.969 281.731 307.742 281.731 307.547C281.861 307.093 281.991 306.672 282.12 306.282C282.25 305.893 282.412 305.536 282.607 305.212C282.996 304.304 283.191 303.493 283.191 302.779C283.256 302.066 282.672 301.222 281.439 300.249C276.898 300.055 272 299.957 266.745 299.957C261.556 299.957 256.333 300.087 251.079 300.347C247.511 300.541 244.008 300.801 240.569 301.125C237.131 301.449 233.855 301.871 230.741 302.39C229.314 302.65 228.016 302.877 226.849 303.071C225.681 303.201 224.74 303.882 224.027 305.115C224.027 306.866 223.702 308.65 223.054 310.467C222.47 312.218 221.821 313.937 221.108 315.624C220.394 317.246 219.842 318.803 219.453 320.295C219.453 320.684 219.453 321.073 219.453 321.463C219.518 321.787 219.583 322.111 219.648 322.436C219.713 322.89 219.745 323.376 219.745 323.895C219.81 324.349 219.81 324.868 219.745 325.452C213.907 324.025 210.371 319.906 209.138 313.094C209.398 313.094 209.787 313.062 210.306 312.997C210.631 312.997 210.955 312.997 211.279 312.997C211.669 312.932 212.09 312.964 212.544 313.094C213.128 312.186 213.712 311.278 214.296 310.369C214.88 309.461 215.399 308.521 215.853 307.547C215.528 307.223 215.496 306.672 215.756 305.893C216.015 305.115 216.469 304.628 217.118 304.434C216.599 303.46 215.983 302.617 215.269 301.904C214.555 301.19 213.647 300.638 212.544 300.249C212.674 300.055 212.804 299.925 212.934 299.86C213.128 299.73 213.323 299.601 213.517 299.471C213.842 299.341 214.134 299.146 214.393 298.887C214.653 298.627 214.782 298.206 214.782 297.622C217.767 297.362 221.14 297.103 224.903 296.843C228.665 296.519 232.558 296.26 236.58 296.065C240.602 295.805 244.494 295.611 248.257 295.481C248.451 295.092 248.549 294.605 248.549 294.021C248.614 293.438 248.614 292.821 248.549 292.173C248.549 291.783 248.516 291.394 248.451 291.005C248.451 290.616 248.484 290.259 248.549 289.934C246.602 289.221 244.948 288.507 243.586 287.794C242.288 287.015 240.861 286.01 239.304 284.777C239.239 284.323 239.337 284.064 239.596 283.999C239.856 283.934 240.18 283.869 240.569 283.804C240.829 283.804 241.088 283.772 241.348 283.707C241.607 283.642 241.834 283.545 242.029 283.415C242.159 283.285 242.256 283.026 242.321 282.636C242.386 282.247 242.483 282.02 242.613 281.955C244.17 281.242 246.083 281.144 248.354 281.663C250.689 282.182 252.96 282.896 255.166 283.804C256.009 285.166 256.269 286.464 255.944 287.696C255.62 288.929 255.198 290.129 254.679 291.297C254.42 291.881 254.16 292.465 253.901 293.048C253.706 293.632 253.576 294.216 253.511 294.8C256.366 294.995 259.707 295.124 263.534 295.189C267.362 295.254 271.546 295.351 276.087 295.481C276.671 295.481 277.028 295.286 277.158 294.897C277.287 294.443 277.482 294.086 277.741 293.827C280.012 294.151 282.218 294.8 284.358 295.773C286.564 296.681 288.575 297.979 290.392 299.665C290.262 299.925 290.197 300.217 290.197 300.541C290.262 300.671 290.197 300.801 290.002 300.93C290.132 301.06 290.327 301.255 290.586 301.514C292.078 302.812 293.505 304.336 294.868 306.088C296.295 307.774 296.879 309.883 296.619 312.413ZM283.385 327.593C281.893 327.788 280.304 327.82 278.617 327.69C276.995 327.561 275.374 327.431 273.752 327.301C272.325 327.107 270.897 326.977 269.47 326.912C268.108 326.782 266.81 326.782 265.578 326.912C265.578 327.042 265.578 327.236 265.578 327.496C265.513 329.831 265.48 332.037 265.48 334.113C265.48 336.189 265.513 338.232 265.578 340.243C265.707 342.644 265.74 345.336 265.675 348.32C265.675 351.304 265.48 354.126 265.091 356.786C264.767 359.056 264.248 361.067 263.534 362.819C262.821 364.635 261.815 365.868 260.518 366.517C259.09 367.23 257.274 367.295 255.068 366.711C252.863 366.192 250.689 365.317 248.549 364.084C246.343 362.787 244.364 361.294 242.613 359.608C240.926 357.921 239.823 356.299 239.304 354.742C240.018 354.807 240.731 354.937 241.445 355.132C242.224 355.326 243.002 355.488 243.781 355.618C245.337 356.007 246.992 356.364 248.743 356.689C250.56 357.013 252.473 357.078 254.485 356.883C255.652 355.651 256.496 354.061 257.015 352.115C257.598 350.104 257.955 347.963 258.085 345.693C258.215 343.941 258.247 342.157 258.182 340.341C258.117 338.459 258.053 336.643 257.988 334.891C257.923 333.399 257.858 331.972 257.793 330.61C257.793 329.247 257.825 328.015 257.89 326.912C256.982 326.977 256.041 327.009 255.068 327.009C254.095 327.009 253.122 327.042 252.149 327.107C248.451 327.171 244.786 327.334 241.153 327.593C237.585 327.853 234.536 328.631 232.006 329.929C229.606 329.085 227.433 327.82 225.486 326.133C223.54 324.447 222.21 322.598 221.497 320.587C224.092 321.365 226.914 321.722 229.963 321.657C233.077 321.592 236.288 321.43 239.596 321.171C240.05 321.106 240.504 321.073 240.959 321.073C241.413 321.009 241.867 320.976 242.321 320.976C244.786 320.717 247.284 320.522 249.814 320.392C252.344 320.198 254.809 320.165 257.209 320.295C257.339 319.711 257.339 319.095 257.209 318.446C257.144 317.732 257.047 317.019 256.917 316.305C256.723 315.592 256.56 314.878 256.431 314.164C256.366 313.451 256.398 312.77 256.528 312.121C255.685 311.213 254.906 309.915 254.193 308.229C253.544 306.542 253.122 305.18 252.928 304.142C255.652 303.947 258.085 304.596 260.226 306.088C262.367 307.58 264.248 309.104 265.87 310.661C265.999 311.57 265.999 312.543 265.87 313.581C265.74 314.554 265.578 315.527 265.383 316.5C265.253 317.084 265.124 317.668 264.994 318.251C264.929 318.77 264.864 319.322 264.799 319.906C265.253 320.49 265.999 320.749 267.037 320.684C268.14 320.554 268.724 320.068 268.789 319.225C271.773 319.484 274.66 320.295 277.449 321.657C280.239 322.955 282.218 324.933 283.385 327.593ZM247.284 346.471C246.57 346.925 245.856 347.087 245.143 346.958C244.494 346.828 243.781 346.633 243.002 346.374C242.548 346.244 242.061 346.114 241.542 345.985C241.023 345.855 240.504 345.79 239.985 345.79C238.947 344.298 237.78 342.838 236.482 341.411C235.25 339.984 234.082 338.492 232.979 336.935C231.941 335.378 231.195 333.756 230.741 332.069C233.077 332.264 235.509 332.945 238.039 334.113C240.634 335.216 242.807 336.805 244.559 338.881C246.375 340.892 247.284 343.422 247.284 346.471Z" fill="white"/>
</svg>
