<svg width="500" height="500" viewBox="0 0 500 500" fill="none" xmlns="http://www.w3.org/2000/svg">
<path fill-rule="evenodd" clip-rule="evenodd" d="M249.559 70.0006C314.422 69.7997 367.656 122.704 367.862 187.564L368.25 311.697C368.451 376.56 315.547 429.794 250.687 429.999C185.824 430.2 132.593 377.301 132.384 312.436L132.001 188.3C131.793 123.435 184.697 70.2014 249.559 70.0006Z" fill="#FFD812"/>
<path fill-rule="evenodd" clip-rule="evenodd" d="M249.985 91.0005C303.492 90.833 347.411 134.477 347.579 187.985L347.963 312.12C348.13 365.627 304.49 409.544 250.983 409.712C197.476 409.879 153.559 366.24 153.389 312.727L153 188.594C152.831 135.082 196.475 91.1631 249.985 91.0005Z" fill="#FFCD00"/>
<path fill-rule="evenodd" clip-rule="evenodd" d="M155.281 198.451C155.141 153.87 185.414 115.948 226.464 104.44C234.683 102.136 243.334 100.886 252.268 100.861C295.508 100.724 332.49 129.204 345.171 168.378C336.021 124.053 296.484 90.5311 249.575 90.6753C241.605 90.6994 233.851 91.6983 226.433 93.5469C184.037 104.134 152.45 142.725 152.594 188.262L152.982 312.395C153.012 322.662 154.655 332.567 157.668 341.865C156.381 335.628 155.693 329.182 155.677 322.586L155.281 198.451Z" fill="#FCBE13"/>
<path fill-rule="evenodd" clip-rule="evenodd" d="M167.174 194.252C162.894 194.265 159.405 189.775 159.39 184.226C159.372 178.672 162.831 174.159 167.111 174.147L332.934 173.626C337.214 173.614 340.702 178.104 340.72 183.658C340.738 189.212 337.279 193.725 332.999 193.737L167.174 194.252Z" fill="#FFDD4F"/>
<path fill-rule="evenodd" clip-rule="evenodd" d="M167.356 239.029C163.076 239.041 159.588 234.551 159.572 229.003C159.554 223.449 163.013 218.936 167.294 218.923L333.116 218.403C337.401 218.389 340.885 222.881 340.903 228.435C340.921 233.988 337.462 238.502 333.182 238.514L167.356 239.029Z" fill="#FFDD4F"/>
<path fill-rule="evenodd" clip-rule="evenodd" d="M167.557 286.475C163.277 286.487 159.789 281.997 159.771 276.443C159.753 270.89 163.212 266.376 167.492 266.364L333.317 265.849C337.598 265.836 341.086 270.326 341.102 275.875C341.119 281.429 337.66 285.942 333.38 285.955L167.557 286.475Z" fill="#FFDD4F"/>
<path fill-rule="evenodd" clip-rule="evenodd" d="M167.771 337.898C163.491 337.911 160.003 333.421 159.987 327.872C159.969 322.318 163.428 317.805 167.708 317.793L333.531 317.272C337.812 317.26 341.3 321.75 341.318 327.304C341.336 332.857 337.874 337.366 333.597 337.383L167.771 337.898Z" fill="#FFDD4F"/>
<path fill-rule="evenodd" clip-rule="evenodd" d="M214.31 141.138C214.31 141.138 235.818 143.287 253.092 138.134C270.366 132.982 283.406 120.083 289.851 125.163C296.296 130.243 293.438 137.123 281.269 146.028C269.101 154.933 257.808 157.409 257.808 157.409C257.808 157.409 255.405 169.166 257.409 171.822C259.412 174.474 281.79 171.304 290.21 169.725C298.63 168.145 306.602 165.682 308.606 168.784C310.609 171.881 312.183 178.967 304.433 181.211C296.682 183.455 281.614 185.053 273.853 185.965C266.097 186.875 261.441 186.449 260.565 190.662C259.691 194.881 259.257 196.874 263.913 198.19C266.345 198.875 339.441 203.154 306.08 213.798C297.665 216.482 282.588 215.646 274.605 214.563C266.621 213.48 261.08 213.498 257.986 217.72C254.898 221.939 252.694 228.154 252.694 228.154C252.694 228.154 292.135 222.485 302.373 234.647C312.612 246.81 306.69 267.661 291.85 272.143C277.009 276.625 275.893 274.192 278.304 265.314C280.716 256.437 283.78 243.573 275.127 241.826C266.474 240.079 251.401 239.902 241.657 243.705C231.916 247.505 195.825 260.918 190.268 256.723C184.712 252.529 212.83 241.139 220.358 237.345C227.881 233.554 236.081 232.199 237.62 228.202C239.158 224.205 243.129 218.429 240.465 216.223C237.799 214.013 226.048 213.606 213.191 214.09C200.334 214.575 198.107 210.368 197.874 206.38C197.64 202.391 210.704 198.136 221.565 196.996C232.427 195.855 240.186 197.382 241.5 191.613C242.808 185.847 245.465 184.287 239.701 183.417C233.938 182.547 209.108 182.182 203.561 180.204C198.013 178.226 197.569 177.34 198.881 172.457C200.195 167.579 230.593 176.564 239.659 169.447C248.723 162.326 254.7 158.538 249.595 155.893C244.49 153.236 198.843 157.366 214.31 141.138Z" fill="#160D00"/>
<path fill-rule="evenodd" clip-rule="evenodd" d="M197.148 286.15C197.148 286.15 229.988 296.019 259.017 292.161C288.045 288.299 296.231 283.176 300.016 287.379C303.798 291.578 306.461 292.677 298.72 297.583C290.976 302.484 266.391 308.546 260.626 308.561C254.86 308.577 252.203 308.367 251.993 311.47C251.778 314.575 252.023 321.003 252.023 321.003C252.023 321.003 278.836 318.923 289.036 319.336C299.234 319.744 304.548 318.178 304.573 326.823C304.602 335.465 298.05 368.293 292.957 368.977C287.861 369.657 287.595 355.252 287.795 347.933C287.995 340.615 291.75 336.393 282.433 335.315C273.121 334.235 257.359 327.415 254.277 334.292C251.197 341.174 249.023 355.815 248.813 358.918C248.603 362.021 252.155 364.005 255.034 363.55C257.912 363.096 255.88 350.466 264.074 348.892C272.272 347.315 276.469 344.418 274.272 350.635C272.073 356.848 269.254 375.922 264.155 375.935C259.059 375.953 234.433 369.598 229.114 370.721C223.797 371.848 210.699 368.558 208.918 365.242C207.134 361.921 210.618 342.405 216.159 342.387C221.701 342.369 217.311 355.242 223.742 357.662C230.178 360.08 233.722 359.846 235.926 355.185C238.131 350.523 246.077 340.963 239.861 337.219C233.643 333.47 199.699 324.484 196.825 328.266C193.955 332.045 194.263 359.529 187.168 358.223C180.071 356.913 182.386 317.225 191.468 315.645C200.55 314.065 237.844 329.909 239.6 323.918C241.356 317.928 247.539 310.594 241.764 307.73C235.997 304.869 204.481 293.88 197.148 286.15Z" fill="#160D00"/>
</svg>
