<svg width="500" height="500" viewBox="0 0 500 500" fill="none" xmlns="http://www.w3.org/2000/svg">
<path d="M169.627 335.543C169.627 335.543 134.649 336.965 134.649 341.92C134.649 346.877 127.871 387.752 138.541 388.217C149.217 388.686 244.007 394.68 245.393 387.264C246.366 382.086 250.49 339.778 241.754 338.367C233.013 336.965 169.627 335.543 169.627 335.543Z" fill="#B5B0AC"/>
<path d="M291.975 336.263C291.975 336.263 252.628 335.546 252.628 340.506C252.628 345.461 245.853 386.333 256.534 386.796C267.219 387.27 361.995 393.281 363.375 385.876C364.362 380.65 368.486 338.373 359.736 336.968C350.998 335.546 291.975 336.263 291.975 336.263Z" fill="#BFBFBF"/>
<path d="M227.797 281.789C227.797 281.789 194.76 279.174 194.76 284.137C194.76 289.114 187.965 329.958 198.663 330.44C209.325 330.914 297.493 333.75 303.315 328.77C309.148 323.829 310.6 282.02 301.862 280.615C293.121 279.174 227.797 281.789 227.797 281.789Z" fill="#AAA5A2"/>
<path d="M113.523 277.775C113.523 277.775 78.5535 279.181 78.5535 284.141C78.5535 289.118 71.767 329.962 82.4458 330.444C93.1162 330.918 187.906 336.918 189.295 329.491C190.265 324.296 194.391 282.025 185.648 280.619C176.912 279.178 113.523 277.775 113.523 277.775Z" fill="#BFBFBF"/>
<path d="M109.126 329.99C108.426 329.987 107.612 329.923 107.209 329.287C106.372 327.972 108.222 326.593 109.653 326.324C125.868 323.295 143.099 329.364 158.677 323.536C159.422 323.256 160.192 322.928 160.712 322.275C161.422 321.385 161.517 320.106 161.683 318.932C162.458 313.432 166.269 306.261 171.58 305.828C173.881 315.493 187.836 289.052 187.515 285C188.601 298.723 189.201 313.598 186.5 327C182.5 329.99 172.147 330.131 152.5 329.99C138.099 330.471 123.539 330.051 109.126 329.99Z" fill="#898481"/>
<path d="M351.776 278.47C351.776 278.47 312.435 277.773 312.435 282.728C312.435 287.688 305.648 328.554 316.33 329.023C327.006 329.488 421.79 335.488 423.184 328.066C424.149 322.894 428.273 280.614 419.534 279.176C410.788 277.773 351.776 278.47 351.776 278.47Z" fill="#BFBFBF"/>
<path d="M169.627 222.508C169.627 222.508 134.649 223.919 134.649 228.893C134.649 233.833 127.871 274.7 138.541 275.171C149.217 275.653 244.007 281.637 245.393 274.215C246.366 269.04 250.49 226.765 241.754 225.338C233.013 223.919 169.627 222.508 169.627 222.508Z" fill="#D4D4D4"/>
<path d="M291.975 223.21C291.975 223.21 252.628 222.507 252.628 227.468C252.628 232.422 245.853 273.272 256.534 273.763C267.219 274.214 361.995 280.248 363.375 272.809C364.362 267.612 368.486 225.338 359.736 223.918C350.998 222.507 291.975 223.21 291.975 223.21Z" fill="#BFBFBF"/>
<path d="M123.761 276.078C124.316 275.578 124.946 275.174 125.688 275.174C125.955 275.174 126.17 275.096 126.424 275.096C130.982 270.953 129.064 262.474 129.594 256.443C129.809 254.079 130.071 251.7 130.319 249.353C130.118 248.335 129.962 247.409 129.889 246.724C129.329 241.342 134.016 230.006 129.296 226.228C118.516 226.585 110.486 226.9 110.486 226.9C110.486 226.9 77.4577 224.304 77.4577 229.264C77.4577 234.224 70.6768 275.096 81.3555 275.559C85.4068 275.743 100.672 276.25 118.335 276.568C120.15 276.278 121.951 276.131 123.761 276.078Z" fill="#B5B0AC"/>
<path d="M123.424 388.416C123.973 387.914 124.606 387.518 125.345 387.518C125.624 387.518 125.836 387.446 126.084 387.432C130.645 383.308 128.721 374.815 129.259 368.801C129.474 366.437 129.736 364.058 129.976 361.711C129.775 360.676 129.622 359.748 129.555 359.068C128.995 353.7 133.67 342.347 128.953 338.574C118.182 338.943 110.144 339.26 110.144 339.26C110.144 339.26 77.1232 336.642 77.1232 341.605C77.1232 346.588 70.3452 387.432 81.01 387.9C85.0891 388.087 100.34 388.589 117.998 388.887C119.813 388.639 121.617 388.486 123.424 388.416Z" fill="#D4D4D4"/>
<path d="M227.797 169.275C227.797 169.275 194.76 166.702 194.76 171.643C194.76 176.617 187.965 217.472 198.663 217.938C209.325 218.423 297.493 221.25 303.315 216.29C309.148 211.335 310.6 169.529 301.862 168.121C293.121 166.705 227.797 169.275 227.797 169.275Z" fill="#AAA5A2"/>
<path d="M113.523 165.273C113.523 165.273 78.5535 166.704 78.5535 171.642C78.5535 176.616 71.767 217.471 82.4458 217.937C93.1162 218.422 187.906 224.419 189.295 216.994C190.265 211.786 194.391 169.531 185.648 168.12C176.912 166.704 113.523 165.273 113.523 165.273Z" fill="#BFBFBF"/>
<path d="M351.776 165.982C351.776 165.982 312.435 165.274 312.435 170.231C312.435 175.192 305.648 216.058 316.33 216.529C327.006 216.995 421.79 222.992 423.184 215.567C424.149 210.398 428.273 168.118 419.534 166.702C410.788 165.274 351.776 165.982 351.776 165.982Z" fill="#BFBFBF"/>
<path d="M169.627 110C169.627 110 134.649 111.425 134.649 116.404C134.649 121.342 127.871 162.209 138.541 162.683C149.217 163.148 244.007 169.149 245.393 161.746C246.366 156.552 250.49 114.271 241.754 112.844C233.013 111.422 169.627 110 169.627 110Z" fill="#BFBFBF"/>
<path d="M78.8379 235.944C79.2788 234.129 80.0011 232.562 81.1996 231.651C82.3794 230.754 84.0477 230.659 85.5897 230.607C93.1944 230.354 100.865 229.981 108.472 230.001C112.098 230.01 115.578 230.348 119.024 231.401C119.763 231.627 127.169 235.016 126.997 235.154C125.683 236.214 123.673 235.314 122.05 234.711C119.788 233.868 117.292 233.701 114.843 233.545C106.839 233.036 99.1617 231.948 91.2859 233.477C88.9615 233.929 86.546 234.419 84.6831 235.751C81.5783 237.972 81.9137 243.303 80.6635 246.503C80.3054 247.421 79.1318 248.452 78.3453 247.789C77.9768 247.48 77.981 246.96 78.0141 246.505C78.1921 244.065 77.9706 239.519 78.8379 235.944Z" fill="#E5E5E5"/>
<path d="M253.593 352.956C254.436 349.401 255.581 345.874 257.507 343.22C261.316 337.966 267.246 337.199 272.653 336.83C295.53 335.274 317.566 335.274 339.996 342.496C341.707 343.045 343.496 343.691 344.763 345.357C346.029 347.023 346.508 350.052 345.312 351.808C342.194 356.381 317.27 347.06 311.483 347.398C298.963 348.13 286.479 350.037 274.148 353.102C272.717 353.456 271.283 353.831 269.912 354.494C263.274 357.718 262.734 364.018 260.944 371.673C260.131 375.147 258.156 389.692 253.25 385.119C248.67 380.854 252.286 358.474 253.593 352.956Z" fill="#D4D4D4"/>
<path d="M291.975 110.715C291.975 110.715 252.628 109.993 252.628 114.967C252.628 119.925 245.853 160.785 256.534 161.265C267.219 161.739 361.995 167.731 363.375 160.323C364.362 155.117 368.486 112.837 359.736 111.418C350.998 109.996 291.975 110.715 291.975 110.715Z" fill="#D4D4D4"/>
<path d="M123.761 163.564C124.316 163.079 124.946 162.683 125.688 162.683C125.955 162.683 126.17 162.596 126.424 162.596C130.982 158.459 129.064 149.98 129.594 143.952C129.809 141.576 130.071 139.229 130.319 136.845C130.118 135.824 129.962 134.918 129.889 134.235C129.329 128.854 134.016 117.489 129.296 113.736C118.516 114.087 110.486 114.394 110.486 114.394C110.486 114.394 77.4577 111.81 77.4577 116.767C77.4577 121.727 70.6768 162.594 81.3555 163.059C85.4068 163.243 100.672 163.751 118.335 164.046C120.15 163.792 121.951 163.634 123.761 163.564Z" fill="#B5B0AC"/>
<path d="M252.252 158.701C253.706 160.874 256.488 161.142 258.922 161.22C264.858 161.408 270.791 161.595 276.727 161.784C272.089 161.637 267.055 148.635 266.498 144.614C265.553 137.778 268.345 131.74 274.092 128.077C277.669 125.797 286.722 125.114 290.707 125.406C291.713 125.481 292.861 125.733 293.356 126.712C293.98 127.949 293.177 129.423 292.574 130.673C291.221 133.484 290.858 136.868 291.572 139.959C312.937 139.366 328.459 119.419 349.116 117.857C352.138 117.629 355.234 117.857 358.138 116.894C361.04 115.932 366 114.999 360 110.999C359 110.499 286.237 110.779 279.225 110.848C268.563 110.955 250.617 106.598 250.05 123.534C249.716 133.516 251.157 143.26 251.176 153.192C251.181 155.107 251.227 157.166 252.252 158.701Z" fill="#E8E6E2"/>
<path d="M302.593 160.827C302.068 160.825 301.458 160.777 301.157 160.299C300.53 159.311 301.915 158.274 302.988 158.071C315.134 155.793 328.042 160.357 339.711 155.975C340.269 155.764 340.846 155.518 341.235 155.026C341.767 154.358 341.838 153.396 341.963 152.513C342.543 148.377 345.398 142.985 349.377 142.659C351.1 149.927 361.554 130.046 361.313 126.999C362.127 137.317 362.576 148.502 360.553 158.579C357.556 160.827 349.801 160.933 335.084 160.827C324.296 161.19 313.389 160.873 302.593 160.827Z" fill="#898481"/>
<path d="M112.862 117.574C115.134 117.738 117.409 117.902 119.655 118.325C121.413 118.656 123.64 120.192 122.827 121.937C122.395 122.864 121.321 123.116 120.384 123.267C110.261 124.887 105.19 126.094 100.208 137.352C99.8016 138.27 99.415 139.232 98.7295 139.92C97.5378 141.117 95.6766 141.189 94.1662 140.562C92.6557 139.935 91.4122 138.73 90.2066 137.551C88.9452 143.218 86.4603 148.55 83.0149 152.988C82.7259 153.361 82.4111 153.74 81.9927 153.906C80.4463 154.513 79.5097 152.043 79.4081 150.24C78.9936 142.874 76.0503 124.336 80.1573 118.137C84.4058 111.72 105.658 117.05 112.862 117.574Z" fill="#D4D4D4"/>
<path d="M181.113 242.685C179.502 242.639 177.907 242.647 176.37 242.907C172.339 243.585 168.262 246.644 164.771 249.388C163.549 250.349 154.6 256.661 154.636 258.351C149.177 263.329 143.711 268.313 137.976 272.624C137.242 273.175 136.444 273.731 135.62 273.571C133.688 273.195 133.134 269.586 133.085 266.793C132.912 257.002 133.003 247.209 133.354 237.439C133.441 234.986 133.899 232.403 133.871 229.97C133.85 228.12 132.756 226.821 134.124 225.135C134.883 224.2 135.932 223.938 136.935 223.806C142.834 223.037 177.101 222.58 183 223.55C192 224.049 210.587 222.522 222.824 230.294C223.372 230.643 224.005 231.191 224 232.047C223.994 232.726 223.575 233.224 223.186 233.606C217.122 239.519 209.396 240.448 202.044 241.197C197.194 241.692 192.347 242.187 187.497 242.682C185.401 242.898 183.242 242.746 181.113 242.685Z" fill="#E8E6E2"/>
<path d="M179.669 234.95C184.949 234.362 190.21 233.508 195.443 232.39C198.334 231.772 201.214 231.073 204.082 230.292C206.318 229.687 209.897 227.455 212.122 227.889C189.223 223.43 166.472 231.831 143.519 228.256C141.922 228.009 140.283 227.732 138.735 228.315C134.162 230.039 135.411 241.219 135.362 246.016C135.359 246.398 135.356 246.803 135.488 247.138C135.907 248.207 137.036 247.613 137.716 246.893C140.412 244.036 143.048 240.968 146.037 238.737C150.15 235.67 155.679 236.742 160.162 235.981C165.812 235.023 171.761 235.734 177.463 235.18C178.2 235.108 178.934 235.032 179.669 234.95Z" fill="#F5F3ED"/>
<path d="M254.838 120.944C255.279 119.129 256.001 117.562 257.2 116.651C258.379 115.754 260.048 115.659 261.59 115.607C269.194 115.354 276.865 114.981 284.472 115.001C288.098 115.01 291.578 115.348 295.024 116.401C295.763 116.627 303.169 120.016 302.997 120.154C301.683 121.214 299.673 120.314 298.05 119.711C295.788 118.868 293.292 118.701 290.843 118.545C282.839 118.036 275.162 116.948 267.286 118.477C264.961 118.929 262.546 119.419 260.683 120.751C257.578 122.972 257.914 128.303 256.663 131.503C256.305 132.421 255.132 133.452 254.345 132.789C253.977 132.48 253.981 131.96 254.014 131.505C254.192 129.065 253.971 124.519 254.838 120.944Z" fill="#F5F3ED"/>
<path d="M311.764 178.865C312.17 175.83 312.573 172.798 312.978 169.763C313.07 169.081 313.18 168.363 313.802 167.794C314.497 167.157 315.706 166.826 316.874 166.589C324.713 164.998 338.126 166.448 346 166.59C356.416 166.779 362.573 166.565 373 166.589C378.887 166.603 387.057 167.663 390.836 171.233C392.358 172.672 392.07 174.569 391.726 176.303C391.336 178.261 391.014 180.231 390.555 182.187C390.112 184.083 390.636 184.996 387.597 184.627C384.959 184.308 383.554 182.781 380.902 182.36C377.523 181.825 373.417 182.466 370.189 183.175C362.909 184.771 358.675 186.995 352.656 189.872C349.763 191.255 346.724 192.515 343.566 193.641C342.235 194.116 334.885 195.723 334.487 196.421C337.134 191.784 339.779 187.146 342.427 182.509C333.992 185.712 326.311 190.118 321.359 195.511C318.873 198.219 316.983 201.243 316.472 204.345C316.262 205.621 317.212 216.604 312.978 214.499C312.08 214.051 311.358 208.186 311 207.499C310.217 202.973 310 196.999 310.056 191.662C310.628 187.394 311.197 183.13 311.764 178.865Z" fill="#D4D4D4"/>
<path d="M318.018 176.193C318.498 174.332 319.283 172.724 320.587 171.79C321.87 170.87 323.684 170.773 325.361 170.719C333.632 170.46 341.974 170.077 350.247 170.097C354.191 170.106 357.975 170.453 361.723 171.534C362.527 171.766 370.581 175.241 370.394 175.383C368.965 176.47 366.779 175.547 365.014 174.928C362.554 174.064 359.839 173.893 357.176 173.733C348.471 173.211 340.121 172.094 331.556 173.663C329.028 174.127 326.401 174.629 324.375 175.995C320.998 178.273 321.363 183.741 320.003 187.023C319.614 187.964 318.338 189.022 317.482 188.343C317.082 188.025 317.086 187.492 317.122 187.026C317.316 184.522 317.075 179.86 318.018 176.193Z" fill="#F5F3ED"/>
<path d="M83.8305 195.238C85.3312 197.53 87.1482 199.541 89.0608 201.014C89.6518 201.47 90.3139 201.917 91.0912 201.988C93.531 202.213 94.2446 199.178 94.6271 197.019C95.6472 191.288 100.909 186.732 106.861 184.378C112.812 182.024 119.443 181.501 125.931 181.008C144.908 179.567 162.823 180.537 181.765 178.319C182.44 178.24 183.129 178.158 183.742 177.897C186.243 176.833 186.204 173.7 185.782 171.26C160.937 170.957 135.877 170.917 111.103 170.185C102.219 169.923 87.847 168.953 82.2195 176.552C78.2936 181.859 80.0444 189.45 83.8305 195.238Z" fill="#D4D4D4"/>
<path d="M137.958 123.927C138.077 121.836 138.274 119.597 139.485 117.994C141.039 115.938 143.72 115.595 146.129 115.41C174.853 113.411 203.158 114.693 231.953 114.671C232.832 114.671 233.766 114.685 234.505 115.218C235.84 116.18 235.92 118.364 235.404 120.041C234.888 121.718 233.938 123.234 233.688 124.985C232.685 122.031 229.367 121.18 226.558 120.756C212.124 118.584 198.693 116.776 184.104 118.167C178.204 118.729 172.411 119.93 166.535 120.621C162.606 121.082 155.781 119.703 152.511 122.349C149.883 124.477 150.069 128.723 149.013 132.313C147.264 138.273 145.929 142.813 145.392 149.293C145.338 149.939 145.254 150.649 144.816 151.073C144.433 151.443 143.884 151.485 143.377 151.512C140.904 151.638 138.429 151.761 135.956 151.887C137.285 142.374 137.413 133.44 137.958 123.927Z" fill="#D4D4D4"/>
<path d="M89.8488 323.963C88.1154 323.979 77.3726 324.598 77 323C74.0129 310.272 76.5 301.5 78.2062 283.23C78.0724 282.658 77.9363 282.06 78.0322 281.478C79.1565 274.563 98.1497 277.632 101.462 277.958C111.664 278.961 121.91 280.048 132.152 279.395C148.412 278.359 164.94 279.835 181.225 279.821C182.111 279.821 183.052 279.841 183.797 280.428C185.142 281.494 185.223 283.916 184.703 285.774C184.183 287.63 183.226 289.313 182.976 291.254C181.966 287.98 178.622 287.037 175.791 286.569C161.246 284.162 147.712 282.158 133.011 283.7C127.065 284.323 121.227 285.654 115.307 286.419C109.273 287.198 102.899 286.785 96.829 286.783C96.4676 286.783 96.0772 286.793 95.7917 287.064C95.3969 287.436 95.3589 288.138 95.3545 288.748C95.3366 291.557 96.4966 323.277 95.4816 323.616C93.7527 324.192 91.6915 323.944 89.8488 323.963Z" fill="#D4D4D4"/>
<path d="M273.034 198.432C271.477 200.474 268.988 203.083 266.929 204.603C266.745 204.739 266.549 204.876 266.439 205.077C266.13 205.643 266.634 206.283 267.018 206.803C268.605 208.953 268.378 211.894 268.079 214.551C266.557 212.201 264.861 209.058 261.95 208.892C258.807 208.714 255.716 209.596 252.554 209.173C247.764 208.532 242.55 208.987 238.012 207.121C244.064 207.16 250.118 207.042 256.165 206.763C257.102 206.72 258.05 206.67 258.944 206.39C259.849 206.105 260.663 205.595 261.444 205.057C264.612 202.881 267.769 199.996 270.2 197.021C270.194 196.72 271.159 195.621 271.343 195.301C271.75 194.594 272.185 193.896 272.631 193.204C273.537 191.803 274.44 190.401 275.345 189C275.817 192.182 274.989 195.872 273.034 198.432Z" fill="#F5F3ED"/>
<path d="M274.912 189.186C274.078 190.264 273.244 191.343 272.412 192.42C270.896 194.381 269.04 196.189 267.524 198.152C267.342 198.387 267.166 198.624 266.996 198.863C265.836 200.492 264.925 201.662 263.116 202.702C259.981 204.505 255.924 205.768 252.277 205.58C246.82 205.301 241.327 205.775 236 206.987C237.686 206.604 240.516 207.461 242.331 207.471C244.604 207.485 246.877 207.359 249.15 207.343C251.073 207.329 253.02 207.663 254.9 207.586C256.993 207.499 258.969 206.959 261.108 207.072C261.256 207.08 261.41 207.09 261.545 207.155C261.723 207.242 261.843 207.414 261.96 207.574C263.047 209.086 264.462 210.361 266.081 211.284C266.012 210.11 265.636 208.956 265 207.967C264.004 206.416 263.759 205.307 264.883 203.692C265.567 202.71 266.591 202.032 267.532 201.291C269.704 199.577 271.171 197.407 272.78 195.227C273.602 194.112 274.203 192.851 274.701 191.562C274.948 190.922 275.112 189.957 275.361 189.123C275.217 189.159 275.062 189.169 274.912 189.186Z" fill="#9A9088"/>
<path d="M317.275 293.606C317.439 290.857 317.923 287.791 320.001 286.179C321.762 284.814 324.131 284.929 326.298 285.103C339.995 286.192 366.803 281.912 380.5 283.001C388.902 283.671 385.415 290.45 390 298.051C377.16 298.691 364.286 298.494 351.468 297.463C347.599 297.15 343.222 296.943 340.396 299.802C338.339 301.881 337.685 305.05 336.862 307.964C335.181 313.892 329.239 330.584 321.43 323.109C316.149 318.05 316.88 300.251 317.275 293.606Z" fill="#D4D4D4"/>
<path d="M256.726 239.44C256.635 236.478 256.879 233.137 259.107 231.182C260.997 229.527 263.738 229.391 266.251 229.337C282.143 229.003 298.035 228.672 313.93 228.338C323.679 228.133 334.912 228.589 340.966 236.231C326.239 238.326 311.386 239.528 296.513 239.826C292.024 239.916 286.959 240.174 283.996 243.547C281.839 246.002 281.409 249.467 280.756 252.683C279.425 259.219 274.281 277.763 264.524 270.608C257.919 265.763 256.947 246.604 256.726 239.44Z" fill="#D4D4D4"/>
<path d="M221.457 327.964C214.664 328.058 207.138 328.074 202 326.633C214.524 326.283 227.103 325.929 239.322 324.972C242.712 324.706 246.093 324.393 249.571 324.303C258.751 324.062 266.167 326.187 275.107 325.409C283.655 324.664 286.603 322.063 289.575 319.68C291.554 318.095 293.025 316.441 293.732 314.744C294.402 313.138 292.76 311.635 293.106 310C298.347 311.605 301.451 314.136 302.616 316.399C303.074 317.292 303.043 318.202 302.925 319.107C302.753 320.463 302.398 321.817 301.868 323.163C301.526 324.03 301.928 325.485 300.326 326.217C299.051 326.8 296.596 326.961 294.39 326.952C270.283 326.849 245.635 327.63 221.457 327.964Z" fill="#898481"/>
<path d="M201.143 288.843C200.672 289.62 201.449 290.563 202.218 291.035C204.856 292.664 208.088 292.882 211.179 292.971C225.75 293.39 240.331 289.145 254.605 290.208C262.187 290.771 278.867 294.779 285 288.447C278.89 285.219 269.995 286.035 263.294 286.253C243.133 286.905 222.972 287.56 202.812 288.212C202.189 288.229 201.467 288.306 201.143 288.843Z" fill="#E8E6E2"/>
<path d="M92.3803 384.661C89.6089 384.779 86.5401 384.799 84.4459 382.982C89.553 382.54 94.6829 382.094 99.6654 380.887C101.048 380.551 102.427 380.157 103.845 380.042C107.588 379.738 110.613 382.419 114.258 381.437C117.744 380.498 118.946 377.217 120.158 374.21C120.964 372.21 121.565 370.124 121.853 367.985C122.127 365.958 121.457 364.062 121.598 362C123.735 364.024 125.001 367.218 125.476 370.073C125.663 371.199 125.649 372.347 125.602 373.489C125.531 375.199 125.387 376.907 125.171 378.606C125.031 379.699 125.195 381.535 124.542 382.459C124.023 383.193 123.021 383.396 122.122 383.385C112.291 383.255 102.24 384.239 92.3803 384.661Z" fill="#9A9088"/>
<path d="M189.11 354.671C187.369 354.598 185.646 354.557 183.972 354.669C179.581 354.963 175.024 356.687 171.115 358.241C169.746 358.786 159.764 362.331 159.719 363.351C153.573 366.193 147.422 369.04 141.014 371.472C140.194 371.782 139.305 372.094 138.421 371.975C136.35 371.694 135.927 369.503 136.01 367.819C136.299 361.916 136.872 356.02 137.727 350.144C137.941 348.669 138.563 347.125 138.651 345.659C138.718 344.544 137.598 343.729 139.16 342.753C140.025 342.211 141.175 342.084 142.265 342.035C148.681 341.741 162.67 339.747 169 340.501C179.177 341.713 195.702 341.149 206 340.501C220.22 339.607 221.96 343.371 234.811 348.405C235.387 348.63 236.046 348.978 235.998 349.494C235.957 349.903 235.483 350.192 235.044 350.41C228.199 353.798 219.798 354.137 211.814 354.377C206.547 354.537 201.281 354.695 196.014 354.855C193.736 354.922 191.408 354.769 189.11 354.671Z" fill="#D4D4D4"/>
<path d="M187.926 349.969C193.661 349.766 199.394 349.402 205.106 348.878C208.259 348.588 211.41 348.249 214.55 347.862C216.995 347.561 220.974 346.32 223.358 346.644C198.816 343.302 173.81 347.71 149.166 344.901C147.452 344.705 145.691 344.492 143.99 344.799C138.962 345.707 139.768 352.477 139.482 355.365C139.46 355.595 139.439 355.839 139.565 356.045C139.966 356.7 141.215 356.376 141.986 355.961C145.043 354.316 148.041 352.544 151.382 351.287C155.979 349.557 161.902 350.361 166.789 350.032C172.942 349.617 179.34 350.214 185.533 350.043C186.329 350.023 187.127 349.997 187.926 349.969Z" fill="#E5E5E5"/>
<path d="M202.924 173.579C206.233 172.845 210.471 173.107 213.636 172.875C221.79 172.276 229.966 171.986 238.142 172.001C254.493 172.031 270.842 173.287 287 175.763C273.752 177.853 261.018 177.007 247.814 177.199C238.021 177.342 228.753 179.85 219.051 181.484C217.32 181.775 215.573 182.068 213.818 181.986C207.857 181.709 202.946 177.553 197.017 176.97C196.699 176.939 200.863 174.213 201.478 173.991C201.935 173.826 202.418 173.692 202.924 173.579Z" fill="#E8E6E2"/>
<path d="M108.196 271.123C108.682 270.404 109.165 269.742 109.691 269.194C109.721 269.076 109.776 268.967 109.873 268.878C109.97 268.788 110.092 268.739 110.217 268.695C110.83 268.197 111.545 267.895 112.411 267.821C113.88 267.151 115.403 266.308 116.547 265.536C118.673 264.099 120.239 261.522 120.69 259L117.571 261.484C117.057 261.894 116.551 262.31 116.065 262.74C115.844 262.935 114.836 263.518 114.763 263.748C112.454 265.199 109.73 266.426 107.079 267.275C107.052 267.474 107.031 267.674 107.005 267.873C107.506 268.885 107.882 270.006 108.196 271.123Z" fill="#F5F3ED"/>
<path d="M107.975 270.366C107.718 269.131 107.887 268.294 109.046 267.437C109.814 266.87 110.759 266.617 111.657 266.297C113.735 265.556 115.392 264.29 117.163 263.05C118.067 262.417 118.842 261.616 119.546 260.77C119.896 260.35 120.265 259.663 120.665 259.097C120.551 259.088 120.432 259.055 120.315 259.031C119.411 259.633 118.508 260.235 117.604 260.837C115.959 261.932 114.099 262.826 112.454 263.923C112.257 264.054 112.063 264.187 111.874 264.326C110.584 265.262 109.598 265.912 107.966 266.239C107.715 266.289 107.457 266.327 107.199 266.366C107.135 266.864 107.068 267.363 107 267.863C107.391 268.65 107.709 269.498 107.975 270.366Z" fill="#9A9088"/>
<path d="M403.848 302.929C401.877 305.512 398.73 308.812 396.124 310.735C395.892 310.907 395.644 311.08 395.504 311.335C395.114 312.05 395.752 312.862 396.234 313.517C398.242 316.238 397.955 319.958 397.579 323.319C395.654 320.346 393.509 316.37 389.826 316.16C385.851 315.933 381.94 317.05 377.94 316.515C371.882 315.705 365.286 316.28 359.545 313.92C367.201 313.97 374.859 313.82 382.508 313.467C383.693 313.412 384.893 313.35 386.023 312.995C387.166 312.635 388.198 311.99 389.186 311.31C393.194 308.557 397.187 304.907 400.262 301.144C400.255 300.764 401.475 299.373 401.707 298.968C402.222 298.073 402.773 297.191 403.338 296.316C404.483 294.543 405.625 292.77 406.77 291C407.371 295.02 406.32 299.688 403.848 302.929Z" fill="#F5F3ED"/>
<path d="M406.225 291.234C405.17 292.596 404.118 293.959 403.063 295.324C401.145 297.804 398.797 300.092 396.879 302.575C396.649 302.873 396.427 303.173 396.212 303.475C394.744 305.538 393.592 307.016 391.304 308.331C387.338 310.611 382.205 312.209 377.59 311.971C370.687 311.618 363.738 312.219 357 313.751C359.133 313.266 362.713 314.351 365.008 314.364C367.884 314.381 370.759 314.221 373.634 314.201C376.067 314.184 378.53 314.606 380.908 314.509C383.555 314.399 386.056 313.716 388.761 313.859C388.949 313.869 389.144 313.881 389.314 313.964C389.539 314.074 389.694 314.291 389.839 314.494C391.214 316.407 393.004 318.019 395.052 319.187C394.964 317.702 394.489 316.242 393.684 314.991C392.424 313.029 392.114 311.626 393.537 309.583C394.402 308.341 395.697 307.483 396.887 306.545C399.635 304.378 401.49 301.635 403.525 298.875C404.565 297.464 405.325 295.869 405.955 294.239C406.268 293.429 406.475 292.209 406.79 291.156C406.61 291.196 406.413 291.209 406.225 291.234Z" fill="#9A9088"/>
<path d="M205.009 381.364C205.829 380.157 206.636 379.046 207.52 378.125C207.57 377.926 207.663 377.744 207.827 377.593C207.989 377.442 208.195 377.36 208.404 377.286C209.434 376.452 210.635 375.942 212.091 375.817C214.557 374.693 217.116 373.277 219.037 371.98C222.61 369.566 225.241 365.237 226 361L220.76 365.173C219.897 365.861 219.048 366.557 218.23 367.283C217.857 367.611 216.166 368.593 216.044 368.976C212.165 371.414 207.589 373.475 203.135 374.902C203.09 375.235 203.056 375.568 203.011 375.905C203.847 377.609 204.482 379.49 205.009 381.364Z" fill="#F5F3ED"/>
<path d="M204.638 380.098C204.204 378.02 204.49 376.618 206.438 375.175C207.727 374.223 209.314 373.796 210.823 373.259C214.313 372.013 217.097 369.888 220.072 367.808C221.591 366.744 222.893 365.399 224.076 363.978C224.664 363.272 225.283 362.118 225.955 361.168C225.764 361.152 225.563 361.096 225.368 361.057C223.848 362.068 222.332 363.078 220.813 364.089C218.05 365.929 214.922 367.432 212.162 369.274C211.831 369.493 211.506 369.718 211.188 369.951C209.021 371.523 207.364 372.616 204.622 373.164C204.201 373.249 203.767 373.312 203.333 373.378C203.23 374.215 203.114 375.054 203 375.892C203.656 377.216 204.188 378.639 204.638 380.098Z" fill="#9A9088"/>
<path d="M169.336 154.799C170.221 153.89 171.08 153.06 171.976 152.404C172.049 152.242 172.155 152.099 172.319 151.995C172.48 151.89 172.669 151.851 172.859 151.819C173.866 151.26 174.972 151.004 176.238 151.117C178.519 150.526 180.925 149.699 182.765 148.878C186.189 147.35 189.095 144.039 190.384 140.525L185.267 143.309C184.425 143.768 183.592 144.236 182.783 144.734C182.414 144.959 180.817 145.545 180.655 145.855C176.965 147.357 172.736 148.433 168.706 148.982C168.618 149.261 168.538 149.542 168.449 149.823C168.908 151.408 169.168 153.115 169.336 154.799Z" fill="#F5F3ED"/>
<path d="M169.21 153.659C169.152 151.814 169.608 150.656 171.493 149.715C172.741 149.093 174.165 148.968 175.538 148.735C178.715 148.194 181.42 146.794 184.281 145.461C185.742 144.779 187.06 143.824 188.287 142.786C188.897 142.269 189.601 141.375 190.32 140.662C190.159 140.62 189.995 140.542 189.834 140.478C188.38 141.115 186.929 141.752 185.476 142.389C182.833 143.547 179.927 144.363 177.285 145.524C176.969 145.662 176.656 145.806 176.349 145.957C174.256 146.977 172.673 147.663 170.242 147.719C169.869 147.728 169.488 147.717 169.106 147.708C168.891 148.408 168.665 149.109 168.441 149.811C168.804 151.043 169.045 152.342 169.21 153.659Z" fill="#9A9088"/>
<path d="M123 158.128C122.141 157.792 119.714 158.164 120.028 158.706C121.147 159.376 123.012 158.779 123 158.128Z" fill="#9A9A9A"/>
<path d="M116.195 158.186C115.409 158.715 114.289 159.993 115.611 161C115.444 160.464 117.214 160.258 116.08 159.776C117.214 160.261 116.355 158.003 118 159.732L116.038 158L116.195 158.186Z" fill="#9A9A9A"/>
<path d="M122.061 131.613C123.011 131.593 122.376 131.003 123 131.037C122.255 130.898 119.339 130.404 118.13 130C117.412 130.579 115.7 129.763 115.612 130.531C115.341 130.531 114.27 130.345 113.651 130.138L113.778 130.203C113.342 130.898 111.978 130.023 112 130.579C112.613 130.777 113.845 131.308 114.06 130.766L114.187 131.218C115.048 131.443 113.823 130.492 115.264 130.726C118.301 131.593 113.745 132.203 116.462 133C116.147 131.901 119.946 133.294 120.355 131.763C121.553 131.328 121.47 132.395 122.415 131.814L122.061 131.613Z" fill="#9A9A9A"/>
<path d="M86.7069 146L85 147.25C87.7462 147.375 84.5746 149.343 86.5938 150C86.82 149.474 89.4477 146.479 92 147.823C90.46 146.482 86.7985 148.443 86.7069 146Z" fill="#9A9A9A"/>
<path d="M105 129C106.423 130.016 106.19 130.196 108 129.817C107.752 128.641 106.17 129.511 105 129Z" fill="#9A9A9A"/>
<path d="M91.3392 121L88.7271 121.012C89.2888 121.256 90.0528 121.128 90.3056 121.492C89.2832 121.507 87.4856 121.926 87.1879 121.304C85.9689 122.94 91.0864 121.362 90.9123 123L90.0641 121.866C91.6313 121.359 92.1819 122.358 93.7604 122.346C94.7603 121.823 92.3729 121.215 91.3392 121Z" fill="#9A9A9A"/>
<path d="M85.0723 117L84 117.771C85.0964 117.243 87.9458 118.472 86.8675 119L89 117.715L85.0723 117Z" fill="#9A9A9A"/>
<path d="M123 270.128C122.141 269.792 119.714 270.164 120.028 270.706C121.147 271.376 123.012 270.779 123 270.128Z" fill="#9A9A9A"/>
<path d="M116.195 270.186C115.409 270.715 114.289 271.993 115.611 273C115.444 272.464 117.214 272.258 116.08 271.776C117.214 272.261 116.355 270.003 118 271.732L116.038 270L116.195 270.186Z" fill="#9A9A9A"/>
<path d="M122.061 243.613C123.011 243.593 122.376 243.003 123 243.037C122.255 242.898 119.339 242.404 118.13 242C117.412 242.579 115.7 241.763 115.612 242.531C115.341 242.531 114.27 242.345 113.651 242.138L113.778 242.203C113.342 242.898 111.978 242.023 112 242.579C112.613 242.777 113.845 243.308 114.06 242.766L114.187 243.218C115.048 243.443 113.823 242.492 115.264 242.726C118.301 243.593 113.745 244.203 116.462 245C116.147 243.901 119.946 245.294 120.355 243.763C121.553 243.328 121.47 244.395 122.415 243.814L122.061 243.613Z" fill="#9A9A9A"/>
<path d="M86.7069 258L85 259.25C87.7462 259.375 84.5746 261.343 86.5938 262C86.82 261.474 89.4477 258.479 92 259.823C90.46 258.482 86.7985 260.443 86.7069 258Z" fill="#9A9A9A"/>
<path d="M105 241C106.423 242.016 106.19 242.196 108 241.817C107.752 240.641 106.17 241.511 105 241Z" fill="#9A9A9A"/>
<path d="M91.3392 233L88.7271 233.012C89.2888 233.256 90.0528 233.128 90.3056 233.492C89.2832 233.507 87.4856 233.926 87.1879 233.304C85.9689 234.94 91.0864 233.362 90.9123 235L90.0641 233.866C91.6313 233.359 92.1819 234.358 93.7604 234.346C94.7603 233.823 92.3729 233.215 91.3392 233Z" fill="#9A9A9A"/>
<path d="M85.0723 229L84 229.771C85.0964 229.243 87.9458 230.472 86.8675 231L89 229.715L85.0723 229Z" fill="#9A9A9A"/>
<path d="M122 382.128C121.141 381.792 118.714 382.164 119.028 382.706C120.147 383.376 122.012 382.779 122 382.128Z" fill="#9A9A9A"/>
<path d="M115.195 382.186C114.409 382.715 113.289 383.993 114.611 385C114.444 384.464 116.214 384.258 115.08 383.776C116.214 384.261 115.355 382.003 117 383.732L115.038 382L115.195 382.186Z" fill="#9A9A9A"/>
<path d="M121.061 355.613C122.011 355.593 121.376 355.003 122 355.037C121.255 354.898 118.339 354.404 117.13 354C116.412 354.579 114.7 353.763 114.612 354.531C114.341 354.531 113.27 354.345 112.651 354.138L112.778 354.203C112.342 354.898 110.978 354.023 111 354.579C111.613 354.777 112.845 355.308 113.06 354.766L113.187 355.218C114.048 355.443 112.823 354.492 114.264 354.726C117.301 355.593 112.745 356.203 115.462 357C115.147 355.901 118.946 357.294 119.355 355.763C120.553 355.328 120.47 356.395 121.415 355.814L121.061 355.613Z" fill="#9A9A9A"/>
<path d="M85.7069 370L84 371.25C86.7462 371.375 83.5746 373.343 85.5938 374C85.82 373.474 88.4477 370.479 91 371.823C89.46 370.482 85.7985 372.443 85.7069 370Z" fill="#9A9A9A"/>
<path d="M104 353C105.423 354.016 105.19 354.196 107 353.817C106.752 352.641 105.17 353.511 104 353Z" fill="#9A9A9A"/>
<path d="M90.3392 345L87.7271 345.012C88.2888 345.256 89.0528 345.128 89.3056 345.492C88.2832 345.507 86.4856 345.926 86.1879 345.304C84.9689 346.94 90.0864 345.362 89.9123 347L89.0641 345.866C90.6313 345.359 91.1819 346.358 92.7604 346.346C93.7603 345.823 91.3729 345.215 90.3392 345Z" fill="#9A9A9A"/>
<path d="M84.0723 341L83 341.771C84.0964 341.243 86.9458 342.472 85.8675 343L88 341.715L84.0723 341Z" fill="#9A9A9A"/>
<path d="M138.001 120.181C138.531 120.6 140.075 120.145 139.87 119.422C139.152 118.559 137.971 119.313 138.001 120.181Z" fill="#9A9A9A"/>
<path d="M142.848 120.079C143.697 119.644 144.878 118.584 143.461 117.758C143.66 118.191 141.753 118.373 142.976 118.784C141.753 118.373 142.68 120.24 140.908 118.803L143.024 120.24L142.848 120.079Z" fill="#9A9A9A"/>
<path d="M156.077 117.037C155.954 118.361 157.128 117.318 157.999 117.448C157.621 116.585 157.793 116.416 158.855 116.686L157.255 116C156.735 116.146 157.505 118.19 156.077 117.037Z" fill="#9A9A9A"/>
<path d="M158.313 122.227L158.81 121.791L157.255 121.974C157.621 122.53 157.793 122.092 158.313 122.227Z" fill="#9A9A9A"/>
<path d="M163.785 131.759L164.959 130.688C163.045 130.59 165.254 128.954 163.845 128.375C163.684 128.816 161.86 131.349 160.092 130.216C161.176 131.366 163.722 129.713 163.785 131.759Z" fill="#9A9A9A"/>
<path d="M150.437 148.342C149.353 147.466 149.543 147.325 148.175 147.651C148.366 148.663 149.558 147.901 150.437 148.342Z" fill="#9A9A9A"/>
<path d="M168.237 136.161C168.775 136.582 167.886 136.161 168.237 135.871L169.287 136.411C168.237 136.158 169.583 135.244 169.411 135.109C168.742 135.413 167.519 135.301 168.237 136.161Z" fill="#9A9A9A"/>
<path d="M221.742 129.74L223.473 129.69C223.114 129.417 222.602 129.566 222.404 129.114C223.099 129.114 224.299 128.661 224.497 129.369C225.316 127.478 221.907 129.285 222.022 127.391L222.583 128.681C221.548 129.302 221.174 128.141 220.135 128.155C219.454 128.745 221.047 129.476 221.742 129.74Z" fill="#9A9A9A"/>
<path d="M226.093 130.37L226.475 131.82C228.007 131.348 228.736 132.498 229.921 131.463C228.358 131.348 227.446 129.476 225.547 130.232C225.742 130.37 225.914 130.808 226.093 130.37Z" fill="#9A9A9A"/>
<path d="M225.82 133.576L226.501 132.682C225.805 133.292 224.049 131.87 224.725 131.266L223.391 132.764L225.82 133.576Z" fill="#9A9A9A"/>
<path d="M228.904 132.632L227.349 132.531L226.848 132.967L228.904 132.632Z" fill="#9A9A9A"/>
<path d="M243 129.416L241.438 129.031L242.14 129.588L243 129.416Z" fill="#9A9A9A"/>
<path d="M160.963 155.843L162.686 155.807C162.327 155.52 161.819 155.669 161.628 155.23C162.331 155.23 163.524 154.775 163.725 155.489C164.533 153.58 161.128 155.402 161.243 153.496L161.808 154.795C160.765 155.402 160.387 154.238 159.348 154.269C158.672 154.859 160.272 155.576 160.963 155.843Z" fill="#9A9A9A"/>
<path d="M165.31 156.474L165.695 157.913C167.235 157.438 167.953 158.591 169.126 157.548C167.586 157.438 166.659 155.572 164.775 156.342C164.959 156.474 165.138 156.921 165.31 156.474Z" fill="#9A9A9A"/>
<path d="M165.049 159.691L165.721 158.778C165.019 159.39 163.269 157.968 163.927 157.375L162.604 158.865L165.049 159.691Z" fill="#9A9A9A"/>
<path d="M190.743 139.031L189.842 137.744L189.502 138.053L190.743 139.031Z" fill="#9A9A9A"/>
<path d="M168.14 158.739L166.585 158.627L166.073 159.079L168.14 158.739Z" fill="#9A9A9A"/>
<path d="M182.228 155.531L180.654 155.141L181.376 155.686L182.228 155.531Z" fill="#9A9A9A"/>
<path d="M203.733 139.204C203.516 138.476 205.411 138.001 203.837 137.613C204.39 138.586 201.972 138.372 203.733 139.204Z" fill="#9A9A9A"/>
<path d="M209.859 136.164L208.797 135.318L208.655 136.027L209.859 136.164Z" fill="#9A9A9A"/>
<path d="M203.714 144.595C204.391 144.289 205.972 144.691 205.411 143.679C204.944 145.318 203.83 142.985 203.153 143.597C203.677 143.727 203.52 144.148 203.714 144.595Z" fill="#9A9A9A"/>
<path d="M188.609 160.652L187.398 160.225L186.717 160.818L188.609 160.652Z" fill="#9A9A9A"/>
<path d="M201.352 152.663L202.178 151.612C202.387 152.362 202.234 153.366 202.252 153.962V153.627C202.776 153.779 204.192 154.639 203.841 155.226L206.592 154.574C205.153 152.576 203.733 151.429 201.131 150.771C201.138 151.35 200.32 152.989 199.595 151.82C198.604 153.304 201.49 151.348 201.352 152.663Z" fill="#9A9A9A"/>
<path d="M217.025 144.159L215.616 143.605C214.573 143.923 216.666 143.589 216.341 144.463L213.919 144.513C215.661 144.769 215.668 145.075 217.025 144.159Z" fill="#9A9A9A"/>
<path d="M220.056 153.434L217.301 153.49L219.742 153.993L220.056 153.434Z" fill="#9A9A9A"/>
<path d="M234.38 146.139L233.857 145.99C234.22 145.99 235.962 146.836 236.989 146.513C237.146 146.074 237.281 144.773 236.238 144.486C237.15 146.665 233.637 144.098 234.38 146.139Z" fill="#9A9A9A"/>
<path d="M235.116 147.577C235.49 148.44 236.511 147.85 236.855 147.527C236.313 146.819 235.457 147.577 235.116 147.577Z" fill="#9A9A9A"/>
<path d="M239.221 151.697L240.458 152.712L239.094 153.319C240.496 153.575 241.191 153.575 241.505 152.392C241.288 151.079 240.226 150.537 238.148 150.854L239.06 151.869L239.221 151.697Z" fill="#9A9A9A"/>
<path d="M242.999 267.637C242.469 267.218 240.925 267.674 241.13 268.396C241.848 269.259 243.029 268.506 242.999 267.637Z" fill="#9A9A9A"/>
<path d="M238.152 267.739C237.303 268.175 236.122 269.234 237.539 270.061C237.34 269.628 239.247 269.445 238.024 269.035C239.247 269.445 238.32 267.579 240.092 269.015L237.976 267.579L238.152 267.739Z" fill="#9A9A9A"/>
<path d="M224.923 270.781C225.046 269.457 223.872 270.5 223.001 270.371C223.379 271.234 223.207 271.402 222.145 271.133L223.745 271.818C224.265 271.672 223.495 269.629 224.923 270.781Z" fill="#9A9A9A"/>
<path d="M222.687 265.592L222.19 266.027L223.745 265.845C223.379 265.288 223.207 265.727 222.687 265.592Z" fill="#9A9A9A"/>
<path d="M217.215 256.059L216.041 257.13C217.955 257.229 215.746 258.864 217.155 259.443C217.316 259.002 219.14 256.47 220.908 257.602C219.824 256.453 217.278 258.105 217.215 256.059Z" fill="#9A9A9A"/>
<path d="M230.563 239.476C231.647 240.353 231.457 240.493 232.825 240.167C232.634 239.155 231.442 239.917 230.563 239.476Z" fill="#9A9A9A"/>
<path d="M212.763 251.658C212.225 251.236 213.114 251.658 212.763 251.947L211.713 251.408C212.763 251.661 211.417 252.574 211.589 252.709C212.258 252.405 213.481 252.518 212.763 251.658Z" fill="#9A9A9A"/>
<path d="M159.258 258.078L157.527 258.129C157.886 258.401 158.398 258.252 158.596 258.705C157.901 258.705 156.701 259.157 156.503 258.449C155.684 260.341 159.093 258.533 158.978 260.428L158.417 259.138C159.452 258.516 159.826 259.677 160.865 259.663C161.546 259.073 159.953 258.342 159.258 258.078Z" fill="#9A9A9A"/>
<path d="M154.907 257.449L154.525 255.998C152.993 256.47 152.264 255.321 151.079 256.355C152.642 256.47 153.554 258.342 155.453 257.586C155.258 257.449 155.086 257.01 154.907 257.449Z" fill="#9A9A9A"/>
<path d="M155.18 254.242L154.499 255.136C155.195 254.526 156.951 255.948 156.275 256.553L157.609 255.055L155.18 254.242Z" fill="#9A9A9A"/>
<path d="M152.096 255.186L153.651 255.287L154.152 254.851L152.096 255.186Z" fill="#9A9A9A"/>
<path d="M138 258.402L139.562 258.787L138.86 258.231L138 258.402Z" fill="#9A9A9A"/>
<path d="M220.037 231.975L218.314 232.012C218.673 232.299 219.181 232.15 219.372 232.588C218.669 232.588 217.476 233.043 217.275 232.329C216.467 234.238 219.872 232.417 219.757 234.322L219.192 233.024C220.235 232.417 220.613 233.58 221.652 233.549C222.328 232.959 220.728 232.242 220.037 231.975Z" fill="#9A9A9A"/>
<path d="M215.69 231.344L215.305 229.905C213.765 230.38 213.047 229.228 211.874 230.271C213.414 230.38 214.341 232.246 216.225 231.476C216.041 231.344 215.862 230.897 215.69 231.344Z" fill="#9A9A9A"/>
<path d="M215.951 228.127L215.279 229.041C215.981 228.428 217.731 229.85 217.073 230.443L218.396 228.954L215.951 228.127Z" fill="#9A9A9A"/>
<path d="M190.257 248.787L191.158 250.074L191.498 249.765L190.257 248.787Z" fill="#9A9A9A"/>
<path d="M212.86 229.079L214.415 229.191L214.927 228.739L212.86 229.079Z" fill="#9A9A9A"/>
<path d="M198.772 232.287L200.346 232.678L199.624 232.132L198.772 232.287Z" fill="#9A9A9A"/>
<path d="M177.267 248.614C177.484 249.342 175.589 249.817 177.163 250.205C176.61 249.233 179.028 249.446 177.267 248.614Z" fill="#9A9A9A"/>
<path d="M171.141 251.654L172.203 252.5L172.345 251.792L171.141 251.654Z" fill="#9A9A9A"/>
<path d="M177.286 243.223C176.609 243.529 175.028 243.128 175.589 244.139C176.056 242.501 177.17 244.834 177.847 244.221C177.323 244.092 177.48 243.67 177.286 243.223Z" fill="#9A9A9A"/>
<path d="M192.391 227.167L193.602 227.594L194.283 227.001L192.391 227.167Z" fill="#9A9A9A"/>
<path d="M179.648 235.155L178.822 236.206C178.613 235.456 178.766 234.453 178.748 233.857V234.191C178.224 234.039 176.808 233.179 177.159 232.592L174.408 233.244C175.847 235.242 177.267 236.389 179.869 237.047C179.862 236.468 180.68 234.829 181.405 235.998C182.396 234.514 179.51 236.471 179.648 235.155Z" fill="#9A9A9A"/>
<path d="M163.975 243.659L165.384 244.213C166.427 243.895 164.334 244.23 164.659 243.356L167.081 243.305C165.339 243.049 165.332 242.743 163.975 243.659Z" fill="#9A9A9A"/>
<path d="M160.944 234.385L163.699 234.329L161.258 233.825L160.944 234.385Z" fill="#9A9A9A"/>
<path d="M146.62 241.679L147.143 241.828C146.78 241.828 145.038 240.982 144.011 241.306C143.854 241.744 143.719 243.045 144.762 243.332C143.85 241.154 147.363 243.72 146.62 241.679Z" fill="#9A9A9A"/>
<path d="M145.884 240.241C145.51 239.378 144.489 239.968 144.145 240.292C144.687 241 145.543 240.241 145.884 240.241Z" fill="#9A9A9A"/>
<path d="M141.779 236.121L140.542 235.106L141.906 234.499C140.504 234.243 139.809 234.243 139.495 235.427C139.712 236.739 140.774 237.282 142.852 236.964L141.94 235.95L141.779 236.121Z" fill="#9A9A9A"/>
<path d="M256.001 230.181C256.531 230.6 258.075 230.145 257.87 229.422C257.152 228.559 255.971 229.313 256.001 230.181Z" fill="#9A9A9A"/>
<path d="M260.848 230.079C261.697 229.644 262.878 228.584 261.461 227.758C261.66 228.191 259.753 228.373 260.976 228.784C259.753 228.373 260.68 230.24 258.908 228.803L261.024 230.24L260.848 230.079Z" fill="#9A9A9A"/>
<path d="M274.077 227.037C273.954 228.361 275.128 227.318 275.999 227.448C275.621 226.585 275.793 226.416 276.855 226.686L275.255 226C274.735 226.146 275.505 228.19 274.077 227.037Z" fill="#9A9A9A"/>
<path d="M276.313 232.227L276.81 231.791L275.255 231.974C275.621 232.53 275.793 232.092 276.313 232.227Z" fill="#9A9A9A"/>
<path d="M281.785 241.759L282.959 240.688C281.045 240.59 283.254 238.954 281.845 238.375C281.684 238.816 279.86 241.349 278.092 240.216C279.176 241.366 281.722 239.713 281.785 241.759Z" fill="#9A9A9A"/>
<path d="M268.437 258.342C267.353 257.466 267.543 257.325 266.175 257.651C266.366 258.663 267.558 257.901 268.437 258.342Z" fill="#9A9A9A"/>
<path d="M286.237 246.161C286.775 246.582 285.886 246.161 286.237 245.871L287.287 246.411C286.237 246.158 287.583 245.244 287.411 245.109C286.742 245.413 285.519 245.301 286.237 246.161Z" fill="#9A9A9A"/>
<path d="M339.742 239.74L341.473 239.69C341.114 239.417 340.602 239.566 340.404 239.114C341.099 239.114 342.299 238.661 342.497 239.369C343.316 237.478 339.907 239.285 340.022 237.391L340.583 238.681C339.548 239.302 339.174 238.141 338.135 238.155C337.454 238.745 339.047 239.476 339.742 239.74Z" fill="#9A9A9A"/>
<path d="M344.093 240.37L344.475 241.82C346.007 241.348 346.736 242.498 347.921 241.463C346.358 241.348 345.446 239.476 343.547 240.232C343.742 240.37 343.914 240.808 344.093 240.37Z" fill="#9A9A9A"/>
<path d="M343.82 243.576L344.501 242.682C343.805 243.292 342.049 241.87 342.725 241.266L341.391 242.764L343.82 243.576Z" fill="#9A9A9A"/>
<path d="M346.904 242.632L345.349 242.531L344.848 242.967L346.904 242.632Z" fill="#9A9A9A"/>
<path d="M361 239.416L359.438 239.031L360.14 239.588L361 239.416Z" fill="#9A9A9A"/>
<path d="M278.963 265.843L280.686 265.807C280.327 265.52 279.819 265.669 279.628 265.23C280.331 265.23 281.524 264.775 281.725 265.489C282.533 263.58 279.128 265.402 279.243 263.496L279.808 264.795C278.765 265.402 278.387 264.238 277.348 264.269C276.672 264.859 278.272 265.576 278.963 265.843Z" fill="#9A9A9A"/>
<path d="M283.31 266.474L283.695 267.913C285.235 267.438 285.953 268.591 287.126 267.548C285.586 267.438 284.659 265.572 282.775 266.342C282.959 266.474 283.138 266.921 283.31 266.474Z" fill="#9A9A9A"/>
<path d="M283.049 269.691L283.721 268.778C283.019 269.39 281.269 267.968 281.927 267.375L280.604 268.865L283.049 269.691Z" fill="#9A9A9A"/>
<path d="M308.743 249.031L307.842 247.744L307.502 248.053L308.743 249.031Z" fill="#9A9A9A"/>
<path d="M286.14 268.739L284.585 268.627L284.073 269.079L286.14 268.739Z" fill="#9A9A9A"/>
<path d="M300.228 265.531L298.654 265.141L299.376 265.686L300.228 265.531Z" fill="#9A9A9A"/>
<path d="M321.733 249.204C321.516 248.476 323.411 248.001 321.837 247.613C322.39 248.586 319.972 248.372 321.733 249.204Z" fill="#9A9A9A"/>
<path d="M327.859 246.164L326.797 245.318L326.655 246.027L327.859 246.164Z" fill="#9A9A9A"/>
<path d="M321.714 254.595C322.391 254.289 323.972 254.691 323.411 253.679C322.944 255.318 321.83 252.985 321.153 253.597C321.677 253.727 321.52 254.148 321.714 254.595Z" fill="#9A9A9A"/>
<path d="M306.609 270.652L305.398 270.225L304.717 270.818L306.609 270.652Z" fill="#9A9A9A"/>
<path d="M319.352 262.663L320.178 261.612C320.387 262.362 320.234 263.366 320.252 263.962V263.627C320.776 263.779 322.192 264.639 321.841 265.226L324.592 264.574C323.153 262.576 321.733 261.429 319.131 260.771C319.138 261.35 318.32 262.989 317.595 261.82C316.604 263.304 319.49 261.348 319.352 262.663Z" fill="#9A9A9A"/>
<path d="M335.025 254.159L333.616 253.605C332.573 253.923 334.666 253.589 334.341 254.463L331.919 254.513C333.661 254.769 333.668 255.075 335.025 254.159Z" fill="#9A9A9A"/>
<path d="M338.056 263.434L335.301 263.49L337.742 263.993L338.056 263.434Z" fill="#9A9A9A"/>
<path d="M352.38 256.139L351.857 255.99C352.22 255.99 353.962 256.836 354.989 256.513C355.146 256.074 355.281 254.773 354.238 254.486C355.15 256.665 351.637 254.098 352.38 256.139Z" fill="#9A9A9A"/>
<path d="M353.116 257.577C353.49 258.44 354.511 257.85 354.855 257.527C354.313 256.819 353.457 257.577 353.116 257.577Z" fill="#9A9A9A"/>
<path d="M357.221 261.697L358.458 262.712L357.094 263.319C358.496 263.575 359.191 263.575 359.505 262.392C359.288 261.079 358.226 260.537 356.148 260.854L357.06 261.869L357.221 261.697Z" fill="#9A9A9A"/>
<path d="M255.001 153.636C255.531 153.217 257.075 153.673 256.87 154.395C256.152 155.258 254.971 154.505 255.001 153.636Z" fill="#9A9A9A"/>
<path d="M259.848 153.738C260.697 154.174 261.878 155.233 260.461 156.06C260.66 155.627 258.753 155.444 259.976 155.034C258.753 155.444 259.68 153.578 257.908 155.014L260.024 153.578L259.848 153.738Z" fill="#9A9A9A"/>
<path d="M273.077 156.78C272.954 155.456 274.128 156.499 274.999 156.37C274.621 157.233 274.793 157.401 275.855 157.132L274.255 157.817C273.735 157.671 274.505 155.628 273.077 156.78Z" fill="#9A9A9A"/>
<path d="M275.313 151.591L275.81 152.026L274.255 151.844C274.621 151.287 274.793 151.726 275.313 151.591Z" fill="#9A9A9A"/>
<path d="M280.785 142.058L281.959 143.129C280.045 143.228 282.254 144.863 280.845 145.442C280.684 145.001 278.86 142.469 277.092 143.601C278.176 142.452 280.722 144.104 280.785 142.058Z" fill="#9A9A9A"/>
<path d="M267.437 125.475C266.353 126.352 266.543 126.492 265.175 126.166C265.366 125.154 266.558 125.916 267.437 125.475Z" fill="#9A9A9A"/>
<path d="M285.237 137.657C285.775 137.235 284.886 137.657 285.237 137.946L286.287 137.407C285.237 137.66 286.583 138.573 286.411 138.708C285.742 138.404 284.519 138.517 285.237 137.657Z" fill="#9A9A9A"/>
<path d="M338.742 144.077L340.473 144.128C340.114 144.4 339.602 144.251 339.404 144.704C340.099 144.704 341.299 145.156 341.497 144.448C342.316 146.34 338.907 144.532 339.022 146.427L339.583 145.137C338.548 144.515 338.174 145.676 337.135 145.662C336.454 145.072 338.047 144.341 338.742 144.077Z" fill="#9A9A9A"/>
<path d="M343.093 143.448L343.475 141.997C345.007 142.469 345.736 141.32 346.921 142.354C345.358 142.469 344.446 144.341 342.547 143.585C342.742 143.448 342.914 143.009 343.093 143.448Z" fill="#9A9A9A"/>
<path d="M342.82 140.241L343.501 141.135C342.805 140.525 341.049 141.947 341.725 142.552L340.391 141.054L342.82 140.241Z" fill="#9A9A9A"/>
<path d="M345.904 141.185L344.349 141.286L343.848 140.85L345.904 141.185Z" fill="#9A9A9A"/>
<path d="M360 144.401L358.438 144.786L359.14 144.23L360 144.401Z" fill="#9A9A9A"/>
<path d="M277.963 117.974L279.686 118.011C279.327 118.298 278.819 118.149 278.628 118.587C279.331 118.587 280.524 119.042 280.725 118.328C281.533 120.237 278.128 118.416 278.243 120.321L278.808 119.023C277.765 118.416 277.387 119.579 276.348 119.548C275.672 118.958 277.272 118.241 277.963 117.974Z" fill="#9A9A9A"/>
<path d="M282.31 117.343L282.695 115.904C284.235 116.379 284.953 115.227 286.126 116.27C284.586 116.379 283.659 118.245 281.775 117.475C281.959 117.343 282.138 116.896 282.31 117.343Z" fill="#9A9A9A"/>
<path d="M282.049 114.126L282.721 115.04C282.019 114.427 280.269 115.849 280.927 116.442L279.604 114.953L282.049 114.126Z" fill="#9A9A9A"/>
<path d="M307.743 134.786L306.842 136.073L306.502 135.764L307.743 134.786Z" fill="#9A9A9A"/>
<path d="M285.14 115.078L283.585 115.19L283.073 114.738L285.14 115.078Z" fill="#9A9A9A"/>
<path d="M299.228 118.286L297.654 118.677L298.376 118.131L299.228 118.286Z" fill="#9A9A9A"/>
<path d="M320.733 134.613C320.516 135.341 322.411 135.816 320.837 136.204C321.39 135.232 318.972 135.445 320.733 134.613Z" fill="#9A9A9A"/>
<path d="M326.859 137.653L325.797 138.499L325.655 137.791L326.859 137.653Z" fill="#9A9A9A"/>
<path d="M320.714 129.222C321.391 129.528 322.972 129.127 322.411 130.138C321.944 128.5 320.83 130.833 320.153 130.22C320.677 130.091 320.52 129.669 320.714 129.222Z" fill="#9A9A9A"/>
<path d="M305.609 113.166L304.398 113.593L303.717 113L305.609 113.166Z" fill="#9A9A9A"/>
<path d="M318.352 121.154L319.178 122.205C319.387 121.455 319.234 120.452 319.252 119.856V120.19C319.776 120.038 321.192 119.178 320.841 118.591L323.592 119.243C322.153 121.241 320.733 122.388 318.131 123.046C318.138 122.467 317.32 120.828 316.595 121.998C315.604 120.513 318.49 122.47 318.352 121.154Z" fill="#9A9A9A"/>
<path d="M334.025 129.658L332.616 130.212C331.573 129.894 333.666 130.229 333.341 129.355L330.919 129.304C332.661 129.048 332.668 128.742 334.025 129.658Z" fill="#9A9A9A"/>
<path d="M337.056 120.384L334.301 120.328L336.742 119.824L337.056 120.384Z" fill="#9A9A9A"/>
<path d="M351.38 127.678L350.857 127.827C351.22 127.827 352.962 126.981 353.989 127.305C354.146 127.743 354.281 129.044 353.238 129.331C354.15 127.153 350.637 129.719 351.38 127.678Z" fill="#9A9A9A"/>
<path d="M352.116 126.24C352.49 125.377 353.511 125.967 353.855 126.291C353.313 126.999 352.457 126.24 352.116 126.24Z" fill="#9A9A9A"/>
<path d="M356.221 122.12L357.458 121.105L356.094 120.498C357.496 120.242 358.191 120.242 358.505 121.426C358.288 122.738 357.226 123.281 355.148 122.963L356.06 121.949L356.221 122.12Z" fill="#9A9A9A"/>
<path d="M197.001 211.637C197.531 211.218 199.075 211.674 198.87 212.396C198.152 213.259 196.971 212.506 197.001 211.637Z" fill="#9A9A9A"/>
<path d="M201.848 211.739C202.697 212.175 203.878 213.234 202.461 214.061C202.66 213.628 200.753 213.445 201.976 213.035C200.753 213.445 201.68 211.579 199.908 213.015L202.024 211.579L201.848 211.739Z" fill="#9A9A9A"/>
<path d="M215.077 214.781C214.954 213.457 216.128 214.5 216.999 214.371C216.621 215.234 216.793 215.402 217.855 215.133L216.255 215.818C215.735 215.672 216.505 213.629 215.077 214.781Z" fill="#9A9A9A"/>
<path d="M217.313 209.592L217.81 210.027L216.255 209.845C216.621 209.288 216.793 209.727 217.313 209.592Z" fill="#9A9A9A"/>
<path d="M222.785 200.059L223.959 201.13C222.045 201.229 224.254 202.864 222.845 203.443C222.684 203.002 220.86 200.47 219.092 201.602C220.176 200.453 222.722 202.105 222.785 200.059Z" fill="#9A9A9A"/>
<path d="M209.437 183.476C208.353 184.353 208.543 184.493 207.175 184.167C207.366 183.155 208.558 183.917 209.437 183.476Z" fill="#9A9A9A"/>
<path d="M227.237 195.658C227.775 195.236 226.886 195.658 227.237 195.947L228.287 195.408C227.237 195.661 228.583 196.574 228.411 196.709C227.742 196.405 226.519 196.518 227.237 195.658Z" fill="#9A9A9A"/>
<path d="M280.742 202.078L282.473 202.129C282.114 202.401 281.602 202.252 281.404 202.705C282.099 202.705 283.299 203.157 283.497 202.449C284.316 204.341 280.907 202.533 281.022 204.428L281.583 203.138C280.548 202.516 280.174 203.677 279.135 203.663C278.454 203.073 280.047 202.342 280.742 202.078Z" fill="#9A9A9A"/>
<path d="M285.093 201.449L285.475 199.998C287.007 200.47 287.736 199.321 288.921 200.355C287.358 200.47 286.446 202.342 284.547 201.586C284.742 201.449 284.914 201.01 285.093 201.449Z" fill="#9A9A9A"/>
<path d="M284.82 198.242L285.501 199.136C284.805 198.526 283.049 199.948 283.725 200.553L282.391 199.055L284.82 198.242Z" fill="#9A9A9A"/>
<path d="M287.904 199.186L286.349 199.287L285.848 198.851L287.904 199.186Z" fill="#9A9A9A"/>
<path d="M302 202.402L300.438 202.787L301.14 202.231L302 202.402Z" fill="#9A9A9A"/>
<path d="M219.963 175.975L221.686 176.012C221.327 176.299 220.819 176.15 220.628 176.588C221.331 176.588 222.524 177.043 222.725 176.329C223.533 178.238 220.128 176.417 220.243 178.322L220.808 177.024C219.765 176.417 219.387 177.58 218.348 177.549C217.672 176.959 219.272 176.242 219.963 175.975Z" fill="#9A9A9A"/>
<path d="M224.31 175.344L224.695 173.905C226.235 174.38 226.953 173.228 228.126 174.271C226.586 174.38 225.659 176.246 223.775 175.476C223.959 175.344 224.138 174.897 224.31 175.344Z" fill="#9A9A9A"/>
<path d="M224.049 172.127L224.721 173.041C224.019 172.428 222.269 173.85 222.927 174.443L221.604 172.954L224.049 172.127Z" fill="#9A9A9A"/>
<path d="M249.743 192.787L248.842 194.074L248.502 193.765L249.743 192.787Z" fill="#9A9A9A"/>
<path d="M227.14 173.079L225.585 173.191L225.073 172.739L227.14 173.079Z" fill="#9A9A9A"/>
<path d="M241.228 176.287L239.654 176.678L240.376 176.132L241.228 176.287Z" fill="#9A9A9A"/>
<path d="M262.733 192.614C262.516 193.342 264.411 193.817 262.837 194.205C263.39 193.233 260.972 193.446 262.733 192.614Z" fill="#9A9A9A"/>
<path d="M268.859 195.654L267.797 196.5L267.655 195.792L268.859 195.654Z" fill="#9A9A9A"/>
<path d="M262.714 187.223C263.391 187.529 264.972 187.128 264.411 188.139C263.944 186.501 262.83 188.834 262.153 188.221C262.677 188.092 262.52 187.67 262.714 187.223Z" fill="#9A9A9A"/>
<path d="M247.609 171.167L246.398 171.594L245.717 171.001L247.609 171.167Z" fill="#9A9A9A"/>
<path d="M260.352 179.155L261.178 180.206C261.387 179.456 261.234 178.453 261.252 177.857V178.191C261.776 178.039 263.192 177.179 262.841 176.592L265.592 177.244C264.153 179.242 262.733 180.389 260.131 181.047C260.138 180.468 259.32 178.829 258.595 179.998C257.604 178.514 260.49 180.471 260.352 179.155Z" fill="#9A9A9A"/>
<path d="M276.025 187.659L274.616 188.213C273.573 187.895 275.666 188.23 275.341 187.356L272.919 187.305C274.661 187.049 274.668 186.743 276.025 187.659Z" fill="#9A9A9A"/>
<path d="M279.056 178.385L276.301 178.329L278.742 177.825L279.056 178.385Z" fill="#9A9A9A"/>
<path d="M293.38 185.679L292.857 185.828C293.22 185.828 294.962 184.982 295.989 185.306C296.146 185.744 296.281 187.045 295.238 187.332C296.15 185.154 292.637 187.72 293.38 185.679Z" fill="#9A9A9A"/>
<path d="M294.116 184.241C294.49 183.378 295.511 183.968 295.855 184.292C295.313 185 294.457 184.241 294.116 184.241Z" fill="#9A9A9A"/>
<path d="M298.221 180.121L299.458 179.106L298.094 178.499C299.496 178.243 300.191 178.243 300.505 179.427C300.288 180.739 299.226 181.282 297.148 180.964L298.06 179.95L298.221 180.121Z" fill="#9A9A9A"/>
<path d="M82.0006 175.181C82.5313 175.6 84.0751 175.145 83.8695 174.422C83.1519 173.559 81.9707 174.313 82.0006 175.181Z" fill="#9A9A9A"/>
<path d="M86.8485 175.079C87.697 174.644 88.8782 173.584 87.4615 172.758C87.6596 173.191 85.7532 173.373 86.9755 173.784C85.7532 173.373 86.6802 175.24 84.9084 173.803L87.0241 175.24L86.8485 175.079Z" fill="#9A9A9A"/>
<path d="M100.077 172.037C99.954 173.361 101.128 172.318 101.999 172.448C101.621 171.585 101.793 171.416 102.855 171.686L101.255 171C100.735 171.146 101.505 173.19 100.077 172.037Z" fill="#9A9A9A"/>
<path d="M102.313 177.227L102.81 176.791L101.255 176.974C101.621 177.53 101.793 177.092 102.313 177.227Z" fill="#9A9A9A"/>
<path d="M107.785 186.759L108.959 185.688C107.045 185.59 109.254 183.954 107.845 183.375C107.684 183.816 105.86 186.349 104.092 185.216C105.176 186.366 107.722 184.713 107.785 186.759Z" fill="#9A9A9A"/>
<path d="M94.4368 203.342C93.3528 202.466 93.5435 202.325 92.1754 202.651C92.366 203.663 93.5584 202.901 94.4368 203.342Z" fill="#9A9A9A"/>
<path d="M112.237 191.161C112.775 191.582 111.886 191.161 112.237 190.871L113.287 191.411C112.237 191.158 113.583 190.244 113.411 190.109C112.742 190.413 111.519 190.301 112.237 191.161Z" fill="#9A9A9A"/>
<path d="M165.742 184.74L167.473 184.69C167.114 184.417 166.602 184.566 166.404 184.114C167.099 184.114 168.299 183.661 168.497 184.369C169.316 182.478 165.907 184.285 166.022 182.391L166.583 183.681C165.548 184.302 165.174 183.141 164.135 183.155C163.454 183.745 165.047 184.476 165.742 184.74Z" fill="#9A9A9A"/>
<path d="M170.093 185.37L170.475 186.82C172.007 186.348 172.736 187.498 173.921 186.463C172.358 186.348 171.446 184.476 169.547 185.232C169.742 185.37 169.914 185.808 170.093 185.37Z" fill="#9A9A9A"/>
<path d="M169.82 188.576L170.501 187.682C169.805 188.292 168.049 186.87 168.725 186.266L167.391 187.764L169.82 188.576Z" fill="#9A9A9A"/>
<path d="M172.904 187.632L171.349 187.531L170.848 187.967L172.904 187.632Z" fill="#9A9A9A"/>
<path d="M187 184.416L185.438 184.031L186.14 184.588L187 184.416Z" fill="#9A9A9A"/>
<path d="M104.963 210.843L106.686 210.807C106.327 210.52 105.819 210.669 105.628 210.23C106.331 210.23 107.524 209.775 107.725 210.489C108.533 208.58 105.128 210.402 105.243 208.496L105.808 209.795C104.765 210.402 104.387 209.238 103.348 209.269C102.672 209.859 104.272 210.576 104.963 210.843Z" fill="#9A9A9A"/>
<path d="M109.31 211.474L109.695 212.913C111.235 212.438 111.953 213.591 113.126 212.548C111.586 212.438 110.659 210.572 108.775 211.342C108.959 211.474 109.138 211.921 109.31 211.474Z" fill="#9A9A9A"/>
<path d="M109.049 214.691L109.721 213.778C109.019 214.39 107.269 212.968 107.927 212.375L106.604 213.865L109.049 214.691Z" fill="#9A9A9A"/>
<path d="M134.743 194.031L133.842 192.744L133.502 193.053L134.743 194.031Z" fill="#9A9A9A"/>
<path d="M112.14 213.739L110.585 213.627L110.073 214.079L112.14 213.739Z" fill="#9A9A9A"/>
<path d="M126.228 210.531L124.654 210.141L125.376 210.686L126.228 210.531Z" fill="#9A9A9A"/>
<path d="M147.733 194.204C147.516 193.476 149.411 193.001 147.837 192.613C148.39 193.586 145.972 193.372 147.733 194.204Z" fill="#9A9A9A"/>
<path d="M153.859 191.164L152.797 190.318L152.655 191.027L153.859 191.164Z" fill="#9A9A9A"/>
<path d="M147.714 199.595C148.391 199.289 149.972 199.691 149.411 198.679C148.944 200.318 147.83 197.985 147.153 198.597C147.677 198.727 147.52 199.148 147.714 199.595Z" fill="#9A9A9A"/>
<path d="M132.609 215.652L131.398 215.225L130.717 215.818L132.609 215.652Z" fill="#9A9A9A"/>
<path d="M145.352 207.663L146.178 206.612C146.387 207.362 146.234 208.366 146.252 208.962V208.627C146.776 208.779 148.192 209.639 147.841 210.226L150.592 209.574C149.153 207.576 147.733 206.429 145.131 205.771C145.138 206.35 144.32 207.989 143.595 206.82C142.604 208.304 145.49 206.348 145.352 207.663Z" fill="#9A9A9A"/>
<path d="M161.025 199.159L159.616 198.605C158.573 198.923 160.666 198.589 160.341 199.463L157.919 199.513C159.661 199.769 159.668 200.075 161.025 199.159Z" fill="#9A9A9A"/>
<path d="M164.056 208.434L161.301 208.49L163.742 208.993L164.056 208.434Z" fill="#9A9A9A"/>
<path d="M178.38 201.139L177.857 200.99C178.22 200.99 179.962 201.836 180.989 201.513C181.146 201.074 181.281 199.773 180.238 199.486C181.15 201.665 177.637 199.098 178.38 201.139Z" fill="#9A9A9A"/>
<path d="M179.116 202.577C179.49 203.44 180.511 202.85 180.855 202.527C180.313 201.819 179.457 202.577 179.116 202.577Z" fill="#9A9A9A"/>
<path d="M183.221 206.697L184.458 207.712L183.094 208.319C184.496 208.575 185.191 208.575 185.505 207.392C185.288 206.079 184.226 205.537 182.148 205.854L183.06 206.869L183.221 206.697Z" fill="#9A9A9A"/>
<path d="M199.001 286.181C199.531 286.6 201.075 286.145 200.87 285.422C200.152 284.559 198.971 285.313 199.001 286.181Z" fill="#9A9A9A"/>
<path d="M203.848 286.079C204.697 285.644 205.878 284.584 204.461 283.758C204.66 284.191 202.753 284.373 203.976 284.784C202.753 284.373 203.68 286.24 201.908 284.803L204.024 286.24L203.848 286.079Z" fill="#9A9A9A"/>
<path d="M217.077 283.037C216.954 284.361 218.128 283.318 218.999 283.448C218.621 282.585 218.793 282.416 219.855 282.686L218.255 282C217.735 282.146 218.505 284.19 217.077 283.037Z" fill="#9A9A9A"/>
<path d="M219.313 288.227L219.81 287.791L218.255 287.974C218.621 288.53 218.793 288.092 219.313 288.227Z" fill="#9A9A9A"/>
<path d="M224.785 297.759L225.959 296.688C224.045 296.59 226.254 294.954 224.845 294.375C224.684 294.816 222.86 297.349 221.092 296.216C222.176 297.366 224.722 295.713 224.785 297.759Z" fill="#9A9A9A"/>
<path d="M211.437 314.342C210.353 313.466 210.543 313.325 209.175 313.651C209.366 314.663 210.558 313.901 211.437 314.342Z" fill="#9A9A9A"/>
<path d="M229.237 302.161C229.775 302.582 228.886 302.161 229.237 301.871L230.287 302.411C229.237 302.158 230.583 301.244 230.411 301.109C229.742 301.413 228.519 301.301 229.237 302.161Z" fill="#9A9A9A"/>
<path d="M282.742 295.74L284.473 295.69C284.114 295.417 283.602 295.566 283.404 295.114C284.099 295.114 285.299 294.661 285.497 295.369C286.316 293.478 282.907 295.285 283.022 293.391L283.583 294.681C282.548 295.302 282.174 294.141 281.135 294.155C280.454 294.745 282.047 295.476 282.742 295.74Z" fill="#9A9A9A"/>
<path d="M287.093 296.37L287.475 297.82C289.007 297.348 289.736 298.498 290.921 297.463C289.358 297.348 288.446 295.476 286.547 296.232C286.742 296.37 286.914 296.808 287.093 296.37Z" fill="#9A9A9A"/>
<path d="M286.82 299.576L287.501 298.682C286.805 299.292 285.049 297.87 285.725 297.266L284.391 298.764L286.82 299.576Z" fill="#9A9A9A"/>
<path d="M289.904 298.632L288.349 298.531L287.848 298.967L289.904 298.632Z" fill="#9A9A9A"/>
<path d="M304 295.416L302.438 295.031L303.14 295.588L304 295.416Z" fill="#9A9A9A"/>
<path d="M221.963 321.843L223.686 321.807C223.327 321.52 222.819 321.669 222.628 321.23C223.331 321.23 224.524 320.775 224.725 321.489C225.533 319.58 222.128 321.402 222.243 319.496L222.808 320.795C221.765 321.402 221.387 320.238 220.348 320.269C219.672 320.859 221.272 321.576 221.963 321.843Z" fill="#9A9A9A"/>
<path d="M226.31 322.474L226.695 323.913C228.235 323.438 228.953 324.591 230.126 323.548C228.586 323.438 227.659 321.572 225.775 322.342C225.959 322.474 226.138 322.921 226.31 322.474Z" fill="#9A9A9A"/>
<path d="M226.049 325.691L226.721 324.778C226.019 325.39 224.269 323.968 224.927 323.375L223.604 324.865L226.049 325.691Z" fill="#9A9A9A"/>
<path d="M251.743 305.031L250.842 303.744L250.502 304.053L251.743 305.031Z" fill="#9A9A9A"/>
<path d="M229.14 324.739L227.585 324.627L227.073 325.079L229.14 324.739Z" fill="#9A9A9A"/>
<path d="M243.228 321.531L241.654 321.141L242.376 321.686L243.228 321.531Z" fill="#9A9A9A"/>
<path d="M264.733 305.204C264.516 304.476 266.411 304.001 264.837 303.613C265.39 304.586 262.972 304.372 264.733 305.204Z" fill="#9A9A9A"/>
<path d="M270.859 302.164L269.797 301.318L269.655 302.027L270.859 302.164Z" fill="#9A9A9A"/>
<path d="M264.714 310.595C265.391 310.289 266.972 310.691 266.411 309.679C265.944 311.318 264.83 308.985 264.153 309.597C264.677 309.727 264.52 310.148 264.714 310.595Z" fill="#9A9A9A"/>
<path d="M249.609 326.652L248.398 326.225L247.717 326.818L249.609 326.652Z" fill="#9A9A9A"/>
<path d="M262.352 318.663L263.178 317.612C263.387 318.362 263.234 319.366 263.252 319.962V319.627C263.776 319.779 265.192 320.639 264.841 321.226L267.592 320.574C266.153 318.576 264.733 317.429 262.131 316.771C262.138 317.35 261.32 318.989 260.595 317.82C259.604 319.304 262.49 317.348 262.352 318.663Z" fill="#9A9A9A"/>
<path d="M278.025 310.159L276.616 309.605C275.573 309.923 277.666 309.589 277.341 310.463L274.919 310.513C276.661 310.769 276.668 311.075 278.025 310.159Z" fill="#9A9A9A"/>
<path d="M281.056 319.434L278.301 319.49L280.742 319.993L281.056 319.434Z" fill="#9A9A9A"/>
<path d="M295.38 312.139L294.857 311.99C295.22 311.99 296.962 312.836 297.989 312.513C298.146 312.074 298.281 310.773 297.238 310.486C298.15 312.665 294.637 310.098 295.38 312.139Z" fill="#9A9A9A"/>
<path d="M296.116 313.577C296.49 314.44 297.511 313.85 297.855 313.527C297.313 312.819 296.457 313.577 296.116 313.577Z" fill="#9A9A9A"/>
<path d="M300.221 317.697L301.458 318.712L300.094 319.319C301.496 319.575 302.191 319.575 302.505 318.392C302.288 317.079 301.226 316.537 299.148 316.854L300.06 317.869L300.221 317.697Z" fill="#9A9A9A"/>
<path d="M314.001 321.637C314.531 321.218 316.075 321.674 315.87 322.396C315.152 323.259 313.971 322.506 314.001 321.637Z" fill="#9A9A9A"/>
<path d="M318.848 321.739C319.697 322.175 320.878 323.234 319.461 324.061C319.66 323.628 317.753 323.445 318.976 323.035C317.753 323.445 318.68 321.579 316.908 323.015L319.024 321.579L318.848 321.739Z" fill="#9A9A9A"/>
<path d="M332.077 324.781C331.954 323.457 333.128 324.5 333.999 324.371C333.621 325.234 333.793 325.402 334.855 325.133L333.255 325.818C332.735 325.672 333.505 323.629 332.077 324.781Z" fill="#9A9A9A"/>
<path d="M334.313 319.592L334.81 320.027L333.255 319.845C333.621 319.288 333.793 319.727 334.313 319.592Z" fill="#9A9A9A"/>
<path d="M339.785 310.059L340.959 311.13C339.045 311.229 341.254 312.864 339.845 313.443C339.684 313.002 337.86 310.47 336.092 311.602C337.176 310.453 339.722 312.105 339.785 310.059Z" fill="#9A9A9A"/>
<path d="M326.437 293.476C325.353 294.353 325.543 294.493 324.175 294.167C324.366 293.155 325.558 293.917 326.437 293.476Z" fill="#9A9A9A"/>
<path d="M344.237 305.658C344.775 305.236 343.886 305.658 344.237 305.947L345.287 305.408C344.237 305.661 345.583 306.574 345.411 306.709C344.742 306.405 343.519 306.518 344.237 305.658Z" fill="#9A9A9A"/>
<path d="M397.742 312.078L399.473 312.129C399.114 312.401 398.602 312.252 398.404 312.705C399.099 312.705 400.299 313.157 400.497 312.449C401.316 314.341 397.907 312.533 398.022 314.428L398.583 313.138C397.548 312.516 397.174 313.677 396.135 313.663C395.454 313.073 397.047 312.342 397.742 312.078Z" fill="#9A9A9A"/>
<path d="M402.093 311.449L402.475 309.998C404.007 310.47 404.736 309.321 405.921 310.355C404.358 310.47 403.446 312.342 401.547 311.586C401.742 311.449 401.914 311.01 402.093 311.449Z" fill="#9A9A9A"/>
<path d="M401.82 308.242L402.501 309.136C401.805 308.526 400.049 309.948 400.725 310.553L399.391 309.055L401.82 308.242Z" fill="#9A9A9A"/>
<path d="M404.904 309.186L403.349 309.287L402.848 308.851L404.904 309.186Z" fill="#9A9A9A"/>
<path d="M419 312.402L417.438 312.787L418.14 312.231L419 312.402Z" fill="#9A9A9A"/>
<path d="M336.963 285.975L338.686 286.012C338.327 286.299 337.819 286.15 337.628 286.588C338.331 286.588 339.524 287.043 339.725 286.329C340.533 288.238 337.128 286.417 337.243 288.322L337.808 287.024C336.765 286.417 336.387 287.58 335.348 287.549C334.672 286.959 336.272 286.242 336.963 285.975Z" fill="#9A9A9A"/>
<path d="M341.31 285.344L341.695 283.905C343.235 284.38 343.953 283.228 345.126 284.271C343.586 284.38 342.659 286.246 340.775 285.476C340.959 285.344 341.138 284.897 341.31 285.344Z" fill="#9A9A9A"/>
<path d="M341.049 282.127L341.721 283.041C341.019 282.428 339.269 283.85 339.927 284.443L338.604 282.954L341.049 282.127Z" fill="#9A9A9A"/>
<path d="M366.743 302.787L365.842 304.074L365.502 303.765L366.743 302.787Z" fill="#9A9A9A"/>
<path d="M344.14 283.079L342.585 283.191L342.073 282.739L344.14 283.079Z" fill="#9A9A9A"/>
<path d="M358.228 286.287L356.654 286.678L357.376 286.132L358.228 286.287Z" fill="#9A9A9A"/>
<path d="M379.733 302.614C379.516 303.342 381.411 303.817 379.837 304.205C380.39 303.233 377.972 303.446 379.733 302.614Z" fill="#9A9A9A"/>
<path d="M385.859 305.654L384.797 306.5L384.655 305.792L385.859 305.654Z" fill="#9A9A9A"/>
<path d="M379.714 297.223C380.391 297.529 381.972 297.128 381.411 298.139C380.944 296.501 379.83 298.834 379.153 298.221C379.677 298.092 379.52 297.67 379.714 297.223Z" fill="#9A9A9A"/>
<path d="M364.609 281.167L363.398 281.594L362.717 281.001L364.609 281.167Z" fill="#9A9A9A"/>
<path d="M377.352 289.155L378.178 290.206C378.387 289.456 378.234 288.453 378.252 287.857V288.191C378.776 288.039 380.192 287.179 379.841 286.592L382.592 287.244C381.153 289.242 379.733 290.389 377.131 291.047C377.138 290.468 376.32 288.829 375.595 289.998C374.604 288.514 377.49 290.471 377.352 289.155Z" fill="#9A9A9A"/>
<path d="M393.025 297.659L391.616 298.213C390.573 297.895 392.666 298.23 392.341 297.356L389.919 297.305C391.661 297.049 391.668 296.743 393.025 297.659Z" fill="#9A9A9A"/>
<path d="M396.056 288.385L393.301 288.329L395.742 287.825L396.056 288.385Z" fill="#9A9A9A"/>
<path d="M410.38 295.679L409.857 295.828C410.22 295.828 411.962 294.982 412.989 295.306C413.146 295.744 413.281 297.045 412.238 297.332C413.15 295.154 409.637 297.72 410.38 295.679Z" fill="#9A9A9A"/>
<path d="M411.116 294.241C411.49 293.378 412.511 293.968 412.855 294.292C412.313 295 411.457 294.241 411.116 294.241Z" fill="#9A9A9A"/>
<path d="M415.221 290.121L416.458 289.106L415.094 288.499C416.496 288.243 417.191 288.243 417.505 289.427C417.288 290.739 416.226 291.282 414.148 290.964L415.06 289.95L415.221 290.121Z" fill="#9A9A9A"/>
<path d="M240.999 344.181C240.469 344.6 238.925 344.145 239.13 343.422C239.848 342.559 241.029 343.313 240.999 344.181Z" fill="#9A9A9A"/>
<path d="M236.152 344.079C235.303 343.644 234.122 342.584 235.539 341.758C235.34 342.191 237.247 342.373 236.024 342.784C237.247 342.373 236.32 344.24 238.092 342.803L235.976 344.24L236.152 344.079Z" fill="#9A9A9A"/>
<path d="M222.923 341.037C223.046 342.361 221.872 341.318 221.001 341.448C221.379 340.585 221.207 340.416 220.145 340.686L221.745 340C222.265 340.146 221.495 342.19 222.923 341.037Z" fill="#9A9A9A"/>
<path d="M220.687 346.227L220.19 345.791L221.745 345.974C221.379 346.53 221.207 346.092 220.687 346.227Z" fill="#9A9A9A"/>
<path d="M215.215 355.759L214.041 354.688C215.955 354.59 213.746 352.954 215.155 352.375C215.316 352.816 217.14 355.349 218.908 354.216C217.824 355.366 215.278 353.713 215.215 355.759Z" fill="#9A9A9A"/>
<path d="M228.563 372.342C229.647 371.466 229.457 371.325 230.825 371.651C230.634 372.663 229.442 371.901 228.563 372.342Z" fill="#9A9A9A"/>
<path d="M210.763 360.161C210.225 360.582 211.114 360.161 210.763 359.871L209.713 360.411C210.763 360.158 209.417 359.244 209.589 359.109C210.258 359.413 211.481 359.301 210.763 360.161Z" fill="#9A9A9A"/>
<path d="M157.258 353.74L155.527 353.69C155.886 353.417 156.398 353.566 156.596 353.114C155.901 353.114 154.701 352.661 154.503 353.369C153.684 351.478 157.093 353.285 156.978 351.391L156.417 352.681C157.452 353.302 157.826 352.141 158.865 352.155C159.546 352.745 157.953 353.476 157.258 353.74Z" fill="#9A9A9A"/>
<path d="M152.907 354.37L152.525 355.82C150.993 355.348 150.264 356.498 149.079 355.463C150.642 355.348 151.554 353.476 153.453 354.232C153.258 354.37 153.086 354.808 152.907 354.37Z" fill="#9A9A9A"/>
<path d="M153.18 357.576L152.499 356.682C153.195 357.292 154.951 355.87 154.275 355.266L155.609 356.764L153.18 357.576Z" fill="#9A9A9A"/>
<path d="M150.096 356.632L151.651 356.531L152.152 356.967L150.096 356.632Z" fill="#9A9A9A"/>
<path d="M136 353.416L137.562 353.031L136.86 353.588L136 353.416Z" fill="#9A9A9A"/>
<path d="M218.037 379.843L216.314 379.807C216.673 379.52 217.181 379.669 217.372 379.23C216.669 379.23 215.476 378.775 215.275 379.489C214.467 377.58 217.872 379.402 217.757 377.496L217.192 378.795C218.235 379.402 218.613 378.238 219.652 378.269C220.328 378.859 218.728 379.576 218.037 379.843Z" fill="#9A9A9A"/>
<path d="M213.69 380.474L213.305 381.913C211.765 381.438 211.047 382.591 209.874 381.548C211.414 381.438 212.341 379.572 214.225 380.342C214.041 380.474 213.862 380.921 213.69 380.474Z" fill="#9A9A9A"/>
<path d="M213.951 383.691L213.279 382.778C213.981 383.39 215.731 381.968 215.073 381.375L216.396 382.865L213.951 383.691Z" fill="#9A9A9A"/>
<path d="M188.257 363.031L189.158 361.744L189.498 362.053L188.257 363.031Z" fill="#9A9A9A"/>
<path d="M210.86 382.739L212.415 382.627L212.927 383.079L210.86 382.739Z" fill="#9A9A9A"/>
<path d="M196.772 379.531L198.346 379.141L197.624 379.686L196.772 379.531Z" fill="#9A9A9A"/>
<path d="M175.267 363.204C175.484 362.476 173.589 362.001 175.163 361.613C174.61 362.586 177.028 362.372 175.267 363.204Z" fill="#9A9A9A"/>
<path d="M169.141 360.164L170.203 359.318L170.345 360.027L169.141 360.164Z" fill="#9A9A9A"/>
<path d="M175.286 368.595C174.609 368.289 173.028 368.691 173.589 367.679C174.056 369.318 175.17 366.985 175.847 367.597C175.323 367.727 175.48 368.148 175.286 368.595Z" fill="#9A9A9A"/>
<path d="M190.391 384.652L191.602 384.225L192.283 384.818L190.391 384.652Z" fill="#9A9A9A"/>
<path d="M177.648 376.663L176.822 375.612C176.613 376.362 176.766 377.366 176.748 377.962V377.627C176.224 377.779 174.808 378.639 175.159 379.226L172.408 378.574C173.847 376.576 175.267 375.429 177.869 374.771C177.862 375.35 178.68 376.989 179.405 375.82C180.396 377.304 177.51 375.348 177.648 376.663Z" fill="#9A9A9A"/>
<path d="M161.975 368.159L163.384 367.605C164.427 367.923 162.334 367.589 162.659 368.463L165.081 368.513C163.339 368.769 163.332 369.075 161.975 368.159Z" fill="#9A9A9A"/>
<path d="M158.944 377.434L161.699 377.49L159.258 377.993L158.944 377.434Z" fill="#9A9A9A"/>
<path d="M144.62 370.139L145.143 369.99C144.78 369.99 143.038 370.836 142.011 370.513C141.854 370.074 141.719 368.773 142.762 368.486C141.85 370.665 145.363 368.098 144.62 370.139Z" fill="#9A9A9A"/>
<path d="M143.884 371.577C143.51 372.44 142.489 371.85 142.145 371.527C142.687 370.819 143.543 371.577 143.884 371.577Z" fill="#9A9A9A"/>
<path d="M139.779 375.697L138.542 376.712L139.906 377.319C138.504 377.575 137.809 377.575 137.495 376.392C137.712 375.079 138.774 374.537 140.852 374.854L139.94 375.869L139.779 375.697Z" fill="#9A9A9A"/>
<path d="M257.001 343.181C257.531 343.6 259.075 343.145 258.87 342.422C258.152 341.559 256.971 342.313 257.001 343.181Z" fill="#9A9A9A"/>
<path d="M261.848 343.079C262.697 342.644 263.878 341.584 262.461 340.758C262.66 341.191 260.753 341.373 261.976 341.784C260.753 341.373 261.68 343.24 259.908 341.803L262.024 343.24L261.848 343.079Z" fill="#9A9A9A"/>
<path d="M275.077 340.037C274.954 341.361 276.128 340.318 276.999 340.448C276.621 339.585 276.793 339.416 277.855 339.686L276.255 339C275.735 339.146 276.505 341.19 275.077 340.037Z" fill="#9A9A9A"/>
<path d="M277.313 345.227L277.81 344.791L276.255 344.974C276.621 345.53 276.793 345.092 277.313 345.227Z" fill="#9A9A9A"/>
<path d="M282.785 354.759L283.959 353.688C282.045 353.59 284.254 351.954 282.845 351.375C282.684 351.816 280.86 354.349 279.092 353.216C280.176 354.366 282.722 352.713 282.785 354.759Z" fill="#9A9A9A"/>
<path d="M269.437 371.342C268.353 370.466 268.543 370.325 267.175 370.651C267.366 371.663 268.558 370.901 269.437 371.342Z" fill="#9A9A9A"/>
<path d="M287.237 359.161C287.775 359.582 286.886 359.161 287.237 358.871L288.287 359.411C287.237 359.158 288.583 358.244 288.411 358.109C287.742 358.413 286.519 358.301 287.237 359.161Z" fill="#9A9A9A"/>
<path d="M340.742 352.74L342.473 352.69C342.114 352.417 341.602 352.566 341.404 352.114C342.099 352.114 343.299 351.661 343.497 352.369C344.316 350.478 340.907 352.285 341.022 350.391L341.583 351.681C340.548 352.302 340.174 351.141 339.135 351.155C338.454 351.745 340.047 352.476 340.742 352.74Z" fill="#9A9A9A"/>
<path d="M345.093 353.37L345.475 354.82C347.007 354.348 347.736 355.498 348.921 354.463C347.358 354.348 346.446 352.476 344.547 353.232C344.742 353.37 344.914 353.808 345.093 353.37Z" fill="#9A9A9A"/>
<path d="M344.82 356.576L345.501 355.682C344.805 356.292 343.049 354.87 343.725 354.266L342.391 355.764L344.82 356.576Z" fill="#9A9A9A"/>
<path d="M347.904 355.632L346.349 355.531L345.848 355.967L347.904 355.632Z" fill="#9A9A9A"/>
<path d="M362 352.416L360.438 352.031L361.14 352.588L362 352.416Z" fill="#9A9A9A"/>
<path d="M279.963 378.843L281.686 378.807C281.327 378.52 280.819 378.669 280.628 378.23C281.331 378.23 282.524 377.775 282.725 378.489C283.533 376.58 280.128 378.402 280.243 376.496L280.808 377.795C279.765 378.402 279.387 377.238 278.348 377.269C277.672 377.859 279.272 378.576 279.963 378.843Z" fill="#9A9A9A"/>
<path d="M284.31 379.474L284.695 380.913C286.235 380.438 286.953 381.591 288.126 380.548C286.586 380.438 285.659 378.572 283.775 379.342C283.959 379.474 284.138 379.921 284.31 379.474Z" fill="#9A9A9A"/>
<path d="M284.049 382.691L284.721 381.778C284.019 382.39 282.269 380.968 282.927 380.375L281.604 381.865L284.049 382.691Z" fill="#9A9A9A"/>
<path d="M309.743 362.031L308.842 360.744L308.502 361.053L309.743 362.031Z" fill="#9A9A9A"/>
<path d="M287.14 381.739L285.585 381.627L285.073 382.079L287.14 381.739Z" fill="#9A9A9A"/>
<path d="M301.228 378.531L299.654 378.141L300.376 378.686L301.228 378.531Z" fill="#9A9A9A"/>
<path d="M322.733 362.204C322.516 361.476 324.411 361.001 322.837 360.613C323.39 361.586 320.972 361.372 322.733 362.204Z" fill="#9A9A9A"/>
<path d="M328.859 359.164L327.797 358.318L327.655 359.027L328.859 359.164Z" fill="#9A9A9A"/>
<path d="M322.714 367.595C323.391 367.289 324.972 367.691 324.411 366.679C323.944 368.318 322.83 365.985 322.153 366.597C322.677 366.727 322.52 367.148 322.714 367.595Z" fill="#9A9A9A"/>
<path d="M307.609 383.652L306.398 383.225L305.717 383.818L307.609 383.652Z" fill="#9A9A9A"/>
<path d="M320.352 375.663L321.178 374.612C321.387 375.362 321.234 376.366 321.252 376.962V376.627C321.776 376.779 323.192 377.639 322.841 378.226L325.592 377.574C324.153 375.576 322.733 374.429 320.131 373.771C320.138 374.35 319.32 375.989 318.595 374.82C317.604 376.304 320.49 374.348 320.352 375.663Z" fill="#9A9A9A"/>
<path d="M336.025 367.159L334.616 366.605C333.573 366.923 335.666 366.589 335.341 367.463L332.919 367.513C334.661 367.769 334.668 368.075 336.025 367.159Z" fill="#9A9A9A"/>
<path d="M339.056 376.434L336.301 376.49L338.742 376.993L339.056 376.434Z" fill="#9A9A9A"/>
<path d="M353.38 369.139L352.857 368.99C353.22 368.99 354.962 369.836 355.989 369.513C356.146 369.074 356.281 367.773 355.238 367.486C356.15 369.665 352.637 367.098 353.38 369.139Z" fill="#9A9A9A"/>
<path d="M354.116 370.577C354.49 371.44 355.511 370.85 355.855 370.527C355.313 369.819 354.457 370.577 354.116 370.577Z" fill="#9A9A9A"/>
<path d="M358.221 374.697L359.458 375.712L358.094 376.319C359.496 376.575 360.191 376.575 360.505 375.392C360.288 374.079 359.226 373.537 357.148 373.854L358.06 374.869L358.221 374.697Z" fill="#9A9A9A"/>
<path d="M80.0006 286.181C80.5313 286.6 82.0751 286.145 81.8695 285.422C81.1519 284.559 79.9707 285.313 80.0006 286.181Z" fill="#9A9A9A"/>
<path d="M84.8485 286.079C85.697 285.644 86.8782 284.584 85.4615 283.758C85.6596 284.191 83.7532 284.373 84.9755 284.784C83.7532 284.373 84.6802 286.24 82.9084 284.803L85.0241 286.24L84.8485 286.079Z" fill="#9A9A9A"/>
<path d="M98.0773 283.037C97.954 284.361 99.1277 283.318 99.9986 283.448C99.6211 282.585 99.793 282.416 100.855 282.686L99.2548 282C98.7352 282.146 99.5052 284.19 98.0773 283.037Z" fill="#9A9A9A"/>
<path d="M100.313 288.227L100.81 287.791L99.2548 287.974C99.6211 288.53 99.793 288.092 100.313 288.227Z" fill="#9A9A9A"/>
<path d="M105.785 297.759L106.959 296.688C105.045 296.59 107.254 294.954 105.845 294.375C105.684 294.816 103.86 297.349 102.092 296.216C103.176 297.366 105.722 295.713 105.785 297.759Z" fill="#9A9A9A"/>
<path d="M92.4368 314.342C91.3528 313.466 91.5435 313.325 90.1754 313.651C90.366 314.663 91.5584 313.901 92.4368 314.342Z" fill="#9A9A9A"/>
<path d="M110.237 302.161C110.775 302.582 109.886 302.161 110.237 301.871L111.287 302.411C110.237 302.158 111.583 301.244 111.411 301.109C110.742 301.413 109.519 301.301 110.237 302.161Z" fill="#9A9A9A"/>
<path d="M163.742 295.74L165.473 295.69C165.114 295.417 164.602 295.566 164.404 295.114C165.099 295.114 166.299 294.661 166.497 295.369C167.316 293.478 163.907 295.285 164.022 293.391L164.583 294.681C163.548 295.302 163.174 294.141 162.135 294.155C161.454 294.745 163.047 295.476 163.742 295.74Z" fill="#9A9A9A"/>
<path d="M168.093 296.37L168.475 297.82C170.007 297.348 170.736 298.498 171.921 297.463C170.358 297.348 169.446 295.476 167.547 296.232C167.742 296.37 167.914 296.808 168.093 296.37Z" fill="#9A9A9A"/>
<path d="M167.82 299.576L168.501 298.682C167.805 299.292 166.049 297.87 166.725 297.266L165.391 298.764L167.82 299.576Z" fill="#9A9A9A"/>
<path d="M170.904 298.632L169.349 298.531L168.848 298.967L170.904 298.632Z" fill="#9A9A9A"/>
<path d="M185 295.416L183.438 295.031L184.14 295.588L185 295.416Z" fill="#9A9A9A"/>
<path d="M102.963 321.843L104.686 321.807C104.327 321.52 103.819 321.669 103.628 321.23C104.331 321.23 105.524 320.775 105.725 321.489C106.533 319.58 103.128 321.402 103.243 319.496L103.808 320.795C102.765 321.402 102.387 320.238 101.348 320.269C100.672 320.859 102.272 321.576 102.963 321.843Z" fill="#9A9A9A"/>
<path d="M107.31 322.474L107.695 323.913C109.235 323.438 109.953 324.591 111.126 323.548C109.586 323.438 108.659 321.572 106.775 322.342C106.959 322.474 107.138 322.921 107.31 322.474Z" fill="#9A9A9A"/>
<path d="M107.049 325.691L107.721 324.778C107.019 325.39 105.269 323.968 105.927 323.375L104.604 324.865L107.049 325.691Z" fill="#9A9A9A"/>
<path d="M132.743 305.031L131.842 303.744L131.502 304.053L132.743 305.031Z" fill="#9A9A9A"/>
<path d="M110.14 324.739L108.585 324.627L108.073 325.079L110.14 324.739Z" fill="#9A9A9A"/>
<path d="M124.228 321.531L122.654 321.141L123.376 321.686L124.228 321.531Z" fill="#9A9A9A"/>
<path d="M145.733 305.204C145.516 304.476 147.411 304.001 145.837 303.613C146.39 304.586 143.972 304.372 145.733 305.204Z" fill="#9A9A9A"/>
<path d="M151.859 302.164L150.797 301.318L150.655 302.027L151.859 302.164Z" fill="#9A9A9A"/>
<path d="M145.714 310.595C146.391 310.289 147.972 310.691 147.411 309.679C146.944 311.318 145.83 308.985 145.153 309.597C145.677 309.727 145.52 310.148 145.714 310.595Z" fill="#9A9A9A"/>
<path d="M130.609 326.652L129.398 326.225L128.717 326.818L130.609 326.652Z" fill="#9A9A9A"/>
<path d="M143.352 318.663L144.178 317.612C144.387 318.362 144.234 319.366 144.252 319.962V319.627C144.776 319.779 146.192 320.639 145.841 321.226L148.592 320.574C147.153 318.576 145.733 317.429 143.131 316.771C143.138 317.35 142.32 318.989 141.595 317.82C140.604 319.304 143.49 317.348 143.352 318.663Z" fill="#9A9A9A"/>
<path d="M159.025 310.159L157.616 309.605C156.573 309.923 158.666 309.589 158.341 310.463L155.919 310.513C157.661 310.769 157.668 311.075 159.025 310.159Z" fill="#9A9A9A"/>
<path d="M162.056 319.434L159.301 319.49L161.742 319.993L162.056 319.434Z" fill="#9A9A9A"/>
<path d="M176.38 312.139L175.857 311.99C176.22 311.99 177.962 312.836 178.989 312.513C179.146 312.074 179.281 310.773 178.238 310.486C179.15 312.665 175.637 310.098 176.38 312.139Z" fill="#9A9A9A"/>
<path d="M177.116 313.577C177.49 314.44 178.511 313.85 178.855 313.527C178.313 312.819 177.457 313.577 177.116 313.577Z" fill="#9A9A9A"/>
<path d="M181.221 317.697L182.458 318.712L181.094 319.319C182.496 319.575 183.191 319.575 183.505 318.392C183.288 317.079 182.226 316.537 180.148 316.854L181.06 317.869L181.221 317.697Z" fill="#9A9A9A"/>
<path d="M317.001 174.181C317.531 174.6 319.075 174.145 318.87 173.422C318.152 172.559 316.971 173.313 317.001 174.181Z" fill="#9A9A9A"/>
<path d="M321.848 174.079C322.697 173.644 323.878 172.584 322.461 171.758C322.66 172.191 320.753 172.373 321.976 172.784C320.753 172.373 321.68 174.24 319.908 172.803L322.024 174.24L321.848 174.079Z" fill="#9A9A9A"/>
<path d="M335.077 171.037C334.954 172.361 336.128 171.318 336.999 171.448C336.621 170.585 336.793 170.416 337.855 170.686L336.255 170C335.735 170.146 336.505 172.19 335.077 171.037Z" fill="#9A9A9A"/>
<path d="M337.313 176.227L337.81 175.791L336.255 175.974C336.621 176.53 336.793 176.092 337.313 176.227Z" fill="#9A9A9A"/>
<path d="M342.785 185.759L343.959 184.688C342.045 184.59 344.254 182.954 342.845 182.375C342.684 182.816 340.86 185.349 339.092 184.216C340.176 185.366 342.722 183.713 342.785 185.759Z" fill="#9A9A9A"/>
<path d="M329.437 202.342C328.353 201.466 328.543 201.325 327.175 201.651C327.366 202.663 328.558 201.901 329.437 202.342Z" fill="#9A9A9A"/>
<path d="M347.237 190.161C347.775 190.582 346.886 190.161 347.237 189.871L348.287 190.411C347.237 190.158 348.583 189.244 348.411 189.109C347.742 189.413 346.519 189.301 347.237 190.161Z" fill="#9A9A9A"/>
<path d="M400.742 183.74L402.473 183.69C402.114 183.417 401.602 183.566 401.404 183.114C402.099 183.114 403.299 182.661 403.497 183.369C404.316 181.478 400.907 183.285 401.022 181.391L401.583 182.681C400.548 183.302 400.174 182.141 399.135 182.155C398.454 182.745 400.047 183.476 400.742 183.74Z" fill="#9A9A9A"/>
<path d="M405.093 184.37L405.475 185.82C407.007 185.348 407.736 186.498 408.921 185.463C407.358 185.348 406.446 183.476 404.547 184.232C404.742 184.37 404.914 184.808 405.093 184.37Z" fill="#9A9A9A"/>
<path d="M404.82 187.576L405.501 186.682C404.805 187.292 403.049 185.87 403.725 185.266L402.391 186.764L404.82 187.576Z" fill="#9A9A9A"/>
<path d="M407.904 186.632L406.349 186.531L405.848 186.967L407.904 186.632Z" fill="#9A9A9A"/>
<path d="M422 183.416L420.438 183.031L421.14 183.588L422 183.416Z" fill="#9A9A9A"/>
<path d="M339.963 209.843L341.686 209.807C341.327 209.52 340.819 209.669 340.628 209.23C341.331 209.23 342.524 208.775 342.725 209.489C343.533 207.58 340.128 209.402 340.243 207.496L340.808 208.795C339.765 209.402 339.387 208.238 338.348 208.269C337.672 208.859 339.272 209.576 339.963 209.843Z" fill="#9A9A9A"/>
<path d="M344.31 210.474L344.695 211.913C346.235 211.438 346.953 212.591 348.126 211.548C346.586 211.438 345.659 209.572 343.775 210.342C343.959 210.474 344.138 210.921 344.31 210.474Z" fill="#9A9A9A"/>
<path d="M344.049 213.691L344.721 212.778C344.019 213.39 342.269 211.968 342.927 211.375L341.604 212.865L344.049 213.691Z" fill="#9A9A9A"/>
<path d="M369.743 193.031L368.842 191.744L368.502 192.053L369.743 193.031Z" fill="#9A9A9A"/>
<path d="M347.14 212.739L345.585 212.627L345.073 213.079L347.14 212.739Z" fill="#9A9A9A"/>
<path d="M361.228 209.531L359.654 209.141L360.376 209.686L361.228 209.531Z" fill="#9A9A9A"/>
<path d="M382.733 193.204C382.516 192.476 384.411 192.001 382.837 191.613C383.39 192.586 380.972 192.372 382.733 193.204Z" fill="#9A9A9A"/>
<path d="M388.859 190.164L387.797 189.318L387.655 190.027L388.859 190.164Z" fill="#9A9A9A"/>
<path d="M382.714 198.595C383.391 198.289 384.972 198.691 384.411 197.679C383.944 199.318 382.83 196.985 382.153 197.597C382.677 197.727 382.52 198.148 382.714 198.595Z" fill="#9A9A9A"/>
<path d="M367.609 214.652L366.398 214.225L365.717 214.818L367.609 214.652Z" fill="#9A9A9A"/>
<path d="M380.352 206.663L381.178 205.612C381.387 206.362 381.234 207.366 381.252 207.962V207.627C381.776 207.779 383.192 208.639 382.841 209.226L385.592 208.574C384.153 206.576 382.733 205.429 380.131 204.771C380.138 205.35 379.32 206.989 378.595 205.82C377.604 207.304 380.49 205.348 380.352 206.663Z" fill="#9A9A9A"/>
<path d="M396.025 198.159L394.616 197.605C393.573 197.923 395.666 197.589 395.341 198.463L392.919 198.513C394.661 198.769 394.668 199.075 396.025 198.159Z" fill="#9A9A9A"/>
<path d="M399.056 207.434L396.301 207.49L398.742 207.993L399.056 207.434Z" fill="#9A9A9A"/>
<path d="M413.38 200.139L412.857 199.99C413.22 199.99 414.962 200.836 415.989 200.513C416.146 200.074 416.281 198.773 415.238 198.486C416.15 200.665 412.637 198.098 413.38 200.139Z" fill="#9A9A9A"/>
<path d="M414.116 201.577C414.49 202.44 415.511 201.85 415.855 201.527C415.313 200.819 414.457 201.577 414.116 201.577Z" fill="#9A9A9A"/>
<path d="M418.221 205.697L419.458 206.712L418.094 207.319C419.496 207.575 420.191 207.575 420.505 206.392C420.288 205.079 419.226 204.537 417.148 204.854L418.06 205.869L418.221 205.697Z" fill="#9A9A9A"/>
</svg>
