<svg width="500" height="500" viewBox="0 0 500 500" fill="none" xmlns="http://www.w3.org/2000/svg">
<path d="M449.657 340.314C449.657 347.458 444.132 353.258 437.288 353.258H62.297C55.4531 353.258 49.9286 347.476 49.9286 340.314V160.475C49.9286 153.331 55.4531 147.531 62.297 147.531H437.288C444.132 147.531 449.657 153.331 449.657 160.475V340.314Z" fill="#B6E3EB"/>
<g opacity="0.16">
</g>
<path d="M76.9607 322.848H87.3696V325.003H76.9607V322.848ZM74.8943 317.109H80.3092V319.092H74.8943V317.109ZM74.4733 327.177H89.723V329.274H74.4733V327.177ZM79.5055 317.109H79.9073L80.3092 317.033L81.8399 317.738C80.5388 321.628 77.6687 324.355 74.3968 325.899C74.0906 325.384 73.4592 324.603 73 324.183C75.851 323.001 78.5106 320.408 79.5055 317.509V317.109ZM78.5871 323.935H80.864V327.234C80.864 329.942 80.1752 332.783 75.4491 334.365C75.1621 333.85 74.4542 332.954 73.9758 332.554C78.0514 331.276 78.5871 329.16 78.5871 327.196V323.935ZM84.2316 316.403C85.4562 319.683 87.9627 322.524 91.3303 323.859C90.7945 324.317 90.0866 325.232 89.723 325.842C86.1641 324.164 83.6767 320.961 82.1843 316.994L84.2316 316.403ZM74.3011 320.579L75.7553 319.378C76.4824 319.893 77.4773 320.636 77.9748 321.151L76.4632 322.467C76.004 321.971 75.0473 321.151 74.3011 320.579ZM86.9104 316.689L88.6324 317.891C87.6375 318.806 86.4703 319.759 85.571 320.35L84.1933 319.302C85.0544 318.634 86.2407 317.509 86.9104 316.689ZM89.1873 318.863L90.8711 320.045C89.8379 320.98 88.575 321.971 87.5992 322.619L86.2215 321.571C87.1591 320.884 88.4411 319.721 89.1873 318.863ZM83.2366 324.03H85.6284V331.333C85.6284 332.039 85.7049 332.134 86.2407 332.134C86.4703 332.134 87.427 332.134 87.6949 332.134C88.2115 332.134 88.3071 331.772 88.3837 329.98C88.862 330.342 89.7996 330.723 90.431 330.857C90.2205 333.393 89.6082 334.175 87.9245 334.175C87.5035 334.175 86.2407 334.175 85.8197 334.175C83.7341 334.175 83.2366 333.488 83.2366 331.333V324.03Z" fill="#1B140C"/>
<path d="M92.8036 317.91H109.737V319.988H92.8036V317.91ZM94.6405 321.228H107.996V323.23H94.6405V321.228ZM93.0715 324.183H109.508V328.264H107.192V326.223H95.2719V328.264H93.0715V324.183ZM99.9788 316.403H102.371V322.333H99.9788V316.403ZM102.275 326.833H104.59V331.314C104.59 331.925 104.705 332.001 105.375 332.001C105.7 332.001 106.944 332.001 107.307 332.001C107.939 332.001 108.072 331.696 108.13 329.732C108.608 330.094 109.584 330.456 110.196 330.59C109.948 333.355 109.354 334.06 107.537 334.06C107.058 334.06 105.509 334.06 105.068 334.06C102.83 334.06 102.275 333.412 102.275 331.353V326.833ZM97.5488 326.814H99.9406C99.6536 330.666 98.8117 333.107 93.5307 334.365C93.3202 333.755 92.7462 332.859 92.2679 332.382C96.86 331.486 97.3192 329.789 97.5488 326.814Z" fill="#1B140C"/>
<path d="M119.132 316.384H121.677V324.202H119.132V316.384ZM112.856 317.948L114.961 317.128C115.956 318.463 116.912 320.236 117.314 321.437L115.095 322.391C114.75 321.151 113.794 319.302 112.856 317.948ZM125.561 316.956L128.125 317.7C127.302 319.416 126.288 321.247 125.484 322.448L123.437 321.742C124.202 320.446 125.102 318.463 125.561 316.956ZM113.315 323.001H127.8V334.289H125.35V325.289H113.315V323.001ZM113.966 327.043H126.231V329.255H113.966V327.043ZM112.875 331.219H126.632V333.507H112.875V331.219Z" fill="#1B140C"/>
<path d="M132.908 317.528H146.264V334.041H143.796V319.836H135.281V334.06H132.908V317.528ZM134.535 323.935H144.829V326.204H134.535V323.935ZM134.516 330.514H144.829V332.821H134.516V330.514Z" fill="#1B140C"/>
<path d="M158.777 320.732H165.379V322.6H158.777V320.732ZM155.486 331.772C157.228 331.524 159.906 331.047 162.47 330.59L162.642 332.573C160.423 333.088 158.069 333.603 156.252 334.003L155.486 331.772ZM157.476 317.242H159.715V332.306H157.476V317.242ZM158.777 317.242H166.412V326.147H158.777V324.183H164.154V319.206H158.777V317.242ZM162.776 324.85C163.465 328.244 164.938 331.067 167.751 332.306C167.254 332.744 166.584 333.641 166.259 334.232C163.178 332.611 161.686 329.369 160.863 325.155L162.776 324.85ZM165.532 326.28L167.33 327.539C166.278 328.53 165.053 329.598 164.097 330.285L162.662 329.179C163.58 328.435 164.824 327.234 165.532 326.28ZM150.512 317.204H155.295V319.244H152.655V334.308H150.512V317.204ZM154.664 317.204H155.065L155.391 317.128L156.941 318.024C156.424 319.683 155.735 321.8 155.142 323.287C156.405 324.774 156.654 326.09 156.654 327.196C156.654 328.473 156.367 329.274 155.735 329.713C155.429 329.942 155.046 330.075 154.606 330.132C154.243 330.189 153.745 330.189 153.286 330.17C153.267 329.598 153.095 328.702 152.769 328.13C153.133 328.168 153.401 328.168 153.649 328.168C153.86 328.149 154.051 328.111 154.223 327.997C154.472 327.825 154.568 327.444 154.568 326.91C154.568 326.014 154.281 324.831 153.152 323.535C153.707 321.819 154.357 319.111 154.664 317.891V317.204Z" fill="#1B140C"/>
<path d="M175.156 317.261C174.888 318.196 174.486 320.16 174.372 321.228C175.29 319.759 176.974 318.139 179.117 318.139C181.776 318.139 183.843 320.751 183.843 324.946C183.843 330.342 180.533 332.897 175.462 333.831L174.008 331.619C178.275 330.971 181.26 329.56 181.26 324.946C181.26 322.009 180.265 320.369 178.677 320.369C176.419 320.369 174.429 323.764 174.352 326.261C174.314 326.795 174.333 327.405 174.429 328.283L172.075 328.454C171.961 327.711 171.846 326.547 171.846 325.27C171.846 323.478 172.095 321.132 172.382 319.149C172.458 318.444 172.516 317.681 172.535 317.166L175.156 317.261Z" fill="#1B140C"/>
<path d="M188.416 318.692H205.483V320.827H188.416V318.692ZM193.582 325.556H201.905V327.463H193.582V325.556ZM191.879 322.333H201.561V324.336H194.156V334.27H191.879V322.333ZM201.102 322.333H203.34V331.81C203.34 332.935 203.13 333.564 202.345 333.927C201.58 334.27 200.489 334.289 198.939 334.289C198.844 333.66 198.538 332.687 198.232 332.096C199.226 332.153 200.355 332.134 200.681 332.134C200.987 332.134 201.102 332.039 201.102 331.772V322.333ZM194.347 316.365L196.72 316.899C195.381 321.208 193.084 325.594 189.353 328.187C189.028 327.672 188.301 326.853 187.842 326.414C191.248 324.183 193.391 320.083 194.347 316.365ZM193.582 328.702H201.905V330.609H193.582V328.702Z" fill="#1B140C"/>
<path d="M207.378 318.787H216.753V320.827H207.378V318.787ZM210.994 316.48H213.233V319.626H210.994V316.48ZM209.253 321.228L211.415 321.78C210.764 323.42 209.674 325.098 208.564 326.147C208.181 325.766 207.301 325.098 206.804 324.793C207.856 323.916 208.755 322.581 209.253 321.228ZM212.85 324.412L215.108 324.889C213.883 329.064 211.606 332.287 208.43 334.27C208.124 333.793 207.358 332.84 206.88 332.42C209.884 330.819 211.893 328.016 212.85 324.412ZM212.926 321.857L214.687 320.98C215.605 322.047 216.581 323.497 216.964 324.507L215.05 325.499C214.706 324.507 213.787 322.982 212.926 321.857ZM208.87 326.738L210.171 325.155C212.18 326.605 214.763 328.74 215.892 330.247L214.457 332.115C213.386 330.571 210.898 328.302 208.87 326.738ZM216.619 320.598H223.316V322.753H216.619V320.598ZM222.455 320.598H224.579C224.579 320.598 224.579 321.323 224.579 321.59C224.426 329.484 224.254 332.268 223.641 333.145C223.22 333.774 222.78 333.984 222.13 334.098C221.537 334.194 220.618 334.194 219.7 334.175C219.662 333.545 219.413 332.63 219.049 332.02C219.91 332.096 220.676 332.115 221.058 332.115C221.345 332.115 221.537 332.039 221.728 331.791C222.149 331.219 222.321 328.492 222.455 321.056V320.598ZM218.494 316.651H220.695C220.656 324.355 220.618 330.685 216.6 334.346C216.237 333.812 215.509 333.05 214.974 332.687C218.647 329.446 218.475 323.84 218.494 316.651Z" fill="#1B140C"/>
<path d="M276.649 317.448H293.753V319.752H276.649V317.448ZM283.563 319.524H286.02V333.905H283.563V319.524ZM284.858 324.133L286.42 322.324C288.496 323.352 291.487 325.01 292.953 326.19L291.258 328.286C289.906 327.086 287.011 325.295 284.858 324.133Z" fill="#1B140C"/>
<path d="M296.039 317.619H312.42V319.695H296.039V317.619ZM295.582 329.333H312.991V331.39H295.582V329.333ZM302.991 316.057H305.353V333.962H302.991V316.057ZM299.677 325.295V326.476H308.687V325.295H299.677ZM299.677 322.438V323.6H308.687V322.438H299.677ZM297.487 320.61H310.991V328.305H297.487V320.61Z" fill="#1B140C"/>
<path d="M314.63 318.876H331.963V320.952H314.63V318.876ZM316.877 325.371H321.83V327.048H316.877V325.371ZM316.877 328.286H321.83V329.981H316.877V328.286ZM324.858 322.457H326.972V330.267H324.858V322.457ZM321.03 322.267H323.239V331.695C323.239 332.667 323.049 333.2 322.401 333.524C321.772 333.867 320.896 333.886 319.715 333.886C319.601 333.314 319.277 332.476 318.991 331.943C319.696 331.981 320.477 331.981 320.706 331.962C320.953 331.962 321.03 331.886 321.03 331.657V322.267ZM328.687 321.943H330.934V331.448C330.934 332.552 330.725 333.143 329.963 333.486C329.239 333.829 328.211 333.905 326.801 333.886C326.687 333.276 326.325 332.305 326.001 331.714C326.972 331.771 327.963 331.771 328.287 331.752C328.591 331.752 328.687 331.676 328.687 331.41V321.943ZM317.258 316.8L319.43 316.038C320.115 316.781 320.877 317.79 321.201 318.514L318.896 319.333C318.63 318.648 317.925 317.562 317.258 316.8ZM327.03 316L329.525 316.743C328.744 317.962 327.906 319.181 327.239 320.019L325.182 319.314C325.83 318.419 326.611 317.029 327.03 316ZM315.677 322.267H321.677V324.171H317.83V333.829H315.677V322.267Z" fill="#1B140C"/>
<path d="M338.001 323.486V330.495H335.772V325.6H333.639V323.486H338.001ZM338.001 329.505C338.782 330.781 340.249 331.314 342.268 331.39C344.496 331.486 348.82 331.429 351.391 331.219C351.144 331.752 350.782 332.857 350.668 333.543C348.363 333.657 344.515 333.695 342.23 333.6C339.849 333.505 338.249 332.952 337.011 331.467C336.191 332.21 335.353 332.933 334.344 333.771L333.22 331.39C334.077 330.857 335.049 330.19 335.925 329.505H338.001ZM333.658 317.867L335.353 316.495C336.477 317.314 337.849 318.533 338.496 319.429L336.668 320.914C336.115 320.019 334.782 318.724 333.658 317.867ZM343.658 321.867H345.849V328.762C345.849 329.733 345.696 330.248 345.049 330.552C344.382 330.857 343.525 330.876 342.344 330.876C342.268 330.305 342.001 329.505 341.753 328.952C342.382 328.99 343.125 328.99 343.334 328.99C343.582 328.99 343.658 328.914 343.658 328.705V321.867ZM340.63 325.886L342.611 326.362C342.02 327.81 341.03 329.238 340.02 330.152C339.639 329.81 338.801 329.276 338.325 329.01C339.315 328.229 340.172 327.067 340.63 325.886ZM346.534 326.629L348.344 325.81C349.22 326.819 350.287 328.229 350.744 329.181L348.839 330.133C348.401 329.181 347.411 327.714 346.534 326.629ZM341.22 320.667H348.306V322.514H341.22V320.667ZM339.03 323.543H350.706V325.429H339.03V323.543ZM344.63 318.076C343.487 319.562 341.353 321.295 339.22 322.267C338.991 321.695 338.458 320.8 338.058 320.305C340.211 319.39 342.363 317.619 343.43 316.076H345.677C347.163 317.829 349.258 319.371 351.372 320.133C350.896 320.705 350.382 321.562 350.058 322.229C348.153 321.314 345.868 319.6 344.63 318.076Z" fill="#1B140C"/>
<path d="M356.344 316.057L358.591 316.705C357.544 318.819 355.849 320.876 354.249 322.133C353.83 321.714 352.915 320.99 352.382 320.648C353.982 319.581 355.506 317.829 356.344 316.057ZM356.191 318.057H369.315V320.076H355.639L356.191 318.057ZM352.782 322.495H370.001V324.533H352.782V322.495ZM353.106 326.971H369.734V329.01H353.106V326.971ZM358.744 318.781H360.668V328.038H358.744V318.781ZM355.372 318.781H357.391V328.057H355.372V318.781ZM362.058 318.781H363.963V328.057H362.058V318.781ZM365.411 318.781H367.506V328.057H365.411V318.781ZM358.172 330.076L360.287 329.829C360.534 330.99 360.763 332.495 360.782 333.429L358.534 333.752C358.534 332.819 358.401 331.257 358.172 330.076ZM361.963 330.114L364.115 329.752C364.591 330.876 365.068 332.381 365.239 333.314L362.953 333.771C362.82 332.838 362.401 331.295 361.963 330.114ZM365.753 330.019L367.944 329.333C368.801 330.495 369.887 332.114 370.363 333.181L368.039 333.962C367.62 332.914 366.611 331.238 365.753 330.019ZM354.744 329.41L356.972 329.943C356.534 331.41 355.715 332.971 354.801 333.962L352.591 333.086C353.468 332.286 354.306 330.8 354.744 329.41Z" fill="#1B140C"/>
<path d="M371.772 318.457H381.106V320.495H371.772V318.457ZM375.372 316.152H377.601V319.295H375.372V316.152ZM373.639 320.895L375.791 321.448C375.144 323.086 374.058 324.762 372.953 325.81C372.572 325.429 371.696 324.762 371.201 324.457C372.249 323.581 373.144 322.248 373.639 320.895ZM377.22 324.076L379.468 324.552C378.249 328.724 375.982 331.943 372.82 333.924C372.515 333.448 371.753 332.495 371.277 332.076C374.268 330.476 376.268 327.676 377.22 324.076ZM377.296 321.524L379.049 320.648C379.963 321.714 380.934 323.162 381.315 324.171L379.411 325.162C379.068 324.171 378.153 322.648 377.296 321.524ZM373.258 326.4L374.553 324.819C376.553 326.267 379.125 328.4 380.249 329.905L378.82 331.771C377.753 330.229 375.277 327.962 373.258 326.4ZM380.972 320.267H387.639V322.419H380.972V320.267ZM386.782 320.267H388.896C388.896 320.267 388.896 320.99 388.896 321.257C388.744 329.143 388.572 331.924 387.963 332.8C387.544 333.429 387.106 333.638 386.458 333.752C385.868 333.848 384.953 333.848 384.039 333.829C384.001 333.2 383.753 332.286 383.391 331.676C384.249 331.752 385.011 331.771 385.391 331.771C385.677 331.771 385.868 331.695 386.058 331.448C386.477 330.876 386.649 328.152 386.782 320.724V320.267ZM382.839 316.324H385.03C384.991 324.019 384.953 330.343 380.953 334C380.591 333.467 379.868 332.705 379.334 332.343C382.991 329.105 382.82 323.505 382.839 316.324Z" fill="#1B140C"/>
<path d="M274.78 250.394L246 264.784L246 236.004L274.78 250.394Z" fill="#1B140C"/>
<path d="M275.637 193.805H294.49V196.183H275.637V193.805ZM283.62 192.042H286.274V211.979H283.62V192.042ZM282.983 204.166L285.127 205.079C283.174 207.881 279.968 210.386 276.762 211.745C276.38 211.108 275.573 210.11 275 209.601C278.1 208.518 281.327 206.395 282.983 204.166ZM286.996 204.251C288.694 206.416 291.985 208.518 295.085 209.558C294.49 210.089 293.684 211.087 293.28 211.788C290.117 210.45 286.89 207.924 284.915 205.163L286.996 204.251ZM279.904 202.34V203.635H290.18V202.34H279.904ZM279.904 199.304V200.577H290.18V199.304H279.904ZM277.42 197.393H292.792V205.546H277.42V197.393Z" fill="#1B140C"/>
<path d="M298.885 193.316H313.705V211.703H310.966V195.885H301.518V211.724H298.885V193.316ZM300.69 200.45H312.113V202.977H300.69V200.45ZM300.669 207.775H312.113V210.344H300.669V207.775Z" fill="#1B140C"/>
<path d="M318.1 196.161H336.89V198.752H318.1V196.161ZM322.473 205.8H332.325V208.391H322.473V205.8ZM326.104 192.042H328.822V211.979H326.104V192.042ZM325.34 197.096L327.675 197.839C325.849 202.467 322.834 206.522 319.119 208.858C318.694 208.221 317.845 207.244 317.272 206.735C320.754 204.824 323.832 201.002 325.34 197.096ZM329.586 197.159C331.136 200.938 334.236 204.633 337.803 206.48C337.166 207.011 336.253 208.072 335.828 208.794C332.091 206.501 329.119 202.446 327.272 197.924L329.586 197.159Z" fill="#1B140C"/>
<path d="M340.053 208.858C343.853 208.752 349.756 208.539 355.106 208.306L355.021 210.641C349.82 210.938 344.214 211.193 340.393 211.342L340.053 208.858ZM339.947 202.531H357.611V204.909H339.947V202.531ZM343.726 198.454H353.684V200.79H343.726V198.454ZM345.149 204.081L348.057 204.887C347.059 206.883 345.913 209.091 344.958 210.514L342.728 209.771C343.599 208.221 344.618 205.864 345.149 204.081ZM350.414 206.268L352.665 205.1C354.575 206.735 356.55 208.964 357.527 210.577L355.17 212C354.278 210.386 352.24 207.966 350.414 206.268ZM348.694 194.527C346.975 196.947 343.662 199.665 340.138 201.342C339.841 200.726 339.161 199.771 338.631 199.219C342.261 197.626 345.658 194.59 347.229 192.085H349.926C352.176 195.206 355.552 197.626 358.928 198.837C358.312 199.473 357.739 200.386 357.272 201.151C354.087 199.665 350.499 196.989 348.694 194.527Z" fill="#1B140C"/>
<path d="M368.015 208.879H380.117V211.384H368.015V208.879ZM368.885 198.624H379.607V201.066H368.885V198.624ZM372.941 192.255H375.552V210.089H372.941V192.255ZM360.393 195.97H367.357V198.285H360.393V195.97ZM363.429 203.231L365.955 200.217V212H363.429V203.231ZM363.429 192.064H365.955V197.053H363.429V192.064ZM365.701 200.938C366.444 201.448 368.843 203.571 369.416 204.102L367.866 206.161C367.038 205.057 365.255 203.104 364.299 202.17L365.701 200.938ZM366.423 195.97H366.932L367.378 195.885L368.8 196.82C367.187 200.96 363.981 204.675 360.817 206.671C360.584 205.992 359.989 204.739 359.607 204.251C362.495 202.679 365.297 199.558 366.423 196.437V195.97Z" fill="#1B140C"/>
<path d="M399.14 202.616L401.178 204.144C399.926 205.185 398.588 206.31 397.548 207.011L396.04 205.779C397.017 204.972 398.376 203.614 399.14 202.616ZM393.938 192L396.826 192.446C396.21 193.614 395.51 194.781 394.958 195.546L392.792 195.057C393.217 194.166 393.705 192.934 393.938 192ZM392.155 199.049V200.153H397.845V199.049H392.155ZM392.155 196.098V197.223H397.845V196.098H392.155ZM389.862 194.144H400.265V202.127H389.862V194.144ZM393.96 201.257H396.231V209.558C396.231 210.641 396.083 211.236 395.403 211.597C394.703 211.936 393.79 211.979 392.495 211.979C392.431 211.342 392.155 210.429 391.879 209.792C392.622 209.813 393.408 209.813 393.641 209.813C393.896 209.813 393.96 209.749 393.96 209.537V201.257ZM389.31 203.55H392.367V205.631H389.31V203.55ZM391.879 203.55H392.325L392.707 203.486L394.066 204.038C393.323 207.478 391.709 209.856 389.65 211.13C389.331 210.641 388.546 209.771 388.079 209.431C389.947 208.391 391.348 206.459 391.879 203.89V203.55ZM396.019 201.342C396.635 204.144 398.121 207.563 401.497 209.049C401.03 209.516 400.287 210.471 399.968 211.108C396.741 209.304 395.234 205.439 394.639 202.701L396.019 201.342ZM384.363 192.064L386.571 192.828C385.701 194.484 384.724 196.374 383.917 197.563L382.219 196.862C382.962 195.588 383.875 193.529 384.363 192.064ZM386.762 194.569L388.822 195.524C387.272 197.902 385.212 200.854 383.577 202.679L382.113 201.851C383.705 199.941 385.637 196.841 386.762 194.569ZM381.072 197.011L382.325 195.312C383.429 196.31 384.724 197.69 385.234 198.688L383.853 200.641C383.386 199.601 382.134 198.093 381.072 197.011ZM386.04 199.665L387.803 198.921C388.652 200.365 389.459 202.234 389.713 203.444L387.803 204.314C387.569 203.083 386.826 201.13 386.04 199.665ZM381.008 201.363C382.919 201.257 385.658 201.108 388.312 200.938L388.333 203.019C385.849 203.21 383.259 203.401 381.284 203.55L381.008 201.363ZM386.614 204.994L388.397 204.442C388.885 205.609 389.31 207.096 389.437 208.093L387.548 208.688C387.484 207.711 387.081 206.161 386.614 204.994ZM381.921 204.527L383.96 204.866C383.747 206.904 383.301 209.006 382.686 210.365C382.261 210.089 381.327 209.686 380.839 209.473C381.433 208.221 381.752 206.31 381.921 204.527ZM384.257 202.488H386.444V211.979H384.257V202.488Z" fill="#1B140C"/>
<path d="M323.226 236.363C323.226 238.453 322.862 240.282 322.136 241.849C321.446 243.416 320.483 244.701 319.248 245.702C318.013 246.66 316.579 247.356 314.944 247.792V247.988C318.068 248.423 320.429 249.577 322.027 251.449C323.625 253.321 324.424 255.803 324.424 258.894C324.424 261.593 323.88 264.01 322.79 266.143C321.7 268.276 320.011 269.952 317.723 271.171C315.471 272.39 312.565 273 309.006 273C306.899 273 304.938 272.782 303.121 272.347C301.305 271.955 299.598 271.324 298 270.453V263.204C299.634 264.205 301.378 264.967 303.23 265.49C305.083 266.012 306.826 266.273 308.461 266.273C311.621 266.273 313.855 265.599 315.162 264.249C316.47 262.856 317.124 260.94 317.124 258.502C317.124 256.935 316.797 255.65 316.143 254.649C315.489 253.648 314.418 252.907 312.928 252.429C311.476 251.906 309.569 251.645 307.208 251.645H303.939V245.049H307.262C309.55 245.049 311.348 244.744 312.656 244.135C314 243.525 314.944 242.676 315.489 241.588C316.07 240.499 316.361 239.237 316.361 237.8C316.361 235.928 315.852 234.469 314.835 233.424C313.818 232.38 312.293 231.857 310.259 231.857C308.951 231.857 307.771 232.031 306.717 232.38C305.664 232.728 304.701 233.185 303.83 233.751C302.958 234.273 302.141 234.839 301.378 235.449L298.109 229.767C299.09 228.897 300.197 228.113 301.432 227.416C302.667 226.676 304.048 226.11 305.573 225.718C307.099 225.283 308.77 225.065 310.586 225.065C314.617 225.065 317.723 226.088 319.902 228.135C322.118 230.137 323.226 232.88 323.226 236.363Z" fill="#1B140C"/>
<path d="M355.821 248.967C355.821 252.755 355.585 256.129 355.113 259.09C354.641 262.05 353.86 264.576 352.77 266.665C351.717 268.712 350.337 270.279 348.629 271.367C346.959 272.456 344.906 273 342.473 273C339.422 273 336.915 272.042 334.954 270.127C332.993 268.211 331.54 265.468 330.595 261.898C329.651 258.284 329.179 253.974 329.179 248.967C329.179 243.961 329.615 239.672 330.486 236.102C331.358 232.532 332.757 229.789 334.682 227.873C336.643 225.958 339.24 225 342.473 225C345.524 225 348.03 225.958 349.991 227.873C351.953 229.746 353.406 232.488 354.35 236.102C355.331 239.672 355.821 243.961 355.821 248.967ZM336.098 249.033C336.098 252.82 336.298 255.999 336.698 258.567C337.097 261.093 337.751 263.008 338.659 264.314C339.603 265.577 340.875 266.208 342.473 266.208C344.071 266.208 345.324 265.577 346.232 264.314C347.176 263.052 347.848 261.136 348.248 258.567C348.684 255.999 348.902 252.82 348.902 249.033C348.902 245.201 348.684 242.023 348.248 239.498C347.848 236.929 347.176 235.014 346.232 233.751C345.324 232.445 344.071 231.792 342.473 231.792C340.875 231.792 339.603 232.445 338.659 233.751C337.751 235.014 337.097 236.907 336.698 239.433C336.298 241.958 336.098 245.158 336.098 249.033Z" fill="#1B140C"/>
<path d="M387 248.967C387 252.755 386.764 256.129 386.292 259.09C385.82 262.05 385.039 264.576 383.949 266.665C382.896 268.712 381.515 270.279 379.808 271.367C378.137 272.456 376.085 273 373.652 273C370.601 273 368.094 272.042 366.133 270.127C364.172 268.211 362.719 265.468 361.774 261.898C360.83 258.284 360.358 253.974 360.358 248.967C360.358 243.961 360.794 239.672 361.665 236.102C362.537 232.532 363.935 229.789 365.861 227.873C367.822 225.958 370.419 225 373.652 225C376.703 225 379.209 225.958 381.17 227.873C383.132 229.746 384.585 232.488 385.529 236.102C386.51 239.672 387 243.961 387 248.967ZM367.277 249.033C367.277 252.82 367.477 255.999 367.876 258.567C368.276 261.093 368.93 263.008 369.838 264.314C370.782 265.577 372.053 266.208 373.652 266.208C375.25 266.208 376.503 265.577 377.411 264.314C378.355 263.052 379.027 261.136 379.427 258.567C379.863 255.999 380.081 252.82 380.081 249.033C380.081 245.201 379.863 242.023 379.427 239.498C379.027 236.929 378.355 235.014 377.411 233.751C376.503 232.445 375.25 231.792 373.652 231.792C372.053 231.792 370.782 232.445 369.838 233.751C368.93 235.014 368.276 236.907 367.876 239.433C367.477 241.958 367.277 245.158 367.277 249.033Z" fill="#1B140C"/>
<path d="M399 224.949H417.974V226.809H401.925V238.64H399V224.949ZM416.572 224.949H419.521V236.436C419.521 237.452 419.183 237.983 418.168 238.296C417.177 238.593 415.726 238.64 413.551 238.64C413.43 238.108 412.922 237.249 412.512 236.764C413.914 236.811 415.485 236.796 415.968 236.796C416.427 236.796 416.572 236.702 416.572 236.421V224.949ZM400.595 230.763H417.998V232.623H400.595V230.763ZM407.629 225.965H410.53V231.685H407.629V225.965Z" fill="#1B140C"/>
<path d="M413.575 243.414L416.451 244.04C413.744 247.493 409.514 250.51 405.067 252.385C404.584 251.994 403.447 251.26 402.795 250.916C407.291 249.291 411.255 246.524 413.575 243.414ZM403.689 245.587L405.72 244.383C409.877 246.056 415.05 248.587 417.467 250.525L415.17 251.948C412.947 250.041 407.943 247.353 403.689 245.587ZM399.024 241.398H419.715V243.196H401.925V255.261H399.024V241.398ZM400.813 252.713H420.319V254.511H400.813V252.713Z" fill="#1B140C"/>
<path d="M405.84 266.709H412.463V268.053H405.84V266.709ZM405.671 264.396H413.817V270.397H405.671V269.022H411.11V265.771H405.671V264.396ZM404.487 264.396H407.097V271.194H404.487V264.396ZM400.426 259.942H406.493V261.208H400.426V259.942ZM411.641 259.942H417.757V261.208H411.641V259.942ZM416.572 257.769H419.497V269.631C419.497 270.647 419.183 271.194 418.216 271.507C417.249 271.819 415.847 271.851 413.768 271.851C413.648 271.319 413.213 270.444 412.826 269.944C414.083 269.991 415.557 269.975 415.992 269.975C416.427 269.975 416.572 269.881 416.572 269.616V257.769ZM400.668 257.769H408.306V263.442H400.668V262.098H405.599V259.129H400.668V257.769ZM418.119 257.769V259.129H412.705V262.145H418.119V263.489H409.949V257.769H418.119ZM399 257.769H401.876V271.851H399V257.769Z" fill="#1B140C"/>
<path d="M95.3 230.5H119.4V235.95H95.3V230.5ZM92.3 240.2H121.6V245.75H92.3V240.2ZM93.4 250.25H121.1V255.8H93.4V250.25ZM104.2 226H110.15V243.25H104.2V226ZM110.15 245.15H116.1V266.3C116.1 269.35 115.5 271 113.5 271.9C111.5 272.8 108.65 272.95 104.85 272.95C104.65 271.2 103.85 268.65 103.05 267C105.5 267.1 108.25 267.1 109.1 267.05C109.9 267.05 110.15 266.9 110.15 266.2V245.15ZM95.15 258.5L99.6 255.75C101.8 257.95 104.45 261.1 105.65 263.3L100.9 266.4C99.85 264.2 97.3 260.9 95.15 258.5ZM74.5 252.7C79.4 251.6 86.7 249.55 93.6 247.6L94.4 252.85C88.1 254.85 81.25 256.9 75.95 258.45L74.5 252.7ZM83.5 226.05H89V273H83.5V226.05ZM76.9 228.65L81.9 229.5C81.25 236.1 80.05 243.05 78.25 247.55C77.35 246.8 75.2 245.45 74 244.85C75.6 240.8 76.45 234.55 76.9 228.65ZM78.25 235.5H93.15V241.2H77.15L78.25 235.5Z" fill="#1B140C"/>
<path d="M145.15 250.45H151.2V255.8H145.15V250.45ZM145 254.95L149.65 256.95C144.65 261.55 136.25 264.9 127.95 266.4C127.3 265.1 125.85 263.15 124.75 262.05C132.7 261 140.9 258.45 145 254.95ZM151.65 254.65C154.6 262.2 161.1 266.8 171.7 268.35C170.55 269.45 169.15 271.65 168.45 273.1C156.9 270.9 150.4 265.35 146.75 255.7L151.65 254.65ZM164.8 257.2L169.05 260.35C165.9 262.5 162 264.5 158.95 265.8L155.35 262.85C158.35 261.5 162.4 259.05 164.8 257.2ZM131.3 267.65C136.55 267.05 144.5 266.05 152.05 265L152.25 269.65C145.15 270.7 137.65 271.75 132.15 272.5L131.3 267.65ZM125.6 253.1H170.75V257.8H125.6V253.1ZM152.7 228.05H158.05V244.8H152.7V228.05ZM163.5 226.45H168.95V246.5C168.95 249.1 168.45 250.35 166.65 251.1C164.85 251.85 162.4 251.9 158.9 251.9C158.65 250.5 157.85 248.5 157.15 247.15C159.4 247.25 161.85 247.25 162.55 247.2C163.3 247.2 163.5 247 163.5 246.4V226.45ZM135.85 226.05H141V251.9H135.85V226.05ZM145 240.85H149.8V246.55C149.8 248.45 149.5 249.35 148.2 249.95C146.95 250.55 145.35 250.55 143.2 250.55C142.95 249.4 142.25 248.05 141.75 247.1C142.9 247.15 144.05 247.15 144.45 247.1C144.85 247.1 145 247 145 246.6V240.85ZM127.55 240.85H147V244.5H132.1V250.75H127.55V240.85ZM125.5 235.1H150.6V239.1H125.5V235.1ZM131 229.3H149.25V233.1H129.45L131 229.3ZM129.4 226.15L133.8 227.2C132.75 230.25 131.05 233.55 129.4 235.6C128.45 234.9 126.55 233.85 125.45 233.3C127.15 231.45 128.55 228.7 129.4 226.15ZM136.3 262.85L139.4 259.75L142.05 260.6V270.3H136.3V262.85Z" fill="#1B140C"/>
<path d="M195.05 226.05H201.1V234.25H195.05V226.05ZM177.05 231.3H219.8V240.8H214V235.35H182.65V240.8H177.05V231.3ZM190.55 240.5V242.65H205.8V240.5H190.55ZM185 237.2H211.75V245.95H185V237.2ZM181.6 227.7L186.95 226.3C188.2 227.7 189.55 229.7 190.25 231.1L184.75 232.85C184.2 231.45 182.8 229.25 181.6 227.7ZM209.7 226.1L215.9 227.55C214.35 229.7 212.65 231.6 211.35 232.9L206.45 231.5C207.55 229.95 209 227.7 209.7 226.1ZM187.85 255.75V257.55H209V255.75H187.85ZM187.85 260.6V262.5H209V260.6H187.85ZM187.85 250.85V252.7H209V250.85H187.85ZM182.15 247.65H214.95V265.7H182.15V247.65ZM189.8 265.5L195.55 267.7C191.75 270.25 185.35 272.2 180.15 273.35C179.1 272.1 176.95 269.85 175.7 268.85C180.95 268.25 186.8 267.1 189.8 265.5ZM200.85 268.35L205.5 265.1C210.75 266.55 217 268.5 220.65 269.85L214.35 273.05C211.35 271.75 206.05 269.85 200.85 268.35Z" fill="#1B140C"/>
<path d="M81.699 182.755H78.3553V167.914H73V165.269H87.0543V167.914H81.699V182.755Z" fill="#1B140C"/>
<path d="M106.066 173.988C106.066 175.343 105.883 176.576 105.518 177.686C105.169 178.78 104.63 179.727 103.898 180.527C103.184 181.327 102.27 181.939 101.155 182.363C100.058 182.788 98.7692 183 97.2889 183C95.7912 183 94.485 182.788 93.3704 182.363C92.2732 181.922 91.3676 181.31 90.6536 180.527C89.9396 179.727 89.3997 178.771 89.0339 177.661C88.6856 176.551 88.5115 175.318 88.5115 173.963C88.5115 172.151 88.825 170.576 89.4519 169.237C90.0963 167.898 91.0629 166.861 92.3516 166.127C93.6578 165.376 95.3122 165 97.315 165C99.283 165 100.911 165.376 102.2 166.127C103.489 166.861 104.455 167.906 105.1 169.261C105.744 170.6 106.066 172.176 106.066 173.988ZM92.0381 173.988C92.0381 175.31 92.221 176.445 92.5867 177.392C92.9698 178.339 93.5446 179.065 94.3108 179.571C95.0945 180.078 96.0872 180.331 97.2889 180.331C98.5254 180.331 99.5268 180.078 100.293 179.571C101.059 179.065 101.625 178.339 101.991 177.392C102.357 176.445 102.54 175.31 102.54 173.988C102.54 172.012 102.13 170.461 101.312 169.335C100.493 168.208 99.1611 167.645 97.315 167.645C96.0959 167.645 95.0945 167.898 94.3108 168.404C93.5446 168.91 92.9698 169.637 92.5867 170.584C92.221 171.531 92.0381 172.665 92.0381 173.988Z" fill="#1B140C"/>
<path d="M124.51 182.755H120.67L115.132 175.016L113.382 176.314V182.755H110.038V165.269H113.382V173.498C113.73 173.09 114.087 172.673 114.453 172.249C114.819 171.824 115.184 171.4 115.55 170.976L120.592 165.269H124.38L117.535 172.959L124.51 182.755Z" fill="#1B140C"/>
<path d="M141.738 176.584C141.738 177.792 141.459 178.886 140.902 179.865C140.362 180.829 139.535 181.596 138.42 182.167C137.305 182.722 135.895 183 134.188 183C131.767 183 129.93 182.412 128.676 181.237C127.422 180.045 126.795 178.478 126.795 176.535V165.269H130.139V176.216C130.139 177.637 130.487 178.682 131.184 179.351C131.88 180.004 132.917 180.331 134.292 180.331C135.268 180.331 136.051 180.176 136.644 179.865C137.253 179.555 137.697 179.09 137.976 178.469C138.272 177.833 138.42 177.073 138.42 176.192V165.269H141.738V176.584Z" fill="#1B140C"/>
<path d="M157.309 177.98C157.309 179.008 157.039 179.898 156.499 180.649C155.959 181.4 155.175 181.98 154.148 182.388C153.138 182.796 151.927 183 150.517 183C149.838 183 149.185 182.959 148.558 182.878C147.948 182.812 147.365 182.706 146.807 182.559C146.267 182.412 145.762 182.233 145.292 182.02V179.082C146.076 179.408 146.938 179.71 147.878 179.988C148.819 180.249 149.777 180.38 150.752 180.38C151.501 180.38 152.11 180.29 152.581 180.11C153.068 179.914 153.425 179.653 153.652 179.327C153.878 178.984 153.991 178.592 153.991 178.151C153.991 177.661 153.843 177.245 153.547 176.902C153.251 176.559 152.816 176.241 152.241 175.947C151.666 175.653 150.952 175.343 150.099 175.016C149.524 174.788 148.958 174.535 148.401 174.257C147.861 173.963 147.373 173.612 146.938 173.204C146.503 172.796 146.154 172.314 145.893 171.759C145.632 171.204 145.501 170.551 145.501 169.8C145.501 168.804 145.754 167.947 146.259 167.229C146.781 166.51 147.504 165.963 148.427 165.588C149.367 165.212 150.456 165.024 151.692 165.024C152.685 165.024 153.617 165.122 154.488 165.318C155.358 165.514 156.22 165.792 157.074 166.151L156.003 168.673C155.236 168.363 154.496 168.118 153.782 167.939C153.068 167.759 152.337 167.669 151.588 167.669C150.996 167.669 150.491 167.759 150.073 167.939C149.655 168.102 149.341 168.339 149.132 168.649C148.923 168.959 148.819 169.318 148.819 169.727C148.819 170.2 148.949 170.6 149.211 170.927C149.472 171.253 149.872 171.563 150.412 171.857C150.97 172.135 151.684 172.453 152.554 172.812C153.565 173.22 154.418 173.645 155.115 174.086C155.811 174.527 156.351 175.057 156.734 175.678C157.117 176.298 157.309 177.065 157.309 177.98Z" fill="#1B140C"/>
<path d="M175.721 182.755H172.377V174.992H164.174V182.755H160.83V165.269H164.174V172.322H172.377V165.269H175.721V182.755Z" fill="#1B140C"/>
<path d="M197.242 173.988C197.242 175.343 197.06 176.576 196.694 177.686C196.346 178.78 195.806 179.727 195.074 180.527C194.36 181.327 193.446 181.939 192.331 182.363C191.234 182.788 189.945 183 188.465 183C186.967 183 185.661 182.788 184.547 182.363C183.449 181.922 182.544 181.31 181.83 180.527C181.116 179.727 180.576 178.771 180.21 177.661C179.862 176.551 179.688 175.318 179.688 173.963C179.688 172.151 180.001 170.576 180.628 169.237C181.272 167.898 182.239 166.861 183.528 166.127C184.834 165.376 186.488 165 188.491 165C190.459 165 192.088 165.376 193.376 166.127C194.665 166.861 195.632 167.906 196.276 169.261C196.92 170.6 197.242 172.176 197.242 173.988ZM183.214 173.988C183.214 175.31 183.397 176.445 183.763 177.392C184.146 178.339 184.721 179.065 185.487 179.571C186.271 180.078 187.263 180.331 188.465 180.331C189.702 180.331 190.703 180.078 191.469 179.571C192.236 179.065 192.802 178.339 193.167 177.392C193.533 176.445 193.716 175.31 193.716 173.988C193.716 172.012 193.307 170.461 192.488 169.335C191.67 168.208 190.337 167.645 188.491 167.645C187.272 167.645 186.271 167.898 185.487 168.404C184.721 168.91 184.146 169.637 183.763 170.584C183.397 171.531 183.214 172.665 183.214 173.988Z" fill="#1B140C"/>
<path d="M216 176.584C216 177.792 215.721 178.886 215.164 179.865C214.624 180.829 213.797 181.596 212.682 182.167C211.568 182.722 210.157 183 208.45 183C206.03 183 204.192 182.412 202.938 181.237C201.684 180.045 201.058 178.478 201.058 176.535V165.269H204.401V176.216C204.401 177.637 204.75 178.682 205.446 179.351C206.143 180.004 207.179 180.331 208.555 180.331C209.53 180.331 210.314 180.176 210.906 179.865C211.516 179.555 211.96 179.09 212.238 178.469C212.534 177.833 212.682 177.073 212.682 176.192V165.269H216V176.584Z" fill="#1B140C"/>
</svg>
