<svg width="500" height="500" viewBox="0 0 500 500" fill="none" xmlns="http://www.w3.org/2000/svg">
<rect x="125" y="78.9521" width="243.144" height="351.048" rx="6" fill="#666666"/>
<rect x="131.856" y="70" width="243.144" height="351.048" rx="6" fill="white"/>
<rect x="144.5" y="87.9106" width="217.721" height="314.949" rx="2.5" stroke="#E30302" stroke-width="3"/>
<path d="M154 159H352V261H154V159Z" fill="#E30302"/>
<path d="M154 153.5H352V152.5H154V153.5ZM352 266.5H154V267.5H352V266.5Z" fill="black"/>
<path d="M200.428 139.164C200.162 139.962 199.616 140.449 198.789 140.626C197.991 140.833 197.135 140.789 196.219 140.494C195.658 140.316 195.052 139.918 194.402 139.297C193.782 138.706 193.309 138.219 192.984 137.835C192.837 137.658 192.645 137.377 192.408 136.993C192.202 136.58 191.98 136.166 191.744 135.753C191.537 135.339 191.36 135.014 191.212 134.778C190.71 135.073 190.134 135.561 189.484 136.24C188.834 136.89 188.243 137.451 187.712 137.924C187.269 138.308 186.796 138.574 186.294 138.721C185.821 138.898 185.319 138.839 184.787 138.544C184.462 139.017 184.197 139.534 183.99 140.095C183.783 140.686 183.443 141.143 182.971 141.468C182.232 141.409 181.582 141.158 181.021 140.715C180.46 140.272 179.943 139.74 179.47 139.12C179.027 138.529 178.584 137.968 178.141 137.436H176.768C177.063 137.111 177.403 136.949 177.787 136.949C178.171 136.949 178.555 136.978 178.939 137.037C179.204 137.067 179.456 137.097 179.692 137.126C179.958 137.126 180.194 137.082 180.401 136.993C180.933 136.196 181.198 135.236 181.198 134.113C181.198 132.961 181.169 131.839 181.11 130.746C181.08 130.391 181.051 130.037 181.021 129.682C180.992 129.328 180.977 128.988 180.977 128.663C180.977 128.309 180.962 127.969 180.933 127.644C180.933 127.29 180.933 126.95 180.933 126.625C180.903 126.034 180.873 125.488 180.844 124.986C180.844 124.454 180.888 123.967 180.977 123.524C180.504 123.199 179.973 122.992 179.382 122.903C178.791 122.815 178.171 122.8 177.521 122.859C176.576 122.918 175.616 123.066 174.641 123.302C173.666 123.509 172.765 123.686 171.938 123.834C171.968 123.952 171.982 124.07 171.982 124.188C172.012 124.306 172.041 124.424 172.071 124.543C172.13 124.808 172.189 125.104 172.248 125.429C172.307 125.724 172.307 126.079 172.248 126.492C172.721 126.256 173.282 126.138 173.932 126.138C174.582 126.108 175.202 126.049 175.793 125.96C176.413 125.842 176.886 125.547 177.211 125.074C177.742 125.045 178.185 125.119 178.54 125.296C178.924 125.444 179.293 125.621 179.648 125.828C179.766 125.916 179.899 126.005 180.046 126.093C180.194 126.182 180.357 126.256 180.534 126.315C180.416 126.522 180.401 126.728 180.489 126.935C180.578 127.112 180.696 127.275 180.844 127.423C180.549 127.836 180.357 128.338 180.268 128.929C180.179 129.49 180.12 130.066 180.091 130.657C180.061 131.484 180.017 132.311 179.958 133.138C179.928 133.936 179.721 134.601 179.337 135.132C178.865 135.221 178.304 135.295 177.654 135.354C177.004 135.383 176.354 135.442 175.704 135.531C175.084 135.62 174.537 135.797 174.065 136.063C173.71 135.797 173.415 135.472 173.179 135.088C172.942 134.704 172.736 134.305 172.558 133.892C172.765 133.242 172.928 132.429 173.046 131.455C173.164 130.48 173.164 129.549 173.046 128.663C172.957 127.748 172.691 127.068 172.248 126.625C172.278 127.216 172.263 127.94 172.204 128.796C172.145 129.623 172.086 130.495 172.027 131.41C171.938 132.651 171.849 133.877 171.761 135.088C171.702 136.299 171.716 137.289 171.805 138.057C171.864 138.204 171.908 138.322 171.938 138.411C171.997 138.529 172.056 138.633 172.115 138.721C172.204 138.898 172.278 139.076 172.337 139.253C172.396 139.43 172.411 139.711 172.381 140.095C171.613 140.302 170.889 140.198 170.21 139.785C169.56 139.401 169.028 138.854 168.615 138.145C168.201 137.436 167.95 136.742 167.862 136.063C168.482 135.826 168.851 135.28 168.969 134.423C169.087 133.537 169.176 132.636 169.235 131.721C169.265 131.484 169.279 131.248 169.279 131.012C169.309 130.746 169.339 130.48 169.368 130.214C169.486 128.944 169.545 127.718 169.545 126.536C169.545 125.325 169.235 124.38 168.615 123.701C168.201 123.967 167.95 124.395 167.862 124.986C167.773 125.547 167.699 126.108 167.64 126.669C167.581 127.201 167.359 127.556 166.975 127.733C166.769 129.387 166.414 130.864 165.912 132.164C165.439 133.463 164.908 134.674 164.317 135.797C163.726 136.89 163.15 138.012 162.589 139.164C162.441 139.282 162.294 139.401 162.146 139.519C162.028 139.666 161.895 139.814 161.747 139.962C161.422 140.375 161.053 140.715 160.639 140.981C160.226 141.247 159.679 141.202 159 140.848C159.945 139.253 160.713 137.776 161.304 136.417C161.924 135.058 162.5 133.685 163.032 132.297C163.564 130.908 164.169 129.387 164.849 127.733C164.908 126.669 165.1 125.473 165.425 124.144C165.75 122.815 166.015 121.471 166.222 120.112C166.399 118.989 166.488 117.911 166.488 116.877C166.518 115.814 166.326 114.839 165.912 113.953C165.794 113.687 165.602 113.347 165.336 112.934C165.1 112.491 164.849 112.048 164.583 111.605C164.317 111.162 164.11 110.807 163.963 110.541C163.963 110.541 163.948 110.526 163.918 110.497C163.83 110.32 163.726 110.157 163.608 110.01C163.49 109.862 163.298 109.832 163.032 109.921C163.062 109.685 163.106 109.478 163.165 109.301C163.224 109.123 163.283 108.872 163.342 108.547C164.081 108.4 164.76 108.37 165.38 108.459C166.001 108.518 166.488 108.651 166.843 108.858C167.995 108.828 169.279 108.754 170.697 108.636C172.145 108.488 173.622 108.355 175.128 108.237C176.664 108.09 178.112 107.986 179.47 107.927C179.707 107.277 179.692 106.746 179.426 106.332C179.16 105.918 178.82 105.564 178.407 105.269C177.934 104.914 177.447 104.574 176.945 104.249C176.443 103.895 176.088 103.467 175.881 102.965C176.029 102.905 176.118 102.802 176.147 102.654C176.177 102.477 176.236 102.329 176.324 102.211C177.624 101.975 178.924 102.034 180.224 102.389C181.523 102.713 182.528 103.526 183.237 104.825C183.089 105.446 182.867 105.963 182.572 106.376C182.277 106.76 182.055 107.174 181.907 107.617C182.941 107.794 184.005 107.838 185.097 107.75C186.22 107.661 187.342 107.558 188.465 107.44C188.997 107.381 189.514 107.322 190.016 107.262C190.518 107.203 191.02 107.159 191.522 107.13C192.822 107.07 194.033 107.159 195.155 107.395C196.278 107.632 197.194 108.222 197.903 109.168C197.932 109.286 197.903 109.434 197.814 109.611C197.784 109.67 197.755 109.744 197.725 109.832C197.696 109.891 197.696 109.98 197.725 110.098C196.189 110.216 194.653 110.275 193.117 110.275C191.611 110.275 190.075 110.29 188.509 110.32C186.53 110.349 184.492 110.394 182.395 110.453C180.327 110.512 178.156 110.704 175.881 111.029C176.502 111.265 177.137 111.678 177.787 112.269C178.436 112.83 178.953 113.451 179.337 114.13C178.953 114.721 178.702 115.415 178.584 116.213C178.496 116.981 178.436 117.778 178.407 118.605C178.377 119.432 178.23 120.259 177.964 121.087H178.008C179.101 120.762 180.15 120.54 181.154 120.422C182.188 120.304 183.296 120.57 184.477 121.219C184.625 120.983 184.773 120.776 184.92 120.599C185.068 120.392 185.171 120.141 185.23 119.846C185.083 119.698 184.905 119.58 184.699 119.491C184.492 119.373 184.315 119.226 184.167 119.048C184.669 118.96 185.083 118.797 185.408 118.561C185.762 118.325 186.057 118.029 186.294 117.675C186.707 117.084 187.003 116.39 187.18 115.592C187.387 114.795 187.594 113.997 187.8 113.2C187.505 112.816 187.18 112.446 186.825 112.092C186.471 111.738 186.19 111.324 185.984 110.851C186.633 110.674 187.328 110.615 188.066 110.674C188.805 110.733 189.469 110.94 190.06 111.294C190.68 111.619 191.123 112.151 191.389 112.89C191.094 113.835 190.725 114.721 190.282 115.548C189.838 116.346 189.454 117.202 189.13 118.118C189.661 118.147 190.222 118.133 190.813 118.074C191.434 117.985 192.054 117.896 192.674 117.808C193.029 117.749 193.383 117.69 193.738 117.631C194.122 117.571 194.491 117.527 194.845 117.498C195.702 117.439 196.529 117.483 197.327 117.631C198.154 117.749 198.892 118.118 199.542 118.738C199.453 119.034 199.291 119.27 199.055 119.447C198.848 119.595 198.656 119.772 198.479 119.979C196.972 119.831 195.303 119.831 193.472 119.979C191.64 120.127 189.691 120.392 187.623 120.776C187.446 120.983 187.298 121.219 187.18 121.485C187.062 121.751 186.855 121.928 186.56 122.017C186.353 122.047 186.19 122.017 186.072 121.928C185.954 121.84 185.851 121.751 185.762 121.663C185.644 121.574 185.526 121.5 185.408 121.441C185.319 121.382 185.201 121.367 185.053 121.397C185.083 121.515 185.157 121.633 185.275 121.751C185.393 121.869 185.526 121.988 185.673 122.106C185.91 122.283 186.146 122.504 186.382 122.77C186.619 123.007 186.737 123.317 186.737 123.701C186.264 123.908 185.91 124.07 185.673 124.188C185.437 124.306 185.142 124.498 184.787 124.764C184.64 126.034 184.566 127.304 184.566 128.575C184.595 129.845 184.625 131.145 184.654 132.474C184.684 133.124 184.713 133.788 184.743 134.468C184.773 135.147 184.787 135.841 184.787 136.55C185.319 136.432 185.688 136.24 185.895 135.974C186.131 135.708 186.382 135.442 186.648 135.177C186.944 134.881 187.416 134.66 188.066 134.512C187.978 134.157 188.022 133.818 188.199 133.493C188.406 133.168 188.627 132.843 188.864 132.518C188.952 132.429 189.026 132.326 189.085 132.208C189.174 132.09 189.248 131.986 189.307 131.898C189.1 130.864 188.76 129.963 188.288 129.195C187.845 128.427 187.387 127.674 186.914 126.935C186.441 126.167 186.072 125.296 185.806 124.321C186.072 124.055 186.323 123.996 186.56 124.144C186.796 124.292 187.032 124.484 187.269 124.72C187.416 124.897 187.534 125.015 187.623 125.074C188.155 125.517 188.686 126.005 189.218 126.536C189.779 127.039 190.252 127.688 190.636 128.486C191.138 127.688 191.419 126.876 191.478 126.049C191.566 125.222 191.64 124.439 191.699 123.701C191.315 123.376 190.887 122.962 190.414 122.46C189.942 121.928 189.765 121.367 189.883 120.776C190.001 120.776 190.163 120.776 190.37 120.776C190.813 120.776 191.227 120.776 191.611 120.776C191.995 120.747 192.482 120.688 193.073 120.599C193.752 120.865 194.24 121.249 194.535 121.751C194.86 122.224 195.037 122.77 195.067 123.391C195.126 124.306 194.993 125.325 194.668 126.448C194.373 127.541 194.048 128.589 193.693 129.594C193.605 129.86 193.516 130.125 193.427 130.391C193.339 130.628 193.265 130.864 193.206 131.1C193.944 131.602 194.742 132.119 195.599 132.651C196.455 133.183 197.253 133.803 197.991 134.512C198.759 135.191 199.32 136.018 199.675 136.993C199.734 137.111 199.867 137.156 200.074 137.126C200.28 137.097 200.399 137.156 200.428 137.303C200.28 137.51 200.221 137.702 200.251 137.879C200.28 138.027 200.31 138.19 200.339 138.367C200.399 138.485 200.443 138.603 200.472 138.721C200.502 138.869 200.487 139.017 200.428 139.164ZM175.704 121.219C175.704 120.717 175.689 120.23 175.66 119.757C175.66 119.285 175.645 118.812 175.616 118.339C175.586 117.749 175.556 117.158 175.527 116.567C175.527 115.976 175.542 115.356 175.571 114.706C175.099 114.263 174.803 113.805 174.685 113.333C174.596 112.83 174.434 112.21 174.198 111.472C174.345 111.501 174.537 111.442 174.774 111.294C175.04 111.117 175.01 111.029 174.685 111.029C174.183 111.206 173.592 111.324 172.913 111.383C172.233 111.442 171.554 111.531 170.875 111.649C170.225 111.767 169.678 112.018 169.235 112.402C169.619 113.111 169.841 113.835 169.9 114.573C169.959 115.312 169.929 116.065 169.811 116.833C169.693 117.69 169.531 118.561 169.324 119.447C169.117 120.333 168.984 121.234 168.925 122.15C169.959 121.914 171.022 121.707 172.115 121.53C173.238 121.352 174.434 121.249 175.704 121.219ZM184.167 115.637C183.872 116.021 183.606 116.493 183.369 117.055C183.133 117.616 182.853 118.147 182.528 118.65C182.203 119.181 181.804 119.595 181.331 119.89C180.888 120.156 180.327 120.141 179.648 119.846C179.677 119.551 179.721 119.27 179.781 119.004C179.84 118.709 179.899 118.413 179.958 118.118C180.135 117.202 180.268 116.301 180.357 115.415C180.475 114.499 180.342 113.599 179.958 112.712C180.933 112.653 181.774 112.934 182.483 113.554C183.222 114.145 183.783 114.839 184.167 115.637ZM173.888 120.466C172.972 120.525 172.337 120.333 171.982 119.89C171.657 119.447 171.451 118.886 171.362 118.207C171.273 117.616 171.2 116.981 171.14 116.301C171.111 115.592 170.978 114.957 170.742 114.396C170.771 114.367 170.845 114.322 170.963 114.263C171.14 114.234 171.214 114.13 171.185 113.953C171.953 114.396 172.603 114.913 173.134 115.504C173.696 116.065 174.065 116.759 174.242 117.586C174.419 118.384 174.301 119.344 173.888 120.466ZM177.211 133.449C177.181 133.212 177.181 132.932 177.211 132.607C177.27 132.252 177.314 131.883 177.344 131.499C177.462 130.731 177.536 129.963 177.565 129.195C177.595 128.397 177.432 127.851 177.078 127.556C176.812 127.644 176.531 127.718 176.236 127.777C175.94 127.807 175.675 127.895 175.438 128.043C175.379 128.87 175.32 129.756 175.261 130.701C175.232 131.617 175.232 132.636 175.261 133.759C175.616 133.729 175.955 133.7 176.28 133.67C176.635 133.641 176.945 133.567 177.211 133.449Z" fill="black"/>
<path d="M248.148 119.979C248.148 120.038 248.163 120.141 248.192 120.289C248.222 120.614 248.163 120.791 248.015 120.821C247.454 121.027 246.952 121.175 246.509 121.264C246.095 121.323 245.593 121.382 245.002 121.441C244.47 122.298 244.19 123.361 244.16 124.631C244.131 125.901 244.16 127.231 244.249 128.619C244.278 129.21 244.293 129.801 244.293 130.391C244.323 130.982 244.337 131.573 244.337 132.164C244.308 134.231 244.116 136.137 243.761 137.879C243.407 139.622 242.713 140.996 241.679 142C240.793 141.941 239.995 141.778 239.286 141.513C238.607 141.247 237.928 140.951 237.248 140.626C236.569 140.302 235.801 140.021 234.944 139.785C234.767 139.164 234.471 138.706 234.058 138.411C233.644 138.116 233.26 137.894 232.906 137.746C232.551 137.569 232.359 137.421 232.33 137.303C232.596 137.303 232.876 137.318 233.172 137.348C233.497 137.377 233.822 137.407 234.147 137.436C234.915 137.525 235.727 137.599 236.584 137.658C237.44 137.717 238.267 137.687 239.065 137.569C239.508 136.89 239.833 136.166 240.04 135.398C240.276 134.63 240.424 133.833 240.483 133.005C240.542 132.326 240.571 131.617 240.571 130.879C240.601 130.111 240.601 129.328 240.571 128.53C240.571 128.235 240.571 127.954 240.571 127.688C240.571 127.423 240.571 127.142 240.571 126.847C239.035 126.847 237.499 126.743 235.963 126.536C234.427 126.33 233.039 125.96 231.798 125.429C231.562 125.074 231.34 124.72 231.134 124.365C230.956 124.011 230.735 123.612 230.469 123.169C230.528 122.549 230.528 121.914 230.469 121.264C230.439 120.614 230.174 120.008 229.671 119.447C228.933 119.654 228.091 119.772 227.146 119.802C226.201 119.802 225.329 119.875 224.532 120.023C224.591 120.171 224.827 120.392 225.241 120.688C225.684 120.954 225.994 121.426 226.171 122.106C225.698 122.726 225.255 123.391 224.842 124.1C224.428 124.808 223.926 125.444 223.335 126.005C223.129 126.212 222.833 126.404 222.449 126.581C222.095 126.758 221.888 126.92 221.829 127.068C222.538 127.098 223.321 127.083 224.177 127.024C225.063 126.935 225.964 126.847 226.88 126.758C227.589 126.669 228.283 126.596 228.963 126.536C229.642 126.477 230.262 126.448 230.823 126.448C231.207 125.975 231.636 125.754 232.108 125.783C232.581 125.813 233.083 125.946 233.615 126.182C234.058 126.389 234.501 126.61 234.944 126.847C235.417 127.053 235.86 127.216 236.273 127.334C236.303 127.688 236.421 127.94 236.628 128.087C236.864 128.235 237.1 128.368 237.337 128.486C237.573 128.575 237.75 128.752 237.868 129.018C237.721 129.343 237.499 129.535 237.204 129.594C236.908 129.653 236.613 129.697 236.318 129.727C236.081 129.756 235.86 129.786 235.653 129.815C235.446 129.845 235.284 129.933 235.166 130.081L235.033 130.347C235.151 131.233 234.974 131.913 234.501 132.385C234.56 132.74 234.531 133.05 234.412 133.316C234.324 133.581 234.22 133.847 234.102 134.113C234.014 134.261 233.925 134.409 233.836 134.556C233.777 134.704 233.733 134.852 233.703 134.999C233.644 135.177 233.615 135.354 233.615 135.531C233.615 135.679 233.63 135.826 233.659 135.974C233.659 136.181 233.644 136.388 233.615 136.594C233.615 136.772 233.571 136.949 233.482 137.126C232.891 136.89 232.108 136.772 231.134 136.772C230.159 136.742 229.14 136.772 228.076 136.86C227.042 136.949 226.068 137.052 225.152 137.17C224.945 137.229 224.945 137.348 225.152 137.525C225.329 137.673 225.344 137.746 225.196 137.746C224.458 137.924 223.882 137.835 223.468 137.481C223.084 137.126 222.745 136.742 222.449 136.329C222.331 136.21 222.228 136.092 222.139 135.974C222.05 135.826 221.962 135.708 221.873 135.62C221.932 134.556 221.947 133.493 221.918 132.429C221.888 131.337 221.696 130.421 221.342 129.682C221.135 129.269 220.869 128.914 220.544 128.619C220.249 128.324 219.865 128.117 219.392 127.999C219.274 127.969 219.141 127.969 218.993 127.999C218.875 127.999 218.727 128.013 218.55 128.043C218.373 128.072 218.196 128.102 218.018 128.132C217.841 128.132 217.693 128.087 217.575 127.999C218.521 127.083 219.407 126.108 220.234 125.074C221.061 124.04 221.844 122.977 222.582 121.884C222.464 121.559 222.302 121.308 222.095 121.131C221.918 120.924 221.74 120.658 221.563 120.333C221.12 120.304 220.736 120.319 220.411 120.378C220.116 120.407 219.835 120.466 219.569 120.555C219.362 120.614 219.156 120.658 218.949 120.688C218.742 120.717 218.521 120.717 218.284 120.688C217.812 121.072 217.487 121.751 217.309 122.726C217.162 123.671 217.088 124.735 217.088 125.916C217.088 127.098 217.103 128.22 217.132 129.284C217.132 129.549 217.132 129.815 217.132 130.081C217.162 130.347 217.177 130.598 217.177 130.834C217.177 130.953 217.162 131.071 217.132 131.189C217.132 131.307 217.132 131.425 217.132 131.543C217.103 131.839 217.088 132.134 217.088 132.429C217.088 132.725 217.177 132.961 217.354 133.138C217.177 133.345 217.103 133.567 217.132 133.803C217.162 134.039 217.236 134.29 217.354 134.556C217.265 134.881 217.221 135.295 217.221 135.797C217.25 136.269 217.295 136.772 217.354 137.303C217.383 137.569 217.413 137.835 217.442 138.101C217.472 138.367 217.487 138.618 217.487 138.854C217.871 139.09 217.93 139.401 217.664 139.785C217.428 140.169 217.177 140.39 216.911 140.449C215.759 139.799 214.828 139.12 214.119 138.411C213.41 137.732 212.938 136.816 212.701 135.664C212.731 135.664 212.775 135.649 212.834 135.62C212.982 135.59 213.159 135.561 213.366 135.531C213.573 135.472 213.839 135.457 214.164 135.487C214.193 135.428 214.164 135.177 214.075 134.733C214.016 134.32 213.972 133.847 213.942 133.316C213.913 132.784 214.045 132.37 214.341 132.075C214.105 131.337 213.986 130.583 213.986 129.815C214.016 129.047 214.075 128.264 214.164 127.467C214.223 126.699 214.267 125.916 214.297 125.119C214.326 124.292 214.237 123.464 214.031 122.637C213.794 122.637 213.396 122.445 212.834 122.061C212.303 121.677 211.874 121.219 211.549 120.688C211.786 120.511 211.904 120.274 211.904 119.979C211.933 119.683 212.096 119.388 212.391 119.093C212.716 119.093 212.967 119.152 213.145 119.27C213.351 119.359 213.573 119.432 213.809 119.491C214.577 119.048 215.478 118.768 216.512 118.65C217.575 118.502 218.668 118.399 219.791 118.339C220.913 118.28 221.962 118.177 222.937 118.029C222.582 117.675 222.242 117.306 221.918 116.922C221.593 116.538 221.238 116.198 220.854 115.903C221.031 115.459 221.076 114.972 220.987 114.44C220.898 113.909 220.795 113.347 220.677 112.757C220.647 112.668 220.618 112.579 220.588 112.491C220.588 112.402 220.574 112.314 220.544 112.225C220.219 112.077 219.879 112.033 219.525 112.092C219.2 112.151 218.86 112.225 218.506 112.314C218.063 112.432 217.605 112.52 217.132 112.579C216.689 112.638 216.202 112.55 215.67 112.314C215.375 111.634 215.005 111.088 214.562 110.674C214.149 110.261 213.721 109.862 213.277 109.478C212.864 109.064 212.48 108.547 212.125 107.927C212.214 107.838 212.317 107.794 212.436 107.794C212.583 107.765 212.731 107.75 212.879 107.75C213.056 107.779 213.218 107.794 213.366 107.794C213.543 107.765 213.706 107.706 213.853 107.617C215.537 108.267 217.575 108.592 219.968 108.592C222.39 108.592 225.019 108.459 227.855 108.193C227.825 107.986 227.81 107.765 227.81 107.528C227.84 107.262 227.855 107.026 227.855 106.819C227.884 106.376 227.884 106.125 227.855 106.066C227.796 105.948 227.589 105.756 227.234 105.49C226.88 105.195 226.466 104.885 225.994 104.56C225.521 104.205 225.078 103.895 224.665 103.629C224.251 103.334 223.956 103.127 223.778 103.009C223.926 102.95 224.074 102.905 224.222 102.876C224.399 102.817 224.561 102.758 224.709 102.699C225.329 102.462 225.964 102.27 226.614 102.123C227.294 101.945 227.973 101.96 228.652 102.167C229.509 102.403 230.129 102.743 230.513 103.186C230.927 103.629 231.134 104.131 231.134 104.693C231.134 105.638 230.617 106.701 229.583 107.883C229.76 108.001 230.026 108.06 230.38 108.06C230.764 108.06 231.178 108.045 231.621 108.016C231.798 108.016 231.975 108.016 232.153 108.016C232.359 107.986 232.551 107.971 232.729 107.971C234.087 107.971 235.476 107.912 236.894 107.794C238.341 107.646 239.478 107.381 240.305 106.997C241.251 107.233 242.122 107.528 242.92 107.883C243.717 108.237 244.426 108.71 245.046 109.301C244.544 110.01 243.82 110.408 242.875 110.497C241.93 110.556 240.94 110.556 239.907 110.497C239.552 110.467 239.198 110.453 238.843 110.453C238.489 110.453 238.134 110.453 237.78 110.453C237.721 110.453 237.647 110.453 237.558 110.453C237.322 110.453 237.071 110.467 236.805 110.497C236.569 110.497 236.377 110.541 236.229 110.63C236.849 110.984 237.204 111.413 237.292 111.915C237.381 112.387 237.337 112.89 237.16 113.421C236.953 114.042 236.643 114.677 236.229 115.327C235.845 115.976 235.55 116.597 235.343 117.187C235.904 117.306 236.421 117.379 236.894 117.409C237.396 117.409 237.987 117.409 238.666 117.409C238.843 117.409 239.02 117.409 239.198 117.409C239.375 117.409 239.567 117.409 239.774 117.409C239.862 117.35 239.862 117.261 239.774 117.143C239.685 117.025 239.685 116.922 239.774 116.833C241.339 116.715 242.654 116.907 243.717 117.409C244.781 117.911 245.829 118.502 246.863 119.181C247.07 119.299 247.277 119.432 247.483 119.58C247.72 119.698 247.941 119.831 248.148 119.979ZM233.26 113.377C233.408 112.875 233.467 112.402 233.438 111.959C233.408 111.516 233.201 111.102 232.817 110.718C230.75 110.718 228.844 110.837 227.102 111.073C225.388 111.28 223.572 111.457 221.652 111.605C221.799 111.87 221.991 112.018 222.228 112.048C222.494 112.048 222.715 112.122 222.892 112.269C223.66 112.919 224.207 113.805 224.532 114.928C224.857 116.05 224.99 117.084 224.93 118.029C225.964 117.97 227.057 117.867 228.209 117.719C229.361 117.542 230.587 117.453 231.887 117.453C231.828 117.158 231.872 116.803 232.02 116.39C232.167 115.976 232.345 115.548 232.551 115.105C232.699 114.839 232.832 114.559 232.95 114.263C233.068 113.968 233.172 113.672 233.26 113.377ZM231.178 129.018C230.617 128.9 229.908 128.855 229.051 128.885C228.224 128.885 227.382 128.944 226.526 129.062C225.669 129.18 224.93 129.357 224.31 129.594C224.665 129.978 224.857 130.539 224.886 131.277C224.916 132.016 224.916 132.754 224.886 133.493C224.857 133.759 224.842 134.01 224.842 134.246C224.842 134.453 224.842 134.66 224.842 134.866C225.846 134.807 226.865 134.748 227.899 134.689C228.933 134.63 229.804 134.556 230.513 134.468C230.543 134.349 230.572 134.231 230.602 134.113C230.631 133.995 230.646 133.892 230.646 133.803C230.823 133.035 230.956 132.311 231.045 131.632C231.163 130.923 231.207 130.052 231.178 129.018ZM240.217 126.138C240.335 125.399 240.35 124.616 240.261 123.789C240.172 122.962 240.069 122.18 239.951 121.441C239.892 121.027 239.833 120.643 239.774 120.289C239.744 119.935 239.715 119.595 239.685 119.27C239.242 119.299 238.799 119.314 238.356 119.314C237.942 119.285 237.514 119.255 237.071 119.226C236.303 119.196 235.535 119.181 234.767 119.181C233.999 119.181 233.216 119.314 232.419 119.58C232.95 120.053 233.29 120.54 233.438 121.042C233.585 121.515 233.689 121.958 233.748 122.372C233.777 122.637 233.822 122.874 233.881 123.08C233.94 123.287 234.043 123.45 234.191 123.568C234.427 123.656 234.663 123.716 234.9 123.745C235.166 123.775 235.446 123.789 235.742 123.789C236.244 123.789 236.805 123.848 237.425 123.967C238.046 124.055 238.696 124.41 239.375 125.03L240.217 126.138Z" fill="black"/>
<path d="M297.995 137.613C297.935 137.791 297.862 137.938 297.773 138.057C297.714 138.175 297.655 138.263 297.596 138.322C297.507 138.441 297.433 138.544 297.374 138.633C297.345 138.751 297.359 138.943 297.419 139.209C297.064 139.327 296.724 139.445 296.399 139.563C296.075 139.711 295.853 139.962 295.735 140.316C295.321 140.375 294.893 140.449 294.45 140.538C294.007 140.626 293.578 140.73 293.165 140.848C292.161 141.055 291.156 141.232 290.152 141.38C289.148 141.557 288.188 141.527 287.272 141.291C286.977 141.202 286.711 141.084 286.474 140.937C286.238 140.789 286.017 140.626 285.81 140.449C285.514 140.242 285.234 140.05 284.968 139.873C284.702 139.726 284.377 139.666 283.993 139.696C283.816 139.607 283.639 139.504 283.461 139.386C283.284 139.297 283.107 139.194 282.93 139.076C281.748 138.396 280.449 137.702 279.031 136.993C277.642 136.255 276.195 135.664 274.688 135.221C273.182 134.778 271.69 134.615 270.213 134.733C268.736 134.852 267.348 135.428 266.048 136.461C264.66 136.432 263.523 135.93 262.637 134.955C261.751 133.951 261.027 132.858 260.466 131.676C260.938 131.617 261.396 131.632 261.839 131.721C262.312 131.809 262.784 131.898 263.257 131.986C264.025 132.193 264.793 132.326 265.561 132.385C266.359 132.444 267.171 132.208 267.998 131.676C267.909 130.761 267.643 130.037 267.2 129.505C266.787 128.973 266.299 128.516 265.738 128.132C265.177 127.748 264.631 127.349 264.099 126.935C263.567 126.492 263.154 125.931 262.858 125.252C263.124 124.188 263.523 123.272 264.055 122.504C264.586 121.736 265.044 120.895 265.428 119.979C264.69 119.92 263.848 120.008 262.903 120.245C261.957 120.481 261.189 120.806 260.598 121.219C259.771 120.747 259.033 120.112 258.383 119.314C257.733 118.487 257.364 117.586 257.275 116.611C257.718 116.611 258.147 116.656 258.56 116.744C258.974 116.803 259.387 116.892 259.801 117.01C260.628 117.187 261.499 117.32 262.415 117.409C263.331 117.498 264.335 117.276 265.428 116.744C265.546 116.685 265.62 116.567 265.65 116.39C265.679 116.213 265.709 116.065 265.738 115.947C266.447 115.947 267.141 116.021 267.821 116.168C268.5 116.287 269.061 116.582 269.504 117.055C269.948 117.498 270.14 118.192 270.08 119.137C269.342 119.521 268.751 120.082 268.308 120.821C267.895 121.559 267.437 122.342 266.935 123.169C266.875 123.258 266.816 123.346 266.757 123.435C266.728 123.524 266.669 123.612 266.58 123.701C266.403 123.996 266.226 124.292 266.048 124.587C265.901 124.853 265.842 125.074 265.871 125.252C265.901 125.636 266.167 126.049 266.669 126.492C267.171 126.935 267.747 127.408 268.397 127.91C269.047 128.383 269.608 128.929 270.08 129.549C270.583 130.14 270.848 130.79 270.878 131.499C271.971 131.499 273.079 131.721 274.201 132.164C275.324 132.607 276.461 133.065 277.613 133.537C278.765 134.01 279.932 134.29 281.113 134.379C280.7 133.552 280.463 132.666 280.404 131.721C280.345 130.746 280.286 129.771 280.227 128.796C279.577 128.973 278.868 129.062 278.1 129.062C277.332 129.062 276.579 129.18 275.84 129.416C275.604 129.476 275.368 129.594 275.132 129.771C274.925 129.919 274.703 130.007 274.467 130.037C273.492 130.155 272.576 129.978 271.72 129.505C270.893 129.003 270.11 128.486 269.372 127.954C269.283 127.895 269.224 127.851 269.194 127.821C270.908 127.319 272.665 127.039 274.467 126.98C276.269 126.891 278.13 126.743 280.05 126.536C280.168 126.448 280.227 126.3 280.227 126.093C280.227 125.887 280.227 125.68 280.227 125.473C280.227 125.325 280.212 125.192 280.183 125.074C280.183 124.956 280.197 124.853 280.227 124.764C279.429 124.676 278.706 124.764 278.056 125.03C277.406 125.266 276.919 125.547 276.594 125.872C275.648 125.606 274.999 125.104 274.644 124.365C274.319 123.627 274.157 122.77 274.157 121.796C274.157 120.821 274.201 119.846 274.29 118.871C274.29 118.723 274.29 118.591 274.29 118.472C274.319 118.325 274.334 118.177 274.334 118.029C273.684 117.616 273.212 117.276 272.916 117.01C272.65 116.744 272.473 116.287 272.384 115.637C272.591 115.4 273.034 115.223 273.714 115.105C274.393 114.987 275.132 114.869 275.929 114.751C276.727 114.662 277.495 114.559 278.233 114.44C278.972 114.293 279.518 114.101 279.873 113.864C280.257 113.599 280.316 113.229 280.05 112.757C278.602 113.141 277.362 113.126 276.328 112.712C275.294 112.269 274.378 111.693 273.581 110.984C273.788 110.837 274.039 110.748 274.334 110.718C274.629 110.659 274.821 110.482 274.91 110.187C275.648 110.394 276.49 110.497 277.436 110.497C278.381 110.467 279.149 110.261 279.74 109.877C279.769 109.581 279.74 109.315 279.651 109.079C279.562 108.843 279.474 108.636 279.385 108.459C279.237 108.222 279.134 108.001 279.075 107.794C279.045 107.587 279.119 107.366 279.297 107.13C278.204 107.159 277.14 107.322 276.106 107.617C275.072 107.883 274.172 108.311 273.404 108.902C273.315 109.315 273.212 109.729 273.093 110.142C273.005 110.526 272.916 110.91 272.828 111.294C272.562 112.358 272.325 113.406 272.119 114.44C271.912 115.445 271.838 116.434 271.897 117.409C270.834 117.055 269.977 116.626 269.327 116.124C268.677 115.622 268.175 114.869 267.821 113.864C268.175 113.362 268.559 112.904 268.973 112.491C269.386 112.048 269.756 111.575 270.08 111.073C270.435 110.541 270.642 109.877 270.701 109.079C270.524 109.079 270.346 109.02 270.169 108.902C270.021 108.754 269.859 108.577 269.682 108.37C269.534 108.222 269.386 108.09 269.239 107.971C269.091 107.824 268.928 107.706 268.751 107.617C268.692 107.322 268.663 107.115 268.663 106.997C268.663 106.849 268.677 106.686 268.707 106.509C268.707 106.421 268.707 106.332 268.707 106.243C268.736 106.125 268.751 105.992 268.751 105.845C268.987 105.845 269.179 105.889 269.327 105.978C269.475 106.037 269.637 106.096 269.815 106.155C270.524 105.918 271.351 105.756 272.296 105.667C273.271 105.549 274.275 105.446 275.309 105.357C276.372 105.269 277.406 105.106 278.41 104.87C278.44 104.958 278.558 105.003 278.765 105.003C278.883 105.003 278.986 105.017 279.075 105.047C279.164 105.077 279.193 105.18 279.164 105.357C280.109 104.973 281.202 104.766 282.442 104.737C283.713 104.678 285.012 104.663 286.342 104.693C286.844 104.722 287.346 104.737 287.848 104.737C288.38 104.737 288.897 104.737 289.399 104.737C289.369 104.648 289.399 104.56 289.487 104.471C289.546 104.382 289.576 104.309 289.576 104.249C290.167 104.249 290.831 104.353 291.57 104.56C292.338 104.737 293.032 105.032 293.652 105.446C294.302 105.859 294.745 106.421 294.982 107.13C294.952 107.277 294.849 107.336 294.671 107.307C294.524 107.277 294.42 107.322 294.361 107.44C294.391 107.469 294.435 107.528 294.494 107.617C294.878 108.001 295.188 108.414 295.425 108.858C295.691 109.271 295.75 109.818 295.602 110.497C295.543 110.763 295.321 111.176 294.937 111.738C294.553 112.299 294.081 112.801 293.519 113.244C292.988 113.687 292.471 113.894 291.969 113.864C291.644 113.835 291.363 113.717 291.127 113.51C290.89 113.303 290.669 113.082 290.462 112.845C290.196 112.52 289.901 112.24 289.576 112.003C289.251 111.767 288.838 111.693 288.335 111.782C288.749 111.014 289.236 110.423 289.798 110.01C290.359 109.566 290.787 108.976 291.082 108.237C291.082 108.06 291.038 107.942 290.95 107.883C290.89 107.794 290.802 107.72 290.684 107.661C290.595 107.602 290.506 107.528 290.418 107.44C290.329 107.351 290.3 107.203 290.329 106.997C288.793 106.731 287.405 106.627 286.164 106.686C284.924 106.716 283.624 106.79 282.265 106.908C282.058 106.908 281.837 106.923 281.601 106.952C281.394 106.952 281.187 106.967 280.98 106.997C281.157 107.528 281.601 107.794 282.309 107.794C282.309 108.09 282.339 108.341 282.398 108.547C282.487 108.725 282.59 108.887 282.708 109.035C282.767 109.182 282.826 109.315 282.885 109.434C282.974 109.552 283.033 109.699 283.063 109.877C283.86 109.522 284.613 109.522 285.322 109.877C286.061 110.202 286.785 110.615 287.494 111.117C287.612 111.206 287.7 111.265 287.759 111.294C287.523 111.856 287.124 112.181 286.563 112.269C286.002 112.328 285.426 112.343 284.835 112.314C284.215 112.284 283.683 112.314 283.24 112.402C282.826 112.491 282.664 112.875 282.753 113.554C283.166 113.613 283.609 113.658 284.082 113.687C284.554 113.687 285.027 113.687 285.5 113.687C286.504 113.687 287.479 113.731 288.424 113.82C289.369 113.909 290.182 114.189 290.861 114.662C291.57 115.105 292.042 115.858 292.279 116.922C292.072 117.099 291.85 117.202 291.614 117.232C291.407 117.261 291.201 117.276 290.994 117.276C290.817 117.276 290.639 117.291 290.462 117.32C290.314 117.32 290.167 117.35 290.019 117.409C289.812 118.029 289.635 118.783 289.487 119.669C289.369 120.555 289.222 121.456 289.044 122.372C288.897 123.287 288.66 124.085 288.335 124.764C288.099 124.764 287.863 124.749 287.626 124.72C287.39 124.661 287.154 124.616 286.918 124.587C286.386 124.469 285.81 124.38 285.189 124.321C284.599 124.262 283.949 124.306 283.24 124.454C283.063 124.661 282.959 124.986 282.93 125.429C282.9 125.842 282.945 126.108 283.063 126.226C283.063 126.226 283.255 126.241 283.639 126.271C284.052 126.3 284.54 126.33 285.101 126.359C285.692 126.389 286.253 126.404 286.785 126.404C287.316 126.374 287.73 126.315 288.025 126.226C288.114 126.197 288.247 126.138 288.424 126.049C288.66 125.96 288.911 125.872 289.177 125.783C289.443 125.695 289.724 125.68 290.019 125.739C290.521 125.798 290.935 125.975 291.26 126.271C291.585 126.536 291.865 126.728 292.102 126.847C292.456 126.994 292.84 127.112 293.254 127.201C293.667 127.29 293.948 127.6 294.095 128.132C293.475 128.604 292.722 128.84 291.836 128.84C290.95 128.811 290.019 128.737 289.044 128.619C288.04 128.501 287.006 128.442 285.943 128.442C284.879 128.412 283.875 128.634 282.93 129.106C282.959 129.668 282.959 130.332 282.93 131.1C282.93 131.868 282.841 132.577 282.664 133.227C282.516 133.877 282.206 134.32 281.733 134.556C282.708 134.852 283.742 135.044 284.835 135.132C285.957 135.221 287.08 135.28 288.202 135.309C289.945 135.369 291.673 135.516 293.387 135.753C295.1 135.959 296.636 136.58 297.995 137.613ZM265.295 109.389C265.62 109.655 265.901 110.01 266.137 110.453C266.403 110.866 266.565 111.294 266.624 111.738C266.713 112.181 266.624 112.55 266.359 112.845C266.122 113.141 265.664 113.274 264.985 113.244C264.187 113.214 263.508 112.86 262.947 112.181C262.386 111.501 261.913 110.733 261.529 109.877C261.174 108.99 260.864 108.237 260.598 107.617C261.219 107.706 262.002 107.898 262.947 108.193C263.892 108.459 264.675 108.858 265.295 109.389ZM286.386 115.947C285.352 115.415 284.2 115.356 282.93 115.77C282.9 116.095 282.885 116.36 282.885 116.567C282.885 116.774 282.885 116.995 282.885 117.232C282.915 117.35 282.93 117.498 282.93 117.675C282.93 117.823 282.93 118 282.93 118.207C283.609 118.443 284.141 118.679 284.525 118.915C284.909 119.152 285.426 119.344 286.076 119.491C286.253 118.901 286.356 118.325 286.386 117.763C286.445 117.202 286.445 116.597 286.386 115.947ZM280.227 118.517C280.257 118.251 280.257 118 280.227 117.763C280.227 117.527 280.212 117.32 280.183 117.143C280.153 116.907 280.138 116.715 280.138 116.567C280.138 116.39 280.168 116.242 280.227 116.124C279.784 116.035 279.267 116.065 278.676 116.213C278.085 116.36 277.569 116.508 277.125 116.656C277.007 116.715 276.933 116.744 276.904 116.744C276.933 116.892 276.948 117.04 276.948 117.187C276.948 117.335 276.948 117.468 276.948 117.586C276.919 117.793 276.904 118 276.904 118.207C276.904 118.384 276.948 118.591 277.037 118.827C277.628 118.856 278.189 118.842 278.721 118.783C279.252 118.723 279.754 118.635 280.227 118.517ZM280.227 122.682C280.286 122.357 280.316 122.047 280.316 121.751C280.316 121.456 280.286 121.072 280.227 120.599C280.168 120.599 280.094 120.614 280.005 120.643C279.474 120.703 279.016 120.747 278.632 120.776C278.277 120.806 277.79 120.806 277.17 120.776C277.14 121.013 277.125 121.205 277.125 121.352C277.125 121.5 277.125 121.618 277.125 121.707C277.125 121.855 277.125 122.002 277.125 122.15C277.125 122.268 277.096 122.445 277.037 122.682C277.391 122.8 277.731 122.859 278.056 122.859C278.381 122.829 278.706 122.8 279.031 122.77C279.237 122.741 279.429 122.711 279.607 122.682C279.813 122.652 280.02 122.652 280.227 122.682ZM285.766 119.979C285.352 120.156 284.85 120.245 284.259 120.245C283.698 120.245 283.255 120.363 282.93 120.599C282.9 121.042 282.885 121.338 282.885 121.485C282.885 121.633 282.9 121.928 282.93 122.372C283.048 122.372 283.166 122.386 283.284 122.416C283.432 122.416 283.565 122.416 283.683 122.416C283.978 122.416 284.274 122.431 284.569 122.46C284.865 122.49 285.175 122.564 285.5 122.682C285.5 122.564 285.514 122.431 285.544 122.283C285.574 122.135 285.618 121.988 285.677 121.84C285.736 121.544 285.78 121.249 285.81 120.954C285.869 120.629 285.854 120.304 285.766 119.979Z" fill="black"/>
<path d="M346.556 123.967C347.561 125.887 347.295 127.452 345.759 128.663C344.843 128.781 344.06 128.84 343.41 128.84C342.79 128.811 342.111 128.604 341.372 128.22C340.368 127.659 339.378 126.861 338.404 125.828C337.429 124.794 336.616 123.597 335.967 122.239C335.346 120.939 334.962 119.551 334.815 118.074C334.667 116.567 334.874 115.046 335.435 113.51C334.933 113.362 334.519 113.377 334.194 113.554C333.899 113.702 333.663 113.938 333.485 114.263C333.279 114.647 333.131 115.105 333.042 115.637C332.954 116.139 332.85 116.641 332.732 117.143C332.643 117.616 332.466 118.015 332.2 118.339C332.259 118.487 332.348 118.65 332.466 118.827C332.614 119.004 332.762 119.211 332.909 119.447C333.205 119.861 333.5 120.304 333.796 120.776C334.091 121.249 334.283 121.692 334.371 122.106C334.49 122.519 334.401 122.829 334.106 123.036C333.84 123.243 333.456 123.258 332.954 123.08C332.451 122.874 331.964 122.608 331.491 122.283C331.019 121.958 330.664 121.692 330.428 121.485C330.074 121.928 329.763 122.431 329.498 122.992C329.232 123.524 328.922 124.026 328.567 124.498C328.242 124.941 327.784 125.281 327.194 125.517C326.898 125.458 326.691 125.311 326.573 125.074C326.485 124.838 326.307 124.676 326.042 124.587C325.982 124.794 325.997 125.015 326.086 125.252C326.174 125.458 326.278 125.665 326.396 125.872C326.514 126.079 326.618 126.271 326.706 126.448C326.795 126.625 326.795 126.788 326.706 126.935C328.213 126.935 329.483 126.802 330.517 126.536C331.551 126.271 332.54 125.828 333.485 125.207C334.224 125.444 334.947 125.768 335.656 126.182C336.365 126.596 337.045 126.847 337.695 126.935C337.606 127.112 337.621 127.26 337.739 127.378C337.887 127.467 338.064 127.556 338.271 127.644C338.536 127.762 338.788 127.925 339.024 128.132C339.29 128.338 339.378 128.678 339.29 129.151C338.817 129.357 338.285 129.52 337.695 129.638C337.104 129.727 336.513 129.815 335.922 129.904C335.981 130.642 335.967 131.573 335.878 132.695C335.789 133.788 335.627 134.925 335.391 136.107C335.154 137.259 334.815 138.308 334.371 139.253C333.958 140.169 333.426 140.878 332.776 141.38C332.156 141.911 331.418 142.059 330.561 141.823C329.586 141.527 328.715 141.04 327.947 140.361C327.208 139.711 326.529 138.987 325.909 138.19C325.318 137.392 324.771 136.624 324.269 135.885C324.771 136.004 325.421 136.21 326.219 136.506C327.016 136.772 327.799 136.934 328.567 136.993C329.158 137.023 329.704 136.949 330.207 136.772C330.738 136.594 331.122 136.181 331.359 135.531C331.359 135.029 331.373 134.571 331.403 134.157C331.432 133.714 331.462 133.301 331.491 132.917C331.551 132.237 331.58 131.602 331.58 131.012C331.61 130.421 331.536 129.801 331.359 129.151C331.211 129.18 331.107 129.121 331.048 128.973C330.694 129.062 330.31 129.121 329.896 129.151C329.512 129.151 329.114 129.151 328.7 129.151C327.991 129.151 327.341 129.195 326.751 129.284C326.16 129.343 325.761 129.608 325.554 130.081C325.082 131.085 324.609 132.223 324.136 133.493C323.693 134.763 323.088 135.915 322.32 136.949C322.113 137.244 321.891 137.54 321.655 137.835C321.448 138.13 321.197 138.47 320.902 138.854C320.813 138.854 320.71 138.869 320.592 138.898C320.503 138.958 320.385 139.09 320.237 139.297C320.001 139.681 319.824 139.903 319.706 139.962C319.617 140.05 319.41 140.302 319.085 140.715C319.026 140.686 318.997 140.597 318.997 140.449C319.026 140.361 319.041 140.272 319.041 140.183C319.041 140.095 319.011 140.006 318.952 139.918C318.834 140.036 318.716 140.154 318.598 140.272C318.48 140.42 318.376 140.567 318.288 140.715C318.494 140.833 318.494 140.966 318.288 141.114C318.081 141.262 317.874 141.394 317.667 141.513C317.697 141.335 317.638 141.217 317.49 141.158C317.372 141.129 317.313 141.04 317.313 140.892C316.958 140.951 316.737 141.158 316.648 141.513C316.441 141.69 316.235 141.764 316.028 141.734C315.851 141.734 315.644 141.69 315.408 141.601C315.289 141.542 315.171 141.498 315.053 141.468C314.965 141.439 314.846 141.409 314.699 141.38C314.846 141.291 315.009 141.129 315.186 140.892C315.363 140.686 315.541 140.464 315.718 140.228C315.984 139.873 316.235 139.563 316.471 139.297C316.737 139.031 316.914 138.987 317.003 139.164C317.328 138.544 317.593 138.057 317.8 137.702C318.037 137.348 318.302 136.964 318.598 136.55C318.923 136.107 319.351 135.501 319.883 134.733C319.765 134.674 319.75 134.556 319.838 134.379C319.927 134.172 320.06 134.143 320.237 134.29C320.474 134.113 320.503 133.995 320.326 133.936C320.149 133.877 320.06 133.847 320.06 133.847C320.178 133.729 320.282 133.626 320.37 133.537C320.488 133.449 320.666 133.389 320.902 133.36C320.784 133.094 320.754 132.887 320.813 132.74C320.872 132.562 320.961 132.385 321.079 132.208C321.197 132.031 321.301 131.839 321.389 131.632C321.507 131.396 321.552 131.085 321.522 130.701C320.636 130.79 319.72 130.79 318.775 130.701C317.83 130.613 317.003 130.362 316.294 129.948C315.614 129.535 315.157 128.9 314.92 128.043C315.895 127.777 316.988 127.659 318.199 127.688C319.44 127.688 320.71 127.6 322.01 127.423C322.246 127.186 322.438 126.92 322.586 126.625C322.763 126.3 322.837 125.887 322.807 125.384C321.891 125.532 320.828 125.665 319.617 125.783C318.435 125.901 317.269 126.034 316.117 126.182C314.965 126.33 313.975 126.536 313.148 126.802C312.291 127.068 311.42 126.95 310.534 126.448C309.677 125.946 308.983 125.325 308.451 124.587C309.131 124.292 309.899 124.114 310.755 124.055C311.612 123.967 312.513 123.908 313.458 123.878C313.99 123.848 314.536 123.819 315.097 123.789C315.688 123.76 316.264 123.716 316.825 123.656C317.003 123.509 317.062 123.228 317.003 122.815C316.944 122.401 316.885 122.106 316.825 121.928C315.821 122.224 314.95 122.194 314.211 121.84C313.473 121.485 312.808 121.101 312.217 120.688C312.129 120.599 312.055 120.54 311.996 120.511C311.523 120.865 311.021 121.205 310.489 121.53C309.987 121.825 309.411 122.061 308.761 122.239C308.702 122.209 308.628 122.15 308.54 122.061C308.274 121.884 308.023 121.692 307.787 121.485C307.58 121.249 307.58 121.042 307.787 120.865C308.88 120.304 309.795 119.595 310.534 118.738C311.302 117.882 312.011 116.966 312.661 115.991C312.661 115.932 312.557 115.903 312.35 115.903C312.232 115.903 312.114 115.888 311.996 115.858C311.878 115.799 311.819 115.681 311.819 115.504C311.819 115.504 311.76 115.592 311.641 115.77C311.523 115.947 311.435 116.124 311.376 116.301C310.637 116.272 309.943 116.095 309.293 115.77C308.673 115.445 308.185 115.031 307.831 114.529C307.476 114.027 307.358 113.525 307.476 113.022C308.776 113.141 310.268 113.141 311.952 113.022C313.665 112.904 315.57 112.742 317.667 112.535V111.472C317.313 111.501 316.929 111.516 316.515 111.516C316.131 111.516 315.733 111.516 315.319 111.516C315.112 111.486 314.905 111.472 314.699 111.472C314.492 111.472 314.285 111.472 314.078 111.472C313.251 111.058 312.616 110.512 312.173 109.832C311.73 109.123 311.346 108.414 311.021 107.706C311.701 107.41 312.306 107.336 312.838 107.484C313.369 107.632 313.872 107.824 314.344 108.06C314.846 108.296 315.363 108.488 315.895 108.636C316.427 108.754 317.017 108.651 317.667 108.326C317.815 107.587 317.785 106.982 317.579 106.509C317.372 106.037 317.136 105.608 316.87 105.224C316.604 104.84 316.382 104.441 316.205 104.028C316.028 103.614 316.028 103.112 316.205 102.521C316.914 102.315 317.623 102.403 318.332 102.787C319.041 103.142 319.691 103.644 320.282 104.294C320.902 104.944 321.374 105.608 321.699 106.288C321.434 106.583 321.301 106.834 321.301 107.041C321.301 107.248 321.168 107.469 320.902 107.706C321.227 107.912 321.611 107.912 322.054 107.706C322.497 107.499 322.807 107.292 322.984 107.085C323.87 107.381 324.683 107.735 325.421 108.149C326.189 108.562 326.721 109.197 327.016 110.054C326.16 110.29 325.214 110.394 324.181 110.364C323.147 110.305 321.995 110.408 320.725 110.674C320.577 110.704 320.488 110.792 320.459 110.94C320.429 111.088 320.4 111.25 320.37 111.427C320.37 111.575 320.355 111.708 320.326 111.826C320.326 111.944 320.296 112.033 320.237 112.092C320.592 112.21 320.976 112.254 321.389 112.225C321.832 112.195 322.275 112.136 322.718 112.048C322.866 112.048 322.999 112.048 323.117 112.048C323.265 112.018 323.398 111.989 323.516 111.959C324.018 111.9 324.506 111.9 324.978 111.959C325.451 112.018 325.864 112.21 326.219 112.535C326.337 112.003 326.618 111.708 327.061 111.649C327.533 111.56 328.05 111.531 328.611 111.56C328.936 111.59 329.261 111.605 329.586 111.605C329.941 111.605 330.266 111.56 330.561 111.472C330.856 110.674 330.96 109.965 330.871 109.345C330.812 108.725 330.664 108.149 330.428 107.617C330.31 107.381 330.192 107.144 330.074 106.908C329.955 106.672 329.823 106.435 329.675 106.199C329.379 105.697 329.128 105.209 328.922 104.737C328.715 104.235 328.671 103.703 328.789 103.142C329.734 103.142 330.458 103.23 330.96 103.408C331.462 103.585 331.92 103.777 332.333 103.984C332.776 104.19 333.323 104.382 333.973 104.56C333.914 104.737 333.928 104.914 334.017 105.091C334.135 105.239 334.253 105.401 334.371 105.579C334.519 105.726 334.637 105.889 334.726 106.066C334.844 106.214 334.918 106.391 334.948 106.598C334.652 106.982 334.445 107.469 334.327 108.06C334.239 108.621 334.165 109.182 334.106 109.744C334.076 110.305 333.973 110.778 333.796 111.162C334.12 111.191 334.416 111.191 334.682 111.162C334.947 111.102 335.213 111.058 335.479 111.029C335.597 110.999 335.686 110.984 335.745 110.984C335.863 110.866 335.937 110.704 335.967 110.497C335.996 110.29 336.026 110.083 336.055 109.877C336.823 109.758 337.724 109.803 338.758 110.01C339.792 110.187 340.678 110.497 341.416 110.94C341.919 111.235 342.288 111.605 342.524 112.048C342.79 112.461 342.849 112.949 342.701 113.51C340.9 113.51 339.6 114.012 338.802 115.016C338.005 115.991 337.621 117.128 337.65 118.428C337.68 119.285 337.857 120.141 338.182 120.998C338.536 121.855 339.009 122.608 339.6 123.258C340.22 123.878 340.929 124.321 341.727 124.587C342.081 124.557 342.303 124.41 342.391 124.144C342.48 123.848 342.687 123.686 343.012 123.656C343.1 123.007 343.085 122.357 342.967 121.707C342.849 121.027 342.716 120.451 342.568 119.979C342.421 119.506 342.347 119.27 342.347 119.27C343.026 120.067 343.661 120.909 344.252 121.796C344.873 122.682 345.641 123.405 346.556 123.967ZM329.941 114.263C329.439 114.145 329.01 114.056 328.656 113.997C328.301 113.909 327.917 113.85 327.504 113.82C327.386 114.115 327.208 114.322 326.972 114.44C326.736 114.529 326.455 114.573 326.13 114.573C325.953 114.573 325.776 114.573 325.598 114.573C325.451 114.544 325.274 114.514 325.067 114.485C324.742 114.426 324.417 114.396 324.092 114.396C323.767 114.367 323.501 114.426 323.294 114.573C323.885 114.751 324.506 115.12 325.155 115.681C325.835 116.242 326.307 116.863 326.573 117.542C326.78 118.015 326.81 118.502 326.662 119.004C326.544 119.477 326.174 119.875 325.554 120.2C324.786 119.728 324.151 119.196 323.649 118.605C323.176 117.985 322.704 117.35 322.231 116.7C321.758 116.05 321.153 115.445 320.414 114.883C320.149 114.972 319.838 115.016 319.484 115.016C319.13 115.016 318.746 115.002 318.332 114.972C318.184 114.972 318.037 114.972 317.889 114.972C317.771 114.972 317.638 114.972 317.49 114.972C317.017 114.972 316.604 115.016 316.249 115.105C315.925 115.164 315.747 115.356 315.718 115.681C316.22 115.415 316.811 115.386 317.49 115.592C318.081 115.74 318.642 116.021 319.174 116.434C319.706 116.848 320.119 117.276 320.414 117.719C320.267 117.837 320.163 118.074 320.104 118.428C320.075 118.783 320.06 118.96 320.06 118.96C320.621 118.576 321.168 118.472 321.699 118.65C322.231 118.797 322.718 119.078 323.162 119.491C323.634 119.905 324.003 120.304 324.269 120.688C324.062 121.013 323.723 121.205 323.25 121.264C322.778 121.323 322.275 121.352 321.744 121.352C321.389 121.382 321.035 121.411 320.68 121.441C320.326 121.441 320.016 121.5 319.75 121.618C319.72 121.943 319.676 122.268 319.617 122.593C319.558 122.888 319.499 123.199 319.44 123.524C319.646 123.464 319.853 123.435 320.06 123.435C320.296 123.435 320.518 123.45 320.725 123.479C321.05 123.509 321.33 123.509 321.566 123.479C321.832 123.45 322.039 123.302 322.187 123.036C322.453 123.036 322.718 123.095 322.984 123.213C323.25 123.302 323.516 123.42 323.782 123.568C324.254 123.775 324.698 123.937 325.111 124.055C325.525 124.144 325.894 124.011 326.219 123.656C326.632 123.184 327.002 122.549 327.327 121.751C327.681 120.954 327.962 120.23 328.168 119.58C328.08 119.344 327.858 119.093 327.504 118.827C327.149 118.561 326.928 118.192 326.839 117.719C326.898 117.424 327.194 117.261 327.725 117.232C328.287 117.202 328.7 117.261 328.966 117.409C329.35 116.907 329.586 116.405 329.675 115.903C329.793 115.371 329.882 114.824 329.941 114.263ZM317.003 119.137C316.914 118.753 316.84 118.384 316.781 118.029C316.722 117.645 316.471 117.335 316.028 117.099C315.614 117.424 315.201 117.763 314.787 118.118C314.403 118.443 314.064 118.827 313.768 119.27C314.182 119.388 314.743 119.447 315.452 119.447C316.161 119.447 316.678 119.344 317.003 119.137Z" fill="black"/>
<path d="M264.181 335.874C264.584 343.46 264.181 349.414 262.97 353.737C261.759 358.06 260.11 360.465 258.008 360.936C254.694 361.827 251.953 362.719 249.766 363.593C247.58 364.485 245.359 365.646 243.105 367.109C242.214 369.211 241.39 370.557 240.616 371.162C239.842 371.768 238.867 371.835 237.656 371.347C232.98 373.77 229.094 374.577 226.033 373.77C222.972 372.962 221.105 370.422 220.466 366.133C220.146 364.115 220.6 362.719 221.862 361.962C223.107 361.188 224.957 360.482 227.379 359.843C225.932 358.632 224.772 357.606 223.931 356.748C223.09 355.89 222.434 355.099 221.996 354.326C221.559 353.552 221.29 352.795 221.206 352.021C221.122 351.248 221.122 350.339 221.206 349.297C221.29 348.001 221.374 346.992 221.441 346.269C221.525 345.546 221.643 344.991 221.811 344.637C221.98 344.267 222.232 344.032 222.602 343.914C222.972 343.796 223.477 343.645 224.116 343.494C225.159 343.41 226.067 343.325 226.841 343.258C227.614 343.174 228.338 342.989 229.027 342.72C229.717 342.434 230.423 342.013 231.146 341.442C231.87 340.87 232.728 340.062 233.686 339.02C233.854 338.296 233.955 337.321 233.989 336.11C234.023 334.899 234.056 333.974 234.056 333.318C229.38 335.908 225.041 338.481 221.038 341.072C217.035 343.662 213.906 346 211.652 348.102C209.634 350.121 207.699 350.995 205.832 350.709C203.982 350.423 202.519 348.59 201.476 345.192C200.904 343.09 200.854 341.559 201.291 340.584C201.728 339.608 202.973 338.935 204.991 338.532C205.967 338.296 207.01 337.926 208.137 337.438C209.264 336.951 210.323 336.463 211.282 335.992C213.704 334.697 215.891 333.57 217.825 332.594C219.759 331.619 221.626 330.711 223.392 329.87C225.175 329.029 226.941 328.238 228.724 327.515C230.507 326.791 232.391 326.068 234.41 325.328C234.729 322.906 234.847 320.888 234.78 319.273C233.249 320.4 231.567 320.904 229.75 320.787C227.934 320.669 225.529 319.307 222.551 316.733C220.617 315.034 219.154 313.722 218.195 312.797C217.22 311.872 216.58 311.183 216.261 310.745C215.941 310.308 215.891 310.056 216.143 310.022C216.379 309.988 216.833 310.005 217.472 310.089C219.002 310.257 220.23 310.274 221.172 310.157C222.097 310.039 222.922 309.77 223.662 309.366C225.596 308.239 227.211 307.28 228.506 306.523C229.801 305.75 230.911 305.077 231.836 304.471C232.761 303.866 233.552 303.26 234.191 302.655C234.83 302.049 235.52 301.377 236.243 300.653C235.604 299.207 235.099 297.962 234.729 296.953C234.359 295.944 234.056 295.035 233.821 294.228C233.585 293.421 233.417 292.681 233.333 291.991C233.249 291.301 233.215 290.561 233.215 289.754C233.854 291.856 234.443 293.303 234.965 294.11C235.486 294.918 236.041 295.557 236.596 296.045C237 292.496 237.118 290.225 236.966 289.266C236.798 288.291 236.394 288.055 235.755 288.543C235.032 289.031 234.258 288.863 233.451 288.055C232.643 287.248 232.24 286.155 232.24 284.792C232.24 282.942 233.737 282 236.714 282C237.202 282 237.807 282.185 238.53 282.538C239.254 282.908 239.977 283.346 240.717 283.867C241.44 284.388 242.113 284.977 242.719 285.616C243.324 286.255 243.829 286.827 244.232 287.315C244.956 288.442 245.511 289.367 245.864 290.107C246.234 290.83 246.469 291.554 246.587 292.294C246.705 293.034 246.722 293.841 246.654 294.783C246.57 295.708 246.419 296.936 246.167 298.484C248.505 298.971 250.288 299.779 251.499 300.906C252.71 302.033 253.315 303.126 253.315 304.169C253.315 305.615 252.71 306.91 251.499 308.037C250.288 309.164 247.983 310.577 244.602 312.276C244.434 313.571 244.333 314.933 244.3 316.397C244.266 317.843 244.199 319.458 244.115 321.241C245.157 320.669 246.705 320.198 248.723 319.794C249.531 319.071 250.22 318.499 250.775 318.096C251.347 317.692 251.869 317.406 252.356 317.255C252.844 317.086 253.366 317.019 253.937 317.019C254.509 317.019 255.182 317.053 255.99 317.137C257.604 317.305 258.883 317.726 259.808 318.415C260.733 319.105 261.355 319.862 261.691 320.719C262.011 321.56 261.994 322.435 261.624 323.327C261.271 324.218 260.632 324.941 259.74 325.513C257.873 326.64 256.393 327.599 255.266 328.356C254.139 329.129 253.096 329.987 252.171 330.963C251.246 331.938 250.321 333.133 249.379 334.529C248.454 335.942 247.26 337.775 245.813 340.046C248.555 341.173 250.271 342.737 250.96 344.705C251.65 346.689 251.028 348.556 249.077 350.339C248.185 351.147 247.495 351.887 247.024 352.576C246.537 353.266 245.78 354.41 244.72 356.024C247.058 356.024 249.043 355.991 250.658 355.907C252.272 355.823 253.618 355.671 254.711 355.419C255.804 355.184 256.713 354.78 257.436 354.208C258.159 353.636 258.798 352.879 259.37 351.904C260.581 349.801 261.422 347.564 261.91 345.176C262.398 342.787 262.751 339.541 263.003 335.42C263.172 332.998 263.373 331.871 263.609 332.022C263.844 332.191 264.046 333.469 264.214 335.891L264.181 335.874ZM232.828 356.95C232.997 356.546 233.047 355.924 233.013 355.066C232.98 354.225 232.913 353.67 232.828 353.434C231.382 353.602 229.935 353.804 228.523 354.04C227.11 354.275 225.764 354.528 224.469 354.763C225.764 355.806 227.076 356.596 228.405 357.118C229.734 357.639 231.214 357.589 232.828 356.933V356.95ZM305.726 329.331C306.937 330.946 307.021 332.258 305.962 333.267C304.919 334.276 302.766 334.495 299.536 333.94C297.03 333.536 294.322 333.233 291.429 333.032C288.519 332.83 284.651 332.813 279.807 332.964C279.487 334.007 279.218 335.487 279.016 337.388C278.814 339.289 278.713 341.458 278.713 343.931C278.713 346.403 278.781 349.095 278.898 352.038C279.016 354.982 279.285 358.026 279.689 361.188C279.924 363.778 280.109 365.931 280.227 367.664C280.345 369.396 280.412 370.961 280.412 372.323C280.412 373.685 280.362 375.031 280.294 376.326C280.21 377.621 280.092 379.152 279.924 380.935C279.521 384.803 278.814 386.822 277.805 386.99C276.796 387.158 275.366 385.207 273.499 381.17C272.776 379.471 272.069 377.47 271.38 375.182C270.69 372.878 270.505 370.204 270.841 367.126C271.245 363.661 271.514 358.547 271.632 351.803C271.75 345.058 271.733 337.489 271.565 329.096C269.782 328.457 268.874 327.498 268.84 326.253C268.806 325.009 269.715 324.05 271.565 323.411C271.733 318.331 271.783 313.992 271.75 310.392C271.699 306.793 271.548 303.748 271.262 301.242C270.976 298.736 270.589 296.684 270.101 295.069C269.614 293.454 269.092 292.092 268.52 290.948C268.033 289.973 267.814 289.064 267.848 288.223C267.881 287.382 268.133 286.71 268.571 286.222C269.008 285.734 269.614 285.482 270.387 285.431C271.161 285.398 271.985 285.7 272.877 286.34C276.274 288.846 278.713 290.982 280.21 292.765C281.707 294.548 282.044 296.364 281.236 298.214C280.917 299.106 280.597 300.502 280.261 302.386C279.941 304.286 279.672 306.423 279.47 308.811C279.268 311.199 279.167 313.655 279.167 316.195C279.167 318.735 279.369 321.106 279.773 323.276C281.875 323.041 283.625 322.839 285.038 322.671C286.45 322.502 287.628 322.368 288.553 322.25C289.478 322.132 290.252 322.048 290.857 322.015C291.463 321.981 292.051 321.947 292.606 321.947C294.305 321.947 295.735 322.082 296.912 322.368C298.09 322.654 299.149 323.091 300.125 323.697C301.084 324.302 302.009 325.076 302.85 326.001C303.691 326.926 304.65 328.036 305.692 329.331H305.726Z" fill="black"/>
<path d="M250.195 241.924C250.842 242.764 250.939 243.636 250.486 244.54C250.098 245.38 249.645 246.187 249.127 246.962C248.933 247.156 248.804 247.317 248.739 247.447C245.958 248.738 242.95 249.223 239.715 248.9C236.546 248.641 233.505 247.802 230.594 246.381C227.683 244.96 225.29 243.248 223.414 241.246C220.826 235.433 218.045 229.814 215.069 224.389C212.093 218.964 209.053 213.603 205.948 208.307C205.495 208.501 205.139 208.791 204.88 209.179C204.686 209.502 204.428 209.792 204.104 210.051C202.81 215.282 201.193 220.029 199.253 224.292C197.312 228.49 195.015 232.301 192.363 235.724C189.97 238.76 187.253 241.472 184.212 243.862C181.172 246.187 177.776 248.254 174.024 250.062C173.765 249.739 173.442 249.578 173.054 249.578C172.73 249.643 172.342 249.739 171.889 249.869C171.566 249.933 171.242 249.998 170.919 250.062C170.596 250.127 170.207 250.159 169.755 250.159C169.69 249.707 169.819 249.417 170.143 249.287C170.466 249.223 170.822 249.158 171.21 249.094C171.275 249.094 171.339 249.094 171.404 249.094C170.628 248.964 169.981 248.932 169.464 248.997C169.011 249.061 168.623 249.158 168.299 249.287C167.782 249.417 167.296 249.449 166.844 249.384C166.455 249.32 165.841 248.835 165 247.931C165.582 247.866 166.035 247.737 166.358 247.543C166.682 247.35 167.038 247.188 167.426 247.059C169.69 245.574 172.019 244.023 174.412 242.409C176.87 240.73 179.199 238.921 181.399 236.983C183.598 234.981 185.442 232.785 186.929 230.396C187.059 230.266 187.059 229.976 186.929 229.524C186.865 229.136 186.865 228.878 186.929 228.749C187.188 228.167 187.641 227.683 188.288 227.295C188.999 226.843 189.485 226.391 189.743 225.939C190.002 225.487 190.099 225.003 190.034 224.486C189.97 223.969 190.067 223.517 190.326 223.13C190.843 222.225 191.587 221.386 192.557 220.611C193.528 219.771 194.045 218.641 194.11 217.22C194.11 217.155 194.013 217.091 193.819 217.026C193.495 216.961 193.366 216.8 193.431 216.542C193.625 215.767 194.013 215.056 194.595 214.41C195.242 213.7 195.695 212.989 195.953 212.279C196.665 210.664 197.053 209.082 197.118 207.532C197.183 205.917 197.474 204.399 197.991 202.978C195.08 203.237 192.04 203.56 188.87 203.947C185.7 204.335 182.789 205.077 180.137 206.175C176.967 205.271 174.606 203.818 173.054 201.816C171.501 199.814 170.175 197.359 169.075 194.453C170.369 193.678 171.663 193.581 172.957 194.162C174.315 194.679 175.512 195.26 176.547 195.906C176.87 196.1 177.097 196.229 177.226 196.294C179.49 196.552 181.851 196.584 184.31 196.39C186.832 196.197 189.323 195.971 191.781 195.712C193.075 195.583 194.336 195.454 195.565 195.325C196.794 195.196 197.991 195.099 199.156 195.034C199.091 194.13 199.059 193.258 199.059 192.418C199.123 191.579 199.156 190.771 199.156 189.996C199.22 188.769 199.22 187.607 199.156 186.509C199.156 185.346 199.059 184.183 198.864 183.021C198.864 182.827 198.864 182.601 198.864 182.343C198.929 182.084 198.961 181.826 198.961 181.568C199.026 181.051 199.059 180.728 199.059 180.599C198.864 179.63 198.541 178.726 198.088 177.886C197.635 177.047 197.15 176.239 196.633 175.464C195.921 174.366 195.274 173.236 194.692 172.073C194.175 170.911 194.013 169.554 194.207 168.004C196.6 167.94 198.735 168.586 200.611 169.942C202.487 171.234 204.266 172.59 205.948 174.011C206.271 174.269 206.562 174.528 206.821 174.786C207.145 175.044 207.468 175.303 207.791 175.561C207.791 176.272 207.791 176.982 207.791 177.692C207.856 178.403 207.921 179.113 207.986 179.824C208.115 181.955 208.18 184.183 208.18 186.509C208.244 188.769 208.05 191.191 207.597 193.775C209.538 193.968 211.414 194.001 213.225 193.872C215.101 193.678 216.945 193.484 218.756 193.29C219.662 193.161 220.567 193.064 221.473 193C222.379 192.87 223.284 192.774 224.19 192.709C224.384 192.192 224.675 191.837 225.063 191.643C225.451 191.385 225.678 190.933 225.743 190.287C227.683 190.481 229.656 190.836 231.662 191.353C233.732 191.805 235.608 192.515 237.289 193.484C239.036 194.453 240.362 195.777 241.268 197.456C241.591 197.973 241.688 198.393 241.559 198.716C241.43 198.974 241.268 199.2 241.074 199.394C240.88 199.588 240.75 199.749 240.686 199.878C236.61 199.684 232.405 199.781 228.071 200.169C223.737 200.492 219.403 200.912 215.069 201.428C214.163 201.493 213.225 201.59 212.255 201.719C211.285 201.848 210.347 201.945 209.441 202.01C211.835 205.82 214.648 209.631 217.883 213.441C221.117 217.252 224.708 220.772 228.654 224.001C232.664 227.231 236.934 229.943 241.462 232.139L241.559 233.205C243.047 233.98 244.502 235.272 245.925 237.08C247.349 238.889 248.772 240.503 250.195 241.924Z" fill="white"/>
<path d="M304.242 221.483C303.854 221.806 303.595 222.193 303.466 222.645C303.336 223.097 303.272 223.452 303.272 223.711C303.078 223.969 302.819 224.034 302.495 223.905C302.237 223.775 302.043 223.517 301.913 223.13C301.396 223.452 300.781 223.485 300.07 223.226C299.423 222.903 299.035 222.419 298.905 221.773C298.194 222.032 297.644 221.999 297.256 221.676C296.868 221.353 296.479 220.966 296.091 220.514C295.833 220.126 295.509 219.739 295.121 219.351C294.798 218.964 294.377 218.705 293.86 218.576C293.471 220.449 293.342 222.354 293.471 224.292C293.601 226.165 293.763 228.07 293.957 230.008C294.021 230.396 294.054 230.815 294.054 231.268C294.118 231.655 294.183 232.043 294.248 232.43C294.506 234.561 294.603 236.661 294.539 238.727C294.539 240.794 294.086 242.764 293.18 244.637C293.116 245.089 293.342 245.315 293.86 245.315C293.407 246.801 292.63 248.125 291.531 249.287C290.496 250.45 289.04 250.837 287.164 250.45C286.388 248.964 285.321 247.64 283.962 246.478C282.668 245.38 281.375 244.314 280.081 243.281C278.917 242.247 277.946 241.182 277.17 240.084C276.394 238.986 276.135 237.726 276.394 236.305C275.488 235.853 274.938 235.207 274.744 234.368C275.65 234.497 276.685 234.949 277.849 235.724C279.014 236.435 280.275 237.177 281.633 237.952C283.057 238.727 284.544 239.244 286.097 239.502C286.744 237.371 287.164 234.949 287.358 232.236C287.617 229.524 287.714 226.811 287.649 224.098C287.585 221.321 287.423 218.834 287.164 216.639C286.194 217.801 285.159 218.802 284.059 219.642C283.024 220.417 281.989 221.289 280.954 222.258C279.984 223.162 279.143 224.389 278.431 225.939C278.237 225.939 277.979 226.004 277.655 226.133C277.526 226.197 277.364 226.262 277.17 226.327C276.976 226.391 276.717 226.391 276.394 226.327V227.877C275.488 227.877 274.809 228.135 274.356 228.652C273.968 229.168 273.644 229.782 273.386 230.492C272.998 230.234 272.674 230.137 272.415 230.202C272.221 230.266 272.027 230.396 271.833 230.589C271.639 230.719 271.413 230.848 271.154 230.977C270.96 231.041 270.701 231.074 270.378 231.074C270.378 231.203 270.475 231.332 270.669 231.461C270.992 231.59 271.122 231.784 271.057 232.043C269.957 232.236 268.922 232.753 267.952 233.593C267.046 234.432 266.108 235.24 265.138 236.015C264.168 236.725 263.003 237.113 261.645 237.177C261.062 236.661 260.319 236.305 259.413 236.112C258.572 235.918 257.731 235.756 256.89 235.627C257.343 235.304 257.828 235.046 258.346 234.852C258.928 234.594 259.445 234.755 259.898 235.337L259.607 234.368C259.93 234.368 260.189 234.303 260.383 234.174C260.642 233.98 260.901 233.786 261.16 233.593C261.483 233.334 261.806 233.076 262.13 232.818C262.518 232.559 263.035 232.43 263.682 232.43C264.588 231.138 265.494 229.847 266.399 228.555C267.37 227.199 268.696 226.23 270.378 225.648C270.119 225.261 270.054 224.97 270.184 224.777C270.313 224.583 270.475 224.454 270.669 224.389C270.539 223.937 270.216 224.001 269.698 224.583C269.504 224.777 269.375 224.906 269.31 224.97C269.116 224.647 269.246 224.292 269.698 223.905C270.151 223.452 270.701 223.388 271.348 223.711C272.836 221.127 274.679 218.608 276.879 216.154C279.143 213.7 281.342 211.278 283.477 208.888C282.313 208.501 281.213 208.501 280.178 208.888C279.208 209.276 278.237 209.695 277.267 210.148C276.555 210.535 275.844 210.89 275.132 211.213C274.421 211.472 273.709 211.568 272.998 211.504C271.833 211.375 270.863 210.664 270.087 209.372C269.375 208.081 268.566 207.047 267.661 206.272C266.755 205.433 265.849 204.851 264.944 204.528C264.103 204.141 263.456 203.463 263.003 202.494C263.003 201.977 263.262 201.687 263.779 201.622C264.362 201.557 264.75 201.299 264.944 200.847C266.69 201.364 268.566 201.848 270.572 202.3C272.642 202.688 274.712 202.849 276.782 202.785C278.917 202.655 280.922 202.106 282.798 201.138C283.833 201.202 284.738 201.17 285.515 201.041C286.356 200.912 287.003 200.621 287.455 200.169C287.391 199.717 287.326 199.265 287.261 198.812C287.261 198.36 287.229 197.908 287.164 197.456C286.97 195.777 286.776 194.033 286.582 192.225C286.453 190.352 286.42 188.285 286.485 186.024C285.838 186.283 285.224 186.573 284.641 186.896C284.059 187.219 283.477 187.574 282.895 187.962C281.472 188.801 279.984 189.544 278.431 190.19C276.879 190.836 275.068 190.965 272.998 190.578C272.933 190.19 272.803 189.867 272.609 189.609C272.415 189.35 272.221 189.092 272.027 188.834C271.768 188.511 271.51 188.188 271.251 187.865C271.057 187.477 270.992 186.961 271.057 186.315C272.739 186.25 274.291 185.83 275.714 185.055C277.202 184.28 278.658 183.376 280.081 182.343C281.504 181.245 282.992 180.211 284.544 179.243C286.162 178.209 287.941 177.466 289.881 177.014C289.881 176.756 289.946 176.53 290.075 176.336C290.269 176.078 290.496 175.819 290.755 175.561C291.143 175.238 291.401 174.98 291.531 174.786C291.466 174.334 291.304 174.011 291.046 173.817C290.787 173.559 290.496 173.333 290.172 173.139C289.784 172.945 289.461 172.719 289.202 172.461C288.943 172.203 288.814 171.783 288.814 171.201C290.043 171.266 290.949 171.234 291.531 171.105C292.113 170.975 292.566 170.685 292.889 170.233C294.118 170.103 295.574 170.2 297.256 170.523C299.002 170.782 300.555 171.234 301.913 171.88C303.336 172.526 304.113 173.365 304.242 174.399C304.371 175.303 304.242 175.981 303.854 176.433C303.531 176.821 303.142 177.176 302.69 177.499C302.301 177.757 301.913 178.08 301.525 178.468C301.202 178.79 301.008 179.275 300.943 179.921C299.843 179.727 298.582 179.888 297.159 180.405C295.8 180.922 294.474 181.471 293.18 182.052C292.922 182.181 292.63 182.31 292.307 182.44C292.048 182.569 291.79 182.698 291.531 182.827C293.277 183.99 294.409 185.475 294.927 187.284C295.509 189.028 295.703 190.836 295.509 192.709C295.38 194.582 295.056 196.229 294.539 197.65C295.444 198.102 296.447 198.457 297.547 198.716C298.647 198.909 299.714 199.135 300.749 199.394C301.784 199.652 302.625 200.137 303.272 200.847C303.013 200.976 302.851 201.17 302.787 201.428C302.722 201.622 302.657 201.848 302.593 202.106C302.593 202.429 302.495 202.752 302.301 203.075C302.172 203.334 301.816 203.463 301.234 203.463L301.913 204.432C300.878 204.884 299.617 205.174 298.129 205.303C296.706 205.368 295.509 205.691 294.539 206.272C294.021 206.789 293.795 207.887 293.86 209.566C295.93 211.181 297.935 212.892 299.876 214.701C301.881 216.445 303.336 218.705 304.242 221.483ZM340.241 180.211C340.5 181.051 340.565 181.891 340.435 182.73C340.306 183.57 340.112 184.41 339.853 185.249C339.659 186.024 339.465 186.832 339.271 187.671C339.142 188.511 339.142 189.35 339.271 190.19C338.753 190.319 338.43 190.674 338.301 191.256C338.236 191.772 337.88 192.063 337.233 192.128C337.621 193.678 337.751 195.26 337.621 196.875C337.557 198.425 337.427 200.04 337.233 201.719C337.039 203.011 336.877 204.367 336.748 205.788C336.683 207.144 336.716 208.501 336.845 209.857C336.974 211.084 337.104 212.343 337.233 213.635C337.363 214.927 337.492 216.219 337.621 217.51C338.204 222.548 338.656 227.651 338.98 232.818C339.303 237.985 338.947 242.893 337.912 247.543C337.395 247.737 337.072 248.092 336.942 248.609C336.813 249.126 336.683 249.675 336.554 250.256C336.425 250.837 336.069 251.322 335.487 251.709C335.099 251.516 334.775 251.419 334.516 251.419C334.258 251.483 333.966 251.548 333.643 251.612C333.449 251.742 333.19 251.839 332.867 251.903C332.608 251.968 332.252 252 331.799 252C329.471 251.29 327.142 250.385 324.813 249.287C322.549 248.189 320.285 247.059 318.021 245.897C317.891 245.767 317.891 245.574 318.021 245.315C318.215 245.057 318.215 244.831 318.021 244.637C317.439 244.831 316.953 244.799 316.565 244.54C316.177 244.282 315.821 243.927 315.498 243.474C315.11 243.087 314.689 242.699 314.236 242.312C313.848 241.924 313.331 241.731 312.684 241.731C312.36 241.085 312.102 240.342 311.908 239.502C311.714 238.598 311.293 237.726 310.646 236.887C310.905 236.757 311.099 236.757 311.228 236.887C311.423 236.951 311.617 237.08 311.811 237.274C311.94 237.403 312.102 237.565 312.296 237.759C312.49 237.888 312.716 237.92 312.975 237.855C313.298 237.791 313.331 237.662 313.072 237.468C312.619 237.145 312.49 236.854 312.684 236.596C313.201 236.919 313.816 237.177 314.528 237.371C315.239 237.565 315.627 238.049 315.692 238.824C316.468 238.566 317.212 238.534 317.924 238.727C318.635 238.921 319.314 239.147 319.961 239.406C320.608 239.728 321.255 239.987 321.902 240.181C322.549 240.31 323.163 240.181 323.746 239.793C324.134 240.245 324.554 240.471 325.007 240.471C325.46 240.471 325.913 240.439 326.366 240.374C326.754 240.374 327.142 240.374 327.53 240.374C327.918 240.31 328.339 240.342 328.791 240.471C330.409 237.306 331.185 233.819 331.12 230.008C331.12 226.133 330.958 222.258 330.635 218.382C330.506 217.284 330.409 216.219 330.344 215.185C330.279 214.152 330.215 213.119 330.15 212.085C330.085 209.825 329.859 207.499 329.471 205.11C329.082 202.72 328.856 200.33 328.791 197.941C328.791 196.907 328.791 195.841 328.791 194.743C328.856 193.646 328.888 192.58 328.888 191.546C329.018 189.157 329.05 186.799 328.985 184.474C328.921 182.149 328.597 180.018 328.015 178.08C327.498 176.078 326.527 174.334 325.104 172.848C325.104 172.719 325.234 172.59 325.492 172.461C325.622 172.396 325.719 172.332 325.783 172.267C325.913 172.138 325.913 171.912 325.783 171.589C326.495 171.266 327.562 171.331 328.985 171.783C330.473 172.235 331.993 172.913 333.546 173.817C335.163 174.657 336.586 175.658 337.815 176.821C339.109 177.919 339.918 179.049 340.241 180.211ZM317.73 220.514C317.277 220.514 316.889 220.611 316.565 220.804C316.306 220.998 316.08 221.192 315.886 221.386C315.563 221.709 315.239 221.935 314.916 222.064C314.657 222.193 314.236 222.096 313.654 221.773C312.166 220.934 311.164 219.868 310.646 218.576C310.193 217.22 309.967 215.767 309.967 214.217C309.967 213.441 309.999 212.634 310.064 211.794C310.129 210.955 310.226 210.115 310.355 209.276C310.549 207.79 310.679 206.337 310.743 204.916C310.808 203.495 310.679 202.139 310.355 200.847C310.032 199.684 309.547 198.748 308.9 198.037C308.317 197.327 307.735 196.617 307.153 195.906C306.571 195.131 306.183 194.194 305.989 193.097C305.989 192.903 306.15 192.709 306.474 192.515C306.603 192.451 306.733 192.354 306.862 192.225C306.991 192.095 307.024 191.869 306.959 191.546C307.088 191.546 307.282 191.546 307.541 191.546C307.735 191.611 307.929 191.643 308.123 191.643C308.317 191.643 308.479 191.482 308.609 191.159C309.967 192.451 311.52 193.581 313.266 194.55C315.077 195.519 316.565 196.746 317.73 198.231C317.406 200.233 317.277 202.074 317.342 203.753C317.471 205.368 317.633 206.95 317.827 208.501C318.021 210.244 318.182 212.085 318.312 214.023C318.441 215.896 318.247 218.059 317.73 220.514Z" fill="white"/>
</svg>
