<svg width="500" height="500" viewBox="0 0 500 500" fill="none" xmlns="http://www.w3.org/2000/svg">
<rect x="125" y="78.9521" width="243.144" height="351.048" rx="6" fill="#666666"/>
<rect x="131.856" y="70" width="243.144" height="351.048" rx="6" fill="white"/>
<rect x="144.5" y="87.9106" width="217.721" height="314.949" rx="2.5" stroke="#E30302" stroke-width="3"/>
<path d="M154 159H352V261H154V159Z" fill="#E30302"/>
<path d="M247.468 242.701C248.094 243.514 248.188 244.359 247.749 245.235C247.374 246.048 246.935 246.83 246.434 247.581C246.247 247.768 246.121 247.925 246.059 248.05C243.366 249.301 240.454 249.77 237.324 249.458C234.255 249.207 231.312 248.394 228.494 247.018C225.677 245.641 223.36 243.983 221.544 242.044C219.039 236.413 216.347 230.97 213.466 225.715C210.586 220.459 207.643 215.267 204.637 210.137C204.199 210.324 203.854 210.606 203.604 210.981C203.416 211.294 203.166 211.575 202.852 211.826C201.6 216.893 200.035 221.492 198.156 225.621C196.278 229.688 194.055 233.379 191.487 236.695C189.17 239.635 186.541 242.263 183.597 244.578C180.654 246.83 177.367 248.832 173.735 250.584C173.485 250.271 173.172 250.115 172.796 250.115C172.483 250.177 172.107 250.271 171.669 250.396C171.356 250.459 171.043 250.521 170.73 250.584C170.416 250.646 170.041 250.678 169.602 250.678C169.54 250.24 169.665 249.958 169.978 249.833C170.291 249.77 170.636 249.708 171.011 249.645C171.074 249.645 171.137 249.645 171.199 249.645C170.448 249.52 169.822 249.489 169.321 249.551C168.882 249.614 168.507 249.708 168.194 249.833C167.693 249.958 167.223 249.989 166.785 249.927C166.409 249.864 165.814 249.395 165 248.519C165.564 248.457 166.002 248.331 166.315 248.144C166.628 247.956 166.972 247.8 167.348 247.675C169.54 246.236 171.794 244.734 174.111 243.17C176.49 241.543 178.745 239.792 180.874 237.915C183.003 235.975 184.787 233.848 186.227 231.533C186.353 231.408 186.353 231.127 186.227 230.689C186.165 230.313 186.165 230.063 186.227 229.938C186.478 229.375 186.916 228.906 187.542 228.53C188.231 228.092 188.701 227.654 188.951 227.216C189.202 226.778 189.296 226.309 189.233 225.809C189.17 225.308 189.264 224.87 189.515 224.495C190.016 223.619 190.736 222.806 191.675 222.055C192.614 221.242 193.115 220.147 193.178 218.77C193.178 218.708 193.084 218.645 192.896 218.583C192.583 218.52 192.458 218.364 192.521 218.113C192.708 217.363 193.084 216.674 193.648 216.049C194.274 215.361 194.712 214.672 194.963 213.984C195.651 212.42 196.027 210.887 196.09 209.386C196.152 207.822 196.434 206.351 196.935 204.975C194.117 205.225 191.174 205.538 188.106 205.913C185.038 206.289 182.22 207.008 179.653 208.072C176.584 207.196 174.299 205.788 172.796 203.849C171.293 201.909 170.009 199.532 168.945 196.717C170.197 195.966 171.45 195.872 172.702 196.435C174.017 196.936 175.175 197.499 176.177 198.124C176.49 198.312 176.71 198.437 176.835 198.5C179.026 198.75 181.312 198.781 183.691 198.594C186.134 198.406 188.544 198.187 190.924 197.937C192.176 197.811 193.397 197.686 194.587 197.561C195.777 197.436 196.935 197.342 198.062 197.28C198 196.404 197.968 195.559 197.968 194.746C198.031 193.933 198.062 193.151 198.062 192.4C198.125 191.211 198.125 190.085 198.062 189.021C198.062 187.895 197.968 186.769 197.78 185.643C197.78 185.455 197.78 185.236 197.78 184.986C197.843 184.736 197.874 184.485 197.874 184.235C197.937 183.735 197.968 183.422 197.968 183.297C197.78 182.358 197.467 181.482 197.029 180.669C196.591 179.856 196.121 179.074 195.62 178.323C194.931 177.259 194.305 176.165 193.742 175.038C193.241 173.912 193.084 172.598 193.272 171.097C195.589 171.034 197.655 171.66 199.471 172.974C201.287 174.225 203.009 175.539 204.637 176.915C204.95 177.166 205.232 177.416 205.482 177.666C205.795 177.916 206.109 178.167 206.422 178.417C206.422 179.105 206.422 179.793 206.422 180.481C206.484 181.17 206.547 181.858 206.61 182.546C206.735 184.611 206.797 186.769 206.797 189.021C206.86 191.211 206.672 193.557 206.234 196.06C208.112 196.247 209.928 196.279 211.682 196.154C213.497 195.966 215.282 195.778 217.035 195.59C217.912 195.465 218.789 195.372 219.665 195.309C220.542 195.184 221.419 195.09 222.295 195.027C222.483 194.527 222.765 194.183 223.141 193.995C223.516 193.745 223.735 193.307 223.798 192.681C225.677 192.869 227.586 193.213 229.528 193.714C231.531 194.152 233.347 194.84 234.975 195.778C236.666 196.717 237.95 197.999 238.826 199.626C239.139 200.126 239.233 200.533 239.108 200.846C238.983 201.096 238.826 201.315 238.639 201.503C238.451 201.69 238.325 201.847 238.263 201.972C234.318 201.784 230.248 201.878 226.052 202.254C221.857 202.566 217.662 202.973 213.466 203.473C212.59 203.536 211.682 203.63 210.742 203.755C209.803 203.88 208.895 203.974 208.018 204.037C210.335 207.728 213.059 211.419 216.19 215.11C219.321 218.802 222.796 222.211 226.616 225.339C230.498 228.468 234.631 231.095 239.014 233.222L239.108 234.255C240.548 235.005 241.957 236.257 243.335 238.009C244.712 239.76 246.09 241.324 247.468 242.701Z" fill="white"/>
<path d="M329.466 224.776C328.589 225.027 327.65 225.308 326.648 225.621C325.709 225.934 324.832 226.153 324.018 226.278C323.705 226.716 323.298 227.811 322.797 229.562C322.296 231.252 321.795 233.16 321.294 235.287C320.793 237.414 320.355 239.354 319.979 241.105C319.666 242.857 319.509 244.015 319.509 244.578C320.261 245.141 320.824 245.798 321.2 246.548C321.576 247.362 321.513 247.956 321.012 248.332C318.382 248.895 315.627 249.207 312.747 249.27C309.929 249.395 307.017 249.458 304.012 249.458C301.444 249.458 298.814 249.489 296.122 249.551C293.429 249.614 290.705 249.833 287.95 250.208C287.199 251.335 286.353 251.929 285.414 251.991C284.537 252.054 283.598 251.772 282.596 251.147C281.657 250.521 280.78 249.739 279.966 248.801C279.215 247.925 278.62 247.143 278.182 246.455C278.557 245.829 278.745 244.797 278.745 243.358C278.745 241.856 278.651 240.136 278.463 238.196C278.338 236.194 278.182 234.161 277.994 232.096C277.931 231.658 277.869 231.22 277.806 230.782C277.806 230.282 277.775 229.813 277.712 229.375C276.648 228.186 275.52 226.935 274.331 225.621C273.141 224.307 272.108 223.056 271.231 221.867C270.668 221.304 270.761 220.428 271.513 219.239C271.826 219.302 272.139 219.333 272.452 219.333C272.828 219.271 273.235 219.239 273.673 219.239C274.362 219.177 275.113 219.146 275.927 219.146C276.741 219.146 277.555 219.239 278.37 219.427C280.248 219.302 282.127 219.177 284.005 219.052C285.946 218.864 287.856 218.676 289.735 218.489C293.554 218.176 297.249 217.894 300.818 217.644C304.45 217.331 307.8 217.206 310.868 217.269C312.058 216.205 313.31 215.642 314.625 215.58C316.003 215.517 317.349 215.705 318.664 216.143C319.979 216.581 321.169 217.018 322.233 217.456C322.734 217.707 323.11 217.863 323.36 217.926C325.427 218.739 326.992 219.709 328.057 220.835C329.184 221.898 329.654 223.212 329.466 224.776ZM340.737 192.024C339.672 193.463 338.357 194.214 336.792 194.277C335.226 194.339 333.473 194.277 331.532 194.089C330.781 193.964 329.967 193.87 329.09 193.807C328.213 193.745 327.337 193.714 326.46 193.714C322.578 193.776 318.664 193.87 314.719 193.995C310.774 194.058 306.579 194.308 302.133 194.746C302.008 195.684 301.914 196.842 301.851 198.218C301.789 199.595 301.726 200.94 301.663 202.254C301.601 203.505 301.475 204.506 301.288 205.257C303.291 205.382 305.107 205.382 306.735 205.257C308.426 205.131 309.992 205.006 311.432 204.881C313.373 204.631 315.189 204.506 316.879 204.506C318.57 204.506 320.167 204.819 321.67 205.444C323.235 206.007 324.832 207.102 326.46 208.729C325.771 210.293 324.644 211.138 323.079 211.263C321.513 211.388 319.823 211.388 318.007 211.263C317.443 211.263 316.879 211.263 316.316 211.263C315.815 211.2 315.283 211.169 314.719 211.169C310.461 211.231 305.734 211.45 300.536 211.826C295.402 212.201 290.58 212.639 286.072 213.14C285.445 213.39 284.694 213.671 283.817 213.984C283.003 214.234 282.314 214.766 281.751 215.58C279.434 215.204 277.148 214.391 274.894 213.14C272.703 211.826 271.075 209.98 270.01 207.603C272.139 207.603 274.675 207.509 277.618 207.321C280.624 207.071 283.692 206.821 286.823 206.57C289.954 206.258 292.709 206.039 295.088 205.913C295.088 205.225 295.088 204.412 295.088 203.473C295.088 202.472 295.057 201.471 294.995 200.47C294.995 199.469 294.995 198.531 294.995 197.655C294.995 196.717 294.995 195.935 294.995 195.309C291.864 195.497 288.42 195.747 284.663 196.06C280.906 196.373 277.211 196.967 273.579 197.843C273.016 197.968 272.421 198.124 271.795 198.312C271.231 198.5 270.699 198.719 270.198 198.969C268.57 199.532 267.13 199.876 265.877 200.001C264.625 200.126 263.654 199.376 262.966 197.749C262.59 196.873 261.932 195.997 260.993 195.121C260.054 194.245 259.177 193.338 258.363 192.4C257.612 191.399 257.205 190.366 257.142 189.303C258.332 189.115 259.772 189.146 261.463 189.397C263.216 189.647 264.594 190.085 265.595 190.711C268.601 190.21 271.92 189.835 275.552 189.584C279.246 189.272 282.815 189.021 286.259 188.834C289.703 188.646 292.552 188.458 294.807 188.271C294.744 186.957 294.681 185.299 294.619 183.297C294.556 181.295 294.4 179.606 294.149 178.229C293.398 176.915 292.74 175.82 292.177 174.945C291.676 174.006 291.206 173.036 290.768 172.035C290.392 170.972 289.985 169.627 289.547 168C292.678 168.813 295.621 169.908 298.376 171.285C301.131 172.661 303.291 174.663 304.857 177.291C304.732 177.916 304.544 178.542 304.293 179.168C304.105 179.793 303.918 180.419 303.73 181.044C303.291 182.233 302.916 183.359 302.603 184.423C302.352 185.486 302.258 186.488 302.321 187.426C304.325 187.301 306.141 187.238 307.769 187.238C309.397 187.238 310.931 187.27 312.371 187.332C314.938 187.395 317.255 187.363 319.322 187.238C321.451 187.113 323.767 186.519 326.272 185.455C328.025 185.956 329.747 186.394 331.438 186.769C333.191 187.082 334.851 187.614 336.416 188.364C338.044 189.053 339.484 190.273 340.737 192.024ZM312.277 222.43C309.835 222.18 306.923 222.117 303.542 222.243C300.161 222.368 296.81 222.68 293.492 223.181C290.173 223.619 287.324 224.276 284.944 225.152C285.07 226.778 285.226 228.843 285.414 231.346C285.602 233.848 285.821 236.319 286.072 238.759C286.322 241.137 286.604 243.076 286.917 244.578C289.547 244.515 292.271 244.453 295.088 244.39C297.969 244.327 300.693 244.202 303.26 244.015C305.89 243.827 308.113 243.577 309.929 243.264C310.743 241.324 311.306 239.135 311.62 236.695C311.933 234.255 312.121 231.783 312.183 229.281C312.246 226.778 312.277 224.495 312.277 222.43Z" fill="white"/>
<path d="M154 153.5H352V152.5H154V153.5ZM352 266.5H154V267.5H352V266.5Z" fill="black"/>
<path d="M199.116 125.037C199.354 125.601 199.206 126.002 198.671 126.24C198.167 126.477 197.425 126.551 196.445 126.462C196.237 126.432 196.015 126.418 195.777 126.418C195.57 126.388 195.347 126.373 195.11 126.373C193.774 126.254 192.275 126.136 190.613 126.017C188.981 125.898 187.318 125.824 185.627 125.794C183.964 125.735 182.406 125.75 180.952 125.839C180.952 126.64 180.922 127.753 180.863 129.178C180.803 130.573 180.759 131.923 180.729 133.229C180.7 134.862 180.566 136.45 180.329 137.993C180.121 139.536 179.646 140.872 178.904 142C178.34 141.614 177.939 140.961 177.702 140.041C177.494 139.121 177.361 138.097 177.301 136.969C177.271 135.841 177.242 134.773 177.212 133.764C177.182 132.398 177.153 131.063 177.123 129.757C177.093 128.451 177.064 127.145 177.034 125.839C175.372 125.958 173.547 126.136 171.558 126.373C169.569 126.581 167.788 126.922 166.215 127.397C166.067 127.456 165.904 127.531 165.726 127.62C165.548 127.679 165.369 127.753 165.191 127.842C164.924 127.991 164.657 128.124 164.39 128.243C164.123 128.362 163.885 128.406 163.678 128.377C163.351 128.347 163.01 128.184 162.654 127.887C162.327 127.59 162.016 127.264 161.719 126.907C161.422 126.521 161.155 126.24 160.917 126.061C160.828 125.972 160.695 125.854 160.517 125.705C160.101 125.349 159.715 124.978 159.359 124.592C159.033 124.177 158.929 123.702 159.047 123.168C159.582 123.286 160.19 123.375 160.873 123.435C161.585 123.464 162.223 123.583 162.787 123.791C162.936 123.613 163.099 123.524 163.277 123.524C164.405 123.613 165.696 123.598 167.15 123.479C168.605 123.331 170.044 123.182 171.469 123.034C172.508 122.915 173.502 122.811 174.452 122.722C175.431 122.633 176.292 122.589 177.034 122.589C177.034 122.025 177.034 121.179 177.034 120.051C177.064 118.894 177.064 117.647 177.034 116.311C177.034 114.946 176.99 113.67 176.9 112.482C176.841 111.266 176.722 110.331 176.544 109.678C174.852 109.707 173.25 109.782 171.736 109.9C170.252 110.019 168.916 110.286 167.729 110.702C167.581 110.494 167.417 110.286 167.239 110.078C167.061 109.841 166.868 109.603 166.661 109.366C166.097 108.713 165.592 108.03 165.147 107.318C164.702 106.576 164.598 105.76 164.835 104.869C165.28 104.81 165.711 104.869 166.126 105.047C166.542 105.196 166.972 105.359 167.417 105.537C167.744 105.715 168.085 105.879 168.441 106.027C168.827 106.175 169.228 106.279 169.644 106.339C170.504 106.457 171.484 106.472 172.582 106.383C173.71 106.264 174.867 106.116 176.055 105.938C176.767 105.849 177.479 105.76 178.192 105.671C178.934 105.552 179.661 105.478 180.373 105.448C181.679 105.389 182.926 105.344 184.113 105.315C185.33 105.285 186.324 105.211 187.096 105.092C187.036 104.944 187.036 104.84 187.096 104.78C187.185 104.691 187.289 104.676 187.407 104.736C188.446 104.973 189.411 105.285 190.301 105.671C191.221 106.057 191.963 106.621 192.527 107.363C192.231 108.075 191.637 108.505 190.747 108.654C189.886 108.802 188.981 108.891 188.031 108.921C187.853 108.921 187.675 108.936 187.496 108.965C187.348 108.965 187.2 108.965 187.051 108.965C186.012 109.025 184.929 109.054 183.801 109.054C182.703 109.025 181.649 109.069 180.64 109.188C180.848 110.019 180.982 110.984 181.041 112.082C181.13 113.18 181.16 114.308 181.13 115.465C181.13 116.623 181.1 117.721 181.041 118.76C181.011 119.799 180.967 120.674 180.907 121.387C180.907 121.594 180.893 121.802 180.863 122.01C180.863 122.188 180.863 122.337 180.863 122.455C181.1 122.426 181.412 122.426 181.798 122.455C182.213 122.455 182.673 122.47 183.178 122.5C184.187 122.529 185.315 122.544 186.562 122.544C187.808 122.544 188.951 122.455 189.99 122.277C191.058 122.099 191.815 121.773 192.26 121.298C192.705 121.565 193.269 121.817 193.952 122.055C194.635 122.262 195.317 122.5 196 122.767C196.712 123.034 197.35 123.346 197.914 123.702C198.478 124.058 198.879 124.503 199.116 125.037ZM190.925 113.818C190.479 114.679 190.034 115.584 189.589 116.534C189.173 117.454 188.684 118.285 188.12 119.027C187.586 119.769 186.888 120.274 186.027 120.541C185.849 120.392 185.656 120.333 185.449 120.363C185.27 120.392 185.078 120.437 184.87 120.496C184.692 120.556 184.514 120.6 184.335 120.63C184.157 120.66 183.994 120.63 183.846 120.541C184.499 119.947 184.899 119.19 185.048 118.27C185.226 117.35 185.463 116.326 185.76 115.198C185.79 115.05 185.834 114.901 185.894 114.753C185.953 114.575 186.012 114.412 186.072 114.263C186.161 113.937 186.235 113.655 186.294 113.417C186.383 113.15 186.413 112.987 186.383 112.928C186.354 112.868 186.324 112.779 186.294 112.661C186.146 112.275 185.998 111.889 185.849 111.503C185.73 111.088 185.716 110.657 185.805 110.212C186.695 110.182 187.452 110.449 188.075 111.013C188.728 111.548 189.337 112.126 189.901 112.75C190.079 112.928 190.242 113.121 190.39 113.328C190.568 113.506 190.747 113.67 190.925 113.818ZM171.513 115.109C171.573 115.287 171.632 115.465 171.691 115.643C171.751 115.822 171.81 116 171.87 116.178C172.107 116.89 172.3 117.602 172.448 118.315C172.626 119.027 172.641 119.695 172.493 120.318C172.344 120.912 171.929 121.431 171.246 121.876C170.445 121.491 169.822 120.956 169.376 120.274C168.961 119.561 168.634 118.79 168.397 117.959C168.159 117.098 167.937 116.222 167.729 115.332C167.551 114.441 167.299 113.596 166.972 112.794C167.922 112.972 168.723 113.299 169.376 113.774C170.059 114.249 170.771 114.694 171.513 115.109Z" fill="black"/>
<path d="M244.662 125.75C244.543 126.314 244.305 126.759 243.949 127.085C243.623 127.412 243.267 127.709 242.881 127.976C242.495 128.243 242.139 128.599 241.812 129.044C241.278 129.786 240.922 130.632 240.744 131.582C240.595 132.532 240.462 133.526 240.343 134.565C240.224 135.574 239.957 136.583 239.542 137.592C239.601 137.919 239.764 138.127 240.031 138.216C240.299 138.334 240.506 138.513 240.655 138.75C240.061 139.433 239.319 139.774 238.429 139.774C237.538 139.774 236.648 139.7 235.757 139.551C235.461 139.492 235.179 139.447 234.911 139.418C234.644 139.388 234.377 139.358 234.11 139.329C233.368 139.299 232.582 139.299 231.75 139.329C230.949 139.388 230.133 139.447 229.302 139.507C229.183 139.507 229.05 139.507 228.901 139.507C228.782 139.536 228.649 139.551 228.5 139.551C227.402 139.611 226.423 139.67 225.562 139.729C224.701 139.789 223.915 139.922 223.202 140.13C222.52 140.338 221.822 140.694 221.11 141.199C219.567 140.486 218.439 139.358 217.726 137.815C218.35 136.895 218.632 135.841 218.572 134.654C218.543 133.467 218.439 132.339 218.261 131.27C218.201 130.914 218.142 130.573 218.082 130.246C218.053 129.92 218.038 129.608 218.038 129.311C217.118 128.659 216.42 128.02 215.945 127.397C215.5 126.744 215.011 126.061 214.476 125.349C215.812 124.845 217.415 124.518 219.285 124.37C221.184 124.192 223.158 124.013 225.206 123.835C225.859 123.776 226.527 123.746 227.209 123.746C227.922 123.746 228.634 123.746 229.346 123.746C230.355 123.746 231.335 123.732 232.285 123.702C233.235 123.672 234.066 123.568 234.778 123.39C235.045 123.331 235.282 123.197 235.49 122.989C235.728 122.782 235.98 122.604 236.247 122.455C238.058 122.663 239.616 123.004 240.922 123.479C242.228 123.924 243.474 124.681 244.662 125.75ZM244.751 121.431C244.484 121.402 244.231 121.402 243.994 121.431C243.786 121.461 243.563 121.491 243.326 121.52C243.089 121.58 242.807 121.624 242.48 121.654C242.183 121.684 241.827 121.669 241.412 121.609C241.293 121.372 241.1 121.194 240.833 121.075C240.566 120.956 240.388 120.749 240.299 120.452C237.598 120.214 234.778 120.155 231.84 120.274C228.901 120.392 225.978 120.645 223.069 121.031C220.19 121.387 217.459 121.832 214.877 122.366C213.987 122.247 213.304 121.951 212.829 121.476C212.384 120.971 211.968 120.437 211.582 119.873C211.197 119.309 210.647 118.834 209.935 118.448C210.321 118.211 210.722 118.092 211.137 118.092C211.553 118.092 211.983 118.122 212.428 118.181C212.963 118.241 213.497 118.27 214.031 118.27C214.565 118.241 215.114 118.018 215.678 117.602C217.34 115.94 218.943 114.308 220.487 112.705C222.03 111.073 223.351 109.218 224.449 107.14C224.36 106.873 224.212 106.621 224.004 106.383C223.796 106.146 223.588 105.923 223.381 105.715C223.143 105.508 222.935 105.3 222.757 105.092C222.609 104.884 222.549 104.691 222.579 104.513C222.728 104.127 222.935 103.949 223.202 103.979C223.499 103.979 223.796 104.038 224.093 104.157C224.212 104.187 224.33 104.231 224.449 104.291C224.597 104.32 224.731 104.335 224.85 104.335C225.057 104.335 225.25 104.32 225.428 104.291C225.636 104.231 225.829 104.172 226.007 104.113C226.185 104.053 226.363 104.009 226.542 103.979C226.72 103.92 226.868 103.92 226.987 103.979C227.818 104.276 228.53 104.602 229.124 104.958C229.747 105.285 230.207 105.834 230.504 106.606C230.326 107.081 230.088 107.511 229.792 107.897C229.495 108.283 229.094 108.565 228.589 108.743C228.619 108.861 228.604 108.936 228.545 108.965C228.486 108.995 228.441 109.04 228.411 109.099C228.382 109.129 228.397 109.247 228.456 109.455C227.061 110.82 225.666 112.215 224.271 113.64C222.876 115.035 221.54 116.475 220.264 117.959C222.638 117.988 224.968 117.914 227.254 117.736C229.539 117.558 231.899 117.35 234.333 117.113C234.926 117.053 235.52 116.994 236.114 116.935C236.737 116.875 237.36 116.816 237.983 116.757C237.776 115.718 237.345 114.783 236.692 113.952C236.069 113.091 235.372 112.275 234.6 111.503C233.858 110.702 233.175 109.9 232.552 109.099C234.392 109.425 236.114 110.093 237.716 111.102C239.319 112.111 240.759 113.18 242.035 114.308C242.154 114.545 242.287 114.812 242.436 115.109C242.584 115.376 242.747 115.658 242.925 115.955C243.4 116.727 243.845 117.573 244.261 118.493C244.706 119.383 244.869 120.363 244.751 121.431ZM235.757 136.034C236.084 134.699 236.203 133.259 236.114 131.716C236.054 130.143 235.965 128.792 235.846 127.664C235.817 127.367 235.787 127.1 235.757 126.863C235.728 126.625 235.713 126.403 235.713 126.195C235.297 125.839 234.615 125.676 233.665 125.705C232.715 125.705 231.795 125.735 230.905 125.794C230.697 125.824 230.534 125.839 230.415 125.839C228.723 125.958 227.12 126.106 225.607 126.284C224.093 126.432 222.713 126.774 221.466 127.308C221.496 129.059 221.629 130.692 221.867 132.205C222.104 133.719 222.238 135.262 222.267 136.836C224.434 137.103 226.66 137.177 228.946 137.058C231.261 136.939 233.531 136.598 235.757 136.034Z" fill="black"/>
<path d="M297.419 137.37C297.36 137.548 297.286 137.696 297.197 137.815C297.137 137.934 297.078 138.023 297.018 138.082C296.929 138.201 296.855 138.305 296.796 138.394C296.766 138.513 296.781 138.705 296.84 138.973C296.484 139.091 296.143 139.21 295.816 139.329C295.49 139.477 295.267 139.729 295.149 140.086C294.733 140.145 294.303 140.219 293.857 140.308C293.412 140.397 292.982 140.501 292.566 140.62C291.557 140.828 290.548 141.006 289.539 141.154C288.53 141.332 287.565 141.303 286.645 141.065C286.348 140.976 286.081 140.857 285.844 140.709C285.606 140.56 285.384 140.397 285.176 140.219C284.879 140.011 284.597 139.818 284.33 139.64C284.063 139.492 283.736 139.433 283.35 139.462C283.172 139.373 282.994 139.269 282.816 139.151C282.638 139.062 282.46 138.958 282.282 138.839C281.095 138.156 279.789 137.459 278.364 136.747C276.969 136.004 275.515 135.411 274.001 134.966C272.487 134.52 270.988 134.357 269.504 134.476C268.02 134.595 266.625 135.173 265.319 136.212C263.924 136.183 262.782 135.678 261.891 134.699C261.001 133.689 260.274 132.591 259.71 131.404C260.185 131.345 260.645 131.359 261.09 131.448C261.565 131.538 262.04 131.627 262.515 131.716C263.286 131.923 264.058 132.057 264.83 132.116C265.631 132.176 266.447 131.938 267.278 131.404C267.189 130.484 266.922 129.757 266.477 129.222C266.061 128.688 265.572 128.228 265.008 127.842C264.444 127.456 263.895 127.056 263.36 126.64C262.826 126.195 262.411 125.631 262.114 124.948C262.381 123.88 262.782 122.96 263.316 122.188C263.85 121.416 264.31 120.57 264.696 119.65C263.954 119.591 263.108 119.68 262.158 119.918C261.209 120.155 260.437 120.481 259.843 120.897C259.012 120.422 258.27 119.784 257.617 118.983C256.964 118.152 256.593 117.246 256.504 116.267C256.949 116.267 257.38 116.311 257.795 116.4C258.211 116.46 258.626 116.549 259.042 116.667C259.873 116.846 260.749 116.979 261.669 117.068C262.589 117.157 263.598 116.935 264.696 116.4C264.815 116.341 264.889 116.222 264.919 116.044C264.948 115.866 264.978 115.718 265.008 115.599C265.72 115.599 266.418 115.673 267.1 115.822C267.783 115.94 268.347 116.237 268.792 116.712C269.237 117.157 269.43 117.855 269.371 118.804C268.629 119.19 268.035 119.754 267.59 120.496C267.174 121.238 266.714 122.025 266.21 122.856C266.15 122.945 266.091 123.034 266.032 123.123C266.002 123.212 265.943 123.301 265.854 123.39C265.676 123.687 265.497 123.984 265.319 124.281C265.171 124.548 265.112 124.77 265.141 124.948C265.171 125.334 265.438 125.75 265.943 126.195C266.447 126.64 267.026 127.115 267.679 127.62C268.332 128.095 268.896 128.644 269.371 129.267C269.875 129.861 270.143 130.514 270.172 131.226C271.27 131.226 272.383 131.448 273.511 131.894C274.639 132.339 275.782 132.799 276.939 133.274C278.097 133.749 279.269 134.031 280.457 134.12C280.041 133.289 279.804 132.398 279.744 131.448C279.685 130.469 279.626 129.49 279.566 128.51C278.913 128.688 278.201 128.777 277.429 128.777C276.657 128.777 275.901 128.896 275.159 129.133C274.921 129.193 274.684 129.311 274.446 129.49C274.238 129.638 274.016 129.727 273.778 129.757C272.799 129.875 271.879 129.697 271.018 129.222C270.187 128.718 269.4 128.198 268.658 127.664C268.569 127.605 268.51 127.56 268.48 127.531C270.202 127.026 271.968 126.744 273.778 126.685C275.589 126.596 277.459 126.447 279.388 126.24C279.507 126.15 279.566 126.002 279.566 125.794C279.566 125.587 279.566 125.379 279.566 125.171C279.566 125.023 279.551 124.889 279.522 124.77C279.522 124.652 279.536 124.548 279.566 124.459C278.765 124.37 278.038 124.459 277.385 124.726C276.732 124.963 276.242 125.245 275.915 125.572C274.966 125.305 274.313 124.8 273.956 124.058C273.63 123.316 273.467 122.455 273.467 121.476C273.467 120.496 273.511 119.517 273.6 118.537C273.6 118.389 273.6 118.255 273.6 118.137C273.63 117.988 273.645 117.84 273.645 117.691C272.992 117.276 272.517 116.935 272.22 116.667C271.953 116.4 271.775 115.94 271.686 115.287C271.894 115.05 272.339 114.872 273.022 114.753C273.704 114.634 274.446 114.516 275.248 114.397C276.049 114.308 276.821 114.204 277.563 114.085C278.305 113.937 278.854 113.744 279.21 113.506C279.596 113.239 279.655 112.868 279.388 112.393C277.934 112.779 276.687 112.764 275.648 112.349C274.609 111.904 273.689 111.325 272.888 110.613C273.096 110.464 273.348 110.375 273.645 110.345C273.942 110.286 274.135 110.108 274.224 109.811C274.966 110.019 275.812 110.123 276.761 110.123C277.711 110.093 278.483 109.885 279.076 109.5C279.106 109.203 279.076 108.936 278.987 108.698C278.898 108.461 278.809 108.253 278.72 108.075C278.572 107.837 278.468 107.615 278.409 107.407C278.379 107.199 278.453 106.977 278.631 106.739C277.533 106.769 276.465 106.932 275.426 107.229C274.387 107.496 273.482 107.927 272.71 108.52C272.621 108.936 272.517 109.351 272.398 109.767C272.309 110.153 272.22 110.538 272.131 110.924C271.864 111.993 271.627 113.046 271.419 114.085C271.211 115.094 271.137 116.089 271.196 117.068C270.128 116.712 269.267 116.282 268.614 115.777C267.961 115.272 267.456 114.516 267.1 113.506C267.456 113.002 267.842 112.542 268.258 112.126C268.673 111.681 269.044 111.206 269.371 110.702C269.727 110.167 269.935 109.5 269.994 108.698C269.816 108.698 269.638 108.639 269.46 108.52C269.311 108.372 269.148 108.194 268.97 107.986C268.822 107.837 268.673 107.704 268.525 107.585C268.377 107.437 268.213 107.318 268.035 107.229C267.976 106.932 267.946 106.724 267.946 106.606C267.946 106.457 267.961 106.294 267.991 106.116C267.991 106.027 267.991 105.938 267.991 105.849C268.02 105.73 268.035 105.597 268.035 105.448C268.273 105.448 268.466 105.493 268.614 105.582C268.762 105.641 268.926 105.7 269.104 105.76C269.816 105.522 270.647 105.359 271.597 105.27C272.576 105.151 273.585 105.047 274.624 104.958C275.693 104.869 276.732 104.706 277.741 104.469C277.77 104.558 277.889 104.602 278.097 104.602C278.216 104.602 278.32 104.617 278.409 104.647C278.498 104.676 278.527 104.78 278.498 104.958C279.447 104.573 280.546 104.365 281.792 104.335C283.068 104.276 284.374 104.261 285.71 104.291C286.215 104.32 286.719 104.335 287.224 104.335C287.758 104.335 288.277 104.335 288.782 104.335C288.752 104.246 288.782 104.157 288.871 104.068C288.93 103.979 288.96 103.905 288.96 103.845C289.554 103.845 290.222 103.949 290.964 104.157C291.735 104.335 292.433 104.632 293.056 105.047C293.709 105.463 294.154 106.027 294.392 106.739C294.362 106.888 294.258 106.947 294.08 106.917C293.932 106.888 293.828 106.932 293.768 107.051C293.798 107.081 293.843 107.14 293.902 107.229C294.288 107.615 294.599 108.03 294.837 108.476C295.104 108.891 295.163 109.44 295.015 110.123C294.956 110.39 294.733 110.806 294.347 111.369C293.961 111.933 293.486 112.438 292.922 112.883C292.388 113.328 291.869 113.536 291.364 113.506C291.038 113.477 290.756 113.358 290.518 113.15C290.281 112.943 290.058 112.72 289.851 112.482C289.583 112.156 289.287 111.874 288.96 111.637C288.634 111.399 288.218 111.325 287.714 111.414C288.129 110.642 288.619 110.049 289.183 109.633C289.747 109.188 290.177 108.594 290.474 107.852C290.474 107.674 290.429 107.555 290.34 107.496C290.281 107.407 290.192 107.333 290.073 107.274C289.984 107.214 289.895 107.14 289.806 107.051C289.717 106.962 289.687 106.813 289.717 106.606C288.174 106.339 286.779 106.235 285.532 106.294C284.285 106.324 282.979 106.398 281.614 106.517C281.406 106.517 281.184 106.532 280.946 106.561C280.739 106.561 280.531 106.576 280.323 106.606C280.501 107.14 280.946 107.407 281.659 107.407C281.659 107.704 281.688 107.956 281.748 108.164C281.837 108.342 281.941 108.505 282.059 108.654C282.119 108.802 282.178 108.936 282.237 109.054C282.326 109.173 282.386 109.321 282.416 109.5C283.217 109.143 283.974 109.143 284.686 109.5C285.428 109.826 286.155 110.242 286.868 110.746C286.986 110.835 287.075 110.895 287.135 110.924C286.897 111.488 286.497 111.815 285.933 111.904C285.369 111.963 284.79 111.978 284.196 111.948C283.573 111.919 283.039 111.948 282.594 112.037C282.178 112.126 282.015 112.512 282.104 113.195C282.519 113.254 282.965 113.299 283.439 113.328C283.914 113.328 284.389 113.328 284.864 113.328C285.873 113.328 286.853 113.373 287.803 113.462C288.752 113.551 289.569 113.833 290.251 114.308C290.964 114.753 291.438 115.51 291.676 116.578C291.468 116.757 291.246 116.86 291.008 116.89C290.8 116.92 290.593 116.935 290.385 116.935C290.207 116.935 290.029 116.949 289.851 116.979C289.702 116.979 289.554 117.009 289.405 117.068C289.198 117.691 289.019 118.448 288.871 119.339C288.752 120.229 288.604 121.134 288.426 122.055C288.277 122.975 288.04 123.776 287.714 124.459C287.476 124.459 287.239 124.444 287.001 124.414C286.764 124.355 286.526 124.31 286.289 124.281C285.755 124.162 285.176 124.073 284.553 124.013C283.959 123.954 283.306 123.999 282.594 124.147C282.416 124.355 282.312 124.681 282.282 125.126C282.252 125.542 282.297 125.809 282.416 125.928C282.416 125.928 282.608 125.943 282.994 125.972C283.41 126.002 283.9 126.032 284.463 126.061C285.057 126.091 285.621 126.106 286.155 126.106C286.69 126.076 287.105 126.017 287.402 125.928C287.491 125.898 287.624 125.839 287.803 125.75C288.04 125.661 288.292 125.572 288.559 125.483C288.827 125.394 289.109 125.379 289.405 125.438C289.91 125.498 290.325 125.676 290.652 125.972C290.978 126.24 291.26 126.432 291.498 126.551C291.854 126.7 292.24 126.818 292.655 126.907C293.071 126.996 293.353 127.308 293.501 127.842C292.878 128.317 292.121 128.555 291.231 128.555C290.34 128.525 289.405 128.451 288.426 128.332C287.417 128.213 286.378 128.154 285.309 128.154C284.241 128.124 283.232 128.347 282.282 128.822C282.312 129.386 282.312 130.053 282.282 130.825C282.282 131.597 282.193 132.309 282.015 132.962C281.866 133.615 281.555 134.06 281.08 134.298C282.059 134.595 283.098 134.788 284.196 134.877C285.324 134.966 286.452 135.025 287.58 135.055C289.331 135.114 291.067 135.262 292.789 135.5C294.51 135.708 296.054 136.331 297.419 137.37ZM264.563 109.01C264.889 109.277 265.171 109.633 265.408 110.078C265.676 110.494 265.839 110.924 265.898 111.369C265.987 111.815 265.898 112.186 265.631 112.482C265.394 112.779 264.934 112.913 264.251 112.883C263.45 112.854 262.767 112.497 262.203 111.815C261.639 111.132 261.164 110.36 260.778 109.5C260.422 108.609 260.11 107.852 259.843 107.229C260.467 107.318 261.253 107.511 262.203 107.808C263.153 108.075 263.939 108.476 264.563 109.01ZM285.755 115.599C284.716 115.065 283.558 115.005 282.282 115.421C282.252 115.747 282.237 116.015 282.237 116.222C282.237 116.43 282.237 116.653 282.237 116.89C282.267 117.009 282.282 117.157 282.282 117.335C282.282 117.484 282.282 117.662 282.282 117.87C282.965 118.107 283.499 118.344 283.885 118.582C284.271 118.819 284.79 119.012 285.443 119.161C285.621 118.567 285.725 117.988 285.755 117.424C285.814 116.86 285.814 116.252 285.755 115.599ZM279.566 118.181C279.596 117.914 279.596 117.662 279.566 117.424C279.566 117.187 279.551 116.979 279.522 116.801C279.492 116.564 279.477 116.371 279.477 116.222C279.477 116.044 279.507 115.896 279.566 115.777C279.121 115.688 278.602 115.718 278.008 115.866C277.414 116.015 276.895 116.163 276.45 116.311C276.331 116.371 276.257 116.4 276.227 116.4C276.257 116.549 276.272 116.697 276.272 116.846C276.272 116.994 276.272 117.128 276.272 117.246C276.242 117.454 276.227 117.662 276.227 117.87C276.227 118.048 276.272 118.255 276.361 118.493C276.954 118.523 277.518 118.508 278.052 118.448C278.587 118.389 279.091 118.3 279.566 118.181ZM279.566 122.366C279.626 122.04 279.655 121.728 279.655 121.431C279.655 121.134 279.626 120.749 279.566 120.274C279.507 120.274 279.433 120.289 279.344 120.318C278.809 120.378 278.349 120.422 277.963 120.452C277.607 120.481 277.117 120.481 276.494 120.452C276.465 120.689 276.45 120.882 276.45 121.031C276.45 121.179 276.45 121.298 276.45 121.387C276.45 121.535 276.45 121.684 276.45 121.832C276.45 121.951 276.42 122.129 276.361 122.366C276.717 122.485 277.058 122.544 277.385 122.544C277.711 122.515 278.038 122.485 278.364 122.455C278.572 122.426 278.765 122.396 278.943 122.366C279.151 122.337 279.358 122.337 279.566 122.366ZM285.131 119.65C284.716 119.828 284.211 119.918 283.618 119.918C283.054 119.918 282.608 120.036 282.282 120.274C282.252 120.719 282.237 121.016 282.237 121.164C282.237 121.313 282.252 121.609 282.282 122.055C282.401 122.055 282.519 122.069 282.638 122.099C282.787 122.099 282.92 122.099 283.039 122.099C283.336 122.099 283.632 122.114 283.929 122.144C284.226 122.173 284.538 122.247 284.864 122.366C284.864 122.247 284.879 122.114 284.909 121.965C284.938 121.817 284.983 121.669 285.042 121.52C285.102 121.223 285.146 120.927 285.176 120.63C285.235 120.303 285.22 119.977 285.131 119.65Z" fill="black"/>
<path d="M346.214 123.657C347.223 125.587 346.956 127.16 345.413 128.377C344.493 128.495 343.706 128.555 343.053 128.555C342.43 128.525 341.747 128.317 341.005 127.931C339.996 127.367 339.002 126.566 338.022 125.527C337.043 124.488 336.227 123.286 335.574 121.921C334.95 120.615 334.565 119.22 334.416 117.736C334.268 116.222 334.476 114.694 335.039 113.15C334.535 113.002 334.119 113.017 333.793 113.195C333.496 113.343 333.259 113.581 333.081 113.907C332.873 114.293 332.724 114.753 332.635 115.287C332.546 115.792 332.442 116.296 332.324 116.801C332.235 117.276 332.057 117.677 331.789 118.003C331.849 118.152 331.938 118.315 332.057 118.493C332.205 118.671 332.353 118.879 332.502 119.116C332.799 119.532 333.095 119.977 333.392 120.452C333.689 120.927 333.882 121.372 333.971 121.787C334.09 122.203 334.001 122.515 333.704 122.722C333.437 122.93 333.051 122.945 332.546 122.767C332.042 122.559 331.552 122.292 331.077 121.965C330.602 121.639 330.246 121.372 330.009 121.164C329.652 121.609 329.341 122.114 329.074 122.678C328.807 123.212 328.495 123.717 328.139 124.192C327.812 124.637 327.352 124.978 326.759 125.216C326.462 125.156 326.254 125.008 326.135 124.77C326.046 124.533 325.868 124.37 325.601 124.281C325.542 124.488 325.556 124.711 325.645 124.948C325.735 125.156 325.838 125.364 325.957 125.572C326.076 125.779 326.18 125.972 326.269 126.15C326.358 126.329 326.358 126.492 326.269 126.64C327.783 126.64 329.059 126.507 330.098 126.24C331.136 125.972 332.131 125.527 333.081 124.904C333.823 125.141 334.55 125.468 335.262 125.883C335.974 126.299 336.657 126.551 337.31 126.64C337.221 126.818 337.236 126.967 337.355 127.085C337.503 127.174 337.681 127.264 337.889 127.353C338.156 127.471 338.408 127.635 338.646 127.842C338.913 128.05 339.002 128.391 338.913 128.866C338.438 129.074 337.904 129.237 337.31 129.356C336.716 129.445 336.123 129.534 335.529 129.623C335.589 130.365 335.574 131.3 335.485 132.428C335.396 133.526 335.232 134.669 334.995 135.856C334.757 137.014 334.416 138.067 333.971 139.017C333.555 139.937 333.021 140.65 332.368 141.154C331.745 141.688 331.003 141.837 330.142 141.599C329.163 141.303 328.287 140.813 327.515 140.13C326.773 139.477 326.091 138.75 325.467 137.949C324.874 137.147 324.325 136.375 323.82 135.633C324.325 135.752 324.978 135.96 325.779 136.257C326.58 136.524 327.367 136.687 328.139 136.747C328.732 136.776 329.281 136.702 329.786 136.524C330.32 136.346 330.706 135.93 330.944 135.277C330.944 134.773 330.958 134.313 330.988 133.897C331.018 133.452 331.047 133.036 331.077 132.651C331.136 131.968 331.166 131.33 331.166 130.736C331.196 130.143 331.122 129.519 330.944 128.866C330.795 128.896 330.691 128.837 330.632 128.688C330.276 128.777 329.89 128.837 329.474 128.866C329.088 128.866 328.688 128.866 328.272 128.866C327.56 128.866 326.907 128.911 326.313 129C325.72 129.059 325.319 129.326 325.111 129.801C324.636 130.81 324.161 131.953 323.687 133.229C323.241 134.506 322.633 135.663 321.861 136.702C321.653 136.999 321.431 137.296 321.193 137.592C320.986 137.889 320.733 138.231 320.437 138.616C320.347 138.616 320.244 138.631 320.125 138.661C320.036 138.72 319.917 138.854 319.769 139.062C319.531 139.447 319.353 139.67 319.234 139.729C319.145 139.818 318.938 140.071 318.611 140.486C318.552 140.457 318.522 140.368 318.522 140.219C318.552 140.13 318.567 140.041 318.567 139.952C318.567 139.863 318.537 139.774 318.478 139.685C318.359 139.804 318.24 139.922 318.121 140.041C318.003 140.189 317.899 140.338 317.81 140.486C318.018 140.605 318.018 140.739 317.81 140.887C317.602 141.035 317.394 141.169 317.186 141.288C317.216 141.11 317.157 140.991 317.008 140.931C316.89 140.902 316.83 140.813 316.83 140.664C316.474 140.724 316.252 140.931 316.163 141.288C315.955 141.466 315.747 141.54 315.539 141.51C315.361 141.51 315.153 141.466 314.916 141.377C314.797 141.317 314.678 141.273 314.56 141.243C314.471 141.213 314.352 141.184 314.204 141.154C314.352 141.065 314.515 140.902 314.693 140.664C314.871 140.457 315.049 140.234 315.228 139.997C315.495 139.64 315.747 139.329 315.984 139.062C316.252 138.794 316.43 138.75 316.519 138.928C316.845 138.305 317.112 137.815 317.32 137.459C317.557 137.103 317.825 136.717 318.121 136.301C318.448 135.856 318.878 135.248 319.413 134.476C319.294 134.417 319.279 134.298 319.368 134.12C319.457 133.912 319.591 133.882 319.769 134.031C320.006 133.853 320.036 133.734 319.858 133.675C319.68 133.615 319.591 133.586 319.591 133.586C319.709 133.467 319.813 133.363 319.902 133.274C320.021 133.185 320.199 133.125 320.437 133.096C320.318 132.829 320.288 132.621 320.347 132.472C320.407 132.294 320.496 132.116 320.615 131.938C320.733 131.76 320.837 131.567 320.926 131.359C321.045 131.122 321.09 130.81 321.06 130.425C320.169 130.514 319.249 130.514 318.3 130.425C317.35 130.335 316.519 130.083 315.806 129.668C315.124 129.252 314.664 128.614 314.426 127.753C315.406 127.486 316.504 127.367 317.721 127.397C318.967 127.397 320.244 127.308 321.55 127.13C321.787 126.892 321.98 126.625 322.128 126.329C322.306 126.002 322.381 125.587 322.351 125.082C321.431 125.23 320.362 125.364 319.145 125.483C317.958 125.601 316.786 125.735 315.628 125.883C314.471 126.032 313.476 126.24 312.645 126.507C311.785 126.774 310.909 126.655 310.019 126.15C309.158 125.646 308.46 125.023 307.926 124.281C308.609 123.984 309.38 123.806 310.241 123.746C311.102 123.657 312.007 123.598 312.957 123.568C313.491 123.539 314.04 123.509 314.604 123.479C315.198 123.45 315.777 123.405 316.341 123.346C316.519 123.197 316.578 122.915 316.519 122.5C316.459 122.084 316.4 121.787 316.341 121.609C315.331 121.906 314.456 121.876 313.714 121.52C312.972 121.164 312.304 120.778 311.71 120.363C311.621 120.274 311.547 120.214 311.488 120.185C311.013 120.541 310.508 120.882 309.974 121.209C309.469 121.505 308.891 121.743 308.238 121.921C308.178 121.891 308.104 121.832 308.015 121.743C307.748 121.565 307.496 121.372 307.258 121.164C307.051 120.927 307.051 120.719 307.258 120.541C308.356 119.977 309.277 119.265 310.019 118.404C310.79 117.543 311.503 116.623 312.156 115.643C312.156 115.584 312.052 115.554 311.844 115.554C311.725 115.554 311.607 115.54 311.488 115.51C311.369 115.451 311.31 115.332 311.31 115.154C311.31 115.154 311.25 115.243 311.132 115.421C311.013 115.599 310.924 115.777 310.865 115.955C310.122 115.925 309.425 115.747 308.772 115.421C308.149 115.094 307.659 114.679 307.303 114.174C306.947 113.67 306.828 113.165 306.947 112.661C308.253 112.779 309.751 112.779 311.443 112.661C313.165 112.542 315.079 112.379 317.186 112.171V111.102C316.83 111.132 316.444 111.147 316.029 111.147C315.643 111.147 315.242 111.147 314.827 111.147C314.619 111.117 314.411 111.102 314.204 111.102C313.996 111.102 313.788 111.102 313.58 111.102C312.749 110.687 312.111 110.138 311.666 109.455C311.221 108.743 310.835 108.03 310.508 107.318C311.191 107.021 311.799 106.947 312.334 107.095C312.868 107.244 313.373 107.437 313.847 107.674C314.352 107.912 314.871 108.105 315.406 108.253C315.94 108.372 316.534 108.268 317.186 107.941C317.335 107.199 317.305 106.591 317.097 106.116C316.89 105.641 316.652 105.211 316.385 104.825C316.118 104.439 315.895 104.038 315.717 103.623C315.539 103.207 315.539 102.703 315.717 102.109C316.43 101.901 317.142 101.99 317.854 102.376C318.567 102.732 319.22 103.237 319.813 103.89C320.437 104.543 320.911 105.211 321.238 105.893C320.971 106.19 320.837 106.442 320.837 106.65C320.837 106.858 320.704 107.081 320.437 107.318C320.763 107.526 321.149 107.526 321.594 107.318C322.039 107.11 322.351 106.903 322.529 106.695C323.419 106.992 324.236 107.348 324.978 107.763C325.749 108.179 326.284 108.817 326.58 109.678C325.72 109.915 324.77 110.019 323.731 109.989C322.692 109.93 321.535 110.034 320.258 110.301C320.11 110.331 320.021 110.42 319.991 110.568C319.962 110.716 319.932 110.88 319.902 111.058C319.902 111.206 319.887 111.34 319.858 111.459C319.858 111.577 319.828 111.666 319.769 111.726C320.125 111.844 320.511 111.889 320.926 111.859C321.371 111.83 321.817 111.77 322.262 111.681C322.41 111.681 322.544 111.681 322.663 111.681C322.811 111.651 322.945 111.622 323.063 111.592C323.568 111.533 324.058 111.533 324.532 111.592C325.007 111.651 325.423 111.844 325.779 112.171C325.898 111.637 326.18 111.34 326.625 111.28C327.1 111.191 327.619 111.162 328.183 111.191C328.51 111.221 328.836 111.236 329.163 111.236C329.519 111.236 329.845 111.191 330.142 111.102C330.439 110.301 330.543 109.589 330.454 108.965C330.394 108.342 330.246 107.763 330.009 107.229C329.89 106.992 329.771 106.754 329.652 106.517C329.534 106.279 329.4 106.042 329.252 105.804C328.955 105.3 328.703 104.81 328.495 104.335C328.287 103.831 328.243 103.296 328.361 102.732C329.311 102.732 330.038 102.821 330.543 102.999C331.047 103.178 331.507 103.371 331.923 103.578C332.368 103.786 332.917 103.979 333.57 104.157C333.511 104.335 333.526 104.513 333.615 104.691C333.734 104.84 333.852 105.003 333.971 105.181C334.119 105.329 334.238 105.493 334.327 105.671C334.446 105.819 334.52 105.997 334.55 106.205C334.253 106.591 334.045 107.081 333.926 107.674C333.837 108.238 333.763 108.802 333.704 109.366C333.674 109.93 333.57 110.405 333.392 110.791C333.719 110.82 334.015 110.82 334.283 110.791C334.55 110.731 334.817 110.687 335.084 110.657C335.203 110.627 335.292 110.613 335.351 110.613C335.47 110.494 335.544 110.331 335.574 110.123C335.603 109.915 335.633 109.707 335.663 109.5C336.434 109.381 337.34 109.425 338.379 109.633C339.417 109.811 340.308 110.123 341.05 110.568C341.554 110.865 341.925 111.236 342.163 111.681C342.43 112.097 342.489 112.586 342.341 113.15C340.53 113.15 339.224 113.655 338.423 114.664C337.622 115.643 337.236 116.786 337.266 118.092C337.295 118.953 337.473 119.814 337.8 120.674C338.156 121.535 338.631 122.292 339.224 122.945C339.848 123.568 340.56 124.013 341.361 124.281C341.718 124.251 341.94 124.103 342.029 123.835C342.118 123.539 342.326 123.375 342.653 123.346C342.742 122.693 342.727 122.04 342.608 121.387C342.489 120.704 342.356 120.125 342.207 119.65C342.059 119.176 341.985 118.938 341.985 118.938C342.667 119.739 343.306 120.585 343.899 121.476C344.522 122.366 345.294 123.093 346.214 123.657ZM329.519 113.907C329.014 113.788 328.584 113.699 328.228 113.64C327.872 113.551 327.486 113.492 327.07 113.462C326.951 113.759 326.773 113.967 326.536 114.085C326.298 114.174 326.017 114.219 325.69 114.219C325.512 114.219 325.334 114.219 325.156 114.219C325.007 114.189 324.829 114.159 324.622 114.13C324.295 114.07 323.969 114.041 323.642 114.041C323.316 114.011 323.048 114.07 322.841 114.219C323.434 114.397 324.058 114.768 324.711 115.332C325.393 115.896 325.868 116.519 326.135 117.202C326.343 117.677 326.373 118.166 326.224 118.671C326.106 119.146 325.735 119.547 325.111 119.873C324.34 119.398 323.701 118.864 323.197 118.27C322.722 117.647 322.247 117.009 321.772 116.356C321.297 115.703 320.689 115.094 319.947 114.53C319.68 114.62 319.368 114.664 319.012 114.664C318.656 114.664 318.27 114.649 317.854 114.62C317.706 114.62 317.558 114.62 317.409 114.62C317.29 114.62 317.157 114.62 317.008 114.62C316.534 114.62 316.118 114.664 315.762 114.753C315.435 114.812 315.257 115.005 315.228 115.332C315.732 115.065 316.326 115.035 317.008 115.243C317.602 115.391 318.166 115.673 318.7 116.089C319.234 116.504 319.65 116.935 319.947 117.38C319.798 117.499 319.695 117.736 319.635 118.092C319.605 118.448 319.591 118.626 319.591 118.626C320.155 118.241 320.704 118.137 321.238 118.315C321.772 118.463 322.262 118.745 322.707 119.161C323.182 119.576 323.553 119.977 323.82 120.363C323.612 120.689 323.271 120.882 322.796 120.942C322.321 121.001 321.817 121.031 321.282 121.031C320.926 121.06 320.57 121.09 320.214 121.12C319.858 121.12 319.546 121.179 319.279 121.298C319.249 121.624 319.205 121.951 319.145 122.277C319.086 122.574 319.027 122.886 318.967 123.212C319.175 123.153 319.383 123.123 319.591 123.123C319.828 123.123 320.051 123.138 320.258 123.168C320.585 123.197 320.867 123.197 321.104 123.168C321.371 123.138 321.579 122.989 321.728 122.722C321.995 122.722 322.262 122.782 322.529 122.9C322.796 122.989 323.063 123.108 323.33 123.257C323.805 123.464 324.251 123.628 324.666 123.746C325.082 123.835 325.453 123.702 325.779 123.346C326.195 122.871 326.566 122.233 326.892 121.431C327.248 120.63 327.53 119.903 327.738 119.25C327.649 119.012 327.426 118.76 327.07 118.493C326.714 118.226 326.491 117.855 326.402 117.38C326.462 117.083 326.759 116.92 327.293 116.89C327.857 116.86 328.272 116.92 328.539 117.068C328.925 116.564 329.163 116.059 329.252 115.554C329.37 115.02 329.459 114.471 329.519 113.907ZM316.519 118.804C316.43 118.419 316.355 118.048 316.296 117.691C316.237 117.306 315.984 116.994 315.539 116.757C315.124 117.083 314.708 117.424 314.293 117.781C313.907 118.107 313.565 118.493 313.269 118.938C313.684 119.057 314.248 119.116 314.96 119.116C315.673 119.116 316.192 119.012 316.519 118.804Z" fill="black"/>
<path d="M293.699 384.768C293.624 386.215 293.367 386.954 292.945 386.999C292.508 387.029 291.634 386.516 290.338 385.431C288.244 383.909 286.345 382.357 284.642 380.76C282.939 379.162 281.372 377.414 279.925 375.5C278.478 373.587 277.137 371.432 275.917 369.051C274.696 366.67 273.535 363.957 272.45 360.913C271.004 362.36 269.542 363.565 268.05 364.545C266.558 365.524 264.78 366.594 262.685 367.74C262.896 368.026 263.002 368.282 263.002 368.493C263.002 368.704 262.746 368.945 262.248 369.201C261.736 369.457 260.907 369.699 259.747 369.955C258.586 370.211 256.959 370.512 254.864 370.874C252.483 371.311 250.449 371.718 248.791 372.125C247.133 372.517 245.415 373.014 243.637 373.587C241.859 374.159 239.824 374.883 237.504 375.757C235.183 376.631 232.154 377.821 228.386 379.343C226.005 380.217 224.167 380.594 222.901 380.489C221.635 380.383 220.249 379.675 218.727 378.379C217.566 377.444 216.978 376.646 216.933 375.998C216.903 375.35 217.174 375.094 217.747 375.244C218.621 375.395 219.932 375.229 221.71 374.762C223.489 374.295 226.292 373.33 230.119 371.884C229.969 371.522 229.863 370.889 229.788 369.985C229.712 369.081 229.637 368.192 229.577 367.333C228.341 368.493 227.301 369.412 226.427 370.105C225.553 370.799 224.83 371.296 224.257 371.628C223.685 371.959 223.172 372.095 222.735 372.065C222.298 372.034 221.861 371.899 221.439 371.688C220.429 371.175 219.646 370.693 219.103 370.226C218.561 369.759 218.274 369.171 218.229 368.493C218.199 367.8 218.425 366.941 218.938 365.886C219.45 364.846 220.234 363.445 221.319 361.712C220.158 361.064 219.39 360.566 218.983 360.25C218.591 359.918 218.139 359.466 217.626 358.894C217.189 358.456 217.159 358.05 217.521 357.643C217.883 357.251 218.395 357.115 219.043 357.266C219.405 357.341 219.766 357.296 220.128 357.16C220.49 357.01 221.183 356.618 222.193 355.97C223.353 355.247 224.393 354.87 225.342 354.825C226.277 354.795 227.588 355.201 229.245 356.075V353.529C229.245 352.7 229.275 351.886 229.351 351.087C228.778 351.012 228.266 351.087 227.829 351.298C227.392 351.509 226.774 351.946 225.99 352.594C225.629 352.881 225.297 353.077 225.011 353.197C224.724 353.303 224.302 353.272 223.76 353.092C223.217 352.911 222.494 352.564 221.59 352.067C220.686 351.555 219.48 350.801 217.958 349.791C217.385 349.505 217.174 349.264 217.355 349.083C217.536 348.902 218.094 348.601 219.043 348.164C220.927 347.229 222.419 346.521 223.549 346.054C224.664 345.587 225.613 345.255 226.367 345.074C227.12 344.894 227.753 344.863 228.266 344.969C228.778 345.074 229.321 345.24 229.893 345.451C230.466 343.854 230.255 342.377 229.245 341.006C228.311 341.367 227.497 341.699 226.804 341.985C226.111 342.271 225.116 342.739 223.82 343.402C222.886 343.763 221.831 343.884 220.671 343.778C219.51 343.673 218.214 343.221 216.767 342.422C214.447 341.186 213.211 340.267 213.03 339.649C212.849 339.031 213.482 338.655 214.929 338.504C216.089 338.429 217.129 338.323 218.079 338.173C219.013 338.022 219.962 337.826 220.897 337.57C221.831 337.314 222.871 336.997 223.986 336.59C225.101 336.198 226.457 335.701 228.055 335.128C227.693 334.842 227.452 334.571 227.346 334.315C227.241 334.058 227.151 333.576 227.075 332.853C227 332.13 226.789 331.828 226.427 331.934C226.066 332.039 225.161 332.823 223.715 334.269C222.193 335.354 221.183 334.782 220.671 332.536C220.52 331.964 220.46 331.451 220.46 331.014C220.46 330.577 220.565 330.125 220.791 329.658C221.002 329.191 221.394 328.663 221.936 328.091C222.479 327.518 223.263 326.75 224.272 325.815C226.005 324.007 226.864 322.575 226.819 321.535C226.789 320.481 226.337 319.667 225.463 319.094C224.453 318.446 224.408 317.858 225.357 317.361C221.017 311.725 220.655 308.168 224.272 306.722C225.071 306.36 225.975 305.697 226.985 304.717C227.994 303.738 229.23 302.532 230.677 301.086C231.611 300.076 232.32 299.232 232.787 298.539C233.254 297.846 233.51 297.243 233.54 296.7C233.57 296.158 233.389 295.676 232.998 295.239C232.606 294.802 232.003 294.304 231.204 293.717C230.632 293.355 230.421 293.084 230.602 292.903C230.782 292.722 231.596 292.662 233.043 292.737C235.002 292.812 236.584 293.264 237.82 294.093C239.056 294.922 239.915 295.932 240.427 297.137C240.924 298.328 241.06 299.639 240.804 301.04C240.548 302.457 239.885 303.768 238.8 305.004C240.246 305.215 241.587 305.803 242.808 306.737C243.019 306.888 243.305 306.857 243.682 306.677C244.044 306.496 244.737 305.712 245.747 304.341C248.429 300.649 250.629 297.68 252.362 295.45C254.095 293.204 255.512 291.381 256.597 289.964C257.682 288.548 258.571 287.463 259.249 286.709C259.943 285.956 260.636 285.247 261.359 284.599C263.183 282.911 264.765 282.083 266.136 282.007C267.508 281.932 269.105 282.444 270.913 283.529C272.496 284.464 273.475 285.488 273.852 286.573C274.214 287.658 274.168 288.532 273.746 289.18C272.812 290.266 272.239 291.019 272.059 291.456C271.878 291.893 271.742 292.436 271.682 293.084C276.173 293.958 278.704 295.254 279.277 296.987C279.85 298.72 278.704 300.392 275.811 301.975C274.801 302.547 273.309 303.301 271.365 304.205C269.406 305.109 267.538 305.953 265.729 306.752C264.494 307.264 263.303 307.747 262.143 308.214C260.982 308.681 259.973 309.133 259.099 309.57C262.565 310.369 265.081 311.846 266.634 314.016C268.186 316.186 268.969 319.109 268.969 322.801C270.627 322.44 272.013 322.44 273.083 322.801C274.168 323.163 275.103 323.675 275.901 324.323C276.263 324.685 276.504 325.047 276.61 325.408C276.715 325.77 276.549 326.117 276.128 326.433C275.69 326.765 274.952 327.066 273.897 327.352C272.842 327.639 271.381 327.925 269.497 328.226C270.069 330.969 270.748 333.923 271.501 337.072C272.255 340.222 273.038 343.161 273.837 345.918C274.41 344.11 274.862 342.663 275.193 341.578C275.525 340.493 275.736 339.604 275.841 338.926C275.947 338.233 275.932 337.675 275.781 337.238C275.63 336.801 275.419 336.304 275.133 335.716C274.485 334.345 274.394 333.395 274.862 332.898C275.329 332.386 276.323 332.461 277.845 333.109C280.814 334.48 282.653 336.018 283.376 337.72C284.099 339.423 284.099 341.036 283.376 342.543C283.165 343.115 282.803 343.929 282.291 344.984C281.779 346.039 281.206 347.169 280.558 348.405C279.91 349.641 279.232 350.861 278.554 352.097C277.861 353.333 277.197 354.418 276.549 355.352C277.348 357.522 278.102 359.406 278.825 360.988C279.548 362.586 280.302 364.062 281.101 365.434C281.899 366.805 282.728 368.071 283.602 369.231C284.476 370.392 285.441 371.612 286.541 372.924C287.264 373.798 287.972 373.828 288.651 373.029C289.344 372.23 290.082 370.03 290.881 366.413C291.243 364.53 291.589 363.445 291.906 363.158C292.237 362.872 292.433 362.947 292.508 363.369C292.795 365.389 293.036 367.498 293.217 369.668C293.398 371.838 293.518 373.903 293.593 375.847C293.669 377.806 293.699 379.554 293.699 381.106V384.738V384.768ZM229.366 360.129C229.366 359.692 229.336 359.406 229.26 359.255C227.603 359.542 226.035 360.25 224.589 361.365C223.142 362.48 222.208 363.52 221.771 364.454C221.334 365.976 221.921 366.157 223.504 364.997C224.302 364.424 225.222 363.656 226.277 362.721C227.316 361.787 228.356 360.913 229.366 360.114V360.129ZM242.266 315.221C241.392 313.925 240.789 312.72 240.427 311.635C240.065 310.474 239.342 309.917 238.257 309.947C237.172 309.977 235.364 310.941 232.832 312.825C231.822 313.548 231.099 314.181 230.662 314.724C230.225 315.266 229.728 316.11 229.14 317.271C231.882 318.205 233.465 319.29 233.857 320.526C234.248 321.761 233.977 322.877 233.043 323.886C232.47 324.534 231.943 325.182 231.476 325.845C231.008 326.493 230.376 327.443 229.577 328.663C230.014 329.387 230.481 329.628 230.993 329.372C231.491 329.116 232.591 328.015 234.248 326.056C234.896 325.333 235.499 324.61 236.042 323.886C236.584 323.163 237.157 322.379 237.775 321.55C238.393 320.722 239.056 319.772 239.779 318.732C240.502 317.678 241.331 316.502 242.281 315.206L242.266 315.221ZM243.034 328.347C242.386 328.633 241.753 328.543 241.135 328.076C240.518 327.609 240.05 326.976 239.719 326.177C239.387 325.378 239.327 324.489 239.508 323.525C239.689 322.545 240.216 321.731 241.075 321.083C242.371 320.074 243.049 319.35 243.079 318.913C243.11 318.476 242.883 318.295 242.371 318.371C242.009 318.446 241.407 318.883 240.578 319.667C239.749 320.465 238.965 321.475 238.242 322.711C237.805 323.585 237.338 324.519 236.825 325.529C236.313 326.539 235.831 327.533 235.364 328.513C234.896 329.492 234.459 330.381 234.068 331.165C233.676 331.964 233.329 332.582 233.043 333.004C234.414 332.567 235.695 332.16 236.901 331.753C238.091 331.361 239.417 330.969 240.864 330.607C242.522 329.311 243.456 328.513 243.637 328.226C243.818 327.94 243.622 327.97 243.034 328.332V328.347ZM242.386 346.566C242.386 344.547 242.326 342.889 242.22 341.623C242.115 340.358 241.964 339.348 241.783 338.579C241.603 337.826 241.361 337.298 241.075 337.012C240.789 336.726 240.427 336.545 239.99 336.47C238.83 336.831 237.76 337.193 236.795 337.555C235.816 337.916 234.927 338.278 234.143 338.64C235.379 340.086 236.192 341.382 236.584 342.543C236.976 343.703 237.036 344.864 236.75 346.009C236.675 346.37 236.584 346.913 236.479 347.636C236.373 348.36 236.268 349.113 236.147 349.912C236.042 350.711 235.951 351.449 235.876 352.142C235.801 352.835 235.771 353.288 235.771 353.499C236.856 352.263 238.031 351.027 239.297 349.761C240.563 348.495 241.587 347.425 242.386 346.566ZM242.266 348.088C241.618 349.249 240.939 350.424 240.261 351.615C239.568 352.805 238.905 353.936 238.257 354.975C237.609 356.03 237.006 356.965 236.464 357.793C235.921 358.622 235.499 359.255 235.213 359.692C235.062 362.586 235.017 364.861 235.047 366.534C235.077 368.192 235.168 369.427 235.318 370.226L241.075 368.598C241.226 368.026 241.346 367.302 241.452 366.428C241.557 365.554 241.648 364.379 241.723 362.902C241.798 361.425 241.874 359.481 241.934 357.1C242.009 354.719 242.115 351.705 242.266 348.088ZM265.066 284.509C264.268 284.072 263.559 284.027 262.956 284.343C262.339 284.675 261.344 285.699 259.973 287.432C257.953 290.115 256.19 292.858 254.713 295.676C253.236 298.494 252.197 300.95 251.624 303.06C251.187 304.868 250.569 306.571 249.785 308.153C248.987 309.751 247.977 311.695 246.741 314.016C247.615 314.227 248.218 314.679 248.58 315.372C248.942 316.065 249.273 317.316 249.559 319.109C251.217 318.597 252.393 318.401 253.086 318.506C253.779 318.612 254.517 318.928 255.316 319.426C256.687 320.224 257.411 321.113 257.486 322.078C257.561 323.057 257.019 323.826 255.859 324.414C255.286 324.775 254.879 325.077 254.668 325.333C254.457 325.589 254.261 325.891 254.126 326.252C255.572 325.815 256.944 325.438 258.255 325.107C259.551 324.775 260.817 324.474 262.052 324.188C261.691 322.093 261.329 320.571 260.967 319.637C260.606 318.702 260.093 317.798 259.445 316.924C258.797 316.05 258.014 315.146 257.109 314.211C256.205 313.277 255.467 312.403 254.879 311.604C252.995 312.539 251.956 312.946 251.729 312.795C251.518 312.644 252.423 311.966 254.442 310.73C253.93 309.796 253.794 309.178 254.005 308.892C254.216 308.605 255.12 308.636 256.718 308.997C257.29 308.5 257.772 308.093 258.134 307.807C258.496 307.52 258.963 307.189 259.551 306.827C256.808 304.145 255.241 302.11 254.879 300.694C254.517 299.277 255.135 298.177 256.718 297.378C257.727 296.806 258.541 296.309 259.159 295.917C259.777 295.525 260.319 295.118 260.786 294.726C261.254 294.334 261.706 293.882 262.143 293.37C262.58 292.858 263.122 292.179 263.77 291.305C264.644 290.009 265.307 288.954 265.775 288.156C266.242 287.357 266.498 286.724 266.528 286.257C266.558 285.79 266.453 285.428 266.212 285.172C265.955 284.916 265.579 284.69 265.066 284.464V284.509ZM270.265 353.951C270.115 353.438 269.753 352.172 269.18 350.153C268.608 348.134 267.945 345.828 267.236 343.266C266.513 340.704 265.79 338.142 265.066 335.611C264.343 333.079 263.755 331.014 263.333 329.432C260.44 330.005 257.742 330.668 255.241 331.391C252.739 332.114 250.117 332.988 247.374 333.998C249.107 335.234 250.057 336.635 250.192 338.233C252.649 336.349 254.713 335.279 256.371 335.038C258.029 334.782 259.551 335.128 260.937 336.063C262.158 336.861 262.866 337.585 263.047 338.233C263.228 338.881 263.047 339.393 262.565 339.755C261.766 340.117 260.892 340.569 259.958 341.111C259.023 341.654 258.044 342.211 257.034 342.799C255 344.17 253.704 344.863 253.131 344.863C252.558 344.863 252.588 344.472 253.236 343.673C253.809 343.1 253.839 342.754 253.297 342.648C252.754 342.543 251.473 342.919 249.439 343.794C249.228 344.803 249.077 345.632 249.002 346.295C248.926 346.943 248.851 347.591 248.791 348.254C250.599 347.32 252.136 346.597 253.402 346.084C254.668 345.572 255.768 345.255 256.718 345.105C257.652 344.954 258.496 344.999 259.219 345.21C259.943 345.421 260.636 345.828 261.284 346.401C262.293 347.124 262.881 347.862 263.017 348.631C263.152 349.4 262.941 349.806 262.369 349.882C261.856 349.882 261.193 350.048 260.364 350.364C259.536 350.696 258.631 351.117 257.652 351.66C256.672 352.203 255.678 352.851 254.668 353.619C253.658 354.373 252.754 355.156 251.956 355.955C251.021 357.04 251.262 357.402 252.709 357.04C255.391 356.241 257.381 355.955 258.677 356.166C259.973 356.377 261.133 356.919 262.143 357.793C262.791 358.366 263.032 359.074 262.851 359.903C262.67 360.732 262.007 361.259 260.847 361.47C259.912 361.621 259.068 361.847 258.345 362.179C257.622 362.51 256.567 363.023 255.196 363.746C256.205 363.957 257.094 364.213 257.848 364.499C258.601 364.786 259.566 365.223 260.726 365.795C262.746 364.56 264.448 363.083 265.82 361.35C267.191 359.617 268.668 357.16 270.265 353.966V353.951ZM250.946 361.44C250.433 361.516 249.861 361.229 249.213 360.566C248.565 359.918 248.128 359.406 247.917 359.044C247.766 359.843 247.676 360.838 247.646 362.028C247.615 363.219 247.63 364.138 247.706 364.801C250.027 363.565 251.292 362.661 251.503 362.088C251.714 361.516 251.534 361.29 250.961 361.44H250.946ZM251.82 352.971C252.182 352.609 252.091 352.218 251.549 351.781C251.006 351.344 250.011 351.087 248.565 351.027C248.414 351.6 248.294 352.534 248.188 353.8C248.083 355.066 248.022 356.03 248.022 356.678C248.535 356.106 249.047 355.533 249.59 354.99C250.132 354.448 250.87 353.785 251.82 352.986V352.971ZM254.321 364.153C253.809 364.364 253.131 364.695 252.257 365.132C251.383 365.569 250.705 365.931 250.192 366.217C250.991 366.067 251.714 365.961 252.362 365.886C253.01 365.811 253.523 365.78 253.884 365.78C255.105 365.78 255.256 365.238 254.321 364.153ZM286.752 319.23C286.601 320.465 286.3 321.189 285.832 321.4C285.365 321.611 284.657 321.611 283.723 321.4C282.713 321.113 281.312 320.872 279.548 320.691C277.77 320.511 276.384 320.496 275.374 320.631C274.801 320.707 274.5 320.601 274.5 320.3C274.5 319.998 274.892 319.652 275.69 319.215C276.203 319.004 276.565 318.687 276.776 318.295C276.986 317.904 276.971 317.406 276.715 316.834C276.459 316.261 275.901 315.553 275.027 314.724C274.153 313.895 272.887 312.931 271.23 311.846C270.657 311.333 270.552 310.851 270.959 310.384C271.35 309.917 272.707 309.645 275.027 309.57C277.408 309.495 279.398 309.736 280.995 310.278C282.577 310.821 283.828 311.559 284.732 312.509C285.637 313.443 286.239 314.513 286.526 315.703C286.812 316.894 286.887 318.069 286.737 319.23H286.752Z" fill="black"/>
</svg>
